M48
; DRILL file {KiCad 9.0.2} date 2025-12-22T22:31:39+0200
; FORMAT={-:-/ absolute / metric / decimal}
; #@! TF.CreationDate,2025-12-22T22:31:39+02:00
; #@! TF.GenerationSoftware,Kicad,Pcbnew,9.0.2
; #@! TF.FileFunction,Plated,1,2,PTH
FMAT,2
METRIC
; #@! TA.AperFunction,Plated,PTH,ViaDrill
T1C0.300
; #@! TA.AperFunction,Plated,PTH,ComponentDrill
T2C1.000
; #@! TA.AperFunction,Plated,PTH,ComponentDrill
T3C1.040
; #@! TA.AperFunction,Plated,PTH,ComponentDrill
T4C1.400
; #@! TA.AperFunction,Plated,PTH,ComponentDrill
T5C1.500
%
G90
G05
T1
X41.5Y-101.0
X45.0Y-115.0
X62.85Y-116.31
X67.4Y-51.6
X75.9Y-149.0
X76.5Y-92.5
X78.3Y-45.8
X79.0Y-115.6
X80.5Y-85.0
X83.5Y-102.4
X87.0Y-106.6
X90.8Y-153.7
X91.2Y-158.0
X91.7Y-136.4
X96.088Y-132.969
X98.7Y-151.1
X99.2Y-79.4
X101.2Y-120.1
X102.3Y-68.1
X104.1Y-44.3
X107.2Y-144.9
X111.3Y-42.7
X112.6Y-145.3
X113.0Y-76.0
X115.6Y-142.9
X119.3Y-57.4
X120.5Y-108.5
X120.879Y-139.598
X121.387Y-118.085
X125.4Y-70.0
X126.771Y-125.578
X126.9Y-151.3
X127.9Y-76.6
X129.0Y-92.0
X129.2Y-136.4
X131.1Y-83.0
X131.1Y-135.0
X131.3Y-113.7
X131.6Y-148.8
X131.8Y-133.2
X132.6Y-131.4
X136.7Y-126.1
X138.6Y-111.6
X140.386Y-141.91
X140.4Y-60.9
X141.0Y-107.5
X141.9Y-80.0
X142.0Y-66.7
X146.5Y-122.6
X147.0Y-134.3
X149.8Y-112.4
X157.575Y-100.475
T2
X70.0Y-116.0
X72.2Y-114.73
X74.399Y-113.46
X76.599Y-112.19
X100.0Y-65.0
X100.0Y-67.54
X100.0Y-70.08
X100.0Y-72.62
X123.401Y-112.19
X125.601Y-113.46
X127.8Y-114.73
X130.0Y-116.0
X134.174Y-54.944
X135.148Y-144.195
X136.12Y-56.577
X137.094Y-142.562
X138.176Y-81.285
X140.126Y-84.07
T3
X53.706Y-68.449
X55.652Y-70.081
X57.598Y-71.714
X59.544Y-73.347
X61.489Y-74.979
X63.435Y-76.612
X63.553Y-56.869
X65.381Y-78.245
X65.499Y-58.502
X67.327Y-79.877
X67.445Y-60.134
X69.272Y-81.51
X69.391Y-61.767
X71.218Y-83.143
X71.336Y-63.4
X72.106Y-122.096
X72.106Y-147.496
X73.164Y-84.775
X73.282Y-65.032
X74.646Y-122.096
X74.646Y-147.496
X75.11Y-86.408
X75.228Y-66.665
X77.174Y-68.298
X77.186Y-122.096
X77.186Y-147.496
X79.119Y-69.931
X79.726Y-122.096
X79.726Y-147.496
X81.065Y-71.563
X82.266Y-122.096
X82.266Y-147.496
X83.011Y-73.196
X84.806Y-122.096
X84.806Y-147.496
X84.957Y-74.829
X87.346Y-122.096
X87.346Y-147.496
X89.886Y-122.096
X89.886Y-147.496
X92.426Y-122.096
X92.426Y-147.496
X94.966Y-122.096
X94.966Y-147.496
X97.506Y-122.096
X97.506Y-147.496
X100.046Y-122.096
X100.046Y-147.496
X102.586Y-122.096
X102.586Y-147.496
X105.126Y-122.096
X105.126Y-147.496
X107.666Y-122.096
X107.666Y-147.496
X110.206Y-122.096
X110.206Y-147.496
X112.746Y-122.096
X112.746Y-147.496
X115.286Y-122.096
X115.286Y-147.496
X117.826Y-122.096
X117.826Y-147.496
T4
X61.303Y-106.515
X68.0Y-103.0
X93.0Y-67.5
X99.8Y-155.2
X106.2Y-155.1
X112.6Y-154.802
X118.8Y-153.0
X151.0Y-119.0
X153.501Y-112.501
T5
X80.015Y-50.177
X80.703Y-58.047
X107.764Y-71.327
X111.585Y-55.345
X115.997Y-65.563
X136.254Y-78.541
X138.983Y-116.0
X142.277Y-87.142
X154.465Y-105.159
T2
G00X137.844Y-66.749
M15
G01X140.142Y-64.821
M16
G05
G00X141.701Y-71.345
M15
G01X143.999Y-69.417
M16
G05
G00X145.402Y-65.955
M15
G01X143.152Y-63.274
M16
G05
M30
