  0
SECTION
  2
HEADER
  9
$ANGBASE
  50
0.0
  9
$ANGDIR
  70
1
  9
$MEASUREMENT
  70
1
  0
ENDSEC
  0
SECTION
  2
TABLES
  0
TABLE
  2
LTYPE
  70
4
  0
LTYPE
  5
40F
  2
CONTINUOUS
  70
0
  3
Solid line
  72
65
  73
0
  40
0.0
  0
LTYPE
  5
410
  2
DASHDOT
 70
0
  3
Dash Dot ____ _ ____ _
 72
65
 73
4
 40
2.0
 49
1.25
 49
-0.25
 49
0.25
 49
-0.25
  0
LTYPE
  5
411
  2
DASHED
 70
0
  3
Dashed __ __ __ __ __
 72
65
 73
2
 40
0.75
 49
0.5
 49
-0.25
  0
LTYPE
  5
43B
  2
DOTTED
 70
0
  3
Dotted .  .  .  .
 72
65
 73
2
 40
0.2
 49
0.0
 49
-0.2
  0
ENDTAB
  0
TABLE
  2
STYLE
  70
4
  0
STYLE
  2
KICAD
  70
0
  40
0
  41
1
  42
1
  50
0
  71
0
  3
isocp.shx
  0
STYLE
  2
KICADB
  70
0
  40
0
  41
1
  42
1
  50
0
  71
0
  3
isocp.shx
  0
STYLE
  2
KICADI
  70
0
  40
0
  41
1
  42
1
  50
15
  71
0
  3
isocp.shx
  0
STYLE
  2
KICADBI
  70
0
  40
0
  41
1
  42
1
  50
15
  71
0
  3
isocp.shx
  0
ENDTAB
  0
TABLE
  2
LAYER
  70
1
  0
LAYER
  2
BLACK
  70
0
  62
7
  6
CONTINUOUS
  0
ENDTAB
  0
ENDSEC
  0
SECTION
  2
ENTITIES
0
CIRCLE
8
BLACK
10
100.
20
-100.
40
3.
0
CIRCLE
8
BLACK
10
100.
20
-100.
40
60.
0
LINE
8
BLACK
6
CONTINUOUS
10
43.5308670000000006
20
-108.1337199999999967
11
46.5308670000000006
21
-111.1337199999999967
0
LINE
8
BLACK
6
CONTINUOUS
10
46.5308670000000006
20
-108.1337199999999967
11
43.5308670000000006
21
-111.1337199999999967
0
LINE
8
BLACK
6
CONTINUOUS
10
46.8235139999999959
20
-76.8062809999999985
11
49.8235139999999959
21
-79.8062809999999985
0
LINE
8
BLACK
6
CONTINUOUS
10
49.8235139999999959
20
-76.8062809999999985
11
46.8235139999999959
21
-79.8062809999999985
0
LINE
8
BLACK
6
CONTINUOUS
10
42.5077679999999987
20
-163.2148379999999861
11
42.5077679999999987
21
-161.2148379999999861
0
LINE
8
BLACK
6
CONTINUOUS
10
42.5077679999999987
20
-161.2148379999999861
11
42.9839580000000012
21
-161.2148379999999861
0
LINE
8
BLACK
6
CONTINUOUS
10
42.9839580000000012
20
-161.2148379999999861
11
43.2696729999999974
21
-161.3100759999999809
0
LINE
8
BLACK
6
CONTINUOUS
10
43.2696729999999974
20
-161.3100759999999809
11
43.4601490000000013
21
-161.500551999999999
0
LINE
8
BLACK
6
CONTINUOUS
10
43.4601490000000013
20
-161.500551999999999
11
43.5553869999999961
21
-161.6910279999999887
0
LINE
8
BLACK
6
CONTINUOUS
10
43.5553869999999961
20
-161.6910279999999887
11
43.650624999999998
21
-162.0719799999999964
0
LINE
8
BLACK
6
CONTINUOUS
10
43.650624999999998
20
-162.0719799999999964
11
43.650624999999998
21
-162.3576950000000068
0
LINE
8
BLACK
6
CONTINUOUS
10
43.650624999999998
20
-162.3576950000000068
11
43.5553869999999961
21
-162.7386469999999861
0
LINE
8
BLACK
6
CONTINUOUS
10
43.5553869999999961
20
-162.7386469999999861
11
43.4601490000000013
21
-162.9291230000000041
0
LINE
8
BLACK
6
CONTINUOUS
10
43.4601490000000013
20
-162.9291230000000041
11
43.2696729999999974
21
-163.1195999999999913
0
LINE
8
BLACK
6
CONTINUOUS
10
43.2696729999999974
20
-163.1195999999999913
11
42.9839580000000012
21
-163.2148379999999861
0
LINE
8
BLACK
6
CONTINUOUS
10
42.9839580000000012
20
-163.2148379999999861
11
42.5077679999999987
21
-163.2148379999999861
0
LINE
8
BLACK
6
CONTINUOUS
10
44.5077679999999987
20
-163.2148379999999861
11
44.5077679999999987
21
-161.8815040000000067
0
LINE
8
BLACK
6
CONTINUOUS
10
44.5077679999999987
20
-162.2624569999999835
11
44.6030060000000006
21
-162.0719799999999964
0
LINE
8
BLACK
6
CONTINUOUS
10
44.6030060000000006
20
-162.0719799999999964
11
44.6982439999999954
21
-161.9767420000000016
0
LINE
8
BLACK
6
CONTINUOUS
10
44.6982439999999954
20
-161.9767420000000016
11
44.8887199999999993
21
-161.8815040000000067
0
LINE
8
BLACK
6
CONTINUOUS
10
44.8887199999999993
20
-161.8815040000000067
11
45.0791970000000006
21
-161.8815040000000067
0
LINE
8
BLACK
6
CONTINUOUS
10
45.7458629999999999
20
-163.2148379999999861
11
45.7458629999999999
21
-161.8815040000000067
0
LINE
8
BLACK
6
CONTINUOUS
10
45.7458629999999999
20
-161.2148379999999861
11
45.650624999999998
21
-161.3100759999999809
0
LINE
8
BLACK
6
CONTINUOUS
10
45.650624999999998
20
-161.3100759999999809
11
45.7458629999999999
21
-161.4053140000000042
0
LINE
8
BLACK
6
CONTINUOUS
10
45.7458629999999999
20
-161.4053140000000042
11
45.8411009999999948
21
-161.3100759999999809
0
LINE
8
BLACK
6
CONTINUOUS
10
45.8411009999999948
20
-161.3100759999999809
11
45.7458629999999999
21
-161.2148379999999861
0
LINE
8
BLACK
6
CONTINUOUS
10
45.7458629999999999
20
-161.2148379999999861
11
45.7458629999999999
21
-161.4053140000000042
0
LINE
8
BLACK
6
CONTINUOUS
10
46.9839580000000012
20
-163.2148379999999861
11
46.7934819999999974
21
-163.1195999999999913
0
LINE
8
BLACK
6
CONTINUOUS
10
46.7934819999999974
20
-163.1195999999999913
11
46.6982439999999954
21
-162.9291230000000041
0
LINE
8
BLACK
6
CONTINUOUS
10
46.6982439999999954
20
-162.9291230000000041
11
46.6982439999999954
21
-161.2148379999999861
0
LINE
8
BLACK
6
CONTINUOUS
10
48.0315769999999986
20
-163.2148379999999861
11
47.8411009999999948
21
-163.1195999999999913
0
LINE
8
BLACK
6
CONTINUOUS
10
47.8411009999999948
20
-163.1195999999999913
11
47.7458629999999999
21
-162.9291230000000041
0
LINE
8
BLACK
6
CONTINUOUS
10
47.7458629999999999
20
-162.9291230000000041
11
47.7458629999999999
21
-161.2148379999999861
0
LINE
8
BLACK
6
CONTINUOUS
10
50.3172919999999948
20
-163.2148379999999861
11
50.3172919999999948
21
-161.2148379999999861
0
LINE
8
BLACK
6
CONTINUOUS
10
50.3172919999999948
20
-161.2148379999999861
11
50.9839589999999987
21
-162.6434089999999912
0
LINE
8
BLACK
6
CONTINUOUS
10
50.9839589999999987
20
-162.6434089999999912
11
51.650624999999998
21
-161.2148379999999861
0
LINE
8
BLACK
6
CONTINUOUS
10
51.650624999999998
20
-161.2148379999999861
11
51.650624999999998
21
-163.2148379999999861
0
LINE
8
BLACK
6
CONTINUOUS
10
53.4601489999999941
20
-163.2148379999999861
11
53.4601489999999941
21
-162.1672189999999887
0
LINE
8
BLACK
6
CONTINUOUS
10
53.4601489999999941
20
-162.1672189999999887
11
53.3649109999999993
21
-161.9767420000000016
0
LINE
8
BLACK
6
CONTINUOUS
10
53.3649109999999993
20
-161.9767420000000016
11
53.1744349999999955
21
-161.8815040000000067
0
LINE
8
BLACK
6
CONTINUOUS
10
53.1744349999999955
20
-161.8815040000000067
11
52.7934819999999974
21
-161.8815040000000067
0
LINE
8
BLACK
6
CONTINUOUS
10
52.7934819999999974
20
-161.8815040000000067
11
52.6030060000000006
21
-161.9767420000000016
0
LINE
8
BLACK
6
CONTINUOUS
10
53.4601489999999941
20
-163.1195999999999913
11
53.2696729999999974
21
-163.2148379999999861
0
LINE
8
BLACK
6
CONTINUOUS
10
53.2696729999999974
20
-163.2148379999999861
11
52.7934819999999974
21
-163.2148379999999861
0
LINE
8
BLACK
6
CONTINUOUS
10
52.7934819999999974
20
-163.2148379999999861
11
52.6030060000000006
21
-163.1195999999999913
0
LINE
8
BLACK
6
CONTINUOUS
10
52.6030060000000006
20
-163.1195999999999913
11
52.5077679999999987
21
-162.9291230000000041
0
LINE
8
BLACK
6
CONTINUOUS
10
52.5077679999999987
20
-162.9291230000000041
11
52.5077679999999987
21
-162.7386469999999861
0
LINE
8
BLACK
6
CONTINUOUS
10
52.5077679999999987
20
-162.7386469999999861
11
52.6030060000000006
21
-162.5481709999999964
0
LINE
8
BLACK
6
CONTINUOUS
10
52.6030060000000006
20
-162.5481709999999964
11
52.7934819999999974
21
-162.4529330000000016
0
LINE
8
BLACK
6
CONTINUOUS
10
52.7934819999999974
20
-162.4529330000000016
11
53.2696729999999974
21
-162.4529330000000016
0
LINE
8
BLACK
6
CONTINUOUS
10
53.2696729999999974
20
-162.4529330000000016
11
53.4601489999999941
21
-162.3576950000000068
0
LINE
8
BLACK
6
CONTINUOUS
10
54.4125299999999967
20
-161.8815040000000067
11
54.4125299999999967
21
-163.8815040000000067
0
LINE
8
BLACK
6
CONTINUOUS
10
54.4125299999999967
20
-161.9767420000000016
11
54.6030060000000006
21
-161.8815040000000067
0
LINE
8
BLACK
6
CONTINUOUS
10
54.6030060000000006
20
-161.8815040000000067
11
54.9839589999999987
21
-161.8815040000000067
0
LINE
8
BLACK
6
CONTINUOUS
10
54.9839589999999987
20
-161.8815040000000067
11
55.1744349999999955
21
-161.9767420000000016
0
LINE
8
BLACK
6
CONTINUOUS
10
55.1744349999999955
20
-161.9767420000000016
11
55.2696729999999974
21
-162.0719799999999964
0
LINE
8
BLACK
6
CONTINUOUS
10
55.2696729999999974
20
-162.0719799999999964
11
55.3649109999999993
21
-162.2624569999999835
0
LINE
8
BLACK
6
CONTINUOUS
10
55.3649109999999993
20
-162.2624569999999835
11
55.3649109999999993
21
-162.8338849999999809
0
LINE
8
BLACK
6
CONTINUOUS
10
55.3649109999999993
20
-162.8338849999999809
11
55.2696729999999974
21
-163.024360999999999
0
LINE
8
BLACK
6
CONTINUOUS
10
55.2696729999999974
20
-163.024360999999999
11
55.1744349999999955
21
-163.1195999999999913
0
LINE
8
BLACK
6
CONTINUOUS
10
55.1744349999999955
20
-163.1195999999999913
11
54.9839589999999987
21
-163.2148379999999861
0
LINE
8
BLACK
6
CONTINUOUS
10
54.9839589999999987
20
-163.2148379999999861
11
54.6030060000000006
21
-163.2148379999999861
0
LINE
8
BLACK
6
CONTINUOUS
10
54.6030060000000006
20
-163.2148379999999861
11
54.4125299999999967
21
-163.1195999999999913
0
LINE
8
BLACK
6
CONTINUOUS
10
56.222054
20
-163.024360999999999
11
56.3172919999999948
21
-163.1195999999999913
0
LINE
8
BLACK
6
CONTINUOUS
10
56.3172919999999948
20
-163.1195999999999913
11
56.222054
21
-163.2148379999999861
0
LINE
8
BLACK
6
CONTINUOUS
10
56.222054
20
-163.2148379999999861
11
56.126815999999998
21
-163.1195999999999913
0
LINE
8
BLACK
6
CONTINUOUS
10
56.126815999999998
20
-163.1195999999999913
11
56.222054
21
-163.024360999999999
0
LINE
8
BLACK
6
CONTINUOUS
10
56.222054
20
-163.024360999999999
11
56.222054
21
-163.2148379999999861
0
LINE
8
BLACK
6
CONTINUOUS
10
56.222054
20
-161.9767420000000016
11
56.3172919999999948
21
-162.0719799999999964
0
LINE
8
BLACK
6
CONTINUOUS
10
56.3172919999999948
20
-162.0719799999999964
11
56.222054
21
-162.1672189999999887
0
LINE
8
BLACK
6
CONTINUOUS
10
56.222054
20
-162.1672189999999887
11
56.126815999999998
21
-162.0719799999999964
0
LINE
8
BLACK
6
CONTINUOUS
10
56.126815999999998
20
-162.0719799999999964
11
56.222054
21
-161.9767420000000016
0
LINE
8
BLACK
6
CONTINUOUS
10
56.222054
20
-161.9767420000000016
11
56.222054
21
-162.1672189999999887
0
LINE
8
BLACK
6
CONTINUOUS
10
37.8999999999999986
20
-165.5
11
39.8999999999999986
21
-167.5
0
LINE
8
BLACK
6
CONTINUOUS
10
39.8999999999999986
20
-165.5
11
37.8999999999999986
21
-167.5
0
LINE
8
BLACK
6
CONTINUOUS
10
42.3172919999999948
20
-165.4148380000000031
11
43.5553869999999961
21
-165.4148380000000031
0
LINE
8
BLACK
6
CONTINUOUS
10
43.5553869999999961
20
-165.4148380000000031
11
42.8887199999999993
21
-166.1767419999999902
0
LINE
8
BLACK
6
CONTINUOUS
10
42.8887199999999993
20
-166.1767419999999902
11
43.1744349999999955
21
-166.1767419999999902
0
LINE
8
BLACK
6
CONTINUOUS
10
43.1744349999999955
20
-166.1767419999999902
11
43.3649109999999993
21
-166.271979999999985
0
LINE
8
BLACK
6
CONTINUOUS
10
43.3649109999999993
20
-166.271979999999985
11
43.4601490000000013
21
-166.3672190000000057
0
LINE
8
BLACK
6
CONTINUOUS
10
43.4601490000000013
20
-166.3672190000000057
11
43.5553869999999961
21
-166.5576949999999954
0
LINE
8
BLACK
6
CONTINUOUS
10
43.5553869999999961
20
-166.5576949999999954
11
43.5553869999999961
21
-167.0338849999999979
0
LINE
8
BLACK
6
CONTINUOUS
10
43.5553869999999961
20
-167.0338849999999979
11
43.4601490000000013
21
-167.2243609999999876
0
LINE
8
BLACK
6
CONTINUOUS
10
43.4601490000000013
20
-167.2243609999999876
11
43.3649109999999993
21
-167.3195999999999799
0
LINE
8
BLACK
6
CONTINUOUS
10
43.3649109999999993
20
-167.3195999999999799
11
43.1744349999999955
21
-167.4148380000000031
0
LINE
8
BLACK
6
CONTINUOUS
10
43.1744349999999955
20
-167.4148380000000031
11
42.6030060000000006
21
-167.4148380000000031
0
LINE
8
BLACK
6
CONTINUOUS
10
42.6030060000000006
20
-167.4148380000000031
11
42.4125299999999967
21
-167.3195999999999799
0
LINE
8
BLACK
6
CONTINUOUS
10
42.4125299999999967
20
-167.3195999999999799
11
42.3172919999999948
21
-167.2243609999999876
0
LINE
8
BLACK
6
CONTINUOUS
10
44.4125299999999967
20
-167.2243609999999876
11
44.5077679999999987
21
-167.3195999999999799
0
LINE
8
BLACK
6
CONTINUOUS
10
44.5077679999999987
20
-167.3195999999999799
11
44.4125299999999967
21
-167.4148380000000031
0
LINE
8
BLACK
6
CONTINUOUS
10
44.4125299999999967
20
-167.4148380000000031
11
44.3172919999999948
21
-167.3195999999999799
0
LINE
8
BLACK
6
CONTINUOUS
10
44.3172919999999948
20
-167.3195999999999799
11
44.4125299999999967
21
-167.2243609999999876
0
LINE
8
BLACK
6
CONTINUOUS
10
44.4125299999999967
20
-167.2243609999999876
11
44.4125299999999967
21
-167.4148380000000031
0
LINE
8
BLACK
6
CONTINUOUS
10
45.7458629999999999
20
-165.4148380000000031
11
45.9363400000000013
21
-165.4148380000000031
0
LINE
8
BLACK
6
CONTINUOUS
10
45.9363400000000013
20
-165.4148380000000031
11
46.126815999999998
21
-165.510075999999998
0
LINE
8
BLACK
6
CONTINUOUS
10
46.126815999999998
20
-165.510075999999998
11
46.222054
21
-165.6053139999999928
0
LINE
8
BLACK
6
CONTINUOUS
10
46.222054
20
-165.6053139999999928
11
46.3172919999999948
21
-165.7957899999999825
0
LINE
8
BLACK
6
CONTINUOUS
10
46.3172919999999948
20
-165.7957899999999825
11
46.4125299999999967
21
-166.1767419999999902
0
LINE
8
BLACK
6
CONTINUOUS
10
46.4125299999999967
20
-166.1767419999999902
11
46.4125299999999967
21
-166.6529329999999902
0
LINE
8
BLACK
6
CONTINUOUS
10
46.4125299999999967
20
-166.6529329999999902
11
46.3172919999999948
21
-167.0338849999999979
0
LINE
8
BLACK
6
CONTINUOUS
10
46.3172919999999948
20
-167.0338849999999979
11
46.222054
21
-167.2243609999999876
0
LINE
8
BLACK
6
CONTINUOUS
10
46.222054
20
-167.2243609999999876
11
46.126815999999998
21
-167.3195999999999799
0
LINE
8
BLACK
6
CONTINUOUS
10
46.126815999999998
20
-167.3195999999999799
11
45.9363400000000013
21
-167.4148380000000031
0
LINE
8
BLACK
6
CONTINUOUS
10
45.9363400000000013
20
-167.4148380000000031
11
45.7458629999999999
21
-167.4148380000000031
0
LINE
8
BLACK
6
CONTINUOUS
10
45.7458629999999999
20
-167.4148380000000031
11
45.5553869999999961
21
-167.3195999999999799
0
LINE
8
BLACK
6
CONTINUOUS
10
45.5553869999999961
20
-167.3195999999999799
11
45.4601490000000013
21
-167.2243609999999876
0
LINE
8
BLACK
6
CONTINUOUS
10
45.4601490000000013
20
-167.2243609999999876
11
45.3649109999999993
21
-167.0338849999999979
0
LINE
8
BLACK
6
CONTINUOUS
10
45.3649109999999993
20
-167.0338849999999979
11
45.2696729999999974
21
-166.6529329999999902
0
LINE
8
BLACK
6
CONTINUOUS
10
45.2696729999999974
20
-166.6529329999999902
11
45.2696729999999974
21
-166.1767419999999902
0
LINE
8
BLACK
6
CONTINUOUS
10
45.2696729999999974
20
-166.1767419999999902
11
45.3649109999999993
21
-165.7957899999999825
0
LINE
8
BLACK
6
CONTINUOUS
10
45.3649109999999993
20
-165.7957899999999825
11
45.4601490000000013
21
-165.6053139999999928
0
LINE
8
BLACK
6
CONTINUOUS
10
45.4601490000000013
20
-165.6053139999999928
11
45.5553869999999961
21
-165.510075999999998
0
LINE
8
BLACK
6
CONTINUOUS
10
45.5553869999999961
20
-165.510075999999998
11
45.7458629999999999
21
-165.4148380000000031
0
LINE
8
BLACK
6
CONTINUOUS
10
47.650624999999998
20
-165.4148380000000031
11
47.8411019999999994
21
-165.4148380000000031
0
LINE
8
BLACK
6
CONTINUOUS
10
47.8411019999999994
20
-165.4148380000000031
11
48.0315779999999961
21
-165.510075999999998
0
LINE
8
BLACK
6
CONTINUOUS
10
48.0315779999999961
20
-165.510075999999998
11
48.126815999999998
21
-165.6053139999999928
0
LINE
8
BLACK
6
CONTINUOUS
10
48.126815999999998
20
-165.6053139999999928
11
48.222054
21
-165.7957899999999825
0
LINE
8
BLACK
6
CONTINUOUS
10
48.222054
20
-165.7957899999999825
11
48.3172919999999948
21
-166.1767419999999902
0
LINE
8
BLACK
6
CONTINUOUS
10
48.3172919999999948
20
-166.1767419999999902
11
48.3172919999999948
21
-166.6529329999999902
0
LINE
8
BLACK
6
CONTINUOUS
10
48.3172919999999948
20
-166.6529329999999902
11
48.222054
21
-167.0338849999999979
0
LINE
8
BLACK
6
CONTINUOUS
10
48.222054
20
-167.0338849999999979
11
48.126815999999998
21
-167.2243609999999876
0
LINE
8
BLACK
6
CONTINUOUS
10
48.126815999999998
20
-167.2243609999999876
11
48.0315779999999961
21
-167.3195999999999799
0
LINE
8
BLACK
6
CONTINUOUS
10
48.0315779999999961
20
-167.3195999999999799
11
47.8411019999999994
21
-167.4148380000000031
0
LINE
8
BLACK
6
CONTINUOUS
10
47.8411019999999994
20
-167.4148380000000031
11
47.650624999999998
21
-167.4148380000000031
0
LINE
8
BLACK
6
CONTINUOUS
10
47.650624999999998
20
-167.4148380000000031
11
47.4601490000000013
21
-167.3195999999999799
0
LINE
8
BLACK
6
CONTINUOUS
10
47.4601490000000013
20
-167.3195999999999799
11
47.3649109999999993
21
-167.2243609999999876
0
LINE
8
BLACK
6
CONTINUOUS
10
47.3649109999999993
20
-167.2243609999999876
11
47.2696729999999974
21
-167.0338849999999979
0
LINE
8
BLACK
6
CONTINUOUS
10
47.2696729999999974
20
-167.0338849999999979
11
47.1744349999999955
21
-166.6529329999999902
0
LINE
8
BLACK
6
CONTINUOUS
10
47.1744349999999955
20
-166.6529329999999902
11
47.1744349999999955
21
-166.1767419999999902
0
LINE
8
BLACK
6
CONTINUOUS
10
47.1744349999999955
20
-166.1767419999999902
11
47.2696729999999974
21
-165.7957899999999825
0
LINE
8
BLACK
6
CONTINUOUS
10
47.2696729999999974
20
-165.7957899999999825
11
47.3649109999999993
21
-165.6053139999999928
0
LINE
8
BLACK
6
CONTINUOUS
10
47.3649109999999993
20
-165.6053139999999928
11
47.4601490000000013
21
-165.510075999999998
0
LINE
8
BLACK
6
CONTINUOUS
10
47.4601490000000013
20
-165.510075999999998
11
47.650624999999998
21
-165.4148380000000031
0
LINE
8
BLACK
6
CONTINUOUS
10
49.5553869999999961
20
-165.4148380000000031
11
49.7458639999999974
21
-165.4148380000000031
0
LINE
8
BLACK
6
CONTINUOUS
10
49.7458639999999974
20
-165.4148380000000031
11
49.9363400000000013
21
-165.510075999999998
0
LINE
8
BLACK
6
CONTINUOUS
10
49.9363400000000013
20
-165.510075999999998
11
50.0315779999999961
21
-165.6053139999999928
0
LINE
8
BLACK
6
CONTINUOUS
10
50.0315779999999961
20
-165.6053139999999928
11
50.126815999999998
21
-165.7957899999999825
0
LINE
8
BLACK
6
CONTINUOUS
10
50.126815999999998
20
-165.7957899999999825
11
50.222054
21
-166.1767419999999902
0
LINE
8
BLACK
6
CONTINUOUS
10
50.222054
20
-166.1767419999999902
11
50.222054
21
-166.6529329999999902
0
LINE
8
BLACK
6
CONTINUOUS
10
50.222054
20
-166.6529329999999902
11
50.126815999999998
21
-167.0338849999999979
0
LINE
8
BLACK
6
CONTINUOUS
10
50.126815999999998
20
-167.0338849999999979
11
50.0315779999999961
21
-167.2243609999999876
0
LINE
8
BLACK
6
CONTINUOUS
10
50.0315779999999961
20
-167.2243609999999876
11
49.9363400000000013
21
-167.3195999999999799
0
LINE
8
BLACK
6
CONTINUOUS
10
49.9363400000000013
20
-167.3195999999999799
11
49.7458639999999974
21
-167.4148380000000031
0
LINE
8
BLACK
6
CONTINUOUS
10
49.7458639999999974
20
-167.4148380000000031
11
49.5553869999999961
21
-167.4148380000000031
0
LINE
8
BLACK
6
CONTINUOUS
10
49.5553869999999961
20
-167.4148380000000031
11
49.3649109999999993
21
-167.3195999999999799
0
LINE
8
BLACK
6
CONTINUOUS
10
49.3649109999999993
20
-167.3195999999999799
11
49.2696729999999974
21
-167.2243609999999876
0
LINE
8
BLACK
6
CONTINUOUS
10
49.2696729999999974
20
-167.2243609999999876
11
49.1744349999999955
21
-167.0338849999999979
0
LINE
8
BLACK
6
CONTINUOUS
10
49.1744349999999955
20
-167.0338849999999979
11
49.0791970000000006
21
-166.6529329999999902
0
LINE
8
BLACK
6
CONTINUOUS
10
49.0791970000000006
20
-166.6529329999999902
11
49.0791970000000006
21
-166.1767419999999902
0
LINE
8
BLACK
6
CONTINUOUS
10
49.0791970000000006
20
-166.1767419999999902
11
49.1744349999999955
21
-165.7957899999999825
0
LINE
8
BLACK
6
CONTINUOUS
10
49.1744349999999955
20
-165.7957899999999825
11
49.2696729999999974
21
-165.6053139999999928
0
LINE
8
BLACK
6
CONTINUOUS
10
49.2696729999999974
20
-165.6053139999999928
11
49.3649109999999993
21
-165.510075999999998
0
LINE
8
BLACK
6
CONTINUOUS
10
49.3649109999999993
20
-165.510075999999998
11
49.5553869999999961
21
-165.4148380000000031
0
LINE
8
BLACK
6
CONTINUOUS
10
51.0791970000000006
20
-167.4148380000000031
11
51.0791970000000006
21
-166.0815039999999954
0
LINE
8
BLACK
6
CONTINUOUS
10
51.0791970000000006
20
-166.271979999999985
11
51.1744349999999955
21
-166.1767419999999902
0
LINE
8
BLACK
6
CONTINUOUS
10
51.1744349999999955
20
-166.1767419999999902
11
51.3649109999999993
21
-166.0815039999999954
0
LINE
8
BLACK
6
CONTINUOUS
10
51.3649109999999993
20
-166.0815039999999954
11
51.6506259999999955
21
-166.0815039999999954
0
LINE
8
BLACK
6
CONTINUOUS
10
51.6506259999999955
20
-166.0815039999999954
11
51.8411019999999994
21
-166.1767419999999902
0
LINE
8
BLACK
6
CONTINUOUS
10
51.8411019999999994
20
-166.1767419999999902
11
51.9363399999999942
21
-166.3672190000000057
0
LINE
8
BLACK
6
CONTINUOUS
10
51.9363399999999942
20
-166.3672190000000057
11
51.9363399999999942
21
-167.4148380000000031
0
LINE
8
BLACK
6
CONTINUOUS
10
51.9363399999999942
20
-166.3672190000000057
11
52.0315779999999961
21
-166.1767419999999902
0
LINE
8
BLACK
6
CONTINUOUS
10
52.0315779999999961
20
-166.1767419999999902
11
52.222054
21
-166.0815039999999954
0
LINE
8
BLACK
6
CONTINUOUS
10
52.222054
20
-166.0815039999999954
11
52.5077679999999987
21
-166.0815039999999954
0
LINE
8
BLACK
6
CONTINUOUS
10
52.5077679999999987
20
-166.0815039999999954
11
52.698245
21
-166.1767419999999902
0
LINE
8
BLACK
6
CONTINUOUS
10
52.698245
20
-166.1767419999999902
11
52.7934829999999948
21
-166.3672190000000057
0
LINE
8
BLACK
6
CONTINUOUS
10
52.7934829999999948
20
-166.3672190000000057
11
52.7934829999999948
21
-167.4148380000000031
0
LINE
8
BLACK
6
CONTINUOUS
10
53.7458639999999974
20
-167.4148380000000031
11
53.7458639999999974
21
-166.0815039999999954
0
LINE
8
BLACK
6
CONTINUOUS
10
53.7458639999999974
20
-166.271979999999985
11
53.8411019999999994
21
-166.1767419999999902
0
LINE
8
BLACK
6
CONTINUOUS
10
53.8411019999999994
20
-166.1767419999999902
11
54.0315779999999961
21
-166.0815039999999954
0
LINE
8
BLACK
6
CONTINUOUS
10
54.0315779999999961
20
-166.0815039999999954
11
54.3172929999999994
21
-166.0815039999999954
0
LINE
8
BLACK
6
CONTINUOUS
10
54.3172929999999994
20
-166.0815039999999954
11
54.5077689999999961
21
-166.1767419999999902
0
LINE
8
BLACK
6
CONTINUOUS
10
54.5077689999999961
20
-166.1767419999999902
11
54.6030069999999981
21
-166.3672190000000057
0
LINE
8
BLACK
6
CONTINUOUS
10
54.6030069999999981
20
-166.3672190000000057
11
54.6030069999999981
21
-167.4148380000000031
0
LINE
8
BLACK
6
CONTINUOUS
10
54.6030069999999981
20
-166.3672190000000057
11
54.698245
21
-166.1767419999999902
0
LINE
8
BLACK
6
CONTINUOUS
10
54.698245
20
-166.1767419999999902
11
54.8887209999999968
21
-166.0815039999999954
0
LINE
8
BLACK
6
CONTINUOUS
10
54.8887209999999968
20
-166.0815039999999954
11
55.1744349999999955
21
-166.0815039999999954
0
LINE
8
BLACK
6
CONTINUOUS
10
55.1744349999999955
20
-166.0815039999999954
11
55.3649119999999968
21
-166.1767419999999902
0
LINE
8
BLACK
6
CONTINUOUS
10
55.3649119999999968
20
-166.1767419999999902
11
55.4601499999999987
21
-166.3672190000000057
0
LINE
8
BLACK
6
CONTINUOUS
10
55.4601499999999987
20
-166.3672190000000057
11
55.4601499999999987
21
-167.4148380000000031
0
LINE
8
BLACK
6
CONTINUOUS
10
59.3649119999999968
20
-165.3195999999999799
11
57.6506270000000001
21
-167.8910280000000057
0
LINE
8
BLACK
6
CONTINUOUS
10
61.9363409999999988
20
-165.4148380000000031
11
62.1268180000000001
21
-165.4148380000000031
0
LINE
8
BLACK
6
CONTINUOUS
10
62.1268180000000001
20
-165.4148380000000031
11
62.3172939999999969
21
-165.510075999999998
0
LINE
8
BLACK
6
CONTINUOUS
10
62.3172939999999969
20
-165.510075999999998
11
62.4125319999999988
21
-165.6053139999999928
0
LINE
8
BLACK
6
CONTINUOUS
10
62.4125319999999988
20
-165.6053139999999928
11
62.5077700000000007
21
-165.7957899999999825
0
LINE
8
BLACK
6
CONTINUOUS
10
62.5077700000000007
20
-165.7957899999999825
11
62.6030079999999955
21
-166.1767419999999902
0
LINE
8
BLACK
6
CONTINUOUS
10
62.6030079999999955
20
-166.1767419999999902
11
62.6030079999999955
21
-166.6529329999999902
0
LINE
8
BLACK
6
CONTINUOUS
10
62.6030079999999955
20
-166.6529329999999902
11
62.5077700000000007
21
-167.0338849999999979
0
LINE
8
BLACK
6
CONTINUOUS
10
62.5077700000000007
20
-167.0338849999999979
11
62.4125319999999988
21
-167.2243609999999876
0
LINE
8
BLACK
6
CONTINUOUS
10
62.4125319999999988
20
-167.2243609999999876
11
62.3172939999999969
21
-167.3195999999999799
0
LINE
8
BLACK
6
CONTINUOUS
10
62.3172939999999969
20
-167.3195999999999799
11
62.1268180000000001
21
-167.4148380000000031
0
LINE
8
BLACK
6
CONTINUOUS
10
62.1268180000000001
20
-167.4148380000000031
11
61.9363409999999988
21
-167.4148380000000031
0
LINE
8
BLACK
6
CONTINUOUS
10
61.9363409999999988
20
-167.4148380000000031
11
61.7458649999999949
21
-167.3195999999999799
0
LINE
8
BLACK
6
CONTINUOUS
10
61.7458649999999949
20
-167.3195999999999799
11
61.6506270000000001
21
-167.2243609999999876
0
LINE
8
BLACK
6
CONTINUOUS
10
61.6506270000000001
20
-167.2243609999999876
11
61.5553889999999981
21
-167.0338849999999979
0
LINE
8
BLACK
6
CONTINUOUS
10
61.5553889999999981
20
-167.0338849999999979
11
61.4601509999999962
21
-166.6529329999999902
0
LINE
8
BLACK
6
CONTINUOUS
10
61.4601509999999962
20
-166.6529329999999902
11
61.4601509999999962
21
-166.1767419999999902
0
LINE
8
BLACK
6
CONTINUOUS
10
61.4601509999999962
20
-166.1767419999999902
11
61.5553889999999981
21
-165.7957899999999825
0
LINE
8
BLACK
6
CONTINUOUS
10
61.5553889999999981
20
-165.7957899999999825
11
61.6506270000000001
21
-165.6053139999999928
0
LINE
8
BLACK
6
CONTINUOUS
10
61.6506270000000001
20
-165.6053139999999928
11
61.7458649999999949
21
-165.510075999999998
0
LINE
8
BLACK
6
CONTINUOUS
10
61.7458649999999949
20
-165.510075999999998
11
61.9363409999999988
21
-165.4148380000000031
0
LINE
8
BLACK
6
CONTINUOUS
10
63.4601509999999962
20
-167.2243609999999876
11
63.5553889999999981
21
-167.3195999999999799
0
LINE
8
BLACK
6
CONTINUOUS
10
63.5553889999999981
20
-167.3195999999999799
11
63.4601509999999962
21
-167.4148380000000031
0
LINE
8
BLACK
6
CONTINUOUS
10
63.4601509999999962
20
-167.4148380000000031
11
63.3649129999999943
21
-167.3195999999999799
0
LINE
8
BLACK
6
CONTINUOUS
10
63.3649129999999943
20
-167.3195999999999799
11
63.4601509999999962
21
-167.2243609999999876
0
LINE
8
BLACK
6
CONTINUOUS
10
63.4601509999999962
20
-167.2243609999999876
11
63.4601509999999962
21
-167.4148380000000031
0
LINE
8
BLACK
6
CONTINUOUS
10
65.4601509999999962
20
-167.4148380000000031
11
64.317294000000004
21
-167.4148380000000031
0
LINE
8
BLACK
6
CONTINUOUS
10
64.8887220000000013
20
-167.4148380000000031
11
64.8887220000000013
21
-165.4148380000000031
0
LINE
8
BLACK
6
CONTINUOUS
10
64.8887220000000013
20
-165.4148380000000031
11
64.6982459999999975
21
-165.7005519999999876
0
LINE
8
BLACK
6
CONTINUOUS
10
64.6982459999999975
20
-165.7005519999999876
11
64.5077699999999936
21
-165.8910280000000057
0
LINE
8
BLACK
6
CONTINUOUS
10
64.5077699999999936
20
-165.8910280000000057
11
64.317294000000004
21
-165.9862660000000005
0
LINE
8
BLACK
6
CONTINUOUS
10
67.3649130000000014
20
-167.4148380000000031
11
66.2220559999999949
21
-167.4148380000000031
0
LINE
8
BLACK
6
CONTINUOUS
10
66.7934839999999923
20
-167.4148380000000031
11
66.7934839999999923
21
-165.4148380000000031
0
LINE
8
BLACK
6
CONTINUOUS
10
66.7934839999999923
20
-165.4148380000000031
11
66.6030080000000027
21
-165.7005519999999876
0
LINE
8
BLACK
6
CONTINUOUS
10
66.6030080000000027
20
-165.7005519999999876
11
66.4125319999999988
21
-165.8910280000000057
0
LINE
8
BLACK
6
CONTINUOUS
10
66.4125319999999988
20
-165.8910280000000057
11
66.2220559999999949
21
-165.9862660000000005
0
LINE
8
BLACK
6
CONTINUOUS
10
68.5077699999999936
20
-166.271979999999985
11
68.317294000000004
21
-166.1767419999999902
0
LINE
8
BLACK
6
CONTINUOUS
10
68.317294000000004
20
-166.1767419999999902
11
68.2220559999999949
21
-166.0815039999999954
0
LINE
8
BLACK
6
CONTINUOUS
10
68.2220559999999949
20
-166.0815039999999954
11
68.1268180000000001
21
-165.8910280000000057
0
LINE
8
BLACK
6
CONTINUOUS
10
68.1268180000000001
20
-165.8910280000000057
11
68.1268180000000001
21
-165.7957899999999825
0
LINE
8
BLACK
6
CONTINUOUS
10
68.1268180000000001
20
-165.7957899999999825
11
68.2220559999999949
21
-165.6053139999999928
0
LINE
8
BLACK
6
CONTINUOUS
10
68.2220559999999949
20
-165.6053139999999928
11
68.317294000000004
21
-165.510075999999998
0
LINE
8
BLACK
6
CONTINUOUS
10
68.317294000000004
20
-165.510075999999998
11
68.5077699999999936
21
-165.4148380000000031
0
LINE
8
BLACK
6
CONTINUOUS
10
68.5077699999999936
20
-165.4148380000000031
11
68.8887229999999988
21
-165.4148380000000031
0
LINE
8
BLACK
6
CONTINUOUS
10
68.8887229999999988
20
-165.4148380000000031
11
69.0791990000000027
21
-165.510075999999998
0
LINE
8
BLACK
6
CONTINUOUS
10
69.0791990000000027
20
-165.510075999999998
11
69.1744369999999975
21
-165.6053139999999928
0
LINE
8
BLACK
6
CONTINUOUS
10
69.1744369999999975
20
-165.6053139999999928
11
69.2696749999999923
21
-165.7957899999999825
0
LINE
8
BLACK
6
CONTINUOUS
10
69.2696749999999923
20
-165.7957899999999825
11
69.2696749999999923
21
-165.8910280000000057
0
LINE
8
BLACK
6
CONTINUOUS
10
69.2696749999999923
20
-165.8910280000000057
11
69.1744369999999975
21
-166.0815039999999954
0
LINE
8
BLACK
6
CONTINUOUS
10
69.1744369999999975
20
-166.0815039999999954
11
69.0791990000000027
21
-166.1767419999999902
0
LINE
8
BLACK
6
CONTINUOUS
10
69.0791990000000027
20
-166.1767419999999902
11
68.8887229999999988
21
-166.271979999999985
0
LINE
8
BLACK
6
CONTINUOUS
10
68.8887229999999988
20
-166.271979999999985
11
68.5077699999999936
21
-166.271979999999985
0
LINE
8
BLACK
6
CONTINUOUS
10
68.5077699999999936
20
-166.271979999999985
11
68.317294000000004
21
-166.3672190000000057
0
LINE
8
BLACK
6
CONTINUOUS
10
68.317294000000004
20
-166.3672190000000057
11
68.2220559999999949
21
-166.4624570000000006
0
LINE
8
BLACK
6
CONTINUOUS
10
68.2220559999999949
20
-166.4624570000000006
11
68.1268180000000001
21
-166.6529329999999902
0
LINE
8
BLACK
6
CONTINUOUS
10
68.1268180000000001
20
-166.6529329999999902
11
68.1268180000000001
21
-167.0338849999999979
0
LINE
8
BLACK
6
CONTINUOUS
10
68.1268180000000001
20
-167.0338849999999979
11
68.2220559999999949
21
-167.2243609999999876
0
LINE
8
BLACK
6
CONTINUOUS
10
68.2220559999999949
20
-167.2243609999999876
11
68.317294000000004
21
-167.3195999999999799
0
LINE
8
BLACK
6
CONTINUOUS
10
68.317294000000004
20
-167.3195999999999799
11
68.5077699999999936
21
-167.4148380000000031
0
LINE
8
BLACK
6
CONTINUOUS
10
68.5077699999999936
20
-167.4148380000000031
11
68.8887229999999988
21
-167.4148380000000031
0
LINE
8
BLACK
6
CONTINUOUS
10
68.8887229999999988
20
-167.4148380000000031
11
69.0791990000000027
21
-167.3195999999999799
0
LINE
8
BLACK
6
CONTINUOUS
10
69.0791990000000027
20
-167.3195999999999799
11
69.1744369999999975
21
-167.2243609999999876
0
LINE
8
BLACK
6
CONTINUOUS
10
69.1744369999999975
20
-167.2243609999999876
11
69.2696749999999923
21
-167.0338849999999979
0
LINE
8
BLACK
6
CONTINUOUS
10
69.2696749999999923
20
-167.0338849999999979
11
69.2696749999999923
21
-166.6529329999999902
0
LINE
8
BLACK
6
CONTINUOUS
10
69.2696749999999923
20
-166.6529329999999902
11
69.1744369999999975
21
-166.4624570000000006
0
LINE
8
BLACK
6
CONTINUOUS
10
69.1744369999999975
20
-166.4624570000000006
11
69.0791990000000027
21
-166.3672190000000057
0
LINE
8
BLACK
6
CONTINUOUS
10
69.0791990000000027
20
-166.3672190000000057
11
68.8887229999999988
21
-166.271979999999985
0
LINE
8
BLACK
6
CONTINUOUS
10
71.1744369999999975
20
-167.4148380000000031
11
70.0315799999999911
21
-167.4148380000000031
0
LINE
8
BLACK
6
CONTINUOUS
10
70.6030080000000027
20
-167.4148380000000031
11
70.6030080000000027
21
-165.4148380000000031
0
LINE
8
BLACK
6
CONTINUOUS
10
70.6030080000000027
20
-165.4148380000000031
11
70.4125319999999988
21
-165.7005519999999876
0
LINE
8
BLACK
6
CONTINUOUS
10
70.4125319999999988
20
-165.7005519999999876
11
70.2220559999999949
21
-165.8910280000000057
0
LINE
8
BLACK
6
CONTINUOUS
10
70.2220559999999949
20
-165.8910280000000057
11
70.0315799999999911
21
-165.9862660000000005
0
LINE
8
BLACK
6
CONTINUOUS
10
71.9363419999999962
20
-165.4148380000000031
11
71.9363419999999962
21
-165.7957899999999825
0
LINE
8
BLACK
6
CONTINUOUS
10
72.698246999999995
20
-165.4148380000000031
11
72.698246999999995
21
-165.7957899999999825
0
LINE
8
BLACK
6
CONTINUOUS
10
75.650628999999995
20
-168.1767419999999902
11
75.5553900000000027
21
-168.0815039999999954
0
LINE
8
BLACK
6
CONTINUOUS
10
75.5553900000000027
20
-168.0815039999999954
11
75.3649139999999989
21
-167.7957899999999825
0
LINE
8
BLACK
6
CONTINUOUS
10
75.3649139999999989
20
-167.7957899999999825
11
75.2696759999999898
21
-167.6053139999999928
0
LINE
8
BLACK
6
CONTINUOUS
10
75.2696759999999898
20
-167.6053139999999928
11
75.174437999999995
21
-167.3195999999999799
0
LINE
8
BLACK
6
CONTINUOUS
10
75.174437999999995
20
-167.3195999999999799
11
75.0792000000000002
21
-166.8434089999999799
0
LINE
8
BLACK
6
CONTINUOUS
10
75.0792000000000002
20
-166.8434089999999799
11
75.0792000000000002
21
-166.4624570000000006
0
LINE
8
BLACK
6
CONTINUOUS
10
75.0792000000000002
20
-166.4624570000000006
11
75.174437999999995
21
-165.9862660000000005
0
LINE
8
BLACK
6
CONTINUOUS
10
75.174437999999995
20
-165.9862660000000005
11
75.2696759999999898
21
-165.7005519999999876
0
LINE
8
BLACK
6
CONTINUOUS
10
75.2696759999999898
20
-165.7005519999999876
11
75.3649139999999989
21
-165.510075999999998
0
LINE
8
BLACK
6
CONTINUOUS
10
75.3649139999999989
20
-165.510075999999998
11
75.5553900000000027
21
-165.2243609999999876
0
LINE
8
BLACK
6
CONTINUOUS
10
75.5553900000000027
20
-165.2243609999999876
11
75.650628999999995
21
-165.1291229999999928
0
LINE
8
BLACK
6
CONTINUOUS
10
76.3172950000000014
20
-165.6053139999999928
11
76.4125329999999963
21
-165.510075999999998
0
LINE
8
BLACK
6
CONTINUOUS
10
76.4125329999999963
20
-165.510075999999998
11
76.6030090000000001
21
-165.4148380000000031
0
LINE
8
BLACK
6
CONTINUOUS
10
76.6030090000000001
20
-165.4148380000000031
11
77.0792000000000002
21
-165.4148380000000031
0
LINE
8
BLACK
6
CONTINUOUS
10
77.0792000000000002
20
-165.4148380000000031
11
77.2696759999999898
21
-165.510075999999998
0
LINE
8
BLACK
6
CONTINUOUS
10
77.2696759999999898
20
-165.510075999999998
11
77.3649139999999989
21
-165.6053139999999928
0
LINE
8
BLACK
6
CONTINUOUS
10
77.3649139999999989
20
-165.6053139999999928
11
77.4601519999999937
21
-165.7957899999999825
0
LINE
8
BLACK
6
CONTINUOUS
10
77.4601519999999937
20
-165.7957899999999825
11
77.4601519999999937
21
-165.9862660000000005
0
LINE
8
BLACK
6
CONTINUOUS
10
77.4601519999999937
20
-165.9862660000000005
11
77.3649139999999989
21
-166.271979999999985
0
LINE
8
BLACK
6
CONTINUOUS
10
77.3649139999999989
20
-166.271979999999985
11
76.2220569999999924
21
-167.4148380000000031
0
LINE
8
BLACK
6
CONTINUOUS
10
76.2220569999999924
20
-167.4148380000000031
11
77.4601519999999937
21
-167.4148380000000031
0
LINE
8
BLACK
6
CONTINUOUS
10
79.8411049999999989
20
-167.4148380000000031
11
79.8411049999999989
21
-165.4148380000000031
0
LINE
8
BLACK
6
CONTINUOUS
10
80.6982479999999924
20
-167.4148380000000031
11
80.6982479999999924
21
-166.3672190000000057
0
LINE
8
BLACK
6
CONTINUOUS
10
80.6982479999999924
20
-166.3672190000000057
11
80.6030099999999976
21
-166.1767419999999902
0
LINE
8
BLACK
6
CONTINUOUS
10
80.6030099999999976
20
-166.1767419999999902
11
80.4125339999999937
21
-166.0815039999999954
0
LINE
8
BLACK
6
CONTINUOUS
10
80.4125339999999937
20
-166.0815039999999954
11
80.1268189999999976
21
-166.0815039999999954
0
LINE
8
BLACK
6
CONTINUOUS
10
80.1268189999999976
20
-166.0815039999999954
11
79.9363429999999937
21
-166.1767419999999902
0
LINE
8
BLACK
6
CONTINUOUS
10
79.9363429999999937
20
-166.1767419999999902
11
79.8411049999999989
21
-166.271979999999985
0
LINE
8
BLACK
6
CONTINUOUS
10
81.9363429999999937
20
-167.4148380000000031
11
81.7458669999999898
21
-167.3195999999999799
0
LINE
8
BLACK
6
CONTINUOUS
10
81.7458669999999898
20
-167.3195999999999799
11
81.650628999999995
21
-167.2243609999999876
0
LINE
8
BLACK
6
CONTINUOUS
10
81.650628999999995
20
-167.2243609999999876
11
81.5553910000000002
21
-167.0338849999999979
0
LINE
8
BLACK
6
CONTINUOUS
10
81.5553910000000002
20
-167.0338849999999979
11
81.5553910000000002
21
-166.4624570000000006
0
LINE
8
BLACK
6
CONTINUOUS
10
81.5553910000000002
20
-166.4624570000000006
11
81.650628999999995
21
-166.271979999999985
0
LINE
8
BLACK
6
CONTINUOUS
10
81.650628999999995
20
-166.271979999999985
11
81.7458669999999898
21
-166.1767419999999902
0
LINE
8
BLACK
6
CONTINUOUS
10
81.7458669999999898
20
-166.1767419999999902
11
81.9363429999999937
21
-166.0815039999999954
0
LINE
8
BLACK
6
CONTINUOUS
10
81.9363429999999937
20
-166.0815039999999954
11
82.2220579999999899
21
-166.0815039999999954
0
LINE
8
BLACK
6
CONTINUOUS
10
82.2220579999999899
20
-166.0815039999999954
11
82.4125339999999937
21
-166.1767419999999902
0
LINE
8
BLACK
6
CONTINUOUS
10
82.4125339999999937
20
-166.1767419999999902
11
82.5077720000000028
21
-166.271979999999985
0
LINE
8
BLACK
6
CONTINUOUS
10
82.5077720000000028
20
-166.271979999999985
11
82.6030099999999976
21
-166.4624570000000006
0
LINE
8
BLACK
6
CONTINUOUS
10
82.6030099999999976
20
-166.4624570000000006
11
82.6030099999999976
21
-167.0338849999999979
0
LINE
8
BLACK
6
CONTINUOUS
10
82.6030099999999976
20
-167.0338849999999979
11
82.5077720000000028
21
-167.2243609999999876
0
LINE
8
BLACK
6
CONTINUOUS
10
82.5077720000000028
20
-167.2243609999999876
11
82.4125339999999937
21
-167.3195999999999799
0
LINE
8
BLACK
6
CONTINUOUS
10
82.4125339999999937
20
-167.3195999999999799
11
82.2220579999999899
21
-167.4148380000000031
0
LINE
8
BLACK
6
CONTINUOUS
10
82.2220579999999899
20
-167.4148380000000031
11
81.9363429999999937
21
-167.4148380000000031
0
LINE
8
BLACK
6
CONTINUOUS
10
83.7458669999999898
20
-167.4148380000000031
11
83.5553910000000002
21
-167.3195999999999799
0
LINE
8
BLACK
6
CONTINUOUS
10
83.5553910000000002
20
-167.3195999999999799
11
83.4601529999999912
21
-167.1291229999999928
0
LINE
8
BLACK
6
CONTINUOUS
10
83.4601529999999912
20
-167.1291229999999928
11
83.4601529999999912
21
-165.4148380000000031
0
LINE
8
BLACK
6
CONTINUOUS
10
85.2696770000000015
20
-167.3195999999999799
11
85.0792009999999976
21
-167.4148380000000031
0
LINE
8
BLACK
6
CONTINUOUS
10
85.0792009999999976
20
-167.4148380000000031
11
84.6982479999999924
21
-167.4148380000000031
0
LINE
8
BLACK
6
CONTINUOUS
10
84.6982479999999924
20
-167.4148380000000031
11
84.5077720000000028
21
-167.3195999999999799
0
LINE
8
BLACK
6
CONTINUOUS
10
84.5077720000000028
20
-167.3195999999999799
11
84.4125339999999937
21
-167.1291229999999928
0
LINE
8
BLACK
6
CONTINUOUS
10
84.4125339999999937
20
-167.1291229999999928
11
84.4125339999999937
21
-166.3672190000000057
0
LINE
8
BLACK
6
CONTINUOUS
10
84.4125339999999937
20
-166.3672190000000057
11
84.5077720000000028
21
-166.1767419999999902
0
LINE
8
BLACK
6
CONTINUOUS
10
84.5077720000000028
20
-166.1767419999999902
11
84.6982479999999924
21
-166.0815039999999954
0
LINE
8
BLACK
6
CONTINUOUS
10
84.6982479999999924
20
-166.0815039999999954
11
85.0792009999999976
21
-166.0815039999999954
0
LINE
8
BLACK
6
CONTINUOUS
10
85.0792009999999976
20
-166.0815039999999954
11
85.2696770000000015
21
-166.1767419999999902
0
LINE
8
BLACK
6
CONTINUOUS
10
85.2696770000000015
20
-166.1767419999999902
11
85.3649149999999963
21
-166.3672190000000057
0
LINE
8
BLACK
6
CONTINUOUS
10
85.3649149999999963
20
-166.3672190000000057
11
85.3649149999999963
21
-166.5576949999999954
0
LINE
8
BLACK
6
CONTINUOUS
10
85.3649149999999963
20
-166.5576949999999954
11
84.4125339999999937
21
-166.748170999999985
0
LINE
8
BLACK
6
CONTINUOUS
10
86.126819999999995
20
-167.3195999999999799
11
86.3172959999999989
21
-167.4148380000000031
0
LINE
8
BLACK
6
CONTINUOUS
10
86.3172959999999989
20
-167.4148380000000031
11
86.6982479999999924
21
-167.4148380000000031
0
LINE
8
BLACK
6
CONTINUOUS
10
86.6982479999999924
20
-167.4148380000000031
11
86.8887249999999938
21
-167.3195999999999799
0
LINE
8
BLACK
6
CONTINUOUS
10
86.8887249999999938
20
-167.3195999999999799
11
86.9839630000000028
21
-167.1291229999999928
0
LINE
8
BLACK
6
CONTINUOUS
10
86.9839630000000028
20
-167.1291229999999928
11
86.9839630000000028
21
-167.0338849999999979
0
LINE
8
BLACK
6
CONTINUOUS
10
86.9839630000000028
20
-167.0338849999999979
11
86.8887249999999938
21
-166.8434089999999799
0
LINE
8
BLACK
6
CONTINUOUS
10
86.8887249999999938
20
-166.8434089999999799
11
86.6982479999999924
21
-166.748170999999985
0
LINE
8
BLACK
6
CONTINUOUS
10
86.6982479999999924
20
-166.748170999999985
11
86.4125339999999937
21
-166.748170999999985
0
LINE
8
BLACK
6
CONTINUOUS
10
86.4125339999999937
20
-166.748170999999985
11
86.2220579999999899
21
-166.6529329999999902
0
LINE
8
BLACK
6
CONTINUOUS
10
86.2220579999999899
20
-166.6529329999999902
11
86.126819999999995
21
-166.4624570000000006
0
LINE
8
BLACK
6
CONTINUOUS
10
86.126819999999995
20
-166.4624570000000006
11
86.126819999999995
21
-166.3672190000000057
0
LINE
8
BLACK
6
CONTINUOUS
10
86.126819999999995
20
-166.3672190000000057
11
86.2220579999999899
21
-166.1767419999999902
0
LINE
8
BLACK
6
CONTINUOUS
10
86.2220579999999899
20
-166.1767419999999902
11
86.4125339999999937
21
-166.0815039999999954
0
LINE
8
BLACK
6
CONTINUOUS
10
86.4125339999999937
20
-166.0815039999999954
11
86.6982479999999924
21
-166.0815039999999954
0
LINE
8
BLACK
6
CONTINUOUS
10
86.6982479999999924
20
-166.0815039999999954
11
86.8887249999999938
21
-166.1767419999999902
0
LINE
8
BLACK
6
CONTINUOUS
10
87.6506299999999925
20
-168.1767419999999902
11
87.7458680000000015
21
-168.0815039999999954
0
LINE
8
BLACK
6
CONTINUOUS
10
87.7458680000000015
20
-168.0815039999999954
11
87.9363439999999912
21
-167.7957899999999825
0
LINE
8
BLACK
6
CONTINUOUS
10
87.9363439999999912
20
-167.7957899999999825
11
88.0315820000000002
21
-167.6053139999999928
0
LINE
8
BLACK
6
CONTINUOUS
10
88.0315820000000002
20
-167.6053139999999928
11
88.126819999999995
21
-167.3195999999999799
0
LINE
8
BLACK
6
CONTINUOUS
10
88.126819999999995
20
-167.3195999999999799
11
88.2220579999999899
21
-166.8434089999999799
0
LINE
8
BLACK
6
CONTINUOUS
10
88.2220579999999899
20
-166.8434089999999799
11
88.2220579999999899
21
-166.4624570000000006
0
LINE
8
BLACK
6
CONTINUOUS
10
88.2220579999999899
20
-166.4624570000000006
11
88.126819999999995
21
-165.9862660000000005
0
LINE
8
BLACK
6
CONTINUOUS
10
88.126819999999995
20
-165.9862660000000005
11
88.0315820000000002
21
-165.7005519999999876
0
LINE
8
BLACK
6
CONTINUOUS
10
88.0315820000000002
20
-165.7005519999999876
11
87.9363439999999912
21
-165.510075999999998
0
LINE
8
BLACK
6
CONTINUOUS
10
87.9363439999999912
20
-165.510075999999998
11
87.7458680000000015
21
-165.2243609999999876
0
LINE
8
BLACK
6
CONTINUOUS
10
87.7458680000000015
20
-165.2243609999999876
11
87.6506299999999925
21
-165.1291229999999928
0
LINE
8
BLACK
6
CONTINUOUS
10
91.269677999999999
20
-168.1767419999999902
11
91.1744389999999925
21
-168.0815039999999954
0
LINE
8
BLACK
6
CONTINUOUS
10
91.1744389999999925
20
-168.0815039999999954
11
90.9839630000000028
21
-167.7957899999999825
0
LINE
8
BLACK
6
CONTINUOUS
10
90.9839630000000028
20
-167.7957899999999825
11
90.8887249999999938
21
-167.6053139999999928
0
LINE
8
BLACK
6
CONTINUOUS
10
90.8887249999999938
20
-167.6053139999999928
11
90.7934869999999989
21
-167.3195999999999799
0
LINE
8
BLACK
6
CONTINUOUS
10
90.7934869999999989
20
-167.3195999999999799
11
90.6982489999999899
21
-166.8434089999999799
0
LINE
8
BLACK
6
CONTINUOUS
10
90.6982489999999899
20
-166.8434089999999799
11
90.6982489999999899
21
-166.4624570000000006
0
LINE
8
BLACK
6
CONTINUOUS
10
90.6982489999999899
20
-166.4624570000000006
11
90.7934869999999989
21
-165.9862660000000005
0
LINE
8
BLACK
6
CONTINUOUS
10
90.7934869999999989
20
-165.9862660000000005
11
90.8887249999999938
21
-165.7005519999999876
0
LINE
8
BLACK
6
CONTINUOUS
10
90.8887249999999938
20
-165.7005519999999876
11
90.9839630000000028
21
-165.510075999999998
0
LINE
8
BLACK
6
CONTINUOUS
10
90.9839630000000028
20
-165.510075999999998
11
91.1744389999999925
21
-165.2243609999999876
0
LINE
8
BLACK
6
CONTINUOUS
10
91.1744389999999925
20
-165.2243609999999876
11
91.269677999999999
21
-165.1291229999999928
0
LINE
8
BLACK
6
CONTINUOUS
10
92.0315820000000002
20
-166.0815039999999954
11
92.0315820000000002
21
-167.4148380000000031
0
LINE
8
BLACK
6
CONTINUOUS
10
92.0315820000000002
20
-166.271979999999985
11
92.126819999999995
21
-166.1767419999999902
0
LINE
8
BLACK
6
CONTINUOUS
10
92.126819999999995
20
-166.1767419999999902
11
92.3172959999999989
21
-166.0815039999999954
0
LINE
8
BLACK
6
CONTINUOUS
10
92.3172959999999989
20
-166.0815039999999954
11
92.6030109999999951
21
-166.0815039999999954
0
LINE
8
BLACK
6
CONTINUOUS
10
92.6030109999999951
20
-166.0815039999999954
11
92.7934869999999989
21
-166.1767419999999902
0
LINE
8
BLACK
6
CONTINUOUS
10
92.7934869999999989
20
-166.1767419999999902
11
92.8887249999999938
21
-166.3672190000000057
0
LINE
8
BLACK
6
CONTINUOUS
10
92.8887249999999938
20
-166.3672190000000057
11
92.8887249999999938
21
-167.4148380000000031
0
LINE
8
BLACK
6
CONTINUOUS
10
94.126819999999995
20
-167.4148380000000031
11
93.9363439999999912
21
-167.3195999999999799
0
LINE
8
BLACK
6
CONTINUOUS
10
93.9363439999999912
20
-167.3195999999999799
11
93.8411059999999964
21
-167.2243609999999876
0
LINE
8
BLACK
6
CONTINUOUS
10
93.8411059999999964
20
-167.2243609999999876
11
93.7458680000000015
21
-167.0338849999999979
0
LINE
8
BLACK
6
CONTINUOUS
10
93.7458680000000015
20
-167.0338849999999979
11
93.7458680000000015
21
-166.4624570000000006
0
LINE
8
BLACK
6
CONTINUOUS
10
93.7458680000000015
20
-166.4624570000000006
11
93.8411059999999964
21
-166.271979999999985
0
LINE
8
BLACK
6
CONTINUOUS
10
93.8411059999999964
20
-166.271979999999985
11
93.9363439999999912
21
-166.1767419999999902
0
LINE
8
BLACK
6
CONTINUOUS
10
93.9363439999999912
20
-166.1767419999999902
11
94.126819999999995
21
-166.0815039999999954
0
LINE
8
BLACK
6
CONTINUOUS
10
94.126819999999995
20
-166.0815039999999954
11
94.4125349999999912
21
-166.0815039999999954
0
LINE
8
BLACK
6
CONTINUOUS
10
94.4125349999999912
20
-166.0815039999999954
11
94.6030109999999951
21
-166.1767419999999902
0
LINE
8
BLACK
6
CONTINUOUS
10
94.6030109999999951
20
-166.1767419999999902
11
94.6982489999999899
21
-166.271979999999985
0
LINE
8
BLACK
6
CONTINUOUS
10
94.6982489999999899
20
-166.271979999999985
11
94.7934869999999989
21
-166.4624570000000006
0
LINE
8
BLACK
6
CONTINUOUS
10
94.7934869999999989
20
-166.4624570000000006
11
94.7934869999999989
21
-167.0338849999999979
0
LINE
8
BLACK
6
CONTINUOUS
10
94.7934869999999989
20
-167.0338849999999979
11
94.6982489999999899
21
-167.2243609999999876
0
LINE
8
BLACK
6
CONTINUOUS
10
94.6982489999999899
20
-167.2243609999999876
11
94.6030109999999951
21
-167.3195999999999799
0
LINE
8
BLACK
6
CONTINUOUS
10
94.6030109999999951
20
-167.3195999999999799
11
94.4125349999999912
21
-167.4148380000000031
0
LINE
8
BLACK
6
CONTINUOUS
10
94.4125349999999912
20
-167.4148380000000031
11
94.126819999999995
21
-167.4148380000000031
0
LINE
8
BLACK
6
CONTINUOUS
10
95.3649159999999938
20
-166.0815039999999954
11
96.126819999999995
21
-166.0815039999999954
0
LINE
8
BLACK
6
CONTINUOUS
10
95.6506299999999925
20
-165.4148380000000031
11
95.6506299999999925
21
-167.1291229999999928
0
LINE
8
BLACK
6
CONTINUOUS
10
95.6506299999999925
20
-167.1291229999999928
11
95.7458680000000015
21
-167.3195999999999799
0
LINE
8
BLACK
6
CONTINUOUS
10
95.7458680000000015
20
-167.3195999999999799
11
95.9363439999999912
21
-167.4148380000000031
0
LINE
8
BLACK
6
CONTINUOUS
10
95.9363439999999912
20
-167.4148380000000031
11
96.126819999999995
21
-167.4148380000000031
0
LINE
8
BLACK
6
CONTINUOUS
10
98.3172969999999964
20
-166.0815039999999954
11
98.3172969999999964
21
-168.0815039999999954
0
LINE
8
BLACK
6
CONTINUOUS
10
98.3172969999999964
20
-166.1767419999999902
11
98.5077730000000003
21
-166.0815039999999954
0
LINE
8
BLACK
6
CONTINUOUS
10
98.5077730000000003
20
-166.0815039999999954
11
98.8887259999999912
21
-166.0815039999999954
0
LINE
8
BLACK
6
CONTINUOUS
10
98.8887259999999912
20
-166.0815039999999954
11
99.0792019999999951
21
-166.1767419999999902
0
LINE
8
BLACK
6
CONTINUOUS
10
99.0792019999999951
20
-166.1767419999999902
11
99.1744399999999899
21
-166.271979999999985
0
LINE
8
BLACK
6
CONTINUOUS
10
99.1744399999999899
20
-166.271979999999985
11
99.269677999999999
21
-166.4624570000000006
0
LINE
8
BLACK
6
CONTINUOUS
10
99.269677999999999
20
-166.4624570000000006
11
99.269677999999999
21
-167.0338849999999979
0
LINE
8
BLACK
6
CONTINUOUS
10
99.269677999999999
20
-167.0338849999999979
11
99.1744399999999899
21
-167.2243609999999876
0
LINE
8
BLACK
6
CONTINUOUS
10
99.1744399999999899
20
-167.2243609999999876
11
99.0792019999999951
21
-167.3195999999999799
0
LINE
8
BLACK
6
CONTINUOUS
10
99.0792019999999951
20
-167.3195999999999799
11
98.8887259999999912
21
-167.4148380000000031
0
LINE
8
BLACK
6
CONTINUOUS
10
98.8887259999999912
20
-167.4148380000000031
11
98.5077730000000003
21
-167.4148380000000031
0
LINE
8
BLACK
6
CONTINUOUS
10
98.5077730000000003
20
-167.4148380000000031
11
98.3172969999999964
21
-167.3195999999999799
0
LINE
8
BLACK
6
CONTINUOUS
10
100.4125349999999912
20
-167.4148380000000031
11
100.2220590000000016
21
-167.3195999999999799
0
LINE
8
BLACK
6
CONTINUOUS
10
100.2220590000000016
20
-167.3195999999999799
11
100.1268209999999925
21
-167.1291229999999928
0
LINE
8
BLACK
6
CONTINUOUS
10
100.1268209999999925
20
-167.1291229999999928
11
100.1268209999999925
21
-165.4148380000000031
0
LINE
8
BLACK
6
CONTINUOUS
10
102.0315829999999977
20
-167.4148380000000031
11
102.0315829999999977
21
-166.3672190000000057
0
LINE
8
BLACK
6
CONTINUOUS
10
102.0315829999999977
20
-166.3672190000000057
11
101.9363449999999887
21
-166.1767419999999902
0
LINE
8
BLACK
6
CONTINUOUS
10
101.9363449999999887
20
-166.1767419999999902
11
101.745868999999999
21
-166.0815039999999954
0
LINE
8
BLACK
6
CONTINUOUS
10
101.745868999999999
20
-166.0815039999999954
11
101.3649159999999938
21
-166.0815039999999954
0
LINE
8
BLACK
6
CONTINUOUS
10
101.3649159999999938
20
-166.0815039999999954
11
101.1744399999999899
21
-166.1767419999999902
0
LINE
8
BLACK
6
CONTINUOUS
10
102.0315829999999977
20
-167.3195999999999799
11
101.8411069999999938
21
-167.4148380000000031
0
LINE
8
BLACK
6
CONTINUOUS
10
101.8411069999999938
20
-167.4148380000000031
11
101.3649159999999938
21
-167.4148380000000031
0
LINE
8
BLACK
6
CONTINUOUS
10
101.3649159999999938
20
-167.4148380000000031
11
101.1744399999999899
21
-167.3195999999999799
0
LINE
8
BLACK
6
CONTINUOUS
10
101.1744399999999899
20
-167.3195999999999799
11
101.0792019999999951
21
-167.1291229999999928
0
LINE
8
BLACK
6
CONTINUOUS
10
101.0792019999999951
20
-167.1291229999999928
11
101.0792019999999951
21
-166.9386470000000031
0
LINE
8
BLACK
6
CONTINUOUS
10
101.0792019999999951
20
-166.9386470000000031
11
101.1744399999999899
21
-166.748170999999985
0
LINE
8
BLACK
6
CONTINUOUS
10
101.1744399999999899
20
-166.748170999999985
11
101.3649159999999938
21
-166.6529329999999902
0
LINE
8
BLACK
6
CONTINUOUS
10
101.3649159999999938
20
-166.6529329999999902
11
101.8411069999999938
21
-166.6529329999999902
0
LINE
8
BLACK
6
CONTINUOUS
10
101.8411069999999938
20
-166.6529329999999902
11
102.0315829999999977
21
-166.5576949999999954
0
LINE
8
BLACK
6
CONTINUOUS
10
102.6982500000000016
20
-166.0815039999999954
11
103.4601539999999886
21
-166.0815039999999954
0
LINE
8
BLACK
6
CONTINUOUS
10
102.9839640000000003
20
-165.4148380000000031
11
102.9839640000000003
21
-167.1291229999999928
0
LINE
8
BLACK
6
CONTINUOUS
10
102.9839640000000003
20
-167.1291229999999928
11
103.0792019999999951
21
-167.3195999999999799
0
LINE
8
BLACK
6
CONTINUOUS
10
103.0792019999999951
20
-167.3195999999999799
11
103.269677999999999
21
-167.4148380000000031
0
LINE
8
BLACK
6
CONTINUOUS
10
103.269677999999999
20
-167.4148380000000031
11
103.4601539999999886
21
-167.4148380000000031
0
LINE
8
BLACK
6
CONTINUOUS
10
104.8887259999999912
20
-167.3195999999999799
11
104.6982500000000016
21
-167.4148380000000031
0
LINE
8
BLACK
6
CONTINUOUS
10
104.6982500000000016
20
-167.4148380000000031
11
104.3172969999999964
21
-167.4148380000000031
0
LINE
8
BLACK
6
CONTINUOUS
10
104.3172969999999964
20
-167.4148380000000031
11
104.1268209999999925
21
-167.3195999999999799
0
LINE
8
BLACK
6
CONTINUOUS
10
104.1268209999999925
20
-167.3195999999999799
11
104.0315829999999977
21
-167.1291229999999928
0
LINE
8
BLACK
6
CONTINUOUS
10
104.0315829999999977
20
-167.1291229999999928
11
104.0315829999999977
21
-166.3672190000000057
0
LINE
8
BLACK
6
CONTINUOUS
10
104.0315829999999977
20
-166.3672190000000057
11
104.1268209999999925
21
-166.1767419999999902
0
LINE
8
BLACK
6
CONTINUOUS
10
104.1268209999999925
20
-166.1767419999999902
11
104.3172969999999964
21
-166.0815039999999954
0
LINE
8
BLACK
6
CONTINUOUS
10
104.3172969999999964
20
-166.0815039999999954
11
104.6982500000000016
21
-166.0815039999999954
0
LINE
8
BLACK
6
CONTINUOUS
10
104.6982500000000016
20
-166.0815039999999954
11
104.8887259999999912
21
-166.1767419999999902
0
LINE
8
BLACK
6
CONTINUOUS
10
104.8887259999999912
20
-166.1767419999999902
11
104.9839640000000003
21
-166.3672190000000057
0
LINE
8
BLACK
6
CONTINUOUS
10
104.9839640000000003
20
-166.3672190000000057
11
104.9839640000000003
21
-166.5576949999999954
0
LINE
8
BLACK
6
CONTINUOUS
10
104.9839640000000003
20
-166.5576949999999954
11
104.0315829999999977
21
-166.748170999999985
0
LINE
8
BLACK
6
CONTINUOUS
10
106.6982500000000016
20
-167.4148380000000031
11
106.6982500000000016
21
-165.4148380000000031
0
LINE
8
BLACK
6
CONTINUOUS
10
106.6982500000000016
20
-167.3195999999999799
11
106.5077739999999977
21
-167.4148380000000031
0
LINE
8
BLACK
6
CONTINUOUS
10
106.5077739999999977
20
-167.4148380000000031
11
106.1268209999999925
21
-167.4148380000000031
0
LINE
8
BLACK
6
CONTINUOUS
10
106.1268209999999925
20
-167.4148380000000031
11
105.9363449999999887
21
-167.3195999999999799
0
LINE
8
BLACK
6
CONTINUOUS
10
105.9363449999999887
20
-167.3195999999999799
11
105.8411069999999938
21
-167.2243609999999876
0
LINE
8
BLACK
6
CONTINUOUS
10
105.8411069999999938
20
-167.2243609999999876
11
105.745868999999999
21
-167.0338849999999979
0
LINE
8
BLACK
6
CONTINUOUS
10
105.745868999999999
20
-167.0338849999999979
11
105.745868999999999
21
-166.4624570000000006
0
LINE
8
BLACK
6
CONTINUOUS
10
105.745868999999999
20
-166.4624570000000006
11
105.8411069999999938
21
-166.271979999999985
0
LINE
8
BLACK
6
CONTINUOUS
10
105.8411069999999938
20
-166.271979999999985
11
105.9363449999999887
21
-166.1767419999999902
0
LINE
8
BLACK
6
CONTINUOUS
10
105.9363449999999887
20
-166.1767419999999902
11
106.1268209999999925
21
-166.0815039999999954
0
LINE
8
BLACK
6
CONTINUOUS
10
106.1268209999999925
20
-166.0815039999999954
11
106.5077739999999977
21
-166.0815039999999954
0
LINE
8
BLACK
6
CONTINUOUS
10
106.5077739999999977
20
-166.0815039999999954
11
106.6982500000000016
21
-166.1767419999999902
0
LINE
8
BLACK
6
CONTINUOUS
10
107.4601550000000003
20
-168.1767419999999902
11
107.5553929999999951
21
-168.0815039999999954
0
LINE
8
BLACK
6
CONTINUOUS
10
107.5553929999999951
20
-168.0815039999999954
11
107.745868999999999
21
-167.7957899999999825
0
LINE
8
BLACK
6
CONTINUOUS
10
107.745868999999999
20
-167.7957899999999825
11
107.8411069999999938
21
-167.6053139999999928
0
LINE
8
BLACK
6
CONTINUOUS
10
107.8411069999999938
20
-167.6053139999999928
11
107.9363449999999887
21
-167.3195999999999799
0
LINE
8
BLACK
6
CONTINUOUS
10
107.9363449999999887
20
-167.3195999999999799
11
108.0315829999999977
21
-166.8434089999999799
0
LINE
8
BLACK
6
CONTINUOUS
10
108.0315829999999977
20
-166.8434089999999799
11
108.0315829999999977
21
-166.4624570000000006
0
LINE
8
BLACK
6
CONTINUOUS
10
108.0315829999999977
20
-166.4624570000000006
11
107.9363449999999887
21
-165.9862660000000005
0
LINE
8
BLACK
6
CONTINUOUS
10
107.9363449999999887
20
-165.9862660000000005
11
107.8411069999999938
21
-165.7005519999999876
0
LINE
8
BLACK
6
CONTINUOUS
10
107.8411069999999938
20
-165.7005519999999876
11
107.745868999999999
21
-165.510075999999998
0
LINE
8
BLACK
6
CONTINUOUS
10
107.745868999999999
20
-165.510075999999998
11
107.5553929999999951
21
-165.2243609999999876
0
LINE
8
BLACK
6
CONTINUOUS
10
107.5553929999999951
20
-165.2243609999999876
11
107.4601550000000003
21
-165.1291229999999928
  0
ENDSEC
  0
EOF
