%TF.GenerationSoftware,KiCad,Pcbnew,9.0.2*%
%TF.CreationDate,2025-12-22T23:20:31+02:00*%
%TF.ProjectId,first_PCB,66697273-745f-4504-9342-2e6b69636164,rev?*%
%TF.SameCoordinates,Original*%
%TF.FileFunction,Drillmap*%
%TF.FilePolarity,Positive*%
%FSLAX45Y45*%
G04 Gerber Fmt 4.5, Leading zero omitted, Abs format (unit mm)*
G04 Created by KiCad (PCBNEW 9.0.2) date 2025-12-22 23:20:31*
%MOMM*%
%LPD*%
G01*
G04 APERTURE LIST*
%ADD10C,0.200000*%
%ADD11C,0.100000*%
%ADD12C,0.104000*%
%ADD13C,0.140000*%
%ADD14C,0.150000*%
G04 APERTURE END LIST*
D10*
X10300000Y-10000000D02*
G75*
G02*
X9700000Y-10000000I-300000J0D01*
G01*
X9700000Y-10000000D02*
G75*
G02*
X10300000Y-10000000I300000J0D01*
G01*
X16000000Y-10000000D02*
G75*
G02*
X4000000Y-10000000I-6000000J0D01*
G01*
X4000000Y-10000000D02*
G75*
G02*
X16000000Y-10000000I6000000J0D01*
G01*
D11*
X4135000Y-10085000D02*
X4165000Y-10115000D01*
X4165000Y-10085000D02*
X4135000Y-10115000D01*
X4485000Y-11485000D02*
X4515000Y-11515000D01*
X4515000Y-11485000D02*
X4485000Y-11515000D01*
X6270000Y-11616000D02*
X6300000Y-11646000D01*
X6300000Y-11616000D02*
X6270000Y-11646000D01*
X6725000Y-5145000D02*
X6755000Y-5175000D01*
X6755000Y-5145000D02*
X6725000Y-5175000D01*
X7575000Y-14885000D02*
X7605000Y-14915000D01*
X7605000Y-14885000D02*
X7575000Y-14915000D01*
X7635000Y-9235000D02*
X7665000Y-9265000D01*
X7665000Y-9235000D02*
X7635000Y-9265000D01*
X7815000Y-4565000D02*
X7845000Y-4595000D01*
X7845000Y-4565000D02*
X7815000Y-4595000D01*
X7885000Y-11545000D02*
X7915000Y-11575000D01*
X7915000Y-11545000D02*
X7885000Y-11575000D01*
X8035000Y-8485000D02*
X8065000Y-8515000D01*
X8065000Y-8485000D02*
X8035000Y-8515000D01*
X8335000Y-10225000D02*
X8365000Y-10255000D01*
X8365000Y-10225000D02*
X8335000Y-10255000D01*
X8685000Y-10645000D02*
X8715000Y-10675000D01*
X8715000Y-10645000D02*
X8685000Y-10675000D01*
X9065000Y-15355000D02*
X9095000Y-15385000D01*
X9095000Y-15355000D02*
X9065000Y-15385000D01*
X9105000Y-15785000D02*
X9135000Y-15815000D01*
X9135000Y-15785000D02*
X9105000Y-15815000D01*
X9155000Y-13625000D02*
X9185000Y-13655000D01*
X9185000Y-13625000D02*
X9155000Y-13655000D01*
X9593820Y-13281900D02*
X9623820Y-13311900D01*
X9623820Y-13281900D02*
X9593820Y-13311900D01*
X9855000Y-15095000D02*
X9885000Y-15125000D01*
X9885000Y-15095000D02*
X9855000Y-15125000D01*
X9905000Y-7925000D02*
X9935000Y-7955000D01*
X9935000Y-7925000D02*
X9905000Y-7955000D01*
X10105000Y-11995000D02*
X10135000Y-12025000D01*
X10135000Y-11995000D02*
X10105000Y-12025000D01*
X10215000Y-6795000D02*
X10245000Y-6825000D01*
X10245000Y-6795000D02*
X10215000Y-6825000D01*
X10395000Y-4415000D02*
X10425000Y-4445000D01*
X10425000Y-4415000D02*
X10395000Y-4445000D01*
X10705000Y-14475000D02*
X10735000Y-14505000D01*
X10735000Y-14475000D02*
X10705000Y-14505000D01*
X11115000Y-4255000D02*
X11145000Y-4285000D01*
X11145000Y-4255000D02*
X11115000Y-4285000D01*
X11245000Y-14515000D02*
X11275000Y-14545000D01*
X11275000Y-14515000D02*
X11245000Y-14545000D01*
X11285000Y-7585000D02*
X11315000Y-7615000D01*
X11315000Y-7585000D02*
X11285000Y-7615000D01*
X11545000Y-14275000D02*
X11575000Y-14305000D01*
X11575000Y-14275000D02*
X11545000Y-14305000D01*
X11915000Y-5725000D02*
X11945000Y-5755000D01*
X11945000Y-5725000D02*
X11915000Y-5755000D01*
X12035000Y-10835000D02*
X12065000Y-10865000D01*
X12065000Y-10835000D02*
X12035000Y-10865000D01*
X12072860Y-13944840D02*
X12102860Y-13974840D01*
X12102860Y-13944840D02*
X12072860Y-13974840D01*
X12123660Y-11793460D02*
X12153660Y-11823460D01*
X12153660Y-11793460D02*
X12123660Y-11823460D01*
X12525000Y-6985000D02*
X12555000Y-7015000D01*
X12555000Y-6985000D02*
X12525000Y-7015000D01*
X12662140Y-12542760D02*
X12692140Y-12572760D01*
X12692140Y-12542760D02*
X12662140Y-12572760D01*
X12675000Y-15115000D02*
X12705000Y-15145000D01*
X12705000Y-15115000D02*
X12675000Y-15145000D01*
X12775000Y-7645000D02*
X12805000Y-7675000D01*
X12805000Y-7645000D02*
X12775000Y-7675000D01*
X12885000Y-9185000D02*
X12915000Y-9215000D01*
X12915000Y-9185000D02*
X12885000Y-9215000D01*
X12905000Y-13625000D02*
X12935000Y-13655000D01*
X12935000Y-13625000D02*
X12905000Y-13655000D01*
X13095000Y-8285000D02*
X13125000Y-8315000D01*
X13125000Y-8285000D02*
X13095000Y-8315000D01*
X13095000Y-13485000D02*
X13125000Y-13515000D01*
X13125000Y-13485000D02*
X13095000Y-13515000D01*
X13115000Y-11355000D02*
X13145000Y-11385000D01*
X13145000Y-11355000D02*
X13115000Y-11385000D01*
X13145000Y-14865000D02*
X13175000Y-14895000D01*
X13175000Y-14865000D02*
X13145000Y-14895000D01*
X13165000Y-13305000D02*
X13195000Y-13335000D01*
X13195000Y-13305000D02*
X13165000Y-13335000D01*
X13245000Y-13125000D02*
X13275000Y-13155000D01*
X13275000Y-13125000D02*
X13245000Y-13155000D01*
X13655000Y-12595000D02*
X13685000Y-12625000D01*
X13685000Y-12595000D02*
X13655000Y-12625000D01*
X13845000Y-11145000D02*
X13875000Y-11175000D01*
X13875000Y-11145000D02*
X13845000Y-11175000D01*
X14023580Y-14175980D02*
X14053580Y-14205980D01*
X14053580Y-14175980D02*
X14023580Y-14205980D01*
X14025000Y-6075000D02*
X14055000Y-6105000D01*
X14055000Y-6075000D02*
X14025000Y-6105000D01*
X14085000Y-10735000D02*
X14115000Y-10765000D01*
X14115000Y-10735000D02*
X14085000Y-10765000D01*
X14175000Y-7985000D02*
X14205000Y-8015000D01*
X14205000Y-7985000D02*
X14175000Y-8015000D01*
X14185000Y-6655000D02*
X14215000Y-6685000D01*
X14215000Y-6655000D02*
X14185000Y-6685000D01*
X14635000Y-12245000D02*
X14665000Y-12275000D01*
X14665000Y-12245000D02*
X14635000Y-12275000D01*
X14685000Y-13415000D02*
X14715000Y-13445000D01*
X14715000Y-13415000D02*
X14685000Y-13445000D01*
X14965000Y-11225000D02*
X14995000Y-11255000D01*
X14995000Y-11225000D02*
X14965000Y-11255000D01*
X15742500Y-10032500D02*
X15772500Y-10062500D01*
X15772500Y-10032500D02*
X15742500Y-10062500D01*
X7050000Y-11600000D02*
G75*
G02*
X6950000Y-11600000I-50000J0D01*
G01*
X6950000Y-11600000D02*
G75*
G02*
X7050000Y-11600000I50000J0D01*
G01*
X7269970Y-11473000D02*
G75*
G02*
X7169970Y-11473000I-50000J0D01*
G01*
X7169970Y-11473000D02*
G75*
G02*
X7269970Y-11473000I50000J0D01*
G01*
X7489941Y-11346000D02*
G75*
G02*
X7389941Y-11346000I-50000J0D01*
G01*
X7389941Y-11346000D02*
G75*
G02*
X7489941Y-11346000I50000J0D01*
G01*
X7709911Y-11219000D02*
G75*
G02*
X7609911Y-11219000I-50000J0D01*
G01*
X7609911Y-11219000D02*
G75*
G02*
X7709911Y-11219000I50000J0D01*
G01*
X10050000Y-6500000D02*
G75*
G02*
X9950000Y-6500000I-50000J0D01*
G01*
X9950000Y-6500000D02*
G75*
G02*
X10050000Y-6500000I50000J0D01*
G01*
X10050000Y-6754000D02*
G75*
G02*
X9950000Y-6754000I-50000J0D01*
G01*
X9950000Y-6754000D02*
G75*
G02*
X10050000Y-6754000I50000J0D01*
G01*
X10050000Y-7008000D02*
G75*
G02*
X9950000Y-7008000I-50000J0D01*
G01*
X9950000Y-7008000D02*
G75*
G02*
X10050000Y-7008000I50000J0D01*
G01*
X10050000Y-7262000D02*
G75*
G02*
X9950000Y-7262000I-50000J0D01*
G01*
X9950000Y-7262000D02*
G75*
G02*
X10050000Y-7262000I50000J0D01*
G01*
X12390089Y-11219000D02*
G75*
G02*
X12290089Y-11219000I-50000J0D01*
G01*
X12290089Y-11219000D02*
G75*
G02*
X12390089Y-11219000I50000J0D01*
G01*
X12610059Y-11346000D02*
G75*
G02*
X12510059Y-11346000I-50000J0D01*
G01*
X12510059Y-11346000D02*
G75*
G02*
X12610059Y-11346000I50000J0D01*
G01*
X12830029Y-11473000D02*
G75*
G02*
X12730029Y-11473000I-50000J0D01*
G01*
X12730029Y-11473000D02*
G75*
G02*
X12830029Y-11473000I50000J0D01*
G01*
X13050000Y-11600000D02*
G75*
G02*
X12950000Y-11600000I-50000J0D01*
G01*
X12950000Y-11600000D02*
G75*
G02*
X13050000Y-11600000I50000J0D01*
G01*
X13467380Y-5494403D02*
G75*
G02*
X13367380Y-5494403I-50000J0D01*
G01*
X13367380Y-5494403D02*
G75*
G02*
X13467380Y-5494403I50000J0D01*
G01*
X13564829Y-14419455D02*
G75*
G02*
X13464829Y-14419455I-50000J0D01*
G01*
X13464829Y-14419455D02*
G75*
G02*
X13564829Y-14419455I50000J0D01*
G01*
X13661955Y-5657671D02*
G75*
G02*
X13561955Y-5657671I-50000J0D01*
G01*
X13561955Y-5657671D02*
G75*
G02*
X13661955Y-5657671I50000J0D01*
G01*
X13759405Y-14256187D02*
G75*
G02*
X13659405Y-14256187I-50000J0D01*
G01*
X13659405Y-14256187D02*
G75*
G02*
X13759405Y-14256187I50000J0D01*
G01*
X13867560Y-8128498D02*
G75*
G02*
X13767560Y-8128498I-50000J0D01*
G01*
X13767560Y-8128498D02*
G75*
G02*
X13867560Y-8128498I50000J0D01*
G01*
X13949303Y-6578489D02*
G75*
G02*
X13849303Y-6578489I-50000J0D01*
G01*
X13849303Y-6578489D02*
G75*
G02*
X13949303Y-6578489I50000J0D01*
G01*
X13816536Y-6713209D02*
X14046349Y-6520373D01*
X13982070Y-6443769D02*
G75*
G02*
X14046349Y-6520373I32139J-38302D01*
G01*
X13982070Y-6443768D02*
X13752257Y-6636605D01*
X13752257Y-6636605D02*
G75*
G03*
X13816536Y-6713209I32139J-38302D01*
G01*
X14062576Y-8407010D02*
G75*
G02*
X13962576Y-8407010I-50000J0D01*
G01*
X13962576Y-8407010D02*
G75*
G02*
X14062576Y-8407010I50000J0D01*
G01*
X14334976Y-7038115D02*
G75*
G02*
X14234976Y-7038115I-50000J0D01*
G01*
X14234976Y-7038115D02*
G75*
G02*
X14334976Y-7038115I50000J0D01*
G01*
X14202208Y-7172836D02*
X14432022Y-6979999D01*
X14367743Y-6903395D02*
G75*
G02*
X14432022Y-6979999I32139J-38302D01*
G01*
X14367743Y-6903395D02*
X14137930Y-7096231D01*
X14137929Y-7096231D02*
G75*
G03*
X14202208Y-7172836I32139J-38302D01*
G01*
X14477701Y-6461462D02*
G75*
G02*
X14377701Y-6461462I-50000J0D01*
G01*
X14377701Y-6461462D02*
G75*
G02*
X14477701Y-6461462I50000J0D01*
G01*
X14578491Y-6563380D02*
X14353516Y-6295265D01*
X14276911Y-6359543D02*
G75*
G02*
X14353516Y-6295265I38302J32139D01*
G01*
X14276911Y-6359543D02*
X14501887Y-6627659D01*
X14501887Y-6627659D02*
G75*
G03*
X14578491Y-6563380I38302J32139D01*
G01*
D12*
X5370628Y-6792869D02*
X5370628Y-6896869D01*
X5318628Y-6844869D02*
X5422628Y-6844869D01*
X5565203Y-6956137D02*
X5565203Y-7060137D01*
X5513203Y-7008137D02*
X5617203Y-7008137D01*
X5759778Y-7119405D02*
X5759778Y-7223405D01*
X5707778Y-7171405D02*
X5811778Y-7171405D01*
X5954354Y-7282673D02*
X5954354Y-7386673D01*
X5902354Y-7334673D02*
X6006354Y-7334673D01*
X6148929Y-7445941D02*
X6148929Y-7549941D01*
X6096929Y-7497941D02*
X6200929Y-7497941D01*
X6343504Y-7609209D02*
X6343504Y-7713209D01*
X6291504Y-7661209D02*
X6395504Y-7661209D01*
X6355325Y-5634909D02*
X6355325Y-5738909D01*
X6303325Y-5686909D02*
X6407325Y-5686909D01*
X6538079Y-7772477D02*
X6538079Y-7876477D01*
X6486079Y-7824477D02*
X6590079Y-7824477D01*
X6549901Y-5798177D02*
X6549901Y-5902177D01*
X6497901Y-5850177D02*
X6601901Y-5850177D01*
X6732655Y-7935745D02*
X6732655Y-8039745D01*
X6680655Y-7987745D02*
X6784655Y-7987745D01*
X6744476Y-5961445D02*
X6744476Y-6065445D01*
X6692476Y-6013445D02*
X6796476Y-6013445D01*
X6927230Y-8099013D02*
X6927230Y-8203013D01*
X6875230Y-8151013D02*
X6979230Y-8151013D01*
X6939051Y-6124714D02*
X6939051Y-6228714D01*
X6887051Y-6176714D02*
X6991051Y-6176714D01*
X7121805Y-8262281D02*
X7121805Y-8366281D01*
X7069805Y-8314281D02*
X7173805Y-8314281D01*
X7133627Y-6287982D02*
X7133627Y-6391982D01*
X7081627Y-6339982D02*
X7185627Y-6339982D01*
X7210596Y-12157613D02*
X7210596Y-12261613D01*
X7158596Y-12209613D02*
X7262596Y-12209613D01*
X7210596Y-14697613D02*
X7210596Y-14801613D01*
X7158596Y-14749613D02*
X7262596Y-14749613D01*
X7316381Y-8425550D02*
X7316381Y-8529550D01*
X7264381Y-8477550D02*
X7368381Y-8477550D01*
X7328202Y-6451250D02*
X7328202Y-6555250D01*
X7276202Y-6503250D02*
X7380202Y-6503250D01*
X7464596Y-12157613D02*
X7464596Y-12261613D01*
X7412596Y-12209613D02*
X7516596Y-12209613D01*
X7464596Y-14697613D02*
X7464596Y-14801613D01*
X7412596Y-14749613D02*
X7516596Y-14749613D01*
X7510956Y-8588818D02*
X7510956Y-8692818D01*
X7458956Y-8640818D02*
X7562956Y-8640818D01*
X7522777Y-6614518D02*
X7522777Y-6718518D01*
X7470777Y-6666518D02*
X7574777Y-6666518D01*
X7717352Y-6777786D02*
X7717352Y-6881786D01*
X7665352Y-6829786D02*
X7769352Y-6829786D01*
X7718596Y-12157613D02*
X7718596Y-12261613D01*
X7666596Y-12209613D02*
X7770596Y-12209613D01*
X7718596Y-14697613D02*
X7718596Y-14801613D01*
X7666596Y-14749613D02*
X7770596Y-14749613D01*
X7911928Y-6941054D02*
X7911928Y-7045054D01*
X7859928Y-6993054D02*
X7963928Y-6993054D01*
X7972596Y-12157613D02*
X7972596Y-12261613D01*
X7920596Y-12209613D02*
X8024596Y-12209613D01*
X7972596Y-14697613D02*
X7972596Y-14801613D01*
X7920596Y-14749613D02*
X8024596Y-14749613D01*
X8106503Y-7104322D02*
X8106503Y-7208322D01*
X8054503Y-7156322D02*
X8158503Y-7156322D01*
X8226596Y-12157613D02*
X8226596Y-12261613D01*
X8174596Y-12209613D02*
X8278596Y-12209613D01*
X8226596Y-14697613D02*
X8226596Y-14801613D01*
X8174596Y-14749613D02*
X8278596Y-14749613D01*
X8301078Y-7267590D02*
X8301078Y-7371590D01*
X8249078Y-7319590D02*
X8353078Y-7319590D01*
X8480596Y-12157613D02*
X8480596Y-12261613D01*
X8428596Y-12209613D02*
X8532596Y-12209613D01*
X8480596Y-14697613D02*
X8480596Y-14801613D01*
X8428596Y-14749613D02*
X8532596Y-14749613D01*
X8495654Y-7430858D02*
X8495654Y-7534858D01*
X8443654Y-7482858D02*
X8547654Y-7482858D01*
X8734596Y-12157613D02*
X8734596Y-12261613D01*
X8682596Y-12209613D02*
X8786596Y-12209613D01*
X8734596Y-14697613D02*
X8734596Y-14801613D01*
X8682596Y-14749613D02*
X8786596Y-14749613D01*
X8988596Y-12157613D02*
X8988596Y-12261613D01*
X8936596Y-12209613D02*
X9040596Y-12209613D01*
X8988596Y-14697613D02*
X8988596Y-14801613D01*
X8936596Y-14749613D02*
X9040596Y-14749613D01*
X9242596Y-12157613D02*
X9242596Y-12261613D01*
X9190596Y-12209613D02*
X9294596Y-12209613D01*
X9242596Y-14697613D02*
X9242596Y-14801613D01*
X9190596Y-14749613D02*
X9294596Y-14749613D01*
X9496596Y-12157613D02*
X9496596Y-12261613D01*
X9444596Y-12209613D02*
X9548596Y-12209613D01*
X9496596Y-14697613D02*
X9496596Y-14801613D01*
X9444596Y-14749613D02*
X9548596Y-14749613D01*
X9750596Y-12157613D02*
X9750596Y-12261613D01*
X9698596Y-12209613D02*
X9802596Y-12209613D01*
X9750596Y-14697613D02*
X9750596Y-14801613D01*
X9698596Y-14749613D02*
X9802596Y-14749613D01*
X10004596Y-12157613D02*
X10004596Y-12261613D01*
X9952596Y-12209613D02*
X10056596Y-12209613D01*
X10004596Y-14697613D02*
X10004596Y-14801613D01*
X9952596Y-14749613D02*
X10056596Y-14749613D01*
X10258596Y-12157613D02*
X10258596Y-12261613D01*
X10206596Y-12209613D02*
X10310596Y-12209613D01*
X10258596Y-14697613D02*
X10258596Y-14801613D01*
X10206596Y-14749613D02*
X10310596Y-14749613D01*
X10512596Y-12157613D02*
X10512596Y-12261613D01*
X10460596Y-12209613D02*
X10564596Y-12209613D01*
X10512596Y-14697613D02*
X10512596Y-14801613D01*
X10460596Y-14749613D02*
X10564596Y-14749613D01*
X10766596Y-12157613D02*
X10766596Y-12261613D01*
X10714596Y-12209613D02*
X10818596Y-12209613D01*
X10766596Y-14697613D02*
X10766596Y-14801613D01*
X10714596Y-14749613D02*
X10818596Y-14749613D01*
X11020596Y-12157613D02*
X11020596Y-12261613D01*
X10968596Y-12209613D02*
X11072596Y-12209613D01*
X11020596Y-14697613D02*
X11020596Y-14801613D01*
X10968596Y-14749613D02*
X11072596Y-14749613D01*
X11274596Y-12157613D02*
X11274596Y-12261613D01*
X11222596Y-12209613D02*
X11326596Y-12209613D01*
X11274596Y-14697613D02*
X11274596Y-14801613D01*
X11222596Y-14749613D02*
X11326596Y-14749613D01*
X11528596Y-12157613D02*
X11528596Y-12261613D01*
X11476596Y-12209613D02*
X11580596Y-12209613D01*
X11528596Y-14697613D02*
X11528596Y-14801613D01*
X11476596Y-14749613D02*
X11580596Y-14749613D01*
X11782596Y-12157613D02*
X11782596Y-12261613D01*
X11730596Y-12209613D02*
X11834596Y-12209613D01*
X11782596Y-14697613D02*
X11782596Y-14801613D01*
X11730596Y-14749613D02*
X11834596Y-14749613D01*
D13*
X6179788Y-10700988D02*
X6179788Y-10601992D01*
X6080792Y-10601992D01*
X6080792Y-10700988D01*
X6179788Y-10700988D01*
X6849498Y-10349498D02*
X6849498Y-10250502D01*
X6750502Y-10250502D01*
X6750502Y-10349498D01*
X6849498Y-10349498D01*
X9349498Y-6799498D02*
X9349498Y-6700502D01*
X9250502Y-6700502D01*
X9250502Y-6799498D01*
X9349498Y-6799498D01*
X10029498Y-15569498D02*
X10029498Y-15470502D01*
X9930502Y-15470502D01*
X9930502Y-15569498D01*
X10029498Y-15569498D01*
X10669498Y-15559498D02*
X10669498Y-15460502D01*
X10570502Y-15460502D01*
X10570502Y-15559498D01*
X10669498Y-15559498D01*
X11309498Y-15529698D02*
X11309498Y-15430702D01*
X11210502Y-15430702D01*
X11210502Y-15529698D01*
X11309498Y-15529698D01*
X11929498Y-15349498D02*
X11929498Y-15250502D01*
X11830502Y-15250502D01*
X11830502Y-15349498D01*
X11929498Y-15349498D01*
X15149498Y-11949498D02*
X15149498Y-11850502D01*
X15050502Y-11850502D01*
X15050502Y-11949498D01*
X15149498Y-11949498D01*
X15399569Y-11299569D02*
X15399569Y-11200573D01*
X15300573Y-11200573D01*
X15300573Y-11299569D01*
X15399569Y-11299569D01*
D14*
X8001472Y-5092711D02*
X8076472Y-5017711D01*
X8001472Y-4942711D01*
X7926472Y-5017711D01*
X8001472Y-5092711D01*
X8070325Y-5879705D02*
X8145325Y-5804705D01*
X8070325Y-5729705D01*
X7995325Y-5804705D01*
X8070325Y-5879705D01*
X10776432Y-7207736D02*
X10851432Y-7132736D01*
X10776432Y-7057736D01*
X10701432Y-7132736D01*
X10776432Y-7207736D01*
X11158528Y-5609522D02*
X11233528Y-5534522D01*
X11158528Y-5459522D01*
X11083528Y-5534522D01*
X11158528Y-5609522D01*
X11599680Y-6631292D02*
X11674680Y-6556292D01*
X11599680Y-6481292D01*
X11524680Y-6556292D01*
X11599680Y-6631292D01*
X13625412Y-7929083D02*
X13700412Y-7854083D01*
X13625412Y-7779083D01*
X13550412Y-7854083D01*
X13625412Y-7929083D01*
X13898328Y-11674982D02*
X13973328Y-11599982D01*
X13898328Y-11524982D01*
X13823328Y-11599982D01*
X13898328Y-11674982D01*
X14227667Y-8789192D02*
X14302667Y-8714192D01*
X14227667Y-8639192D01*
X14152667Y-8714192D01*
X14227667Y-8789192D01*
X15446525Y-10590923D02*
X15521525Y-10515923D01*
X15446525Y-10440923D01*
X15371525Y-10515923D01*
X15446525Y-10590923D01*
D10*
X4250777Y-16321484D02*
X4250777Y-16121484D01*
X4250777Y-16121484D02*
X4298396Y-16121484D01*
X4298396Y-16121484D02*
X4326967Y-16131008D01*
X4326967Y-16131008D02*
X4346015Y-16150055D01*
X4346015Y-16150055D02*
X4355539Y-16169103D01*
X4355539Y-16169103D02*
X4365063Y-16207198D01*
X4365063Y-16207198D02*
X4365063Y-16235769D01*
X4365063Y-16235769D02*
X4355539Y-16273865D01*
X4355539Y-16273865D02*
X4346015Y-16292912D01*
X4346015Y-16292912D02*
X4326967Y-16311960D01*
X4326967Y-16311960D02*
X4298396Y-16321484D01*
X4298396Y-16321484D02*
X4250777Y-16321484D01*
X4450777Y-16321484D02*
X4450777Y-16188150D01*
X4450777Y-16226246D02*
X4460301Y-16207198D01*
X4460301Y-16207198D02*
X4469824Y-16197674D01*
X4469824Y-16197674D02*
X4488872Y-16188150D01*
X4488872Y-16188150D02*
X4507920Y-16188150D01*
X4574586Y-16321484D02*
X4574586Y-16188150D01*
X4574586Y-16121484D02*
X4565063Y-16131008D01*
X4565063Y-16131008D02*
X4574586Y-16140531D01*
X4574586Y-16140531D02*
X4584110Y-16131008D01*
X4584110Y-16131008D02*
X4574586Y-16121484D01*
X4574586Y-16121484D02*
X4574586Y-16140531D01*
X4698396Y-16321484D02*
X4679348Y-16311960D01*
X4679348Y-16311960D02*
X4669824Y-16292912D01*
X4669824Y-16292912D02*
X4669824Y-16121484D01*
X4803158Y-16321484D02*
X4784110Y-16311960D01*
X4784110Y-16311960D02*
X4774586Y-16292912D01*
X4774586Y-16292912D02*
X4774586Y-16121484D01*
X5031729Y-16321484D02*
X5031729Y-16121484D01*
X5031729Y-16121484D02*
X5098396Y-16264341D01*
X5098396Y-16264341D02*
X5165063Y-16121484D01*
X5165063Y-16121484D02*
X5165063Y-16321484D01*
X5346015Y-16321484D02*
X5346015Y-16216722D01*
X5346015Y-16216722D02*
X5336491Y-16197674D01*
X5336491Y-16197674D02*
X5317444Y-16188150D01*
X5317444Y-16188150D02*
X5279348Y-16188150D01*
X5279348Y-16188150D02*
X5260301Y-16197674D01*
X5346015Y-16311960D02*
X5326967Y-16321484D01*
X5326967Y-16321484D02*
X5279348Y-16321484D01*
X5279348Y-16321484D02*
X5260301Y-16311960D01*
X5260301Y-16311960D02*
X5250777Y-16292912D01*
X5250777Y-16292912D02*
X5250777Y-16273865D01*
X5250777Y-16273865D02*
X5260301Y-16254817D01*
X5260301Y-16254817D02*
X5279348Y-16245293D01*
X5279348Y-16245293D02*
X5326967Y-16245293D01*
X5326967Y-16245293D02*
X5346015Y-16235769D01*
X5441253Y-16188150D02*
X5441253Y-16388150D01*
X5441253Y-16197674D02*
X5460301Y-16188150D01*
X5460301Y-16188150D02*
X5498396Y-16188150D01*
X5498396Y-16188150D02*
X5517444Y-16197674D01*
X5517444Y-16197674D02*
X5526967Y-16207198D01*
X5526967Y-16207198D02*
X5536491Y-16226246D01*
X5536491Y-16226246D02*
X5536491Y-16283388D01*
X5536491Y-16283388D02*
X5526967Y-16302436D01*
X5526967Y-16302436D02*
X5517444Y-16311960D01*
X5517444Y-16311960D02*
X5498396Y-16321484D01*
X5498396Y-16321484D02*
X5460301Y-16321484D01*
X5460301Y-16321484D02*
X5441253Y-16311960D01*
X5622205Y-16302436D02*
X5631729Y-16311960D01*
X5631729Y-16311960D02*
X5622205Y-16321484D01*
X5622205Y-16321484D02*
X5612682Y-16311960D01*
X5612682Y-16311960D02*
X5622205Y-16302436D01*
X5622205Y-16302436D02*
X5622205Y-16321484D01*
X5622205Y-16197674D02*
X5631729Y-16207198D01*
X5631729Y-16207198D02*
X5622205Y-16216722D01*
X5622205Y-16216722D02*
X5612682Y-16207198D01*
X5612682Y-16207198D02*
X5622205Y-16197674D01*
X5622205Y-16197674D02*
X5622205Y-16216722D01*
D11*
X3960000Y-16635000D02*
X3990000Y-16665000D01*
X3990000Y-16635000D02*
X3960000Y-16665000D01*
D10*
X4288872Y-16541484D02*
X4307920Y-16541484D01*
X4307920Y-16541484D02*
X4326967Y-16551008D01*
X4326967Y-16551008D02*
X4336491Y-16560531D01*
X4336491Y-16560531D02*
X4346015Y-16579579D01*
X4346015Y-16579579D02*
X4355539Y-16617674D01*
X4355539Y-16617674D02*
X4355539Y-16665293D01*
X4355539Y-16665293D02*
X4346015Y-16703388D01*
X4346015Y-16703388D02*
X4336491Y-16722436D01*
X4336491Y-16722436D02*
X4326967Y-16731960D01*
X4326967Y-16731960D02*
X4307920Y-16741484D01*
X4307920Y-16741484D02*
X4288872Y-16741484D01*
X4288872Y-16741484D02*
X4269824Y-16731960D01*
X4269824Y-16731960D02*
X4260301Y-16722436D01*
X4260301Y-16722436D02*
X4250777Y-16703388D01*
X4250777Y-16703388D02*
X4241253Y-16665293D01*
X4241253Y-16665293D02*
X4241253Y-16617674D01*
X4241253Y-16617674D02*
X4250777Y-16579579D01*
X4250777Y-16579579D02*
X4260301Y-16560531D01*
X4260301Y-16560531D02*
X4269824Y-16551008D01*
X4269824Y-16551008D02*
X4288872Y-16541484D01*
X4441253Y-16722436D02*
X4450777Y-16731960D01*
X4450777Y-16731960D02*
X4441253Y-16741484D01*
X4441253Y-16741484D02*
X4431729Y-16731960D01*
X4431729Y-16731960D02*
X4441253Y-16722436D01*
X4441253Y-16722436D02*
X4441253Y-16741484D01*
X4517444Y-16541484D02*
X4641253Y-16541484D01*
X4641253Y-16541484D02*
X4574586Y-16617674D01*
X4574586Y-16617674D02*
X4603158Y-16617674D01*
X4603158Y-16617674D02*
X4622205Y-16627198D01*
X4622205Y-16627198D02*
X4631729Y-16636722D01*
X4631729Y-16636722D02*
X4641253Y-16655769D01*
X4641253Y-16655769D02*
X4641253Y-16703388D01*
X4641253Y-16703388D02*
X4631729Y-16722436D01*
X4631729Y-16722436D02*
X4622205Y-16731960D01*
X4622205Y-16731960D02*
X4603158Y-16741484D01*
X4603158Y-16741484D02*
X4546015Y-16741484D01*
X4546015Y-16741484D02*
X4526967Y-16731960D01*
X4526967Y-16731960D02*
X4517444Y-16722436D01*
X4765063Y-16541484D02*
X4784110Y-16541484D01*
X4784110Y-16541484D02*
X4803158Y-16551008D01*
X4803158Y-16551008D02*
X4812682Y-16560531D01*
X4812682Y-16560531D02*
X4822205Y-16579579D01*
X4822205Y-16579579D02*
X4831729Y-16617674D01*
X4831729Y-16617674D02*
X4831729Y-16665293D01*
X4831729Y-16665293D02*
X4822205Y-16703388D01*
X4822205Y-16703388D02*
X4812682Y-16722436D01*
X4812682Y-16722436D02*
X4803158Y-16731960D01*
X4803158Y-16731960D02*
X4784110Y-16741484D01*
X4784110Y-16741484D02*
X4765063Y-16741484D01*
X4765063Y-16741484D02*
X4746015Y-16731960D01*
X4746015Y-16731960D02*
X4736491Y-16722436D01*
X4736491Y-16722436D02*
X4726967Y-16703388D01*
X4726967Y-16703388D02*
X4717444Y-16665293D01*
X4717444Y-16665293D02*
X4717444Y-16617674D01*
X4717444Y-16617674D02*
X4726967Y-16579579D01*
X4726967Y-16579579D02*
X4736491Y-16560531D01*
X4736491Y-16560531D02*
X4746015Y-16551008D01*
X4746015Y-16551008D02*
X4765063Y-16541484D01*
X4955539Y-16541484D02*
X4974586Y-16541484D01*
X4974586Y-16541484D02*
X4993634Y-16551008D01*
X4993634Y-16551008D02*
X5003158Y-16560531D01*
X5003158Y-16560531D02*
X5012682Y-16579579D01*
X5012682Y-16579579D02*
X5022205Y-16617674D01*
X5022205Y-16617674D02*
X5022205Y-16665293D01*
X5022205Y-16665293D02*
X5012682Y-16703388D01*
X5012682Y-16703388D02*
X5003158Y-16722436D01*
X5003158Y-16722436D02*
X4993634Y-16731960D01*
X4993634Y-16731960D02*
X4974586Y-16741484D01*
X4974586Y-16741484D02*
X4955539Y-16741484D01*
X4955539Y-16741484D02*
X4936491Y-16731960D01*
X4936491Y-16731960D02*
X4926967Y-16722436D01*
X4926967Y-16722436D02*
X4917444Y-16703388D01*
X4917444Y-16703388D02*
X4907920Y-16665293D01*
X4907920Y-16665293D02*
X4907920Y-16617674D01*
X4907920Y-16617674D02*
X4917444Y-16579579D01*
X4917444Y-16579579D02*
X4926967Y-16560531D01*
X4926967Y-16560531D02*
X4936491Y-16551008D01*
X4936491Y-16551008D02*
X4955539Y-16541484D01*
X5107920Y-16741484D02*
X5107920Y-16608150D01*
X5107920Y-16627198D02*
X5117444Y-16617674D01*
X5117444Y-16617674D02*
X5136491Y-16608150D01*
X5136491Y-16608150D02*
X5165063Y-16608150D01*
X5165063Y-16608150D02*
X5184110Y-16617674D01*
X5184110Y-16617674D02*
X5193634Y-16636722D01*
X5193634Y-16636722D02*
X5193634Y-16741484D01*
X5193634Y-16636722D02*
X5203158Y-16617674D01*
X5203158Y-16617674D02*
X5222205Y-16608150D01*
X5222205Y-16608150D02*
X5250777Y-16608150D01*
X5250777Y-16608150D02*
X5269825Y-16617674D01*
X5269825Y-16617674D02*
X5279348Y-16636722D01*
X5279348Y-16636722D02*
X5279348Y-16741484D01*
X5374586Y-16741484D02*
X5374586Y-16608150D01*
X5374586Y-16627198D02*
X5384110Y-16617674D01*
X5384110Y-16617674D02*
X5403158Y-16608150D01*
X5403158Y-16608150D02*
X5431729Y-16608150D01*
X5431729Y-16608150D02*
X5450777Y-16617674D01*
X5450777Y-16617674D02*
X5460301Y-16636722D01*
X5460301Y-16636722D02*
X5460301Y-16741484D01*
X5460301Y-16636722D02*
X5469825Y-16617674D01*
X5469825Y-16617674D02*
X5488872Y-16608150D01*
X5488872Y-16608150D02*
X5517444Y-16608150D01*
X5517444Y-16608150D02*
X5536491Y-16617674D01*
X5536491Y-16617674D02*
X5546015Y-16636722D01*
X5546015Y-16636722D02*
X5546015Y-16741484D01*
X5936491Y-16531960D02*
X5765063Y-16789103D01*
X6193634Y-16541484D02*
X6212682Y-16541484D01*
X6212682Y-16541484D02*
X6231729Y-16551008D01*
X6231729Y-16551008D02*
X6241253Y-16560531D01*
X6241253Y-16560531D02*
X6250777Y-16579579D01*
X6250777Y-16579579D02*
X6260301Y-16617674D01*
X6260301Y-16617674D02*
X6260301Y-16665293D01*
X6260301Y-16665293D02*
X6250777Y-16703388D01*
X6250777Y-16703388D02*
X6241253Y-16722436D01*
X6241253Y-16722436D02*
X6231729Y-16731960D01*
X6231729Y-16731960D02*
X6212682Y-16741484D01*
X6212682Y-16741484D02*
X6193634Y-16741484D01*
X6193634Y-16741484D02*
X6174586Y-16731960D01*
X6174586Y-16731960D02*
X6165063Y-16722436D01*
X6165063Y-16722436D02*
X6155539Y-16703388D01*
X6155539Y-16703388D02*
X6146015Y-16665293D01*
X6146015Y-16665293D02*
X6146015Y-16617674D01*
X6146015Y-16617674D02*
X6155539Y-16579579D01*
X6155539Y-16579579D02*
X6165063Y-16560531D01*
X6165063Y-16560531D02*
X6174586Y-16551008D01*
X6174586Y-16551008D02*
X6193634Y-16541484D01*
X6346015Y-16722436D02*
X6355539Y-16731960D01*
X6355539Y-16731960D02*
X6346015Y-16741484D01*
X6346015Y-16741484D02*
X6336491Y-16731960D01*
X6336491Y-16731960D02*
X6346015Y-16722436D01*
X6346015Y-16722436D02*
X6346015Y-16741484D01*
X6479348Y-16541484D02*
X6498396Y-16541484D01*
X6498396Y-16541484D02*
X6517444Y-16551008D01*
X6517444Y-16551008D02*
X6526967Y-16560531D01*
X6526967Y-16560531D02*
X6536491Y-16579579D01*
X6536491Y-16579579D02*
X6546015Y-16617674D01*
X6546015Y-16617674D02*
X6546015Y-16665293D01*
X6546015Y-16665293D02*
X6536491Y-16703388D01*
X6536491Y-16703388D02*
X6526967Y-16722436D01*
X6526967Y-16722436D02*
X6517444Y-16731960D01*
X6517444Y-16731960D02*
X6498396Y-16741484D01*
X6498396Y-16741484D02*
X6479348Y-16741484D01*
X6479348Y-16741484D02*
X6460301Y-16731960D01*
X6460301Y-16731960D02*
X6450777Y-16722436D01*
X6450777Y-16722436D02*
X6441253Y-16703388D01*
X6441253Y-16703388D02*
X6431729Y-16665293D01*
X6431729Y-16665293D02*
X6431729Y-16617674D01*
X6431729Y-16617674D02*
X6441253Y-16579579D01*
X6441253Y-16579579D02*
X6450777Y-16560531D01*
X6450777Y-16560531D02*
X6460301Y-16551008D01*
X6460301Y-16551008D02*
X6479348Y-16541484D01*
X6736491Y-16741484D02*
X6622206Y-16741484D01*
X6679348Y-16741484D02*
X6679348Y-16541484D01*
X6679348Y-16541484D02*
X6660301Y-16570055D01*
X6660301Y-16570055D02*
X6641253Y-16589103D01*
X6641253Y-16589103D02*
X6622206Y-16598627D01*
X6926967Y-16741484D02*
X6812682Y-16741484D01*
X6869825Y-16741484D02*
X6869825Y-16541484D01*
X6869825Y-16541484D02*
X6850777Y-16570055D01*
X6850777Y-16570055D02*
X6831729Y-16589103D01*
X6831729Y-16589103D02*
X6812682Y-16598627D01*
X7041253Y-16627198D02*
X7022206Y-16617674D01*
X7022206Y-16617674D02*
X7012682Y-16608150D01*
X7012682Y-16608150D02*
X7003158Y-16589103D01*
X7003158Y-16589103D02*
X7003158Y-16579579D01*
X7003158Y-16579579D02*
X7012682Y-16560531D01*
X7012682Y-16560531D02*
X7022206Y-16551008D01*
X7022206Y-16551008D02*
X7041253Y-16541484D01*
X7041253Y-16541484D02*
X7079348Y-16541484D01*
X7079348Y-16541484D02*
X7098396Y-16551008D01*
X7098396Y-16551008D02*
X7107920Y-16560531D01*
X7107920Y-16560531D02*
X7117444Y-16579579D01*
X7117444Y-16579579D02*
X7117444Y-16589103D01*
X7117444Y-16589103D02*
X7107920Y-16608150D01*
X7107920Y-16608150D02*
X7098396Y-16617674D01*
X7098396Y-16617674D02*
X7079348Y-16627198D01*
X7079348Y-16627198D02*
X7041253Y-16627198D01*
X7041253Y-16627198D02*
X7022206Y-16636722D01*
X7022206Y-16636722D02*
X7012682Y-16646246D01*
X7012682Y-16646246D02*
X7003158Y-16665293D01*
X7003158Y-16665293D02*
X7003158Y-16703388D01*
X7003158Y-16703388D02*
X7012682Y-16722436D01*
X7012682Y-16722436D02*
X7022206Y-16731960D01*
X7022206Y-16731960D02*
X7041253Y-16741484D01*
X7041253Y-16741484D02*
X7079348Y-16741484D01*
X7079348Y-16741484D02*
X7098396Y-16731960D01*
X7098396Y-16731960D02*
X7107920Y-16722436D01*
X7107920Y-16722436D02*
X7117444Y-16703388D01*
X7117444Y-16703388D02*
X7117444Y-16665293D01*
X7117444Y-16665293D02*
X7107920Y-16646246D01*
X7107920Y-16646246D02*
X7098396Y-16636722D01*
X7098396Y-16636722D02*
X7079348Y-16627198D01*
X7193634Y-16541484D02*
X7193634Y-16579579D01*
X7269825Y-16541484D02*
X7269825Y-16579579D01*
X7565063Y-16817674D02*
X7555539Y-16808150D01*
X7555539Y-16808150D02*
X7536491Y-16779579D01*
X7536491Y-16779579D02*
X7526968Y-16760531D01*
X7526968Y-16760531D02*
X7517444Y-16731960D01*
X7517444Y-16731960D02*
X7507920Y-16684341D01*
X7507920Y-16684341D02*
X7507920Y-16646246D01*
X7507920Y-16646246D02*
X7517444Y-16598627D01*
X7517444Y-16598627D02*
X7526968Y-16570055D01*
X7526968Y-16570055D02*
X7536491Y-16551008D01*
X7536491Y-16551008D02*
X7555539Y-16522436D01*
X7555539Y-16522436D02*
X7565063Y-16512912D01*
X7736491Y-16541484D02*
X7641253Y-16541484D01*
X7641253Y-16541484D02*
X7631729Y-16636722D01*
X7631729Y-16636722D02*
X7641253Y-16627198D01*
X7641253Y-16627198D02*
X7660301Y-16617674D01*
X7660301Y-16617674D02*
X7707920Y-16617674D01*
X7707920Y-16617674D02*
X7726968Y-16627198D01*
X7726968Y-16627198D02*
X7736491Y-16636722D01*
X7736491Y-16636722D02*
X7746015Y-16655769D01*
X7746015Y-16655769D02*
X7746015Y-16703388D01*
X7746015Y-16703388D02*
X7736491Y-16722436D01*
X7736491Y-16722436D02*
X7726968Y-16731960D01*
X7726968Y-16731960D02*
X7707920Y-16741484D01*
X7707920Y-16741484D02*
X7660301Y-16741484D01*
X7660301Y-16741484D02*
X7641253Y-16731960D01*
X7641253Y-16731960D02*
X7631729Y-16722436D01*
X7822206Y-16560531D02*
X7831729Y-16551008D01*
X7831729Y-16551008D02*
X7850777Y-16541484D01*
X7850777Y-16541484D02*
X7898396Y-16541484D01*
X7898396Y-16541484D02*
X7917444Y-16551008D01*
X7917444Y-16551008D02*
X7926968Y-16560531D01*
X7926968Y-16560531D02*
X7936491Y-16579579D01*
X7936491Y-16579579D02*
X7936491Y-16598627D01*
X7936491Y-16598627D02*
X7926968Y-16627198D01*
X7926968Y-16627198D02*
X7812682Y-16741484D01*
X7812682Y-16741484D02*
X7936491Y-16741484D01*
X8174587Y-16741484D02*
X8174587Y-16541484D01*
X8260301Y-16741484D02*
X8260301Y-16636722D01*
X8260301Y-16636722D02*
X8250777Y-16617674D01*
X8250777Y-16617674D02*
X8231730Y-16608150D01*
X8231730Y-16608150D02*
X8203158Y-16608150D01*
X8203158Y-16608150D02*
X8184110Y-16617674D01*
X8184110Y-16617674D02*
X8174587Y-16627198D01*
X8384110Y-16741484D02*
X8365063Y-16731960D01*
X8365063Y-16731960D02*
X8355539Y-16722436D01*
X8355539Y-16722436D02*
X8346015Y-16703388D01*
X8346015Y-16703388D02*
X8346015Y-16646246D01*
X8346015Y-16646246D02*
X8355539Y-16627198D01*
X8355539Y-16627198D02*
X8365063Y-16617674D01*
X8365063Y-16617674D02*
X8384110Y-16608150D01*
X8384110Y-16608150D02*
X8412682Y-16608150D01*
X8412682Y-16608150D02*
X8431730Y-16617674D01*
X8431730Y-16617674D02*
X8441253Y-16627198D01*
X8441253Y-16627198D02*
X8450777Y-16646246D01*
X8450777Y-16646246D02*
X8450777Y-16703388D01*
X8450777Y-16703388D02*
X8441253Y-16722436D01*
X8441253Y-16722436D02*
X8431730Y-16731960D01*
X8431730Y-16731960D02*
X8412682Y-16741484D01*
X8412682Y-16741484D02*
X8384110Y-16741484D01*
X8565063Y-16741484D02*
X8546015Y-16731960D01*
X8546015Y-16731960D02*
X8536492Y-16712912D01*
X8536492Y-16712912D02*
X8536492Y-16541484D01*
X8717444Y-16731960D02*
X8698396Y-16741484D01*
X8698396Y-16741484D02*
X8660301Y-16741484D01*
X8660301Y-16741484D02*
X8641253Y-16731960D01*
X8641253Y-16731960D02*
X8631730Y-16712912D01*
X8631730Y-16712912D02*
X8631730Y-16636722D01*
X8631730Y-16636722D02*
X8641253Y-16617674D01*
X8641253Y-16617674D02*
X8660301Y-16608150D01*
X8660301Y-16608150D02*
X8698396Y-16608150D01*
X8698396Y-16608150D02*
X8717444Y-16617674D01*
X8717444Y-16617674D02*
X8726968Y-16636722D01*
X8726968Y-16636722D02*
X8726968Y-16655769D01*
X8726968Y-16655769D02*
X8631730Y-16674817D01*
X8803158Y-16731960D02*
X8822206Y-16741484D01*
X8822206Y-16741484D02*
X8860301Y-16741484D01*
X8860301Y-16741484D02*
X8879349Y-16731960D01*
X8879349Y-16731960D02*
X8888873Y-16712912D01*
X8888873Y-16712912D02*
X8888873Y-16703388D01*
X8888873Y-16703388D02*
X8879349Y-16684341D01*
X8879349Y-16684341D02*
X8860301Y-16674817D01*
X8860301Y-16674817D02*
X8831730Y-16674817D01*
X8831730Y-16674817D02*
X8812682Y-16665293D01*
X8812682Y-16665293D02*
X8803158Y-16646246D01*
X8803158Y-16646246D02*
X8803158Y-16636722D01*
X8803158Y-16636722D02*
X8812682Y-16617674D01*
X8812682Y-16617674D02*
X8831730Y-16608150D01*
X8831730Y-16608150D02*
X8860301Y-16608150D01*
X8860301Y-16608150D02*
X8879349Y-16617674D01*
X8955539Y-16817674D02*
X8965063Y-16808150D01*
X8965063Y-16808150D02*
X8984111Y-16779579D01*
X8984111Y-16779579D02*
X8993634Y-16760531D01*
X8993634Y-16760531D02*
X9003158Y-16731960D01*
X9003158Y-16731960D02*
X9012682Y-16684341D01*
X9012682Y-16684341D02*
X9012682Y-16646246D01*
X9012682Y-16646246D02*
X9003158Y-16598627D01*
X9003158Y-16598627D02*
X8993634Y-16570055D01*
X8993634Y-16570055D02*
X8984111Y-16551008D01*
X8984111Y-16551008D02*
X8965063Y-16522436D01*
X8965063Y-16522436D02*
X8955539Y-16512912D01*
D11*
X3990000Y-16914000D02*
G75*
G02*
X3890000Y-16914000I-50000J0D01*
G01*
X3890000Y-16914000D02*
G75*
G02*
X3990000Y-16914000I50000J0D01*
G01*
D10*
X4355539Y-17005484D02*
X4241253Y-17005484D01*
X4298396Y-17005484D02*
X4298396Y-16805484D01*
X4298396Y-16805484D02*
X4279348Y-16834055D01*
X4279348Y-16834055D02*
X4260301Y-16853103D01*
X4260301Y-16853103D02*
X4241253Y-16862627D01*
X4441253Y-16986436D02*
X4450777Y-16995960D01*
X4450777Y-16995960D02*
X4441253Y-17005484D01*
X4441253Y-17005484D02*
X4431729Y-16995960D01*
X4431729Y-16995960D02*
X4441253Y-16986436D01*
X4441253Y-16986436D02*
X4441253Y-17005484D01*
X4574586Y-16805484D02*
X4593634Y-16805484D01*
X4593634Y-16805484D02*
X4612682Y-16815008D01*
X4612682Y-16815008D02*
X4622205Y-16824531D01*
X4622205Y-16824531D02*
X4631729Y-16843579D01*
X4631729Y-16843579D02*
X4641253Y-16881674D01*
X4641253Y-16881674D02*
X4641253Y-16929293D01*
X4641253Y-16929293D02*
X4631729Y-16967389D01*
X4631729Y-16967389D02*
X4622205Y-16986436D01*
X4622205Y-16986436D02*
X4612682Y-16995960D01*
X4612682Y-16995960D02*
X4593634Y-17005484D01*
X4593634Y-17005484D02*
X4574586Y-17005484D01*
X4574586Y-17005484D02*
X4555539Y-16995960D01*
X4555539Y-16995960D02*
X4546015Y-16986436D01*
X4546015Y-16986436D02*
X4536491Y-16967389D01*
X4536491Y-16967389D02*
X4526967Y-16929293D01*
X4526967Y-16929293D02*
X4526967Y-16881674D01*
X4526967Y-16881674D02*
X4536491Y-16843579D01*
X4536491Y-16843579D02*
X4546015Y-16824531D01*
X4546015Y-16824531D02*
X4555539Y-16815008D01*
X4555539Y-16815008D02*
X4574586Y-16805484D01*
X4765063Y-16805484D02*
X4784110Y-16805484D01*
X4784110Y-16805484D02*
X4803158Y-16815008D01*
X4803158Y-16815008D02*
X4812682Y-16824531D01*
X4812682Y-16824531D02*
X4822205Y-16843579D01*
X4822205Y-16843579D02*
X4831729Y-16881674D01*
X4831729Y-16881674D02*
X4831729Y-16929293D01*
X4831729Y-16929293D02*
X4822205Y-16967389D01*
X4822205Y-16967389D02*
X4812682Y-16986436D01*
X4812682Y-16986436D02*
X4803158Y-16995960D01*
X4803158Y-16995960D02*
X4784110Y-17005484D01*
X4784110Y-17005484D02*
X4765063Y-17005484D01*
X4765063Y-17005484D02*
X4746015Y-16995960D01*
X4746015Y-16995960D02*
X4736491Y-16986436D01*
X4736491Y-16986436D02*
X4726967Y-16967389D01*
X4726967Y-16967389D02*
X4717444Y-16929293D01*
X4717444Y-16929293D02*
X4717444Y-16881674D01*
X4717444Y-16881674D02*
X4726967Y-16843579D01*
X4726967Y-16843579D02*
X4736491Y-16824531D01*
X4736491Y-16824531D02*
X4746015Y-16815008D01*
X4746015Y-16815008D02*
X4765063Y-16805484D01*
X4955539Y-16805484D02*
X4974586Y-16805484D01*
X4974586Y-16805484D02*
X4993634Y-16815008D01*
X4993634Y-16815008D02*
X5003158Y-16824531D01*
X5003158Y-16824531D02*
X5012682Y-16843579D01*
X5012682Y-16843579D02*
X5022205Y-16881674D01*
X5022205Y-16881674D02*
X5022205Y-16929293D01*
X5022205Y-16929293D02*
X5012682Y-16967389D01*
X5012682Y-16967389D02*
X5003158Y-16986436D01*
X5003158Y-16986436D02*
X4993634Y-16995960D01*
X4993634Y-16995960D02*
X4974586Y-17005484D01*
X4974586Y-17005484D02*
X4955539Y-17005484D01*
X4955539Y-17005484D02*
X4936491Y-16995960D01*
X4936491Y-16995960D02*
X4926967Y-16986436D01*
X4926967Y-16986436D02*
X4917444Y-16967389D01*
X4917444Y-16967389D02*
X4907920Y-16929293D01*
X4907920Y-16929293D02*
X4907920Y-16881674D01*
X4907920Y-16881674D02*
X4917444Y-16843579D01*
X4917444Y-16843579D02*
X4926967Y-16824531D01*
X4926967Y-16824531D02*
X4936491Y-16815008D01*
X4936491Y-16815008D02*
X4955539Y-16805484D01*
X5107920Y-17005484D02*
X5107920Y-16872150D01*
X5107920Y-16891198D02*
X5117444Y-16881674D01*
X5117444Y-16881674D02*
X5136491Y-16872150D01*
X5136491Y-16872150D02*
X5165063Y-16872150D01*
X5165063Y-16872150D02*
X5184110Y-16881674D01*
X5184110Y-16881674D02*
X5193634Y-16900722D01*
X5193634Y-16900722D02*
X5193634Y-17005484D01*
X5193634Y-16900722D02*
X5203158Y-16881674D01*
X5203158Y-16881674D02*
X5222205Y-16872150D01*
X5222205Y-16872150D02*
X5250777Y-16872150D01*
X5250777Y-16872150D02*
X5269825Y-16881674D01*
X5269825Y-16881674D02*
X5279348Y-16900722D01*
X5279348Y-16900722D02*
X5279348Y-17005484D01*
X5374586Y-17005484D02*
X5374586Y-16872150D01*
X5374586Y-16891198D02*
X5384110Y-16881674D01*
X5384110Y-16881674D02*
X5403158Y-16872150D01*
X5403158Y-16872150D02*
X5431729Y-16872150D01*
X5431729Y-16872150D02*
X5450777Y-16881674D01*
X5450777Y-16881674D02*
X5460301Y-16900722D01*
X5460301Y-16900722D02*
X5460301Y-17005484D01*
X5460301Y-16900722D02*
X5469825Y-16881674D01*
X5469825Y-16881674D02*
X5488872Y-16872150D01*
X5488872Y-16872150D02*
X5517444Y-16872150D01*
X5517444Y-16872150D02*
X5536491Y-16881674D01*
X5536491Y-16881674D02*
X5546015Y-16900722D01*
X5546015Y-16900722D02*
X5546015Y-17005484D01*
X5936491Y-16795960D02*
X5765063Y-17053103D01*
X6193634Y-16805484D02*
X6212682Y-16805484D01*
X6212682Y-16805484D02*
X6231729Y-16815008D01*
X6231729Y-16815008D02*
X6241253Y-16824531D01*
X6241253Y-16824531D02*
X6250777Y-16843579D01*
X6250777Y-16843579D02*
X6260301Y-16881674D01*
X6260301Y-16881674D02*
X6260301Y-16929293D01*
X6260301Y-16929293D02*
X6250777Y-16967389D01*
X6250777Y-16967389D02*
X6241253Y-16986436D01*
X6241253Y-16986436D02*
X6231729Y-16995960D01*
X6231729Y-16995960D02*
X6212682Y-17005484D01*
X6212682Y-17005484D02*
X6193634Y-17005484D01*
X6193634Y-17005484D02*
X6174586Y-16995960D01*
X6174586Y-16995960D02*
X6165063Y-16986436D01*
X6165063Y-16986436D02*
X6155539Y-16967389D01*
X6155539Y-16967389D02*
X6146015Y-16929293D01*
X6146015Y-16929293D02*
X6146015Y-16881674D01*
X6146015Y-16881674D02*
X6155539Y-16843579D01*
X6155539Y-16843579D02*
X6165063Y-16824531D01*
X6165063Y-16824531D02*
X6174586Y-16815008D01*
X6174586Y-16815008D02*
X6193634Y-16805484D01*
X6346015Y-16986436D02*
X6355539Y-16995960D01*
X6355539Y-16995960D02*
X6346015Y-17005484D01*
X6346015Y-17005484D02*
X6336491Y-16995960D01*
X6336491Y-16995960D02*
X6346015Y-16986436D01*
X6346015Y-16986436D02*
X6346015Y-17005484D01*
X6479348Y-16805484D02*
X6498396Y-16805484D01*
X6498396Y-16805484D02*
X6517444Y-16815008D01*
X6517444Y-16815008D02*
X6526967Y-16824531D01*
X6526967Y-16824531D02*
X6536491Y-16843579D01*
X6536491Y-16843579D02*
X6546015Y-16881674D01*
X6546015Y-16881674D02*
X6546015Y-16929293D01*
X6546015Y-16929293D02*
X6536491Y-16967389D01*
X6536491Y-16967389D02*
X6526967Y-16986436D01*
X6526967Y-16986436D02*
X6517444Y-16995960D01*
X6517444Y-16995960D02*
X6498396Y-17005484D01*
X6498396Y-17005484D02*
X6479348Y-17005484D01*
X6479348Y-17005484D02*
X6460301Y-16995960D01*
X6460301Y-16995960D02*
X6450777Y-16986436D01*
X6450777Y-16986436D02*
X6441253Y-16967389D01*
X6441253Y-16967389D02*
X6431729Y-16929293D01*
X6431729Y-16929293D02*
X6431729Y-16881674D01*
X6431729Y-16881674D02*
X6441253Y-16843579D01*
X6441253Y-16843579D02*
X6450777Y-16824531D01*
X6450777Y-16824531D02*
X6460301Y-16815008D01*
X6460301Y-16815008D02*
X6479348Y-16805484D01*
X6612682Y-16805484D02*
X6736491Y-16805484D01*
X6736491Y-16805484D02*
X6669825Y-16881674D01*
X6669825Y-16881674D02*
X6698396Y-16881674D01*
X6698396Y-16881674D02*
X6717444Y-16891198D01*
X6717444Y-16891198D02*
X6726967Y-16900722D01*
X6726967Y-16900722D02*
X6736491Y-16919770D01*
X6736491Y-16919770D02*
X6736491Y-16967389D01*
X6736491Y-16967389D02*
X6726967Y-16986436D01*
X6726967Y-16986436D02*
X6717444Y-16995960D01*
X6717444Y-16995960D02*
X6698396Y-17005484D01*
X6698396Y-17005484D02*
X6641253Y-17005484D01*
X6641253Y-17005484D02*
X6622206Y-16995960D01*
X6622206Y-16995960D02*
X6612682Y-16986436D01*
X6831729Y-17005484D02*
X6869825Y-17005484D01*
X6869825Y-17005484D02*
X6888872Y-16995960D01*
X6888872Y-16995960D02*
X6898396Y-16986436D01*
X6898396Y-16986436D02*
X6917444Y-16957865D01*
X6917444Y-16957865D02*
X6926967Y-16919770D01*
X6926967Y-16919770D02*
X6926967Y-16843579D01*
X6926967Y-16843579D02*
X6917444Y-16824531D01*
X6917444Y-16824531D02*
X6907920Y-16815008D01*
X6907920Y-16815008D02*
X6888872Y-16805484D01*
X6888872Y-16805484D02*
X6850777Y-16805484D01*
X6850777Y-16805484D02*
X6831729Y-16815008D01*
X6831729Y-16815008D02*
X6822206Y-16824531D01*
X6822206Y-16824531D02*
X6812682Y-16843579D01*
X6812682Y-16843579D02*
X6812682Y-16891198D01*
X6812682Y-16891198D02*
X6822206Y-16910246D01*
X6822206Y-16910246D02*
X6831729Y-16919770D01*
X6831729Y-16919770D02*
X6850777Y-16929293D01*
X6850777Y-16929293D02*
X6888872Y-16929293D01*
X6888872Y-16929293D02*
X6907920Y-16919770D01*
X6907920Y-16919770D02*
X6917444Y-16910246D01*
X6917444Y-16910246D02*
X6926967Y-16891198D01*
X7098396Y-16872150D02*
X7098396Y-17005484D01*
X7050777Y-16795960D02*
X7003158Y-16938817D01*
X7003158Y-16938817D02*
X7126967Y-16938817D01*
X7193634Y-16805484D02*
X7193634Y-16843579D01*
X7269825Y-16805484D02*
X7269825Y-16843579D01*
X7565063Y-17081674D02*
X7555539Y-17072150D01*
X7555539Y-17072150D02*
X7536491Y-17043579D01*
X7536491Y-17043579D02*
X7526968Y-17024531D01*
X7526968Y-17024531D02*
X7517444Y-16995960D01*
X7517444Y-16995960D02*
X7507920Y-16948341D01*
X7507920Y-16948341D02*
X7507920Y-16910246D01*
X7507920Y-16910246D02*
X7517444Y-16862627D01*
X7517444Y-16862627D02*
X7526968Y-16834055D01*
X7526968Y-16834055D02*
X7536491Y-16815008D01*
X7536491Y-16815008D02*
X7555539Y-16786436D01*
X7555539Y-16786436D02*
X7565063Y-16776912D01*
X7746015Y-17005484D02*
X7631729Y-17005484D01*
X7688872Y-17005484D02*
X7688872Y-16805484D01*
X7688872Y-16805484D02*
X7669825Y-16834055D01*
X7669825Y-16834055D02*
X7650777Y-16853103D01*
X7650777Y-16853103D02*
X7631729Y-16862627D01*
X7860301Y-16891198D02*
X7841253Y-16881674D01*
X7841253Y-16881674D02*
X7831729Y-16872150D01*
X7831729Y-16872150D02*
X7822206Y-16853103D01*
X7822206Y-16853103D02*
X7822206Y-16843579D01*
X7822206Y-16843579D02*
X7831729Y-16824531D01*
X7831729Y-16824531D02*
X7841253Y-16815008D01*
X7841253Y-16815008D02*
X7860301Y-16805484D01*
X7860301Y-16805484D02*
X7898396Y-16805484D01*
X7898396Y-16805484D02*
X7917444Y-16815008D01*
X7917444Y-16815008D02*
X7926968Y-16824531D01*
X7926968Y-16824531D02*
X7936491Y-16843579D01*
X7936491Y-16843579D02*
X7936491Y-16853103D01*
X7936491Y-16853103D02*
X7926968Y-16872150D01*
X7926968Y-16872150D02*
X7917444Y-16881674D01*
X7917444Y-16881674D02*
X7898396Y-16891198D01*
X7898396Y-16891198D02*
X7860301Y-16891198D01*
X7860301Y-16891198D02*
X7841253Y-16900722D01*
X7841253Y-16900722D02*
X7831729Y-16910246D01*
X7831729Y-16910246D02*
X7822206Y-16929293D01*
X7822206Y-16929293D02*
X7822206Y-16967389D01*
X7822206Y-16967389D02*
X7831729Y-16986436D01*
X7831729Y-16986436D02*
X7841253Y-16995960D01*
X7841253Y-16995960D02*
X7860301Y-17005484D01*
X7860301Y-17005484D02*
X7898396Y-17005484D01*
X7898396Y-17005484D02*
X7917444Y-16995960D01*
X7917444Y-16995960D02*
X7926968Y-16986436D01*
X7926968Y-16986436D02*
X7936491Y-16967389D01*
X7936491Y-16967389D02*
X7936491Y-16929293D01*
X7936491Y-16929293D02*
X7926968Y-16910246D01*
X7926968Y-16910246D02*
X7917444Y-16900722D01*
X7917444Y-16900722D02*
X7898396Y-16891198D01*
X8174587Y-17005484D02*
X8174587Y-16805484D01*
X8260301Y-17005484D02*
X8260301Y-16900722D01*
X8260301Y-16900722D02*
X8250777Y-16881674D01*
X8250777Y-16881674D02*
X8231730Y-16872150D01*
X8231730Y-16872150D02*
X8203158Y-16872150D01*
X8203158Y-16872150D02*
X8184110Y-16881674D01*
X8184110Y-16881674D02*
X8174587Y-16891198D01*
X8384110Y-17005484D02*
X8365063Y-16995960D01*
X8365063Y-16995960D02*
X8355539Y-16986436D01*
X8355539Y-16986436D02*
X8346015Y-16967389D01*
X8346015Y-16967389D02*
X8346015Y-16910246D01*
X8346015Y-16910246D02*
X8355539Y-16891198D01*
X8355539Y-16891198D02*
X8365063Y-16881674D01*
X8365063Y-16881674D02*
X8384110Y-16872150D01*
X8384110Y-16872150D02*
X8412682Y-16872150D01*
X8412682Y-16872150D02*
X8431730Y-16881674D01*
X8431730Y-16881674D02*
X8441253Y-16891198D01*
X8441253Y-16891198D02*
X8450777Y-16910246D01*
X8450777Y-16910246D02*
X8450777Y-16967389D01*
X8450777Y-16967389D02*
X8441253Y-16986436D01*
X8441253Y-16986436D02*
X8431730Y-16995960D01*
X8431730Y-16995960D02*
X8412682Y-17005484D01*
X8412682Y-17005484D02*
X8384110Y-17005484D01*
X8565063Y-17005484D02*
X8546015Y-16995960D01*
X8546015Y-16995960D02*
X8536492Y-16976912D01*
X8536492Y-16976912D02*
X8536492Y-16805484D01*
X8717444Y-16995960D02*
X8698396Y-17005484D01*
X8698396Y-17005484D02*
X8660301Y-17005484D01*
X8660301Y-17005484D02*
X8641253Y-16995960D01*
X8641253Y-16995960D02*
X8631730Y-16976912D01*
X8631730Y-16976912D02*
X8631730Y-16900722D01*
X8631730Y-16900722D02*
X8641253Y-16881674D01*
X8641253Y-16881674D02*
X8660301Y-16872150D01*
X8660301Y-16872150D02*
X8698396Y-16872150D01*
X8698396Y-16872150D02*
X8717444Y-16881674D01*
X8717444Y-16881674D02*
X8726968Y-16900722D01*
X8726968Y-16900722D02*
X8726968Y-16919770D01*
X8726968Y-16919770D02*
X8631730Y-16938817D01*
X8803158Y-16995960D02*
X8822206Y-17005484D01*
X8822206Y-17005484D02*
X8860301Y-17005484D01*
X8860301Y-17005484D02*
X8879349Y-16995960D01*
X8879349Y-16995960D02*
X8888873Y-16976912D01*
X8888873Y-16976912D02*
X8888873Y-16967389D01*
X8888873Y-16967389D02*
X8879349Y-16948341D01*
X8879349Y-16948341D02*
X8860301Y-16938817D01*
X8860301Y-16938817D02*
X8831730Y-16938817D01*
X8831730Y-16938817D02*
X8812682Y-16929293D01*
X8812682Y-16929293D02*
X8803158Y-16910246D01*
X8803158Y-16910246D02*
X8803158Y-16900722D01*
X8803158Y-16900722D02*
X8812682Y-16881674D01*
X8812682Y-16881674D02*
X8831730Y-16872150D01*
X8831730Y-16872150D02*
X8860301Y-16872150D01*
X8860301Y-16872150D02*
X8879349Y-16881674D01*
X9126968Y-16929293D02*
X9279349Y-16929293D01*
X9203158Y-17005484D02*
X9203158Y-16853103D01*
X9507920Y-16805484D02*
X9631730Y-16805484D01*
X9631730Y-16805484D02*
X9565063Y-16881674D01*
X9565063Y-16881674D02*
X9593635Y-16881674D01*
X9593635Y-16881674D02*
X9612682Y-16891198D01*
X9612682Y-16891198D02*
X9622206Y-16900722D01*
X9622206Y-16900722D02*
X9631730Y-16919770D01*
X9631730Y-16919770D02*
X9631730Y-16967389D01*
X9631730Y-16967389D02*
X9622206Y-16986436D01*
X9622206Y-16986436D02*
X9612682Y-16995960D01*
X9612682Y-16995960D02*
X9593635Y-17005484D01*
X9593635Y-17005484D02*
X9536492Y-17005484D01*
X9536492Y-17005484D02*
X9517444Y-16995960D01*
X9517444Y-16995960D02*
X9507920Y-16986436D01*
X9860301Y-16995960D02*
X9879349Y-17005484D01*
X9879349Y-17005484D02*
X9917444Y-17005484D01*
X9917444Y-17005484D02*
X9936492Y-16995960D01*
X9936492Y-16995960D02*
X9946016Y-16976912D01*
X9946016Y-16976912D02*
X9946016Y-16967389D01*
X9946016Y-16967389D02*
X9936492Y-16948341D01*
X9936492Y-16948341D02*
X9917444Y-16938817D01*
X9917444Y-16938817D02*
X9888873Y-16938817D01*
X9888873Y-16938817D02*
X9869825Y-16929293D01*
X9869825Y-16929293D02*
X9860301Y-16910246D01*
X9860301Y-16910246D02*
X9860301Y-16900722D01*
X9860301Y-16900722D02*
X9869825Y-16881674D01*
X9869825Y-16881674D02*
X9888873Y-16872150D01*
X9888873Y-16872150D02*
X9917444Y-16872150D01*
X9917444Y-16872150D02*
X9936492Y-16881674D01*
X10060301Y-17005484D02*
X10041254Y-16995960D01*
X10041254Y-16995960D02*
X10031730Y-16976912D01*
X10031730Y-16976912D02*
X10031730Y-16805484D01*
X10165063Y-17005484D02*
X10146016Y-16995960D01*
X10146016Y-16995960D02*
X10136492Y-16986436D01*
X10136492Y-16986436D02*
X10126968Y-16967389D01*
X10126968Y-16967389D02*
X10126968Y-16910246D01*
X10126968Y-16910246D02*
X10136492Y-16891198D01*
X10136492Y-16891198D02*
X10146016Y-16881674D01*
X10146016Y-16881674D02*
X10165063Y-16872150D01*
X10165063Y-16872150D02*
X10193635Y-16872150D01*
X10193635Y-16872150D02*
X10212682Y-16881674D01*
X10212682Y-16881674D02*
X10222206Y-16891198D01*
X10222206Y-16891198D02*
X10231730Y-16910246D01*
X10231730Y-16910246D02*
X10231730Y-16967389D01*
X10231730Y-16967389D02*
X10222206Y-16986436D01*
X10222206Y-16986436D02*
X10212682Y-16995960D01*
X10212682Y-16995960D02*
X10193635Y-17005484D01*
X10193635Y-17005484D02*
X10165063Y-17005484D01*
X10288873Y-16872150D02*
X10365063Y-16872150D01*
X10317444Y-16805484D02*
X10317444Y-16976912D01*
X10317444Y-16976912D02*
X10326968Y-16995960D01*
X10326968Y-16995960D02*
X10346016Y-17005484D01*
X10346016Y-17005484D02*
X10365063Y-17005484D01*
X10422206Y-16995960D02*
X10441254Y-17005484D01*
X10441254Y-17005484D02*
X10479349Y-17005484D01*
X10479349Y-17005484D02*
X10498397Y-16995960D01*
X10498397Y-16995960D02*
X10507920Y-16976912D01*
X10507920Y-16976912D02*
X10507920Y-16967389D01*
X10507920Y-16967389D02*
X10498397Y-16948341D01*
X10498397Y-16948341D02*
X10479349Y-16938817D01*
X10479349Y-16938817D02*
X10450777Y-16938817D01*
X10450777Y-16938817D02*
X10431730Y-16929293D01*
X10431730Y-16929293D02*
X10422206Y-16910246D01*
X10422206Y-16910246D02*
X10422206Y-16900722D01*
X10422206Y-16900722D02*
X10431730Y-16881674D01*
X10431730Y-16881674D02*
X10450777Y-16872150D01*
X10450777Y-16872150D02*
X10479349Y-16872150D01*
X10479349Y-16872150D02*
X10498397Y-16881674D01*
X10574587Y-17081674D02*
X10584111Y-17072150D01*
X10584111Y-17072150D02*
X10603158Y-17043579D01*
X10603158Y-17043579D02*
X10612682Y-17024531D01*
X10612682Y-17024531D02*
X10622206Y-16995960D01*
X10622206Y-16995960D02*
X10631730Y-16948341D01*
X10631730Y-16948341D02*
X10631730Y-16910246D01*
X10631730Y-16910246D02*
X10622206Y-16862627D01*
X10622206Y-16862627D02*
X10612682Y-16834055D01*
X10612682Y-16834055D02*
X10603158Y-16815008D01*
X10603158Y-16815008D02*
X10584111Y-16786436D01*
X10584111Y-16786436D02*
X10574587Y-16776912D01*
D12*
X3938000Y-17126000D02*
X3938000Y-17230000D01*
X3886000Y-17178000D02*
X3990000Y-17178000D01*
D10*
X4355539Y-17269484D02*
X4241253Y-17269484D01*
X4298396Y-17269484D02*
X4298396Y-17069484D01*
X4298396Y-17069484D02*
X4279348Y-17098055D01*
X4279348Y-17098055D02*
X4260301Y-17117103D01*
X4260301Y-17117103D02*
X4241253Y-17126627D01*
X4441253Y-17250436D02*
X4450777Y-17259960D01*
X4450777Y-17259960D02*
X4441253Y-17269484D01*
X4441253Y-17269484D02*
X4431729Y-17259960D01*
X4431729Y-17259960D02*
X4441253Y-17250436D01*
X4441253Y-17250436D02*
X4441253Y-17269484D01*
X4574586Y-17069484D02*
X4593634Y-17069484D01*
X4593634Y-17069484D02*
X4612682Y-17079008D01*
X4612682Y-17079008D02*
X4622205Y-17088531D01*
X4622205Y-17088531D02*
X4631729Y-17107579D01*
X4631729Y-17107579D02*
X4641253Y-17145674D01*
X4641253Y-17145674D02*
X4641253Y-17193293D01*
X4641253Y-17193293D02*
X4631729Y-17231389D01*
X4631729Y-17231389D02*
X4622205Y-17250436D01*
X4622205Y-17250436D02*
X4612682Y-17259960D01*
X4612682Y-17259960D02*
X4593634Y-17269484D01*
X4593634Y-17269484D02*
X4574586Y-17269484D01*
X4574586Y-17269484D02*
X4555539Y-17259960D01*
X4555539Y-17259960D02*
X4546015Y-17250436D01*
X4546015Y-17250436D02*
X4536491Y-17231389D01*
X4536491Y-17231389D02*
X4526967Y-17193293D01*
X4526967Y-17193293D02*
X4526967Y-17145674D01*
X4526967Y-17145674D02*
X4536491Y-17107579D01*
X4536491Y-17107579D02*
X4546015Y-17088531D01*
X4546015Y-17088531D02*
X4555539Y-17079008D01*
X4555539Y-17079008D02*
X4574586Y-17069484D01*
X4812682Y-17136150D02*
X4812682Y-17269484D01*
X4765063Y-17059960D02*
X4717444Y-17202817D01*
X4717444Y-17202817D02*
X4841253Y-17202817D01*
X4955539Y-17069484D02*
X4974586Y-17069484D01*
X4974586Y-17069484D02*
X4993634Y-17079008D01*
X4993634Y-17079008D02*
X5003158Y-17088531D01*
X5003158Y-17088531D02*
X5012682Y-17107579D01*
X5012682Y-17107579D02*
X5022205Y-17145674D01*
X5022205Y-17145674D02*
X5022205Y-17193293D01*
X5022205Y-17193293D02*
X5012682Y-17231389D01*
X5012682Y-17231389D02*
X5003158Y-17250436D01*
X5003158Y-17250436D02*
X4993634Y-17259960D01*
X4993634Y-17259960D02*
X4974586Y-17269484D01*
X4974586Y-17269484D02*
X4955539Y-17269484D01*
X4955539Y-17269484D02*
X4936491Y-17259960D01*
X4936491Y-17259960D02*
X4926967Y-17250436D01*
X4926967Y-17250436D02*
X4917444Y-17231389D01*
X4917444Y-17231389D02*
X4907920Y-17193293D01*
X4907920Y-17193293D02*
X4907920Y-17145674D01*
X4907920Y-17145674D02*
X4917444Y-17107579D01*
X4917444Y-17107579D02*
X4926967Y-17088531D01*
X4926967Y-17088531D02*
X4936491Y-17079008D01*
X4936491Y-17079008D02*
X4955539Y-17069484D01*
X5107920Y-17269484D02*
X5107920Y-17136150D01*
X5107920Y-17155198D02*
X5117444Y-17145674D01*
X5117444Y-17145674D02*
X5136491Y-17136150D01*
X5136491Y-17136150D02*
X5165063Y-17136150D01*
X5165063Y-17136150D02*
X5184110Y-17145674D01*
X5184110Y-17145674D02*
X5193634Y-17164722D01*
X5193634Y-17164722D02*
X5193634Y-17269484D01*
X5193634Y-17164722D02*
X5203158Y-17145674D01*
X5203158Y-17145674D02*
X5222205Y-17136150D01*
X5222205Y-17136150D02*
X5250777Y-17136150D01*
X5250777Y-17136150D02*
X5269825Y-17145674D01*
X5269825Y-17145674D02*
X5279348Y-17164722D01*
X5279348Y-17164722D02*
X5279348Y-17269484D01*
X5374586Y-17269484D02*
X5374586Y-17136150D01*
X5374586Y-17155198D02*
X5384110Y-17145674D01*
X5384110Y-17145674D02*
X5403158Y-17136150D01*
X5403158Y-17136150D02*
X5431729Y-17136150D01*
X5431729Y-17136150D02*
X5450777Y-17145674D01*
X5450777Y-17145674D02*
X5460301Y-17164722D01*
X5460301Y-17164722D02*
X5460301Y-17269484D01*
X5460301Y-17164722D02*
X5469825Y-17145674D01*
X5469825Y-17145674D02*
X5488872Y-17136150D01*
X5488872Y-17136150D02*
X5517444Y-17136150D01*
X5517444Y-17136150D02*
X5536491Y-17145674D01*
X5536491Y-17145674D02*
X5546015Y-17164722D01*
X5546015Y-17164722D02*
X5546015Y-17269484D01*
X5936491Y-17059960D02*
X5765063Y-17317103D01*
X6193634Y-17069484D02*
X6212682Y-17069484D01*
X6212682Y-17069484D02*
X6231729Y-17079008D01*
X6231729Y-17079008D02*
X6241253Y-17088531D01*
X6241253Y-17088531D02*
X6250777Y-17107579D01*
X6250777Y-17107579D02*
X6260301Y-17145674D01*
X6260301Y-17145674D02*
X6260301Y-17193293D01*
X6260301Y-17193293D02*
X6250777Y-17231389D01*
X6250777Y-17231389D02*
X6241253Y-17250436D01*
X6241253Y-17250436D02*
X6231729Y-17259960D01*
X6231729Y-17259960D02*
X6212682Y-17269484D01*
X6212682Y-17269484D02*
X6193634Y-17269484D01*
X6193634Y-17269484D02*
X6174586Y-17259960D01*
X6174586Y-17259960D02*
X6165063Y-17250436D01*
X6165063Y-17250436D02*
X6155539Y-17231389D01*
X6155539Y-17231389D02*
X6146015Y-17193293D01*
X6146015Y-17193293D02*
X6146015Y-17145674D01*
X6146015Y-17145674D02*
X6155539Y-17107579D01*
X6155539Y-17107579D02*
X6165063Y-17088531D01*
X6165063Y-17088531D02*
X6174586Y-17079008D01*
X6174586Y-17079008D02*
X6193634Y-17069484D01*
X6346015Y-17250436D02*
X6355539Y-17259960D01*
X6355539Y-17259960D02*
X6346015Y-17269484D01*
X6346015Y-17269484D02*
X6336491Y-17259960D01*
X6336491Y-17259960D02*
X6346015Y-17250436D01*
X6346015Y-17250436D02*
X6346015Y-17269484D01*
X6479348Y-17069484D02*
X6498396Y-17069484D01*
X6498396Y-17069484D02*
X6517444Y-17079008D01*
X6517444Y-17079008D02*
X6526967Y-17088531D01*
X6526967Y-17088531D02*
X6536491Y-17107579D01*
X6536491Y-17107579D02*
X6546015Y-17145674D01*
X6546015Y-17145674D02*
X6546015Y-17193293D01*
X6546015Y-17193293D02*
X6536491Y-17231389D01*
X6536491Y-17231389D02*
X6526967Y-17250436D01*
X6526967Y-17250436D02*
X6517444Y-17259960D01*
X6517444Y-17259960D02*
X6498396Y-17269484D01*
X6498396Y-17269484D02*
X6479348Y-17269484D01*
X6479348Y-17269484D02*
X6460301Y-17259960D01*
X6460301Y-17259960D02*
X6450777Y-17250436D01*
X6450777Y-17250436D02*
X6441253Y-17231389D01*
X6441253Y-17231389D02*
X6431729Y-17193293D01*
X6431729Y-17193293D02*
X6431729Y-17145674D01*
X6431729Y-17145674D02*
X6441253Y-17107579D01*
X6441253Y-17107579D02*
X6450777Y-17088531D01*
X6450777Y-17088531D02*
X6460301Y-17079008D01*
X6460301Y-17079008D02*
X6479348Y-17069484D01*
X6717444Y-17136150D02*
X6717444Y-17269484D01*
X6669825Y-17059960D02*
X6622206Y-17202817D01*
X6622206Y-17202817D02*
X6746015Y-17202817D01*
X6860301Y-17069484D02*
X6879348Y-17069484D01*
X6879348Y-17069484D02*
X6898396Y-17079008D01*
X6898396Y-17079008D02*
X6907920Y-17088531D01*
X6907920Y-17088531D02*
X6917444Y-17107579D01*
X6917444Y-17107579D02*
X6926967Y-17145674D01*
X6926967Y-17145674D02*
X6926967Y-17193293D01*
X6926967Y-17193293D02*
X6917444Y-17231389D01*
X6917444Y-17231389D02*
X6907920Y-17250436D01*
X6907920Y-17250436D02*
X6898396Y-17259960D01*
X6898396Y-17259960D02*
X6879348Y-17269484D01*
X6879348Y-17269484D02*
X6860301Y-17269484D01*
X6860301Y-17269484D02*
X6841253Y-17259960D01*
X6841253Y-17259960D02*
X6831729Y-17250436D01*
X6831729Y-17250436D02*
X6822206Y-17231389D01*
X6822206Y-17231389D02*
X6812682Y-17193293D01*
X6812682Y-17193293D02*
X6812682Y-17145674D01*
X6812682Y-17145674D02*
X6822206Y-17107579D01*
X6822206Y-17107579D02*
X6831729Y-17088531D01*
X6831729Y-17088531D02*
X6841253Y-17079008D01*
X6841253Y-17079008D02*
X6860301Y-17069484D01*
X7022206Y-17269484D02*
X7060301Y-17269484D01*
X7060301Y-17269484D02*
X7079348Y-17259960D01*
X7079348Y-17259960D02*
X7088872Y-17250436D01*
X7088872Y-17250436D02*
X7107920Y-17221865D01*
X7107920Y-17221865D02*
X7117444Y-17183770D01*
X7117444Y-17183770D02*
X7117444Y-17107579D01*
X7117444Y-17107579D02*
X7107920Y-17088531D01*
X7107920Y-17088531D02*
X7098396Y-17079008D01*
X7098396Y-17079008D02*
X7079348Y-17069484D01*
X7079348Y-17069484D02*
X7041253Y-17069484D01*
X7041253Y-17069484D02*
X7022206Y-17079008D01*
X7022206Y-17079008D02*
X7012682Y-17088531D01*
X7012682Y-17088531D02*
X7003158Y-17107579D01*
X7003158Y-17107579D02*
X7003158Y-17155198D01*
X7003158Y-17155198D02*
X7012682Y-17174246D01*
X7012682Y-17174246D02*
X7022206Y-17183770D01*
X7022206Y-17183770D02*
X7041253Y-17193293D01*
X7041253Y-17193293D02*
X7079348Y-17193293D01*
X7079348Y-17193293D02*
X7098396Y-17183770D01*
X7098396Y-17183770D02*
X7107920Y-17174246D01*
X7107920Y-17174246D02*
X7117444Y-17155198D01*
X7193634Y-17069484D02*
X7193634Y-17107579D01*
X7269825Y-17069484D02*
X7269825Y-17107579D01*
X7565063Y-17345674D02*
X7555539Y-17336150D01*
X7555539Y-17336150D02*
X7536491Y-17307579D01*
X7536491Y-17307579D02*
X7526968Y-17288531D01*
X7526968Y-17288531D02*
X7517444Y-17259960D01*
X7517444Y-17259960D02*
X7507920Y-17212341D01*
X7507920Y-17212341D02*
X7507920Y-17174246D01*
X7507920Y-17174246D02*
X7517444Y-17126627D01*
X7517444Y-17126627D02*
X7526968Y-17098055D01*
X7526968Y-17098055D02*
X7536491Y-17079008D01*
X7536491Y-17079008D02*
X7555539Y-17050436D01*
X7555539Y-17050436D02*
X7565063Y-17040912D01*
X7726968Y-17069484D02*
X7688872Y-17069484D01*
X7688872Y-17069484D02*
X7669825Y-17079008D01*
X7669825Y-17079008D02*
X7660301Y-17088531D01*
X7660301Y-17088531D02*
X7641253Y-17117103D01*
X7641253Y-17117103D02*
X7631729Y-17155198D01*
X7631729Y-17155198D02*
X7631729Y-17231389D01*
X7631729Y-17231389D02*
X7641253Y-17250436D01*
X7641253Y-17250436D02*
X7650777Y-17259960D01*
X7650777Y-17259960D02*
X7669825Y-17269484D01*
X7669825Y-17269484D02*
X7707920Y-17269484D01*
X7707920Y-17269484D02*
X7726968Y-17259960D01*
X7726968Y-17259960D02*
X7736491Y-17250436D01*
X7736491Y-17250436D02*
X7746015Y-17231389D01*
X7746015Y-17231389D02*
X7746015Y-17183770D01*
X7746015Y-17183770D02*
X7736491Y-17164722D01*
X7736491Y-17164722D02*
X7726968Y-17155198D01*
X7726968Y-17155198D02*
X7707920Y-17145674D01*
X7707920Y-17145674D02*
X7669825Y-17145674D01*
X7669825Y-17145674D02*
X7650777Y-17155198D01*
X7650777Y-17155198D02*
X7641253Y-17164722D01*
X7641253Y-17164722D02*
X7631729Y-17183770D01*
X7822206Y-17088531D02*
X7831729Y-17079008D01*
X7831729Y-17079008D02*
X7850777Y-17069484D01*
X7850777Y-17069484D02*
X7898396Y-17069484D01*
X7898396Y-17069484D02*
X7917444Y-17079008D01*
X7917444Y-17079008D02*
X7926968Y-17088531D01*
X7926968Y-17088531D02*
X7936491Y-17107579D01*
X7936491Y-17107579D02*
X7936491Y-17126627D01*
X7936491Y-17126627D02*
X7926968Y-17155198D01*
X7926968Y-17155198D02*
X7812682Y-17269484D01*
X7812682Y-17269484D02*
X7936491Y-17269484D01*
X8174587Y-17269484D02*
X8174587Y-17069484D01*
X8260301Y-17269484D02*
X8260301Y-17164722D01*
X8260301Y-17164722D02*
X8250777Y-17145674D01*
X8250777Y-17145674D02*
X8231730Y-17136150D01*
X8231730Y-17136150D02*
X8203158Y-17136150D01*
X8203158Y-17136150D02*
X8184110Y-17145674D01*
X8184110Y-17145674D02*
X8174587Y-17155198D01*
X8384110Y-17269484D02*
X8365063Y-17259960D01*
X8365063Y-17259960D02*
X8355539Y-17250436D01*
X8355539Y-17250436D02*
X8346015Y-17231389D01*
X8346015Y-17231389D02*
X8346015Y-17174246D01*
X8346015Y-17174246D02*
X8355539Y-17155198D01*
X8355539Y-17155198D02*
X8365063Y-17145674D01*
X8365063Y-17145674D02*
X8384110Y-17136150D01*
X8384110Y-17136150D02*
X8412682Y-17136150D01*
X8412682Y-17136150D02*
X8431730Y-17145674D01*
X8431730Y-17145674D02*
X8441253Y-17155198D01*
X8441253Y-17155198D02*
X8450777Y-17174246D01*
X8450777Y-17174246D02*
X8450777Y-17231389D01*
X8450777Y-17231389D02*
X8441253Y-17250436D01*
X8441253Y-17250436D02*
X8431730Y-17259960D01*
X8431730Y-17259960D02*
X8412682Y-17269484D01*
X8412682Y-17269484D02*
X8384110Y-17269484D01*
X8565063Y-17269484D02*
X8546015Y-17259960D01*
X8546015Y-17259960D02*
X8536492Y-17240912D01*
X8536492Y-17240912D02*
X8536492Y-17069484D01*
X8717444Y-17259960D02*
X8698396Y-17269484D01*
X8698396Y-17269484D02*
X8660301Y-17269484D01*
X8660301Y-17269484D02*
X8641253Y-17259960D01*
X8641253Y-17259960D02*
X8631730Y-17240912D01*
X8631730Y-17240912D02*
X8631730Y-17164722D01*
X8631730Y-17164722D02*
X8641253Y-17145674D01*
X8641253Y-17145674D02*
X8660301Y-17136150D01*
X8660301Y-17136150D02*
X8698396Y-17136150D01*
X8698396Y-17136150D02*
X8717444Y-17145674D01*
X8717444Y-17145674D02*
X8726968Y-17164722D01*
X8726968Y-17164722D02*
X8726968Y-17183770D01*
X8726968Y-17183770D02*
X8631730Y-17202817D01*
X8803158Y-17259960D02*
X8822206Y-17269484D01*
X8822206Y-17269484D02*
X8860301Y-17269484D01*
X8860301Y-17269484D02*
X8879349Y-17259960D01*
X8879349Y-17259960D02*
X8888873Y-17240912D01*
X8888873Y-17240912D02*
X8888873Y-17231389D01*
X8888873Y-17231389D02*
X8879349Y-17212341D01*
X8879349Y-17212341D02*
X8860301Y-17202817D01*
X8860301Y-17202817D02*
X8831730Y-17202817D01*
X8831730Y-17202817D02*
X8812682Y-17193293D01*
X8812682Y-17193293D02*
X8803158Y-17174246D01*
X8803158Y-17174246D02*
X8803158Y-17164722D01*
X8803158Y-17164722D02*
X8812682Y-17145674D01*
X8812682Y-17145674D02*
X8831730Y-17136150D01*
X8831730Y-17136150D02*
X8860301Y-17136150D01*
X8860301Y-17136150D02*
X8879349Y-17145674D01*
X8955539Y-17345674D02*
X8965063Y-17336150D01*
X8965063Y-17336150D02*
X8984111Y-17307579D01*
X8984111Y-17307579D02*
X8993634Y-17288531D01*
X8993634Y-17288531D02*
X9003158Y-17259960D01*
X9003158Y-17259960D02*
X9012682Y-17212341D01*
X9012682Y-17212341D02*
X9012682Y-17174246D01*
X9012682Y-17174246D02*
X9003158Y-17126627D01*
X9003158Y-17126627D02*
X8993634Y-17098055D01*
X8993634Y-17098055D02*
X8984111Y-17079008D01*
X8984111Y-17079008D02*
X8965063Y-17050436D01*
X8965063Y-17050436D02*
X8955539Y-17040912D01*
D13*
X3969498Y-17491498D02*
X3969498Y-17392502D01*
X3870502Y-17392502D01*
X3870502Y-17491498D01*
X3969498Y-17491498D01*
D10*
X4355539Y-17533484D02*
X4241253Y-17533484D01*
X4298396Y-17533484D02*
X4298396Y-17333484D01*
X4298396Y-17333484D02*
X4279348Y-17362055D01*
X4279348Y-17362055D02*
X4260301Y-17381103D01*
X4260301Y-17381103D02*
X4241253Y-17390627D01*
X4441253Y-17514436D02*
X4450777Y-17523960D01*
X4450777Y-17523960D02*
X4441253Y-17533484D01*
X4441253Y-17533484D02*
X4431729Y-17523960D01*
X4431729Y-17523960D02*
X4441253Y-17514436D01*
X4441253Y-17514436D02*
X4441253Y-17533484D01*
X4622205Y-17400150D02*
X4622205Y-17533484D01*
X4574586Y-17323960D02*
X4526967Y-17466817D01*
X4526967Y-17466817D02*
X4650777Y-17466817D01*
X4765063Y-17333484D02*
X4784110Y-17333484D01*
X4784110Y-17333484D02*
X4803158Y-17343008D01*
X4803158Y-17343008D02*
X4812682Y-17352531D01*
X4812682Y-17352531D02*
X4822205Y-17371579D01*
X4822205Y-17371579D02*
X4831729Y-17409674D01*
X4831729Y-17409674D02*
X4831729Y-17457293D01*
X4831729Y-17457293D02*
X4822205Y-17495389D01*
X4822205Y-17495389D02*
X4812682Y-17514436D01*
X4812682Y-17514436D02*
X4803158Y-17523960D01*
X4803158Y-17523960D02*
X4784110Y-17533484D01*
X4784110Y-17533484D02*
X4765063Y-17533484D01*
X4765063Y-17533484D02*
X4746015Y-17523960D01*
X4746015Y-17523960D02*
X4736491Y-17514436D01*
X4736491Y-17514436D02*
X4726967Y-17495389D01*
X4726967Y-17495389D02*
X4717444Y-17457293D01*
X4717444Y-17457293D02*
X4717444Y-17409674D01*
X4717444Y-17409674D02*
X4726967Y-17371579D01*
X4726967Y-17371579D02*
X4736491Y-17352531D01*
X4736491Y-17352531D02*
X4746015Y-17343008D01*
X4746015Y-17343008D02*
X4765063Y-17333484D01*
X4955539Y-17333484D02*
X4974586Y-17333484D01*
X4974586Y-17333484D02*
X4993634Y-17343008D01*
X4993634Y-17343008D02*
X5003158Y-17352531D01*
X5003158Y-17352531D02*
X5012682Y-17371579D01*
X5012682Y-17371579D02*
X5022205Y-17409674D01*
X5022205Y-17409674D02*
X5022205Y-17457293D01*
X5022205Y-17457293D02*
X5012682Y-17495389D01*
X5012682Y-17495389D02*
X5003158Y-17514436D01*
X5003158Y-17514436D02*
X4993634Y-17523960D01*
X4993634Y-17523960D02*
X4974586Y-17533484D01*
X4974586Y-17533484D02*
X4955539Y-17533484D01*
X4955539Y-17533484D02*
X4936491Y-17523960D01*
X4936491Y-17523960D02*
X4926967Y-17514436D01*
X4926967Y-17514436D02*
X4917444Y-17495389D01*
X4917444Y-17495389D02*
X4907920Y-17457293D01*
X4907920Y-17457293D02*
X4907920Y-17409674D01*
X4907920Y-17409674D02*
X4917444Y-17371579D01*
X4917444Y-17371579D02*
X4926967Y-17352531D01*
X4926967Y-17352531D02*
X4936491Y-17343008D01*
X4936491Y-17343008D02*
X4955539Y-17333484D01*
X5107920Y-17533484D02*
X5107920Y-17400150D01*
X5107920Y-17419198D02*
X5117444Y-17409674D01*
X5117444Y-17409674D02*
X5136491Y-17400150D01*
X5136491Y-17400150D02*
X5165063Y-17400150D01*
X5165063Y-17400150D02*
X5184110Y-17409674D01*
X5184110Y-17409674D02*
X5193634Y-17428722D01*
X5193634Y-17428722D02*
X5193634Y-17533484D01*
X5193634Y-17428722D02*
X5203158Y-17409674D01*
X5203158Y-17409674D02*
X5222205Y-17400150D01*
X5222205Y-17400150D02*
X5250777Y-17400150D01*
X5250777Y-17400150D02*
X5269825Y-17409674D01*
X5269825Y-17409674D02*
X5279348Y-17428722D01*
X5279348Y-17428722D02*
X5279348Y-17533484D01*
X5374586Y-17533484D02*
X5374586Y-17400150D01*
X5374586Y-17419198D02*
X5384110Y-17409674D01*
X5384110Y-17409674D02*
X5403158Y-17400150D01*
X5403158Y-17400150D02*
X5431729Y-17400150D01*
X5431729Y-17400150D02*
X5450777Y-17409674D01*
X5450777Y-17409674D02*
X5460301Y-17428722D01*
X5460301Y-17428722D02*
X5460301Y-17533484D01*
X5460301Y-17428722D02*
X5469825Y-17409674D01*
X5469825Y-17409674D02*
X5488872Y-17400150D01*
X5488872Y-17400150D02*
X5517444Y-17400150D01*
X5517444Y-17400150D02*
X5536491Y-17409674D01*
X5536491Y-17409674D02*
X5546015Y-17428722D01*
X5546015Y-17428722D02*
X5546015Y-17533484D01*
X5936491Y-17323960D02*
X5765063Y-17581103D01*
X6193634Y-17333484D02*
X6212682Y-17333484D01*
X6212682Y-17333484D02*
X6231729Y-17343008D01*
X6231729Y-17343008D02*
X6241253Y-17352531D01*
X6241253Y-17352531D02*
X6250777Y-17371579D01*
X6250777Y-17371579D02*
X6260301Y-17409674D01*
X6260301Y-17409674D02*
X6260301Y-17457293D01*
X6260301Y-17457293D02*
X6250777Y-17495389D01*
X6250777Y-17495389D02*
X6241253Y-17514436D01*
X6241253Y-17514436D02*
X6231729Y-17523960D01*
X6231729Y-17523960D02*
X6212682Y-17533484D01*
X6212682Y-17533484D02*
X6193634Y-17533484D01*
X6193634Y-17533484D02*
X6174586Y-17523960D01*
X6174586Y-17523960D02*
X6165063Y-17514436D01*
X6165063Y-17514436D02*
X6155539Y-17495389D01*
X6155539Y-17495389D02*
X6146015Y-17457293D01*
X6146015Y-17457293D02*
X6146015Y-17409674D01*
X6146015Y-17409674D02*
X6155539Y-17371579D01*
X6155539Y-17371579D02*
X6165063Y-17352531D01*
X6165063Y-17352531D02*
X6174586Y-17343008D01*
X6174586Y-17343008D02*
X6193634Y-17333484D01*
X6346015Y-17514436D02*
X6355539Y-17523960D01*
X6355539Y-17523960D02*
X6346015Y-17533484D01*
X6346015Y-17533484D02*
X6336491Y-17523960D01*
X6336491Y-17523960D02*
X6346015Y-17514436D01*
X6346015Y-17514436D02*
X6346015Y-17533484D01*
X6479348Y-17333484D02*
X6498396Y-17333484D01*
X6498396Y-17333484D02*
X6517444Y-17343008D01*
X6517444Y-17343008D02*
X6526967Y-17352531D01*
X6526967Y-17352531D02*
X6536491Y-17371579D01*
X6536491Y-17371579D02*
X6546015Y-17409674D01*
X6546015Y-17409674D02*
X6546015Y-17457293D01*
X6546015Y-17457293D02*
X6536491Y-17495389D01*
X6536491Y-17495389D02*
X6526967Y-17514436D01*
X6526967Y-17514436D02*
X6517444Y-17523960D01*
X6517444Y-17523960D02*
X6498396Y-17533484D01*
X6498396Y-17533484D02*
X6479348Y-17533484D01*
X6479348Y-17533484D02*
X6460301Y-17523960D01*
X6460301Y-17523960D02*
X6450777Y-17514436D01*
X6450777Y-17514436D02*
X6441253Y-17495389D01*
X6441253Y-17495389D02*
X6431729Y-17457293D01*
X6431729Y-17457293D02*
X6431729Y-17409674D01*
X6431729Y-17409674D02*
X6441253Y-17371579D01*
X6441253Y-17371579D02*
X6450777Y-17352531D01*
X6450777Y-17352531D02*
X6460301Y-17343008D01*
X6460301Y-17343008D02*
X6479348Y-17333484D01*
X6726967Y-17333484D02*
X6631729Y-17333484D01*
X6631729Y-17333484D02*
X6622206Y-17428722D01*
X6622206Y-17428722D02*
X6631729Y-17419198D01*
X6631729Y-17419198D02*
X6650777Y-17409674D01*
X6650777Y-17409674D02*
X6698396Y-17409674D01*
X6698396Y-17409674D02*
X6717444Y-17419198D01*
X6717444Y-17419198D02*
X6726967Y-17428722D01*
X6726967Y-17428722D02*
X6736491Y-17447770D01*
X6736491Y-17447770D02*
X6736491Y-17495389D01*
X6736491Y-17495389D02*
X6726967Y-17514436D01*
X6726967Y-17514436D02*
X6717444Y-17523960D01*
X6717444Y-17523960D02*
X6698396Y-17533484D01*
X6698396Y-17533484D02*
X6650777Y-17533484D01*
X6650777Y-17533484D02*
X6631729Y-17523960D01*
X6631729Y-17523960D02*
X6622206Y-17514436D01*
X6917444Y-17333484D02*
X6822206Y-17333484D01*
X6822206Y-17333484D02*
X6812682Y-17428722D01*
X6812682Y-17428722D02*
X6822206Y-17419198D01*
X6822206Y-17419198D02*
X6841253Y-17409674D01*
X6841253Y-17409674D02*
X6888872Y-17409674D01*
X6888872Y-17409674D02*
X6907920Y-17419198D01*
X6907920Y-17419198D02*
X6917444Y-17428722D01*
X6917444Y-17428722D02*
X6926967Y-17447770D01*
X6926967Y-17447770D02*
X6926967Y-17495389D01*
X6926967Y-17495389D02*
X6917444Y-17514436D01*
X6917444Y-17514436D02*
X6907920Y-17523960D01*
X6907920Y-17523960D02*
X6888872Y-17533484D01*
X6888872Y-17533484D02*
X6841253Y-17533484D01*
X6841253Y-17533484D02*
X6822206Y-17523960D01*
X6822206Y-17523960D02*
X6812682Y-17514436D01*
X7117444Y-17533484D02*
X7003158Y-17533484D01*
X7060301Y-17533484D02*
X7060301Y-17333484D01*
X7060301Y-17333484D02*
X7041253Y-17362055D01*
X7041253Y-17362055D02*
X7022206Y-17381103D01*
X7022206Y-17381103D02*
X7003158Y-17390627D01*
X7193634Y-17333484D02*
X7193634Y-17371579D01*
X7269825Y-17333484D02*
X7269825Y-17371579D01*
X7565063Y-17609674D02*
X7555539Y-17600150D01*
X7555539Y-17600150D02*
X7536491Y-17571579D01*
X7536491Y-17571579D02*
X7526968Y-17552531D01*
X7526968Y-17552531D02*
X7517444Y-17523960D01*
X7517444Y-17523960D02*
X7507920Y-17476341D01*
X7507920Y-17476341D02*
X7507920Y-17438246D01*
X7507920Y-17438246D02*
X7517444Y-17390627D01*
X7517444Y-17390627D02*
X7526968Y-17362055D01*
X7526968Y-17362055D02*
X7536491Y-17343008D01*
X7536491Y-17343008D02*
X7555539Y-17314436D01*
X7555539Y-17314436D02*
X7565063Y-17304912D01*
X7650777Y-17533484D02*
X7688872Y-17533484D01*
X7688872Y-17533484D02*
X7707920Y-17523960D01*
X7707920Y-17523960D02*
X7717444Y-17514436D01*
X7717444Y-17514436D02*
X7736491Y-17485865D01*
X7736491Y-17485865D02*
X7746015Y-17447770D01*
X7746015Y-17447770D02*
X7746015Y-17371579D01*
X7746015Y-17371579D02*
X7736491Y-17352531D01*
X7736491Y-17352531D02*
X7726968Y-17343008D01*
X7726968Y-17343008D02*
X7707920Y-17333484D01*
X7707920Y-17333484D02*
X7669825Y-17333484D01*
X7669825Y-17333484D02*
X7650777Y-17343008D01*
X7650777Y-17343008D02*
X7641253Y-17352531D01*
X7641253Y-17352531D02*
X7631729Y-17371579D01*
X7631729Y-17371579D02*
X7631729Y-17419198D01*
X7631729Y-17419198D02*
X7641253Y-17438246D01*
X7641253Y-17438246D02*
X7650777Y-17447770D01*
X7650777Y-17447770D02*
X7669825Y-17457293D01*
X7669825Y-17457293D02*
X7707920Y-17457293D01*
X7707920Y-17457293D02*
X7726968Y-17447770D01*
X7726968Y-17447770D02*
X7736491Y-17438246D01*
X7736491Y-17438246D02*
X7746015Y-17419198D01*
X7984110Y-17533484D02*
X7984110Y-17333484D01*
X8069825Y-17533484D02*
X8069825Y-17428722D01*
X8069825Y-17428722D02*
X8060301Y-17409674D01*
X8060301Y-17409674D02*
X8041253Y-17400150D01*
X8041253Y-17400150D02*
X8012682Y-17400150D01*
X8012682Y-17400150D02*
X7993634Y-17409674D01*
X7993634Y-17409674D02*
X7984110Y-17419198D01*
X8193634Y-17533484D02*
X8174587Y-17523960D01*
X8174587Y-17523960D02*
X8165063Y-17514436D01*
X8165063Y-17514436D02*
X8155539Y-17495389D01*
X8155539Y-17495389D02*
X8155539Y-17438246D01*
X8155539Y-17438246D02*
X8165063Y-17419198D01*
X8165063Y-17419198D02*
X8174587Y-17409674D01*
X8174587Y-17409674D02*
X8193634Y-17400150D01*
X8193634Y-17400150D02*
X8222206Y-17400150D01*
X8222206Y-17400150D02*
X8241253Y-17409674D01*
X8241253Y-17409674D02*
X8250777Y-17419198D01*
X8250777Y-17419198D02*
X8260301Y-17438246D01*
X8260301Y-17438246D02*
X8260301Y-17495389D01*
X8260301Y-17495389D02*
X8250777Y-17514436D01*
X8250777Y-17514436D02*
X8241253Y-17523960D01*
X8241253Y-17523960D02*
X8222206Y-17533484D01*
X8222206Y-17533484D02*
X8193634Y-17533484D01*
X8374587Y-17533484D02*
X8355539Y-17523960D01*
X8355539Y-17523960D02*
X8346015Y-17504912D01*
X8346015Y-17504912D02*
X8346015Y-17333484D01*
X8526968Y-17523960D02*
X8507920Y-17533484D01*
X8507920Y-17533484D02*
X8469825Y-17533484D01*
X8469825Y-17533484D02*
X8450777Y-17523960D01*
X8450777Y-17523960D02*
X8441253Y-17504912D01*
X8441253Y-17504912D02*
X8441253Y-17428722D01*
X8441253Y-17428722D02*
X8450777Y-17409674D01*
X8450777Y-17409674D02*
X8469825Y-17400150D01*
X8469825Y-17400150D02*
X8507920Y-17400150D01*
X8507920Y-17400150D02*
X8526968Y-17409674D01*
X8526968Y-17409674D02*
X8536492Y-17428722D01*
X8536492Y-17428722D02*
X8536492Y-17447770D01*
X8536492Y-17447770D02*
X8441253Y-17466817D01*
X8612682Y-17523960D02*
X8631730Y-17533484D01*
X8631730Y-17533484D02*
X8669825Y-17533484D01*
X8669825Y-17533484D02*
X8688873Y-17523960D01*
X8688873Y-17523960D02*
X8698396Y-17504912D01*
X8698396Y-17504912D02*
X8698396Y-17495389D01*
X8698396Y-17495389D02*
X8688873Y-17476341D01*
X8688873Y-17476341D02*
X8669825Y-17466817D01*
X8669825Y-17466817D02*
X8641253Y-17466817D01*
X8641253Y-17466817D02*
X8622206Y-17457293D01*
X8622206Y-17457293D02*
X8612682Y-17438246D01*
X8612682Y-17438246D02*
X8612682Y-17428722D01*
X8612682Y-17428722D02*
X8622206Y-17409674D01*
X8622206Y-17409674D02*
X8641253Y-17400150D01*
X8641253Y-17400150D02*
X8669825Y-17400150D01*
X8669825Y-17400150D02*
X8688873Y-17409674D01*
X8765063Y-17609674D02*
X8774587Y-17600150D01*
X8774587Y-17600150D02*
X8793634Y-17571579D01*
X8793634Y-17571579D02*
X8803158Y-17552531D01*
X8803158Y-17552531D02*
X8812682Y-17523960D01*
X8812682Y-17523960D02*
X8822206Y-17476341D01*
X8822206Y-17476341D02*
X8822206Y-17438246D01*
X8822206Y-17438246D02*
X8812682Y-17390627D01*
X8812682Y-17390627D02*
X8803158Y-17362055D01*
X8803158Y-17362055D02*
X8793634Y-17343008D01*
X8793634Y-17343008D02*
X8774587Y-17314436D01*
X8774587Y-17314436D02*
X8765063Y-17304912D01*
D14*
X3915000Y-17781000D02*
X3990000Y-17706000D01*
X3915000Y-17631000D01*
X3840000Y-17706000D01*
X3915000Y-17781000D01*
D10*
X4355539Y-17797484D02*
X4241253Y-17797484D01*
X4298396Y-17797484D02*
X4298396Y-17597484D01*
X4298396Y-17597484D02*
X4279348Y-17626055D01*
X4279348Y-17626055D02*
X4260301Y-17645103D01*
X4260301Y-17645103D02*
X4241253Y-17654627D01*
X4441253Y-17778436D02*
X4450777Y-17787960D01*
X4450777Y-17787960D02*
X4441253Y-17797484D01*
X4441253Y-17797484D02*
X4431729Y-17787960D01*
X4431729Y-17787960D02*
X4441253Y-17778436D01*
X4441253Y-17778436D02*
X4441253Y-17797484D01*
X4631729Y-17597484D02*
X4536491Y-17597484D01*
X4536491Y-17597484D02*
X4526967Y-17692722D01*
X4526967Y-17692722D02*
X4536491Y-17683198D01*
X4536491Y-17683198D02*
X4555539Y-17673674D01*
X4555539Y-17673674D02*
X4603158Y-17673674D01*
X4603158Y-17673674D02*
X4622205Y-17683198D01*
X4622205Y-17683198D02*
X4631729Y-17692722D01*
X4631729Y-17692722D02*
X4641253Y-17711770D01*
X4641253Y-17711770D02*
X4641253Y-17759389D01*
X4641253Y-17759389D02*
X4631729Y-17778436D01*
X4631729Y-17778436D02*
X4622205Y-17787960D01*
X4622205Y-17787960D02*
X4603158Y-17797484D01*
X4603158Y-17797484D02*
X4555539Y-17797484D01*
X4555539Y-17797484D02*
X4536491Y-17787960D01*
X4536491Y-17787960D02*
X4526967Y-17778436D01*
X4765063Y-17597484D02*
X4784110Y-17597484D01*
X4784110Y-17597484D02*
X4803158Y-17607008D01*
X4803158Y-17607008D02*
X4812682Y-17616531D01*
X4812682Y-17616531D02*
X4822205Y-17635579D01*
X4822205Y-17635579D02*
X4831729Y-17673674D01*
X4831729Y-17673674D02*
X4831729Y-17721293D01*
X4831729Y-17721293D02*
X4822205Y-17759389D01*
X4822205Y-17759389D02*
X4812682Y-17778436D01*
X4812682Y-17778436D02*
X4803158Y-17787960D01*
X4803158Y-17787960D02*
X4784110Y-17797484D01*
X4784110Y-17797484D02*
X4765063Y-17797484D01*
X4765063Y-17797484D02*
X4746015Y-17787960D01*
X4746015Y-17787960D02*
X4736491Y-17778436D01*
X4736491Y-17778436D02*
X4726967Y-17759389D01*
X4726967Y-17759389D02*
X4717444Y-17721293D01*
X4717444Y-17721293D02*
X4717444Y-17673674D01*
X4717444Y-17673674D02*
X4726967Y-17635579D01*
X4726967Y-17635579D02*
X4736491Y-17616531D01*
X4736491Y-17616531D02*
X4746015Y-17607008D01*
X4746015Y-17607008D02*
X4765063Y-17597484D01*
X4955539Y-17597484D02*
X4974586Y-17597484D01*
X4974586Y-17597484D02*
X4993634Y-17607008D01*
X4993634Y-17607008D02*
X5003158Y-17616531D01*
X5003158Y-17616531D02*
X5012682Y-17635579D01*
X5012682Y-17635579D02*
X5022205Y-17673674D01*
X5022205Y-17673674D02*
X5022205Y-17721293D01*
X5022205Y-17721293D02*
X5012682Y-17759389D01*
X5012682Y-17759389D02*
X5003158Y-17778436D01*
X5003158Y-17778436D02*
X4993634Y-17787960D01*
X4993634Y-17787960D02*
X4974586Y-17797484D01*
X4974586Y-17797484D02*
X4955539Y-17797484D01*
X4955539Y-17797484D02*
X4936491Y-17787960D01*
X4936491Y-17787960D02*
X4926967Y-17778436D01*
X4926967Y-17778436D02*
X4917444Y-17759389D01*
X4917444Y-17759389D02*
X4907920Y-17721293D01*
X4907920Y-17721293D02*
X4907920Y-17673674D01*
X4907920Y-17673674D02*
X4917444Y-17635579D01*
X4917444Y-17635579D02*
X4926967Y-17616531D01*
X4926967Y-17616531D02*
X4936491Y-17607008D01*
X4936491Y-17607008D02*
X4955539Y-17597484D01*
X5107920Y-17797484D02*
X5107920Y-17664150D01*
X5107920Y-17683198D02*
X5117444Y-17673674D01*
X5117444Y-17673674D02*
X5136491Y-17664150D01*
X5136491Y-17664150D02*
X5165063Y-17664150D01*
X5165063Y-17664150D02*
X5184110Y-17673674D01*
X5184110Y-17673674D02*
X5193634Y-17692722D01*
X5193634Y-17692722D02*
X5193634Y-17797484D01*
X5193634Y-17692722D02*
X5203158Y-17673674D01*
X5203158Y-17673674D02*
X5222205Y-17664150D01*
X5222205Y-17664150D02*
X5250777Y-17664150D01*
X5250777Y-17664150D02*
X5269825Y-17673674D01*
X5269825Y-17673674D02*
X5279348Y-17692722D01*
X5279348Y-17692722D02*
X5279348Y-17797484D01*
X5374586Y-17797484D02*
X5374586Y-17664150D01*
X5374586Y-17683198D02*
X5384110Y-17673674D01*
X5384110Y-17673674D02*
X5403158Y-17664150D01*
X5403158Y-17664150D02*
X5431729Y-17664150D01*
X5431729Y-17664150D02*
X5450777Y-17673674D01*
X5450777Y-17673674D02*
X5460301Y-17692722D01*
X5460301Y-17692722D02*
X5460301Y-17797484D01*
X5460301Y-17692722D02*
X5469825Y-17673674D01*
X5469825Y-17673674D02*
X5488872Y-17664150D01*
X5488872Y-17664150D02*
X5517444Y-17664150D01*
X5517444Y-17664150D02*
X5536491Y-17673674D01*
X5536491Y-17673674D02*
X5546015Y-17692722D01*
X5546015Y-17692722D02*
X5546015Y-17797484D01*
X5936491Y-17587960D02*
X5765063Y-17845103D01*
X6193634Y-17597484D02*
X6212682Y-17597484D01*
X6212682Y-17597484D02*
X6231729Y-17607008D01*
X6231729Y-17607008D02*
X6241253Y-17616531D01*
X6241253Y-17616531D02*
X6250777Y-17635579D01*
X6250777Y-17635579D02*
X6260301Y-17673674D01*
X6260301Y-17673674D02*
X6260301Y-17721293D01*
X6260301Y-17721293D02*
X6250777Y-17759389D01*
X6250777Y-17759389D02*
X6241253Y-17778436D01*
X6241253Y-17778436D02*
X6231729Y-17787960D01*
X6231729Y-17787960D02*
X6212682Y-17797484D01*
X6212682Y-17797484D02*
X6193634Y-17797484D01*
X6193634Y-17797484D02*
X6174586Y-17787960D01*
X6174586Y-17787960D02*
X6165063Y-17778436D01*
X6165063Y-17778436D02*
X6155539Y-17759389D01*
X6155539Y-17759389D02*
X6146015Y-17721293D01*
X6146015Y-17721293D02*
X6146015Y-17673674D01*
X6146015Y-17673674D02*
X6155539Y-17635579D01*
X6155539Y-17635579D02*
X6165063Y-17616531D01*
X6165063Y-17616531D02*
X6174586Y-17607008D01*
X6174586Y-17607008D02*
X6193634Y-17597484D01*
X6346015Y-17778436D02*
X6355539Y-17787960D01*
X6355539Y-17787960D02*
X6346015Y-17797484D01*
X6346015Y-17797484D02*
X6336491Y-17787960D01*
X6336491Y-17787960D02*
X6346015Y-17778436D01*
X6346015Y-17778436D02*
X6346015Y-17797484D01*
X6479348Y-17597484D02*
X6498396Y-17597484D01*
X6498396Y-17597484D02*
X6517444Y-17607008D01*
X6517444Y-17607008D02*
X6526967Y-17616531D01*
X6526967Y-17616531D02*
X6536491Y-17635579D01*
X6536491Y-17635579D02*
X6546015Y-17673674D01*
X6546015Y-17673674D02*
X6546015Y-17721293D01*
X6546015Y-17721293D02*
X6536491Y-17759389D01*
X6536491Y-17759389D02*
X6526967Y-17778436D01*
X6526967Y-17778436D02*
X6517444Y-17787960D01*
X6517444Y-17787960D02*
X6498396Y-17797484D01*
X6498396Y-17797484D02*
X6479348Y-17797484D01*
X6479348Y-17797484D02*
X6460301Y-17787960D01*
X6460301Y-17787960D02*
X6450777Y-17778436D01*
X6450777Y-17778436D02*
X6441253Y-17759389D01*
X6441253Y-17759389D02*
X6431729Y-17721293D01*
X6431729Y-17721293D02*
X6431729Y-17673674D01*
X6431729Y-17673674D02*
X6441253Y-17635579D01*
X6441253Y-17635579D02*
X6450777Y-17616531D01*
X6450777Y-17616531D02*
X6460301Y-17607008D01*
X6460301Y-17607008D02*
X6479348Y-17597484D01*
X6726967Y-17597484D02*
X6631729Y-17597484D01*
X6631729Y-17597484D02*
X6622206Y-17692722D01*
X6622206Y-17692722D02*
X6631729Y-17683198D01*
X6631729Y-17683198D02*
X6650777Y-17673674D01*
X6650777Y-17673674D02*
X6698396Y-17673674D01*
X6698396Y-17673674D02*
X6717444Y-17683198D01*
X6717444Y-17683198D02*
X6726967Y-17692722D01*
X6726967Y-17692722D02*
X6736491Y-17711770D01*
X6736491Y-17711770D02*
X6736491Y-17759389D01*
X6736491Y-17759389D02*
X6726967Y-17778436D01*
X6726967Y-17778436D02*
X6717444Y-17787960D01*
X6717444Y-17787960D02*
X6698396Y-17797484D01*
X6698396Y-17797484D02*
X6650777Y-17797484D01*
X6650777Y-17797484D02*
X6631729Y-17787960D01*
X6631729Y-17787960D02*
X6622206Y-17778436D01*
X6831729Y-17797484D02*
X6869825Y-17797484D01*
X6869825Y-17797484D02*
X6888872Y-17787960D01*
X6888872Y-17787960D02*
X6898396Y-17778436D01*
X6898396Y-17778436D02*
X6917444Y-17749865D01*
X6917444Y-17749865D02*
X6926967Y-17711770D01*
X6926967Y-17711770D02*
X6926967Y-17635579D01*
X6926967Y-17635579D02*
X6917444Y-17616531D01*
X6917444Y-17616531D02*
X6907920Y-17607008D01*
X6907920Y-17607008D02*
X6888872Y-17597484D01*
X6888872Y-17597484D02*
X6850777Y-17597484D01*
X6850777Y-17597484D02*
X6831729Y-17607008D01*
X6831729Y-17607008D02*
X6822206Y-17616531D01*
X6822206Y-17616531D02*
X6812682Y-17635579D01*
X6812682Y-17635579D02*
X6812682Y-17683198D01*
X6812682Y-17683198D02*
X6822206Y-17702246D01*
X6822206Y-17702246D02*
X6831729Y-17711770D01*
X6831729Y-17711770D02*
X6850777Y-17721293D01*
X6850777Y-17721293D02*
X6888872Y-17721293D01*
X6888872Y-17721293D02*
X6907920Y-17711770D01*
X6907920Y-17711770D02*
X6917444Y-17702246D01*
X6917444Y-17702246D02*
X6926967Y-17683198D01*
X7117444Y-17797484D02*
X7003158Y-17797484D01*
X7060301Y-17797484D02*
X7060301Y-17597484D01*
X7060301Y-17597484D02*
X7041253Y-17626055D01*
X7041253Y-17626055D02*
X7022206Y-17645103D01*
X7022206Y-17645103D02*
X7003158Y-17654627D01*
X7193634Y-17597484D02*
X7193634Y-17635579D01*
X7269825Y-17597484D02*
X7269825Y-17635579D01*
X7565063Y-17873674D02*
X7555539Y-17864150D01*
X7555539Y-17864150D02*
X7536491Y-17835579D01*
X7536491Y-17835579D02*
X7526968Y-17816531D01*
X7526968Y-17816531D02*
X7517444Y-17787960D01*
X7517444Y-17787960D02*
X7507920Y-17740341D01*
X7507920Y-17740341D02*
X7507920Y-17702246D01*
X7507920Y-17702246D02*
X7517444Y-17654627D01*
X7517444Y-17654627D02*
X7526968Y-17626055D01*
X7526968Y-17626055D02*
X7536491Y-17607008D01*
X7536491Y-17607008D02*
X7555539Y-17578436D01*
X7555539Y-17578436D02*
X7565063Y-17568912D01*
X7650777Y-17797484D02*
X7688872Y-17797484D01*
X7688872Y-17797484D02*
X7707920Y-17787960D01*
X7707920Y-17787960D02*
X7717444Y-17778436D01*
X7717444Y-17778436D02*
X7736491Y-17749865D01*
X7736491Y-17749865D02*
X7746015Y-17711770D01*
X7746015Y-17711770D02*
X7746015Y-17635579D01*
X7746015Y-17635579D02*
X7736491Y-17616531D01*
X7736491Y-17616531D02*
X7726968Y-17607008D01*
X7726968Y-17607008D02*
X7707920Y-17597484D01*
X7707920Y-17597484D02*
X7669825Y-17597484D01*
X7669825Y-17597484D02*
X7650777Y-17607008D01*
X7650777Y-17607008D02*
X7641253Y-17616531D01*
X7641253Y-17616531D02*
X7631729Y-17635579D01*
X7631729Y-17635579D02*
X7631729Y-17683198D01*
X7631729Y-17683198D02*
X7641253Y-17702246D01*
X7641253Y-17702246D02*
X7650777Y-17711770D01*
X7650777Y-17711770D02*
X7669825Y-17721293D01*
X7669825Y-17721293D02*
X7707920Y-17721293D01*
X7707920Y-17721293D02*
X7726968Y-17711770D01*
X7726968Y-17711770D02*
X7736491Y-17702246D01*
X7736491Y-17702246D02*
X7746015Y-17683198D01*
X7984110Y-17797484D02*
X7984110Y-17597484D01*
X8069825Y-17797484D02*
X8069825Y-17692722D01*
X8069825Y-17692722D02*
X8060301Y-17673674D01*
X8060301Y-17673674D02*
X8041253Y-17664150D01*
X8041253Y-17664150D02*
X8012682Y-17664150D01*
X8012682Y-17664150D02*
X7993634Y-17673674D01*
X7993634Y-17673674D02*
X7984110Y-17683198D01*
X8193634Y-17797484D02*
X8174587Y-17787960D01*
X8174587Y-17787960D02*
X8165063Y-17778436D01*
X8165063Y-17778436D02*
X8155539Y-17759389D01*
X8155539Y-17759389D02*
X8155539Y-17702246D01*
X8155539Y-17702246D02*
X8165063Y-17683198D01*
X8165063Y-17683198D02*
X8174587Y-17673674D01*
X8174587Y-17673674D02*
X8193634Y-17664150D01*
X8193634Y-17664150D02*
X8222206Y-17664150D01*
X8222206Y-17664150D02*
X8241253Y-17673674D01*
X8241253Y-17673674D02*
X8250777Y-17683198D01*
X8250777Y-17683198D02*
X8260301Y-17702246D01*
X8260301Y-17702246D02*
X8260301Y-17759389D01*
X8260301Y-17759389D02*
X8250777Y-17778436D01*
X8250777Y-17778436D02*
X8241253Y-17787960D01*
X8241253Y-17787960D02*
X8222206Y-17797484D01*
X8222206Y-17797484D02*
X8193634Y-17797484D01*
X8374587Y-17797484D02*
X8355539Y-17787960D01*
X8355539Y-17787960D02*
X8346015Y-17768912D01*
X8346015Y-17768912D02*
X8346015Y-17597484D01*
X8526968Y-17787960D02*
X8507920Y-17797484D01*
X8507920Y-17797484D02*
X8469825Y-17797484D01*
X8469825Y-17797484D02*
X8450777Y-17787960D01*
X8450777Y-17787960D02*
X8441253Y-17768912D01*
X8441253Y-17768912D02*
X8441253Y-17692722D01*
X8441253Y-17692722D02*
X8450777Y-17673674D01*
X8450777Y-17673674D02*
X8469825Y-17664150D01*
X8469825Y-17664150D02*
X8507920Y-17664150D01*
X8507920Y-17664150D02*
X8526968Y-17673674D01*
X8526968Y-17673674D02*
X8536492Y-17692722D01*
X8536492Y-17692722D02*
X8536492Y-17711770D01*
X8536492Y-17711770D02*
X8441253Y-17730817D01*
X8612682Y-17787960D02*
X8631730Y-17797484D01*
X8631730Y-17797484D02*
X8669825Y-17797484D01*
X8669825Y-17797484D02*
X8688873Y-17787960D01*
X8688873Y-17787960D02*
X8698396Y-17768912D01*
X8698396Y-17768912D02*
X8698396Y-17759389D01*
X8698396Y-17759389D02*
X8688873Y-17740341D01*
X8688873Y-17740341D02*
X8669825Y-17730817D01*
X8669825Y-17730817D02*
X8641253Y-17730817D01*
X8641253Y-17730817D02*
X8622206Y-17721293D01*
X8622206Y-17721293D02*
X8612682Y-17702246D01*
X8612682Y-17702246D02*
X8612682Y-17692722D01*
X8612682Y-17692722D02*
X8622206Y-17673674D01*
X8622206Y-17673674D02*
X8641253Y-17664150D01*
X8641253Y-17664150D02*
X8669825Y-17664150D01*
X8669825Y-17664150D02*
X8688873Y-17673674D01*
X8765063Y-17873674D02*
X8774587Y-17864150D01*
X8774587Y-17864150D02*
X8793634Y-17835579D01*
X8793634Y-17835579D02*
X8803158Y-17816531D01*
X8803158Y-17816531D02*
X8812682Y-17787960D01*
X8812682Y-17787960D02*
X8822206Y-17740341D01*
X8822206Y-17740341D02*
X8822206Y-17702246D01*
X8822206Y-17702246D02*
X8812682Y-17654627D01*
X8812682Y-17654627D02*
X8803158Y-17626055D01*
X8803158Y-17626055D02*
X8793634Y-17607008D01*
X8793634Y-17607008D02*
X8774587Y-17578436D01*
X8774587Y-17578436D02*
X8765063Y-17568912D01*
M02*
