G04 #@! TF.GenerationSoftware,KiCad,Pcbnew,9.0.2*
G04 #@! TF.CreationDate,2025-12-22T23:20:34+02:00*
G04 #@! TF.ProjectId,first_PCB,66697273-745f-4504-9342-2e6b69636164,rev?*
G04 #@! TF.SameCoordinates,Original*
G04 #@! TF.FileFunction,Soldermask,Top*
G04 #@! TF.FilePolarity,Negative*
%FSLAX46Y46*%
G04 Gerber Fmt 4.6, Leading zero omitted, Abs format (unit mm)*
G04 Created by KiCad (PCBNEW 9.0.2) date 2025-12-22 23:20:34*
%MOMM*%
%LPD*%
G01*
G04 APERTURE LIST*
G04 APERTURE END LIST*
G36*
X88063350Y-156396364D02*
G01*
X88110679Y-156401855D01*
X88126853Y-156408996D01*
X88149387Y-156413479D01*
X88173511Y-156429598D01*
X88192132Y-156437820D01*
X88204848Y-156450536D01*
X88226438Y-156464962D01*
X88240863Y-156486551D01*
X88253579Y-156499267D01*
X88261800Y-156517886D01*
X88277921Y-156542013D01*
X88282403Y-156564547D01*
X88289544Y-156580719D01*
X88295033Y-156628040D01*
X88296000Y-156632900D01*
X88296000Y-157107900D01*
X88295032Y-157112762D01*
X88289544Y-157160079D01*
X88282404Y-157176249D01*
X88277921Y-157198787D01*
X88261798Y-157222916D01*
X88253579Y-157241532D01*
X88240865Y-157254245D01*
X88226438Y-157275838D01*
X88204845Y-157290265D01*
X88192132Y-157302979D01*
X88173515Y-157311199D01*
X88149387Y-157327321D01*
X88126850Y-157331803D01*
X88110680Y-157338944D01*
X88063361Y-157344433D01*
X88058500Y-157345400D01*
X87483500Y-157345400D01*
X87478638Y-157344433D01*
X87431320Y-157338944D01*
X87415148Y-157331803D01*
X87392613Y-157327321D01*
X87368485Y-157311200D01*
X87349867Y-157302979D01*
X87337151Y-157290263D01*
X87315562Y-157275838D01*
X87301136Y-157254248D01*
X87288420Y-157241532D01*
X87280198Y-157222911D01*
X87264079Y-157198787D01*
X87259596Y-157176254D01*
X87252455Y-157160080D01*
X87246964Y-157112748D01*
X87246000Y-157107900D01*
X87246000Y-156632900D01*
X87246964Y-156628051D01*
X87252455Y-156580720D01*
X87259597Y-156564544D01*
X87264079Y-156542013D01*
X87280197Y-156517890D01*
X87288420Y-156499267D01*
X87301138Y-156486548D01*
X87315562Y-156464962D01*
X87337148Y-156450538D01*
X87349867Y-156437820D01*
X87368490Y-156429596D01*
X87392613Y-156413479D01*
X87415143Y-156408997D01*
X87431319Y-156401855D01*
X87478652Y-156396364D01*
X87483500Y-156395400D01*
X88058500Y-156395400D01*
X88063350Y-156396364D01*
G37*
G36*
X89813350Y-156396364D02*
G01*
X89860679Y-156401855D01*
X89876853Y-156408996D01*
X89899387Y-156413479D01*
X89923511Y-156429598D01*
X89942132Y-156437820D01*
X89954848Y-156450536D01*
X89976438Y-156464962D01*
X89990863Y-156486551D01*
X90003579Y-156499267D01*
X90011800Y-156517886D01*
X90027921Y-156542013D01*
X90032403Y-156564547D01*
X90039544Y-156580719D01*
X90045033Y-156628040D01*
X90046000Y-156632900D01*
X90046000Y-157107900D01*
X90045032Y-157112762D01*
X90039544Y-157160079D01*
X90032404Y-157176249D01*
X90027921Y-157198787D01*
X90011798Y-157222916D01*
X90003579Y-157241532D01*
X89990865Y-157254245D01*
X89976438Y-157275838D01*
X89954845Y-157290265D01*
X89942132Y-157302979D01*
X89923515Y-157311199D01*
X89899387Y-157327321D01*
X89876850Y-157331803D01*
X89860680Y-157338944D01*
X89813361Y-157344433D01*
X89808500Y-157345400D01*
X89233500Y-157345400D01*
X89228638Y-157344433D01*
X89181320Y-157338944D01*
X89165148Y-157331803D01*
X89142613Y-157327321D01*
X89118485Y-157311200D01*
X89099867Y-157302979D01*
X89087151Y-157290263D01*
X89065562Y-157275838D01*
X89051136Y-157254248D01*
X89038420Y-157241532D01*
X89030198Y-157222911D01*
X89014079Y-157198787D01*
X89009596Y-157176254D01*
X89002455Y-157160080D01*
X88996964Y-157112748D01*
X88996000Y-157107900D01*
X88996000Y-156632900D01*
X88996964Y-156628051D01*
X89002455Y-156580720D01*
X89009597Y-156564544D01*
X89014079Y-156542013D01*
X89030197Y-156517890D01*
X89038420Y-156499267D01*
X89051138Y-156486548D01*
X89065562Y-156464962D01*
X89087148Y-156450538D01*
X89099867Y-156437820D01*
X89118490Y-156429596D01*
X89142613Y-156413479D01*
X89165143Y-156408997D01*
X89181319Y-156401855D01*
X89228652Y-156396364D01*
X89233500Y-156395400D01*
X89808500Y-156395400D01*
X89813350Y-156396364D01*
G37*
G36*
X92534950Y-156356364D02*
G01*
X92582279Y-156361855D01*
X92598453Y-156368996D01*
X92620987Y-156373479D01*
X92645111Y-156389598D01*
X92663732Y-156397820D01*
X92676448Y-156410536D01*
X92698038Y-156424962D01*
X92712463Y-156446551D01*
X92725179Y-156459267D01*
X92733400Y-156477886D01*
X92749521Y-156502013D01*
X92754003Y-156524547D01*
X92761144Y-156540719D01*
X92766633Y-156588040D01*
X92767600Y-156592900D01*
X92767600Y-157067900D01*
X92766632Y-157072762D01*
X92761144Y-157120079D01*
X92754004Y-157136249D01*
X92749521Y-157158787D01*
X92733398Y-157182916D01*
X92725179Y-157201532D01*
X92712465Y-157214245D01*
X92698038Y-157235838D01*
X92676445Y-157250265D01*
X92663732Y-157262979D01*
X92645115Y-157271199D01*
X92620987Y-157287321D01*
X92598450Y-157291803D01*
X92582280Y-157298944D01*
X92534961Y-157304433D01*
X92530100Y-157305400D01*
X92030100Y-157305400D01*
X92025238Y-157304433D01*
X91977920Y-157298944D01*
X91961748Y-157291803D01*
X91939213Y-157287321D01*
X91915085Y-157271200D01*
X91896467Y-157262979D01*
X91883751Y-157250263D01*
X91862162Y-157235838D01*
X91847736Y-157214248D01*
X91835020Y-157201532D01*
X91826798Y-157182911D01*
X91810679Y-157158787D01*
X91806196Y-157136254D01*
X91799055Y-157120080D01*
X91793564Y-157072748D01*
X91792600Y-157067900D01*
X91792600Y-156592900D01*
X91793564Y-156588051D01*
X91799055Y-156540720D01*
X91806197Y-156524544D01*
X91810679Y-156502013D01*
X91826797Y-156477890D01*
X91835020Y-156459267D01*
X91847738Y-156446548D01*
X91862162Y-156424962D01*
X91883748Y-156410538D01*
X91896467Y-156397820D01*
X91915090Y-156389596D01*
X91939213Y-156373479D01*
X91961743Y-156368997D01*
X91977919Y-156361855D01*
X92025252Y-156356364D01*
X92030100Y-156355400D01*
X92530100Y-156355400D01*
X92534950Y-156356364D01*
G37*
G36*
X94359950Y-156356364D02*
G01*
X94407279Y-156361855D01*
X94423453Y-156368996D01*
X94445987Y-156373479D01*
X94470111Y-156389598D01*
X94488732Y-156397820D01*
X94501448Y-156410536D01*
X94523038Y-156424962D01*
X94537463Y-156446551D01*
X94550179Y-156459267D01*
X94558400Y-156477886D01*
X94574521Y-156502013D01*
X94579003Y-156524547D01*
X94586144Y-156540719D01*
X94591633Y-156588040D01*
X94592600Y-156592900D01*
X94592600Y-157067900D01*
X94591632Y-157072762D01*
X94586144Y-157120079D01*
X94579004Y-157136249D01*
X94574521Y-157158787D01*
X94558398Y-157182916D01*
X94550179Y-157201532D01*
X94537465Y-157214245D01*
X94523038Y-157235838D01*
X94501445Y-157250265D01*
X94488732Y-157262979D01*
X94470115Y-157271199D01*
X94445987Y-157287321D01*
X94423450Y-157291803D01*
X94407280Y-157298944D01*
X94359961Y-157304433D01*
X94355100Y-157305400D01*
X93855100Y-157305400D01*
X93850238Y-157304433D01*
X93802920Y-157298944D01*
X93786748Y-157291803D01*
X93764213Y-157287321D01*
X93740085Y-157271200D01*
X93721467Y-157262979D01*
X93708751Y-157250263D01*
X93687162Y-157235838D01*
X93672736Y-157214248D01*
X93660020Y-157201532D01*
X93651798Y-157182911D01*
X93635679Y-157158787D01*
X93631196Y-157136254D01*
X93624055Y-157120080D01*
X93618564Y-157072748D01*
X93617600Y-157067900D01*
X93617600Y-156592900D01*
X93618564Y-156588051D01*
X93624055Y-156540720D01*
X93631197Y-156524544D01*
X93635679Y-156502013D01*
X93651797Y-156477890D01*
X93660020Y-156459267D01*
X93672738Y-156446548D01*
X93687162Y-156424962D01*
X93708748Y-156410538D01*
X93721467Y-156397820D01*
X93740090Y-156389596D01*
X93764213Y-156373479D01*
X93786743Y-156368997D01*
X93802919Y-156361855D01*
X93850252Y-156356364D01*
X93855100Y-156355400D01*
X94355100Y-156355400D01*
X94359950Y-156356364D01*
G37*
G36*
X100126824Y-153838682D02*
G01*
X100335757Y-153906569D01*
X100531498Y-154006304D01*
X100709227Y-154135432D01*
X100864568Y-154290773D01*
X100993696Y-154468502D01*
X101093431Y-154664243D01*
X101161318Y-154873176D01*
X101195684Y-155090157D01*
X101195684Y-155309843D01*
X101161318Y-155526824D01*
X101093431Y-155735757D01*
X100993696Y-155931498D01*
X100864568Y-156109227D01*
X100709227Y-156264568D01*
X100531498Y-156393696D01*
X100335757Y-156493431D01*
X100126824Y-156561318D01*
X99909843Y-156595684D01*
X99690157Y-156595684D01*
X99473176Y-156561318D01*
X99264243Y-156493431D01*
X99068502Y-156393696D01*
X98890773Y-156264568D01*
X98735432Y-156109227D01*
X98606304Y-155931498D01*
X98506569Y-155735757D01*
X98438682Y-155526824D01*
X98404316Y-155309843D01*
X98404316Y-155090157D01*
X98438682Y-154873176D01*
X98506569Y-154664243D01*
X98606304Y-154468502D01*
X98735432Y-154290773D01*
X98890773Y-154135432D01*
X99068502Y-154006304D01*
X99264243Y-153906569D01*
X99473176Y-153838682D01*
X99690157Y-153804316D01*
X99909843Y-153804316D01*
X100126824Y-153838682D01*
G37*
G36*
X106526824Y-153738682D02*
G01*
X106735757Y-153806569D01*
X106931498Y-153906304D01*
X107109227Y-154035432D01*
X107264568Y-154190773D01*
X107393696Y-154368502D01*
X107493431Y-154564243D01*
X107561318Y-154773176D01*
X107595684Y-154990157D01*
X107595684Y-155209843D01*
X107561318Y-155426824D01*
X107493431Y-155635757D01*
X107393696Y-155831498D01*
X107264568Y-156009227D01*
X107109227Y-156164568D01*
X106931498Y-156293696D01*
X106735757Y-156393431D01*
X106526824Y-156461318D01*
X106309843Y-156495684D01*
X106090157Y-156495684D01*
X105873176Y-156461318D01*
X105664243Y-156393431D01*
X105468502Y-156293696D01*
X105290773Y-156164568D01*
X105135432Y-156009227D01*
X105006304Y-155831498D01*
X104906569Y-155635757D01*
X104838682Y-155426824D01*
X104804316Y-155209843D01*
X104804316Y-154990157D01*
X104838682Y-154773176D01*
X104906569Y-154564243D01*
X105006304Y-154368502D01*
X105135432Y-154190773D01*
X105290773Y-154035432D01*
X105468502Y-153906304D01*
X105664243Y-153806569D01*
X105873176Y-153738682D01*
X106090157Y-153704316D01*
X106309843Y-153704316D01*
X106526824Y-153738682D01*
G37*
G36*
X112926824Y-153440682D02*
G01*
X113135757Y-153508569D01*
X113331498Y-153608304D01*
X113509227Y-153737432D01*
X113664568Y-153892773D01*
X113793696Y-154070502D01*
X113893431Y-154266243D01*
X113961318Y-154475176D01*
X113995684Y-154692157D01*
X113995684Y-154911843D01*
X113961318Y-155128824D01*
X113893431Y-155337757D01*
X113793696Y-155533498D01*
X113664568Y-155711227D01*
X113509227Y-155866568D01*
X113331498Y-155995696D01*
X113135757Y-156095431D01*
X112926824Y-156163318D01*
X112709843Y-156197684D01*
X112490157Y-156197684D01*
X112273176Y-156163318D01*
X112064243Y-156095431D01*
X111868502Y-155995696D01*
X111690773Y-155866568D01*
X111535432Y-155711227D01*
X111406304Y-155533498D01*
X111306569Y-155337757D01*
X111238682Y-155128824D01*
X111204316Y-154911843D01*
X111204316Y-154692157D01*
X111238682Y-154475176D01*
X111306569Y-154266243D01*
X111406304Y-154070502D01*
X111535432Y-153892773D01*
X111690773Y-153737432D01*
X111868502Y-153608304D01*
X112064243Y-153508569D01*
X112273176Y-153440682D01*
X112490157Y-153406316D01*
X112709843Y-153406316D01*
X112926824Y-153440682D01*
G37*
G36*
X83742350Y-154600964D02*
G01*
X83789679Y-154606455D01*
X83805853Y-154613596D01*
X83828387Y-154618079D01*
X83852511Y-154634198D01*
X83871132Y-154642420D01*
X83883848Y-154655136D01*
X83905438Y-154669562D01*
X83919863Y-154691151D01*
X83932579Y-154703867D01*
X83940800Y-154722486D01*
X83956921Y-154746613D01*
X83961403Y-154769147D01*
X83968544Y-154785319D01*
X83974033Y-154832640D01*
X83975000Y-154837500D01*
X83975000Y-155437500D01*
X83974032Y-155442362D01*
X83968544Y-155489679D01*
X83961404Y-155505849D01*
X83956921Y-155528387D01*
X83940798Y-155552516D01*
X83932579Y-155571132D01*
X83919865Y-155583845D01*
X83905438Y-155605438D01*
X83883845Y-155619865D01*
X83871132Y-155632579D01*
X83852515Y-155640799D01*
X83828387Y-155656921D01*
X83805850Y-155661403D01*
X83789680Y-155668544D01*
X83742361Y-155674033D01*
X83737500Y-155675000D01*
X83262500Y-155675000D01*
X83257638Y-155674033D01*
X83210320Y-155668544D01*
X83194148Y-155661403D01*
X83171613Y-155656921D01*
X83147485Y-155640800D01*
X83128867Y-155632579D01*
X83116151Y-155619863D01*
X83094562Y-155605438D01*
X83080136Y-155583848D01*
X83067420Y-155571132D01*
X83059198Y-155552511D01*
X83043079Y-155528387D01*
X83038596Y-155505854D01*
X83031455Y-155489680D01*
X83025964Y-155442348D01*
X83025000Y-155437500D01*
X83025000Y-154837500D01*
X83025964Y-154832651D01*
X83031455Y-154785320D01*
X83038597Y-154769144D01*
X83043079Y-154746613D01*
X83059197Y-154722490D01*
X83067420Y-154703867D01*
X83080138Y-154691148D01*
X83094562Y-154669562D01*
X83116148Y-154655138D01*
X83128867Y-154642420D01*
X83147490Y-154634196D01*
X83171613Y-154618079D01*
X83194143Y-154613597D01*
X83210319Y-154606455D01*
X83257652Y-154600964D01*
X83262500Y-154600000D01*
X83737500Y-154600000D01*
X83742350Y-154600964D01*
G37*
G36*
X88037950Y-154313564D02*
G01*
X88085279Y-154319055D01*
X88101453Y-154326196D01*
X88123987Y-154330679D01*
X88148111Y-154346798D01*
X88166732Y-154355020D01*
X88179448Y-154367736D01*
X88201038Y-154382162D01*
X88215463Y-154403751D01*
X88228179Y-154416467D01*
X88236400Y-154435086D01*
X88252521Y-154459213D01*
X88257003Y-154481747D01*
X88264144Y-154497919D01*
X88269633Y-154545240D01*
X88270600Y-154550100D01*
X88270600Y-155025100D01*
X88269632Y-155029962D01*
X88264144Y-155077279D01*
X88257004Y-155093449D01*
X88252521Y-155115987D01*
X88236398Y-155140116D01*
X88228179Y-155158732D01*
X88215465Y-155171445D01*
X88201038Y-155193038D01*
X88179445Y-155207465D01*
X88166732Y-155220179D01*
X88148115Y-155228399D01*
X88123987Y-155244521D01*
X88101450Y-155249003D01*
X88085280Y-155256144D01*
X88037961Y-155261633D01*
X88033100Y-155262600D01*
X87458100Y-155262600D01*
X87453238Y-155261633D01*
X87405920Y-155256144D01*
X87389748Y-155249003D01*
X87367213Y-155244521D01*
X87343085Y-155228400D01*
X87324467Y-155220179D01*
X87311751Y-155207463D01*
X87290162Y-155193038D01*
X87275736Y-155171448D01*
X87263020Y-155158732D01*
X87254798Y-155140111D01*
X87238679Y-155115987D01*
X87234196Y-155093454D01*
X87227055Y-155077280D01*
X87221564Y-155029948D01*
X87220600Y-155025100D01*
X87220600Y-154550100D01*
X87221564Y-154545251D01*
X87227055Y-154497920D01*
X87234197Y-154481744D01*
X87238679Y-154459213D01*
X87254797Y-154435090D01*
X87263020Y-154416467D01*
X87275738Y-154403748D01*
X87290162Y-154382162D01*
X87311748Y-154367738D01*
X87324467Y-154355020D01*
X87343090Y-154346796D01*
X87367213Y-154330679D01*
X87389743Y-154326197D01*
X87405919Y-154319055D01*
X87453252Y-154313564D01*
X87458100Y-154312600D01*
X88033100Y-154312600D01*
X88037950Y-154313564D01*
G37*
G36*
X89787950Y-154313564D02*
G01*
X89835279Y-154319055D01*
X89851453Y-154326196D01*
X89873987Y-154330679D01*
X89898111Y-154346798D01*
X89916732Y-154355020D01*
X89929448Y-154367736D01*
X89951038Y-154382162D01*
X89965463Y-154403751D01*
X89978179Y-154416467D01*
X89986400Y-154435086D01*
X90002521Y-154459213D01*
X90007003Y-154481747D01*
X90014144Y-154497919D01*
X90019633Y-154545240D01*
X90020600Y-154550100D01*
X90020600Y-155025100D01*
X90019632Y-155029962D01*
X90014144Y-155077279D01*
X90007004Y-155093449D01*
X90002521Y-155115987D01*
X89986398Y-155140116D01*
X89978179Y-155158732D01*
X89965465Y-155171445D01*
X89951038Y-155193038D01*
X89929445Y-155207465D01*
X89916732Y-155220179D01*
X89898115Y-155228399D01*
X89873987Y-155244521D01*
X89851450Y-155249003D01*
X89835280Y-155256144D01*
X89787961Y-155261633D01*
X89783100Y-155262600D01*
X89208100Y-155262600D01*
X89203238Y-155261633D01*
X89155920Y-155256144D01*
X89139748Y-155249003D01*
X89117213Y-155244521D01*
X89093085Y-155228400D01*
X89074467Y-155220179D01*
X89061751Y-155207463D01*
X89040162Y-155193038D01*
X89025736Y-155171448D01*
X89013020Y-155158732D01*
X89004798Y-155140111D01*
X88988679Y-155115987D01*
X88984196Y-155093454D01*
X88977055Y-155077280D01*
X88971564Y-155029948D01*
X88970600Y-155025100D01*
X88970600Y-154550100D01*
X88971564Y-154545251D01*
X88977055Y-154497920D01*
X88984197Y-154481744D01*
X88988679Y-154459213D01*
X89004797Y-154435090D01*
X89013020Y-154416467D01*
X89025738Y-154403748D01*
X89040162Y-154382162D01*
X89061748Y-154367738D01*
X89074467Y-154355020D01*
X89093090Y-154346796D01*
X89117213Y-154330679D01*
X89139743Y-154326197D01*
X89155919Y-154319055D01*
X89203252Y-154313564D01*
X89208100Y-154312600D01*
X89783100Y-154312600D01*
X89787950Y-154313564D01*
G37*
G36*
X92534950Y-154288164D02*
G01*
X92582279Y-154293655D01*
X92598453Y-154300796D01*
X92620987Y-154305279D01*
X92645111Y-154321398D01*
X92663732Y-154329620D01*
X92676448Y-154342336D01*
X92698038Y-154356762D01*
X92712463Y-154378351D01*
X92725179Y-154391067D01*
X92733400Y-154409686D01*
X92749521Y-154433813D01*
X92754003Y-154456347D01*
X92761144Y-154472519D01*
X92766633Y-154519840D01*
X92767600Y-154524700D01*
X92767600Y-154999700D01*
X92766632Y-155004562D01*
X92761144Y-155051879D01*
X92754004Y-155068049D01*
X92749521Y-155090587D01*
X92733398Y-155114716D01*
X92725179Y-155133332D01*
X92712465Y-155146045D01*
X92698038Y-155167638D01*
X92676445Y-155182065D01*
X92663732Y-155194779D01*
X92645115Y-155202999D01*
X92620987Y-155219121D01*
X92598450Y-155223603D01*
X92582280Y-155230744D01*
X92534961Y-155236233D01*
X92530100Y-155237200D01*
X92030100Y-155237200D01*
X92025238Y-155236233D01*
X91977920Y-155230744D01*
X91961748Y-155223603D01*
X91939213Y-155219121D01*
X91915085Y-155203000D01*
X91896467Y-155194779D01*
X91883751Y-155182063D01*
X91862162Y-155167638D01*
X91847736Y-155146048D01*
X91835020Y-155133332D01*
X91826798Y-155114711D01*
X91810679Y-155090587D01*
X91806196Y-155068054D01*
X91799055Y-155051880D01*
X91793564Y-155004548D01*
X91792600Y-154999700D01*
X91792600Y-154524700D01*
X91793564Y-154519851D01*
X91799055Y-154472520D01*
X91806197Y-154456344D01*
X91810679Y-154433813D01*
X91826797Y-154409690D01*
X91835020Y-154391067D01*
X91847738Y-154378348D01*
X91862162Y-154356762D01*
X91883748Y-154342338D01*
X91896467Y-154329620D01*
X91915090Y-154321396D01*
X91939213Y-154305279D01*
X91961743Y-154300797D01*
X91977919Y-154293655D01*
X92025252Y-154288164D01*
X92030100Y-154287200D01*
X92530100Y-154287200D01*
X92534950Y-154288164D01*
G37*
G36*
X94359950Y-154288164D02*
G01*
X94407279Y-154293655D01*
X94423453Y-154300796D01*
X94445987Y-154305279D01*
X94470111Y-154321398D01*
X94488732Y-154329620D01*
X94501448Y-154342336D01*
X94523038Y-154356762D01*
X94537463Y-154378351D01*
X94550179Y-154391067D01*
X94558400Y-154409686D01*
X94574521Y-154433813D01*
X94579003Y-154456347D01*
X94586144Y-154472519D01*
X94591633Y-154519840D01*
X94592600Y-154524700D01*
X94592600Y-154999700D01*
X94591632Y-155004562D01*
X94586144Y-155051879D01*
X94579004Y-155068049D01*
X94574521Y-155090587D01*
X94558398Y-155114716D01*
X94550179Y-155133332D01*
X94537465Y-155146045D01*
X94523038Y-155167638D01*
X94501445Y-155182065D01*
X94488732Y-155194779D01*
X94470115Y-155202999D01*
X94445987Y-155219121D01*
X94423450Y-155223603D01*
X94407280Y-155230744D01*
X94359961Y-155236233D01*
X94355100Y-155237200D01*
X93855100Y-155237200D01*
X93850238Y-155236233D01*
X93802920Y-155230744D01*
X93786748Y-155223603D01*
X93764213Y-155219121D01*
X93740085Y-155203000D01*
X93721467Y-155194779D01*
X93708751Y-155182063D01*
X93687162Y-155167638D01*
X93672736Y-155146048D01*
X93660020Y-155133332D01*
X93651798Y-155114711D01*
X93635679Y-155090587D01*
X93631196Y-155068054D01*
X93624055Y-155051880D01*
X93618564Y-155004548D01*
X93617600Y-154999700D01*
X93617600Y-154524700D01*
X93618564Y-154519851D01*
X93624055Y-154472520D01*
X93631197Y-154456344D01*
X93635679Y-154433813D01*
X93651797Y-154409690D01*
X93660020Y-154391067D01*
X93672738Y-154378348D01*
X93687162Y-154356762D01*
X93708748Y-154342338D01*
X93721467Y-154329620D01*
X93740090Y-154321396D01*
X93764213Y-154305279D01*
X93786743Y-154300797D01*
X93802919Y-154293655D01*
X93850252Y-154288164D01*
X93855100Y-154287200D01*
X94355100Y-154287200D01*
X94359950Y-154288164D01*
G37*
G36*
X119126824Y-151638682D02*
G01*
X119335757Y-151706569D01*
X119531498Y-151806304D01*
X119709227Y-151935432D01*
X119864568Y-152090773D01*
X119993696Y-152268502D01*
X120093431Y-152464243D01*
X120161318Y-152673176D01*
X120195684Y-152890157D01*
X120195684Y-153109843D01*
X120161318Y-153326824D01*
X120093431Y-153535757D01*
X119993696Y-153731498D01*
X119864568Y-153909227D01*
X119709227Y-154064568D01*
X119531498Y-154193696D01*
X119335757Y-154293431D01*
X119126824Y-154361318D01*
X118909843Y-154395684D01*
X118690157Y-154395684D01*
X118473176Y-154361318D01*
X118264243Y-154293431D01*
X118068502Y-154193696D01*
X117890773Y-154064568D01*
X117735432Y-153909227D01*
X117606304Y-153731498D01*
X117506569Y-153535757D01*
X117438682Y-153326824D01*
X117404316Y-153109843D01*
X117404316Y-152890157D01*
X117438682Y-152673176D01*
X117506569Y-152464243D01*
X117606304Y-152268502D01*
X117735432Y-152090773D01*
X117890773Y-151935432D01*
X118068502Y-151806304D01*
X118264243Y-151706569D01*
X118473176Y-151638682D01*
X118690157Y-151604316D01*
X118909843Y-151604316D01*
X119126824Y-151638682D01*
G37*
G36*
X83742350Y-152875964D02*
G01*
X83789679Y-152881455D01*
X83805853Y-152888596D01*
X83828387Y-152893079D01*
X83852511Y-152909198D01*
X83871132Y-152917420D01*
X83883848Y-152930136D01*
X83905438Y-152944562D01*
X83919863Y-152966151D01*
X83932579Y-152978867D01*
X83940800Y-152997486D01*
X83956921Y-153021613D01*
X83961403Y-153044147D01*
X83968544Y-153060319D01*
X83974033Y-153107640D01*
X83975000Y-153112500D01*
X83975000Y-153712500D01*
X83974032Y-153717362D01*
X83968544Y-153764679D01*
X83961404Y-153780849D01*
X83956921Y-153803387D01*
X83940798Y-153827516D01*
X83932579Y-153846132D01*
X83919865Y-153858845D01*
X83905438Y-153880438D01*
X83883845Y-153894865D01*
X83871132Y-153907579D01*
X83852515Y-153915799D01*
X83828387Y-153931921D01*
X83805850Y-153936403D01*
X83789680Y-153943544D01*
X83742361Y-153949033D01*
X83737500Y-153950000D01*
X83262500Y-153950000D01*
X83257638Y-153949033D01*
X83210320Y-153943544D01*
X83194148Y-153936403D01*
X83171613Y-153931921D01*
X83147485Y-153915800D01*
X83128867Y-153907579D01*
X83116151Y-153894863D01*
X83094562Y-153880438D01*
X83080136Y-153858848D01*
X83067420Y-153846132D01*
X83059198Y-153827511D01*
X83043079Y-153803387D01*
X83038596Y-153780854D01*
X83031455Y-153764680D01*
X83025964Y-153717348D01*
X83025000Y-153712500D01*
X83025000Y-153112500D01*
X83025964Y-153107651D01*
X83031455Y-153060320D01*
X83038597Y-153044144D01*
X83043079Y-153021613D01*
X83059197Y-152997490D01*
X83067420Y-152978867D01*
X83080138Y-152966148D01*
X83094562Y-152944562D01*
X83116148Y-152930138D01*
X83128867Y-152917420D01*
X83147490Y-152909196D01*
X83171613Y-152893079D01*
X83194143Y-152888597D01*
X83210319Y-152881455D01*
X83257652Y-152875964D01*
X83262500Y-152875000D01*
X83737500Y-152875000D01*
X83742350Y-152875964D01*
G37*
G36*
X72924992Y-146621892D02*
G01*
X72958083Y-146644003D01*
X72980194Y-146677094D01*
X72987958Y-146716128D01*
X72987958Y-148276128D01*
X72980194Y-148315162D01*
X72958083Y-148348253D01*
X72924992Y-148370364D01*
X72885958Y-148378128D01*
X71325958Y-148378128D01*
X71286924Y-148370364D01*
X71253833Y-148348253D01*
X71231722Y-148315162D01*
X71223958Y-148276128D01*
X71223958Y-146716128D01*
X71231722Y-146677094D01*
X71253833Y-146644003D01*
X71286924Y-146621892D01*
X71325958Y-146614128D01*
X72885958Y-146614128D01*
X72924992Y-146621892D01*
G37*
G36*
X74901989Y-146652107D02*
G01*
X75061730Y-146718273D01*
X75205493Y-146814333D01*
X75327753Y-146936593D01*
X75423813Y-147080356D01*
X75489979Y-147240097D01*
X75523711Y-147409677D01*
X75523711Y-147582579D01*
X75489979Y-147752159D01*
X75423813Y-147911900D01*
X75327753Y-148055663D01*
X75205493Y-148177923D01*
X75061730Y-148273983D01*
X74901989Y-148340149D01*
X74732409Y-148373881D01*
X74559507Y-148373881D01*
X74389927Y-148340149D01*
X74230186Y-148273983D01*
X74086423Y-148177923D01*
X73964163Y-148055663D01*
X73868103Y-147911900D01*
X73801937Y-147752159D01*
X73768205Y-147582579D01*
X73768205Y-147409677D01*
X73801937Y-147240097D01*
X73868103Y-147080356D01*
X73964163Y-146936593D01*
X74086423Y-146814333D01*
X74230186Y-146718273D01*
X74389927Y-146652107D01*
X74559507Y-146618375D01*
X74732409Y-146618375D01*
X74901989Y-146652107D01*
G37*
G36*
X77441989Y-146652107D02*
G01*
X77601730Y-146718273D01*
X77745493Y-146814333D01*
X77867753Y-146936593D01*
X77963813Y-147080356D01*
X78029979Y-147240097D01*
X78063711Y-147409677D01*
X78063711Y-147582579D01*
X78029979Y-147752159D01*
X77963813Y-147911900D01*
X77867753Y-148055663D01*
X77745493Y-148177923D01*
X77601730Y-148273983D01*
X77441989Y-148340149D01*
X77272409Y-148373881D01*
X77099507Y-148373881D01*
X76929927Y-148340149D01*
X76770186Y-148273983D01*
X76626423Y-148177923D01*
X76504163Y-148055663D01*
X76408103Y-147911900D01*
X76341937Y-147752159D01*
X76308205Y-147582579D01*
X76308205Y-147409677D01*
X76341937Y-147240097D01*
X76408103Y-147080356D01*
X76504163Y-146936593D01*
X76626423Y-146814333D01*
X76770186Y-146718273D01*
X76929927Y-146652107D01*
X77099507Y-146618375D01*
X77272409Y-146618375D01*
X77441989Y-146652107D01*
G37*
G36*
X79981989Y-146652107D02*
G01*
X80141730Y-146718273D01*
X80285493Y-146814333D01*
X80407753Y-146936593D01*
X80503813Y-147080356D01*
X80569979Y-147240097D01*
X80603711Y-147409677D01*
X80603711Y-147582579D01*
X80569979Y-147752159D01*
X80503813Y-147911900D01*
X80407753Y-148055663D01*
X80285493Y-148177923D01*
X80141730Y-148273983D01*
X79981989Y-148340149D01*
X79812409Y-148373881D01*
X79639507Y-148373881D01*
X79469927Y-148340149D01*
X79310186Y-148273983D01*
X79166423Y-148177923D01*
X79044163Y-148055663D01*
X78948103Y-147911900D01*
X78881937Y-147752159D01*
X78848205Y-147582579D01*
X78848205Y-147409677D01*
X78881937Y-147240097D01*
X78948103Y-147080356D01*
X79044163Y-146936593D01*
X79166423Y-146814333D01*
X79310186Y-146718273D01*
X79469927Y-146652107D01*
X79639507Y-146618375D01*
X79812409Y-146618375D01*
X79981989Y-146652107D01*
G37*
G36*
X82521989Y-146652107D02*
G01*
X82681730Y-146718273D01*
X82825493Y-146814333D01*
X82947753Y-146936593D01*
X83043813Y-147080356D01*
X83109979Y-147240097D01*
X83143711Y-147409677D01*
X83143711Y-147582579D01*
X83109979Y-147752159D01*
X83043813Y-147911900D01*
X82947753Y-148055663D01*
X82825493Y-148177923D01*
X82681730Y-148273983D01*
X82521989Y-148340149D01*
X82352409Y-148373881D01*
X82179507Y-148373881D01*
X82009927Y-148340149D01*
X81850186Y-148273983D01*
X81706423Y-148177923D01*
X81584163Y-148055663D01*
X81488103Y-147911900D01*
X81421937Y-147752159D01*
X81388205Y-147582579D01*
X81388205Y-147409677D01*
X81421937Y-147240097D01*
X81488103Y-147080356D01*
X81584163Y-146936593D01*
X81706423Y-146814333D01*
X81850186Y-146718273D01*
X82009927Y-146652107D01*
X82179507Y-146618375D01*
X82352409Y-146618375D01*
X82521989Y-146652107D01*
G37*
G36*
X85061989Y-146652107D02*
G01*
X85221730Y-146718273D01*
X85365493Y-146814333D01*
X85487753Y-146936593D01*
X85583813Y-147080356D01*
X85649979Y-147240097D01*
X85683711Y-147409677D01*
X85683711Y-147582579D01*
X85649979Y-147752159D01*
X85583813Y-147911900D01*
X85487753Y-148055663D01*
X85365493Y-148177923D01*
X85221730Y-148273983D01*
X85061989Y-148340149D01*
X84892409Y-148373881D01*
X84719507Y-148373881D01*
X84549927Y-148340149D01*
X84390186Y-148273983D01*
X84246423Y-148177923D01*
X84124163Y-148055663D01*
X84028103Y-147911900D01*
X83961937Y-147752159D01*
X83928205Y-147582579D01*
X83928205Y-147409677D01*
X83961937Y-147240097D01*
X84028103Y-147080356D01*
X84124163Y-146936593D01*
X84246423Y-146814333D01*
X84390186Y-146718273D01*
X84549927Y-146652107D01*
X84719507Y-146618375D01*
X84892409Y-146618375D01*
X85061989Y-146652107D01*
G37*
G36*
X87601989Y-146652107D02*
G01*
X87761730Y-146718273D01*
X87905493Y-146814333D01*
X88027753Y-146936593D01*
X88123813Y-147080356D01*
X88189979Y-147240097D01*
X88223711Y-147409677D01*
X88223711Y-147582579D01*
X88189979Y-147752159D01*
X88123813Y-147911900D01*
X88027753Y-148055663D01*
X87905493Y-148177923D01*
X87761730Y-148273983D01*
X87601989Y-148340149D01*
X87432409Y-148373881D01*
X87259507Y-148373881D01*
X87089927Y-148340149D01*
X86930186Y-148273983D01*
X86786423Y-148177923D01*
X86664163Y-148055663D01*
X86568103Y-147911900D01*
X86501937Y-147752159D01*
X86468205Y-147582579D01*
X86468205Y-147409677D01*
X86501937Y-147240097D01*
X86568103Y-147080356D01*
X86664163Y-146936593D01*
X86786423Y-146814333D01*
X86930186Y-146718273D01*
X87089927Y-146652107D01*
X87259507Y-146618375D01*
X87432409Y-146618375D01*
X87601989Y-146652107D01*
G37*
G36*
X90141989Y-146652107D02*
G01*
X90301730Y-146718273D01*
X90445493Y-146814333D01*
X90567753Y-146936593D01*
X90663813Y-147080356D01*
X90729979Y-147240097D01*
X90763711Y-147409677D01*
X90763711Y-147582579D01*
X90729979Y-147752159D01*
X90663813Y-147911900D01*
X90567753Y-148055663D01*
X90445493Y-148177923D01*
X90301730Y-148273983D01*
X90141989Y-148340149D01*
X89972409Y-148373881D01*
X89799507Y-148373881D01*
X89629927Y-148340149D01*
X89470186Y-148273983D01*
X89326423Y-148177923D01*
X89204163Y-148055663D01*
X89108103Y-147911900D01*
X89041937Y-147752159D01*
X89008205Y-147582579D01*
X89008205Y-147409677D01*
X89041937Y-147240097D01*
X89108103Y-147080356D01*
X89204163Y-146936593D01*
X89326423Y-146814333D01*
X89470186Y-146718273D01*
X89629927Y-146652107D01*
X89799507Y-146618375D01*
X89972409Y-146618375D01*
X90141989Y-146652107D01*
G37*
G36*
X92681989Y-146652107D02*
G01*
X92841730Y-146718273D01*
X92985493Y-146814333D01*
X93107753Y-146936593D01*
X93203813Y-147080356D01*
X93269979Y-147240097D01*
X93303711Y-147409677D01*
X93303711Y-147582579D01*
X93269979Y-147752159D01*
X93203813Y-147911900D01*
X93107753Y-148055663D01*
X92985493Y-148177923D01*
X92841730Y-148273983D01*
X92681989Y-148340149D01*
X92512409Y-148373881D01*
X92339507Y-148373881D01*
X92169927Y-148340149D01*
X92010186Y-148273983D01*
X91866423Y-148177923D01*
X91744163Y-148055663D01*
X91648103Y-147911900D01*
X91581937Y-147752159D01*
X91548205Y-147582579D01*
X91548205Y-147409677D01*
X91581937Y-147240097D01*
X91648103Y-147080356D01*
X91744163Y-146936593D01*
X91866423Y-146814333D01*
X92010186Y-146718273D01*
X92169927Y-146652107D01*
X92339507Y-146618375D01*
X92512409Y-146618375D01*
X92681989Y-146652107D01*
G37*
G36*
X95221989Y-146652107D02*
G01*
X95381730Y-146718273D01*
X95525493Y-146814333D01*
X95647753Y-146936593D01*
X95743813Y-147080356D01*
X95809979Y-147240097D01*
X95843711Y-147409677D01*
X95843711Y-147582579D01*
X95809979Y-147752159D01*
X95743813Y-147911900D01*
X95647753Y-148055663D01*
X95525493Y-148177923D01*
X95381730Y-148273983D01*
X95221989Y-148340149D01*
X95052409Y-148373881D01*
X94879507Y-148373881D01*
X94709927Y-148340149D01*
X94550186Y-148273983D01*
X94406423Y-148177923D01*
X94284163Y-148055663D01*
X94188103Y-147911900D01*
X94121937Y-147752159D01*
X94088205Y-147582579D01*
X94088205Y-147409677D01*
X94121937Y-147240097D01*
X94188103Y-147080356D01*
X94284163Y-146936593D01*
X94406423Y-146814333D01*
X94550186Y-146718273D01*
X94709927Y-146652107D01*
X94879507Y-146618375D01*
X95052409Y-146618375D01*
X95221989Y-146652107D01*
G37*
G36*
X97761989Y-146652107D02*
G01*
X97921730Y-146718273D01*
X98065493Y-146814333D01*
X98187753Y-146936593D01*
X98283813Y-147080356D01*
X98349979Y-147240097D01*
X98383711Y-147409677D01*
X98383711Y-147582579D01*
X98349979Y-147752159D01*
X98283813Y-147911900D01*
X98187753Y-148055663D01*
X98065493Y-148177923D01*
X97921730Y-148273983D01*
X97761989Y-148340149D01*
X97592409Y-148373881D01*
X97419507Y-148373881D01*
X97249927Y-148340149D01*
X97090186Y-148273983D01*
X96946423Y-148177923D01*
X96824163Y-148055663D01*
X96728103Y-147911900D01*
X96661937Y-147752159D01*
X96628205Y-147582579D01*
X96628205Y-147409677D01*
X96661937Y-147240097D01*
X96728103Y-147080356D01*
X96824163Y-146936593D01*
X96946423Y-146814333D01*
X97090186Y-146718273D01*
X97249927Y-146652107D01*
X97419507Y-146618375D01*
X97592409Y-146618375D01*
X97761989Y-146652107D01*
G37*
G36*
X100301989Y-146652107D02*
G01*
X100461730Y-146718273D01*
X100605493Y-146814333D01*
X100727753Y-146936593D01*
X100823813Y-147080356D01*
X100889979Y-147240097D01*
X100923711Y-147409677D01*
X100923711Y-147582579D01*
X100889979Y-147752159D01*
X100823813Y-147911900D01*
X100727753Y-148055663D01*
X100605493Y-148177923D01*
X100461730Y-148273983D01*
X100301989Y-148340149D01*
X100132409Y-148373881D01*
X99959507Y-148373881D01*
X99789927Y-148340149D01*
X99630186Y-148273983D01*
X99486423Y-148177923D01*
X99364163Y-148055663D01*
X99268103Y-147911900D01*
X99201937Y-147752159D01*
X99168205Y-147582579D01*
X99168205Y-147409677D01*
X99201937Y-147240097D01*
X99268103Y-147080356D01*
X99364163Y-146936593D01*
X99486423Y-146814333D01*
X99630186Y-146718273D01*
X99789927Y-146652107D01*
X99959507Y-146618375D01*
X100132409Y-146618375D01*
X100301989Y-146652107D01*
G37*
G36*
X102841989Y-146652107D02*
G01*
X103001730Y-146718273D01*
X103145493Y-146814333D01*
X103267753Y-146936593D01*
X103363813Y-147080356D01*
X103429979Y-147240097D01*
X103463711Y-147409677D01*
X103463711Y-147582579D01*
X103429979Y-147752159D01*
X103363813Y-147911900D01*
X103267753Y-148055663D01*
X103145493Y-148177923D01*
X103001730Y-148273983D01*
X102841989Y-148340149D01*
X102672409Y-148373881D01*
X102499507Y-148373881D01*
X102329927Y-148340149D01*
X102170186Y-148273983D01*
X102026423Y-148177923D01*
X101904163Y-148055663D01*
X101808103Y-147911900D01*
X101741937Y-147752159D01*
X101708205Y-147582579D01*
X101708205Y-147409677D01*
X101741937Y-147240097D01*
X101808103Y-147080356D01*
X101904163Y-146936593D01*
X102026423Y-146814333D01*
X102170186Y-146718273D01*
X102329927Y-146652107D01*
X102499507Y-146618375D01*
X102672409Y-146618375D01*
X102841989Y-146652107D01*
G37*
G36*
X105381989Y-146652107D02*
G01*
X105541730Y-146718273D01*
X105685493Y-146814333D01*
X105807753Y-146936593D01*
X105903813Y-147080356D01*
X105969979Y-147240097D01*
X106003711Y-147409677D01*
X106003711Y-147582579D01*
X105969979Y-147752159D01*
X105903813Y-147911900D01*
X105807753Y-148055663D01*
X105685493Y-148177923D01*
X105541730Y-148273983D01*
X105381989Y-148340149D01*
X105212409Y-148373881D01*
X105039507Y-148373881D01*
X104869927Y-148340149D01*
X104710186Y-148273983D01*
X104566423Y-148177923D01*
X104444163Y-148055663D01*
X104348103Y-147911900D01*
X104281937Y-147752159D01*
X104248205Y-147582579D01*
X104248205Y-147409677D01*
X104281937Y-147240097D01*
X104348103Y-147080356D01*
X104444163Y-146936593D01*
X104566423Y-146814333D01*
X104710186Y-146718273D01*
X104869927Y-146652107D01*
X105039507Y-146618375D01*
X105212409Y-146618375D01*
X105381989Y-146652107D01*
G37*
G36*
X107921989Y-146652107D02*
G01*
X108081730Y-146718273D01*
X108225493Y-146814333D01*
X108347753Y-146936593D01*
X108443813Y-147080356D01*
X108509979Y-147240097D01*
X108543711Y-147409677D01*
X108543711Y-147582579D01*
X108509979Y-147752159D01*
X108443813Y-147911900D01*
X108347753Y-148055663D01*
X108225493Y-148177923D01*
X108081730Y-148273983D01*
X107921989Y-148340149D01*
X107752409Y-148373881D01*
X107579507Y-148373881D01*
X107409927Y-148340149D01*
X107250186Y-148273983D01*
X107106423Y-148177923D01*
X106984163Y-148055663D01*
X106888103Y-147911900D01*
X106821937Y-147752159D01*
X106788205Y-147582579D01*
X106788205Y-147409677D01*
X106821937Y-147240097D01*
X106888103Y-147080356D01*
X106984163Y-146936593D01*
X107106423Y-146814333D01*
X107250186Y-146718273D01*
X107409927Y-146652107D01*
X107579507Y-146618375D01*
X107752409Y-146618375D01*
X107921989Y-146652107D01*
G37*
G36*
X110461989Y-146652107D02*
G01*
X110621730Y-146718273D01*
X110765493Y-146814333D01*
X110887753Y-146936593D01*
X110983813Y-147080356D01*
X111049979Y-147240097D01*
X111083711Y-147409677D01*
X111083711Y-147582579D01*
X111049979Y-147752159D01*
X110983813Y-147911900D01*
X110887753Y-148055663D01*
X110765493Y-148177923D01*
X110621730Y-148273983D01*
X110461989Y-148340149D01*
X110292409Y-148373881D01*
X110119507Y-148373881D01*
X109949927Y-148340149D01*
X109790186Y-148273983D01*
X109646423Y-148177923D01*
X109524163Y-148055663D01*
X109428103Y-147911900D01*
X109361937Y-147752159D01*
X109328205Y-147582579D01*
X109328205Y-147409677D01*
X109361937Y-147240097D01*
X109428103Y-147080356D01*
X109524163Y-146936593D01*
X109646423Y-146814333D01*
X109790186Y-146718273D01*
X109949927Y-146652107D01*
X110119507Y-146618375D01*
X110292409Y-146618375D01*
X110461989Y-146652107D01*
G37*
G36*
X113001989Y-146652107D02*
G01*
X113161730Y-146718273D01*
X113305493Y-146814333D01*
X113427753Y-146936593D01*
X113523813Y-147080356D01*
X113589979Y-147240097D01*
X113623711Y-147409677D01*
X113623711Y-147582579D01*
X113589979Y-147752159D01*
X113523813Y-147911900D01*
X113427753Y-148055663D01*
X113305493Y-148177923D01*
X113161730Y-148273983D01*
X113001989Y-148340149D01*
X112832409Y-148373881D01*
X112659507Y-148373881D01*
X112489927Y-148340149D01*
X112330186Y-148273983D01*
X112186423Y-148177923D01*
X112064163Y-148055663D01*
X111968103Y-147911900D01*
X111901937Y-147752159D01*
X111868205Y-147582579D01*
X111868205Y-147409677D01*
X111901937Y-147240097D01*
X111968103Y-147080356D01*
X112064163Y-146936593D01*
X112186423Y-146814333D01*
X112330186Y-146718273D01*
X112489927Y-146652107D01*
X112659507Y-146618375D01*
X112832409Y-146618375D01*
X113001989Y-146652107D01*
G37*
G36*
X115541989Y-146652107D02*
G01*
X115701730Y-146718273D01*
X115845493Y-146814333D01*
X115967753Y-146936593D01*
X116063813Y-147080356D01*
X116129979Y-147240097D01*
X116163711Y-147409677D01*
X116163711Y-147582579D01*
X116129979Y-147752159D01*
X116063813Y-147911900D01*
X115967753Y-148055663D01*
X115845493Y-148177923D01*
X115701730Y-148273983D01*
X115541989Y-148340149D01*
X115372409Y-148373881D01*
X115199507Y-148373881D01*
X115029927Y-148340149D01*
X114870186Y-148273983D01*
X114726423Y-148177923D01*
X114604163Y-148055663D01*
X114508103Y-147911900D01*
X114441937Y-147752159D01*
X114408205Y-147582579D01*
X114408205Y-147409677D01*
X114441937Y-147240097D01*
X114508103Y-147080356D01*
X114604163Y-146936593D01*
X114726423Y-146814333D01*
X114870186Y-146718273D01*
X115029927Y-146652107D01*
X115199507Y-146618375D01*
X115372409Y-146618375D01*
X115541989Y-146652107D01*
G37*
G36*
X118081989Y-146652107D02*
G01*
X118241730Y-146718273D01*
X118385493Y-146814333D01*
X118507753Y-146936593D01*
X118603813Y-147080356D01*
X118669979Y-147240097D01*
X118703711Y-147409677D01*
X118703711Y-147582579D01*
X118669979Y-147752159D01*
X118603813Y-147911900D01*
X118507753Y-148055663D01*
X118385493Y-148177923D01*
X118241730Y-148273983D01*
X118081989Y-148340149D01*
X117912409Y-148373881D01*
X117739507Y-148373881D01*
X117569927Y-148340149D01*
X117410186Y-148273983D01*
X117266423Y-148177923D01*
X117144163Y-148055663D01*
X117048103Y-147911900D01*
X116981937Y-147752159D01*
X116948205Y-147582579D01*
X116948205Y-147409677D01*
X116981937Y-147240097D01*
X117048103Y-147080356D01*
X117144163Y-146936593D01*
X117266423Y-146814333D01*
X117410186Y-146718273D01*
X117569927Y-146652107D01*
X117739507Y-146618375D01*
X117912409Y-146618375D01*
X118081989Y-146652107D01*
G37*
G36*
X122242350Y-146825964D02*
G01*
X122289679Y-146831455D01*
X122305853Y-146838596D01*
X122328387Y-146843079D01*
X122352511Y-146859198D01*
X122371132Y-146867420D01*
X122383848Y-146880136D01*
X122405438Y-146894562D01*
X122419863Y-146916151D01*
X122432579Y-146928867D01*
X122440800Y-146947486D01*
X122456921Y-146971613D01*
X122461403Y-146994147D01*
X122468544Y-147010319D01*
X122474033Y-147057640D01*
X122475000Y-147062500D01*
X122475000Y-147662500D01*
X122474032Y-147667362D01*
X122468544Y-147714679D01*
X122461404Y-147730849D01*
X122456921Y-147753387D01*
X122440798Y-147777516D01*
X122432579Y-147796132D01*
X122419865Y-147808845D01*
X122405438Y-147830438D01*
X122383845Y-147844865D01*
X122371132Y-147857579D01*
X122352515Y-147865799D01*
X122328387Y-147881921D01*
X122305850Y-147886403D01*
X122289680Y-147893544D01*
X122242361Y-147899033D01*
X122237500Y-147900000D01*
X121762500Y-147900000D01*
X121757638Y-147899033D01*
X121710320Y-147893544D01*
X121694148Y-147886403D01*
X121671613Y-147881921D01*
X121647485Y-147865800D01*
X121628867Y-147857579D01*
X121616151Y-147844863D01*
X121594562Y-147830438D01*
X121580136Y-147808848D01*
X121567420Y-147796132D01*
X121559198Y-147777511D01*
X121543079Y-147753387D01*
X121538596Y-147730854D01*
X121531455Y-147714680D01*
X121525964Y-147667348D01*
X121525000Y-147662500D01*
X121525000Y-147062500D01*
X121525964Y-147057651D01*
X121531455Y-147010320D01*
X121538597Y-146994144D01*
X121543079Y-146971613D01*
X121559197Y-146947490D01*
X121567420Y-146928867D01*
X121580138Y-146916148D01*
X121594562Y-146894562D01*
X121616148Y-146880138D01*
X121628867Y-146867420D01*
X121647490Y-146859196D01*
X121671613Y-146843079D01*
X121694143Y-146838597D01*
X121710319Y-146831455D01*
X121757652Y-146825964D01*
X121762500Y-146825000D01*
X122237500Y-146825000D01*
X122242350Y-146825964D01*
G37*
G36*
X122242350Y-145100964D02*
G01*
X122289679Y-145106455D01*
X122305853Y-145113596D01*
X122328387Y-145118079D01*
X122352511Y-145134198D01*
X122371132Y-145142420D01*
X122383848Y-145155136D01*
X122405438Y-145169562D01*
X122419863Y-145191151D01*
X122432579Y-145203867D01*
X122440800Y-145222486D01*
X122456921Y-145246613D01*
X122461403Y-145269147D01*
X122468544Y-145285319D01*
X122474033Y-145332640D01*
X122475000Y-145337500D01*
X122475000Y-145937500D01*
X122474032Y-145942362D01*
X122468544Y-145989679D01*
X122461404Y-146005849D01*
X122456921Y-146028387D01*
X122440798Y-146052516D01*
X122432579Y-146071132D01*
X122419865Y-146083845D01*
X122405438Y-146105438D01*
X122383845Y-146119865D01*
X122371132Y-146132579D01*
X122352515Y-146140799D01*
X122328387Y-146156921D01*
X122305850Y-146161403D01*
X122289680Y-146168544D01*
X122242361Y-146174033D01*
X122237500Y-146175000D01*
X121762500Y-146175000D01*
X121757638Y-146174033D01*
X121710320Y-146168544D01*
X121694148Y-146161403D01*
X121671613Y-146156921D01*
X121647485Y-146140800D01*
X121628867Y-146132579D01*
X121616151Y-146119863D01*
X121594562Y-146105438D01*
X121580136Y-146083848D01*
X121567420Y-146071132D01*
X121559198Y-146052511D01*
X121543079Y-146028387D01*
X121538596Y-146005854D01*
X121531455Y-145989680D01*
X121525964Y-145942348D01*
X121525000Y-145937500D01*
X121525000Y-145337500D01*
X121525964Y-145332651D01*
X121531455Y-145285320D01*
X121538597Y-145269144D01*
X121543079Y-145246613D01*
X121559197Y-145222490D01*
X121567420Y-145203867D01*
X121580138Y-145191148D01*
X121594562Y-145169562D01*
X121616148Y-145155138D01*
X121628867Y-145142420D01*
X121647490Y-145134196D01*
X121671613Y-145118079D01*
X121694143Y-145113597D01*
X121710319Y-145106455D01*
X121757652Y-145100964D01*
X121762500Y-145100000D01*
X122237500Y-145100000D01*
X122242350Y-145100964D01*
G37*
G36*
X136345801Y-144299322D02*
G01*
X135043526Y-145392061D01*
X133950787Y-144089786D01*
X135253062Y-142997047D01*
X136345801Y-144299322D01*
G37*
G36*
X137340790Y-141748475D02*
G01*
X137494735Y-141812241D01*
X137633282Y-141904815D01*
X137751107Y-142022640D01*
X137843681Y-142161187D01*
X137907447Y-142315132D01*
X137939955Y-142478559D01*
X137939955Y-142645189D01*
X137907447Y-142808616D01*
X137843681Y-142962561D01*
X137751107Y-143101108D01*
X137633282Y-143218933D01*
X137494735Y-143311507D01*
X137340790Y-143375273D01*
X137177363Y-143407781D01*
X137010733Y-143407781D01*
X136847306Y-143375273D01*
X136693361Y-143311507D01*
X136554814Y-143218933D01*
X136436989Y-143101108D01*
X136344415Y-142962561D01*
X136280649Y-142808616D01*
X136248141Y-142645189D01*
X136248141Y-142478559D01*
X136280649Y-142315132D01*
X136344415Y-142161187D01*
X136436989Y-142022640D01*
X136554814Y-141904815D01*
X136693361Y-141812241D01*
X136847306Y-141748475D01*
X137010733Y-141715967D01*
X137177363Y-141715967D01*
X137340790Y-141748475D01*
G37*
G36*
X136133034Y-138912264D02*
G01*
X136166125Y-138934375D01*
X136188236Y-138967466D01*
X136196000Y-139006500D01*
X136196000Y-139539900D01*
X136188236Y-139578934D01*
X136166125Y-139612025D01*
X136133034Y-139634136D01*
X136094000Y-139641900D01*
X133594000Y-139641900D01*
X133554966Y-139634136D01*
X133521875Y-139612025D01*
X133499764Y-139578934D01*
X133492000Y-139539900D01*
X133492000Y-139006500D01*
X133499764Y-138967466D01*
X133521875Y-138934375D01*
X133554966Y-138912264D01*
X133594000Y-138904500D01*
X136094000Y-138904500D01*
X136133034Y-138912264D01*
G37*
G36*
X127288634Y-138907264D02*
G01*
X127321725Y-138929375D01*
X127343836Y-138962466D01*
X127351600Y-139001500D01*
X127351600Y-139534900D01*
X127343836Y-139573934D01*
X127321725Y-139607025D01*
X127288634Y-139629136D01*
X127249600Y-139636900D01*
X124749600Y-139636900D01*
X124710566Y-139629136D01*
X124677475Y-139607025D01*
X124655364Y-139573934D01*
X124647600Y-139534900D01*
X124647600Y-139001500D01*
X124655364Y-138962466D01*
X124677475Y-138929375D01*
X124710566Y-138907264D01*
X124749600Y-138899500D01*
X127249600Y-138899500D01*
X127288634Y-138907264D01*
G37*
G36*
X136133034Y-137642264D02*
G01*
X136166125Y-137664375D01*
X136188236Y-137697466D01*
X136196000Y-137736500D01*
X136196000Y-138269900D01*
X136188236Y-138308934D01*
X136166125Y-138342025D01*
X136133034Y-138364136D01*
X136094000Y-138371900D01*
X133594000Y-138371900D01*
X133554966Y-138364136D01*
X133521875Y-138342025D01*
X133499764Y-138308934D01*
X133492000Y-138269900D01*
X133492000Y-137736500D01*
X133499764Y-137697466D01*
X133521875Y-137664375D01*
X133554966Y-137642264D01*
X133594000Y-137634500D01*
X136094000Y-137634500D01*
X136133034Y-137642264D01*
G37*
G36*
X127288634Y-137637264D02*
G01*
X127321725Y-137659375D01*
X127343836Y-137692466D01*
X127351600Y-137731500D01*
X127351600Y-138264900D01*
X127343836Y-138303934D01*
X127321725Y-138337025D01*
X127288634Y-138359136D01*
X127249600Y-138366900D01*
X124749600Y-138366900D01*
X124710566Y-138359136D01*
X124677475Y-138337025D01*
X124655364Y-138303934D01*
X124647600Y-138264900D01*
X124647600Y-137731500D01*
X124655364Y-137692466D01*
X124677475Y-137659375D01*
X124710566Y-137637264D01*
X124749600Y-137629500D01*
X127249600Y-137629500D01*
X127288634Y-137637264D01*
G37*
G36*
X136133034Y-136372264D02*
G01*
X136166125Y-136394375D01*
X136188236Y-136427466D01*
X136196000Y-136466500D01*
X136196000Y-136999900D01*
X136188236Y-137038934D01*
X136166125Y-137072025D01*
X136133034Y-137094136D01*
X136094000Y-137101900D01*
X133594000Y-137101900D01*
X133554966Y-137094136D01*
X133521875Y-137072025D01*
X133499764Y-137038934D01*
X133492000Y-136999900D01*
X133492000Y-136466500D01*
X133499764Y-136427466D01*
X133521875Y-136394375D01*
X133554966Y-136372264D01*
X133594000Y-136364500D01*
X136094000Y-136364500D01*
X136133034Y-136372264D01*
G37*
G36*
X127288634Y-136367264D02*
G01*
X127321725Y-136389375D01*
X127343836Y-136422466D01*
X127351600Y-136461500D01*
X127351600Y-136994900D01*
X127343836Y-137033934D01*
X127321725Y-137067025D01*
X127288634Y-137089136D01*
X127249600Y-137096900D01*
X124749600Y-137096900D01*
X124710566Y-137089136D01*
X124677475Y-137067025D01*
X124655364Y-137033934D01*
X124647600Y-136994900D01*
X124647600Y-136461500D01*
X124655364Y-136422466D01*
X124677475Y-136389375D01*
X124710566Y-136367264D01*
X124749600Y-136359500D01*
X127249600Y-136359500D01*
X127288634Y-136367264D01*
G37*
G36*
X136133034Y-135102264D02*
G01*
X136166125Y-135124375D01*
X136188236Y-135157466D01*
X136196000Y-135196500D01*
X136196000Y-135729900D01*
X136188236Y-135768934D01*
X136166125Y-135802025D01*
X136133034Y-135824136D01*
X136094000Y-135831900D01*
X133594000Y-135831900D01*
X133554966Y-135824136D01*
X133521875Y-135802025D01*
X133499764Y-135768934D01*
X133492000Y-135729900D01*
X133492000Y-135196500D01*
X133499764Y-135157466D01*
X133521875Y-135124375D01*
X133554966Y-135102264D01*
X133594000Y-135094500D01*
X136094000Y-135094500D01*
X136133034Y-135102264D01*
G37*
G36*
X127288634Y-135097264D02*
G01*
X127321725Y-135119375D01*
X127343836Y-135152466D01*
X127351600Y-135191500D01*
X127351600Y-135724900D01*
X127343836Y-135763934D01*
X127321725Y-135797025D01*
X127288634Y-135819136D01*
X127249600Y-135826900D01*
X124749600Y-135826900D01*
X124710566Y-135819136D01*
X124677475Y-135797025D01*
X124655364Y-135763934D01*
X124647600Y-135724900D01*
X124647600Y-135191500D01*
X124655364Y-135152466D01*
X124677475Y-135119375D01*
X124710566Y-135097264D01*
X124749600Y-135089500D01*
X127249600Y-135089500D01*
X127288634Y-135097264D01*
G37*
G36*
X136133034Y-133832264D02*
G01*
X136166125Y-133854375D01*
X136188236Y-133887466D01*
X136196000Y-133926500D01*
X136196000Y-134459900D01*
X136188236Y-134498934D01*
X136166125Y-134532025D01*
X136133034Y-134554136D01*
X136094000Y-134561900D01*
X133594000Y-134561900D01*
X133554966Y-134554136D01*
X133521875Y-134532025D01*
X133499764Y-134498934D01*
X133492000Y-134459900D01*
X133492000Y-133926500D01*
X133499764Y-133887466D01*
X133521875Y-133854375D01*
X133554966Y-133832264D01*
X133594000Y-133824500D01*
X136094000Y-133824500D01*
X136133034Y-133832264D01*
G37*
G36*
X127288634Y-133827264D02*
G01*
X127321725Y-133849375D01*
X127343836Y-133882466D01*
X127351600Y-133921500D01*
X127351600Y-134454900D01*
X127343836Y-134493934D01*
X127321725Y-134527025D01*
X127288634Y-134549136D01*
X127249600Y-134556900D01*
X124749600Y-134556900D01*
X124710566Y-134549136D01*
X124677475Y-134527025D01*
X124655364Y-134493934D01*
X124647600Y-134454900D01*
X124647600Y-133921500D01*
X124655364Y-133882466D01*
X124677475Y-133849375D01*
X124710566Y-133827264D01*
X124749600Y-133819500D01*
X127249600Y-133819500D01*
X127288634Y-133827264D01*
G37*
G36*
X136133034Y-132562264D02*
G01*
X136166125Y-132584375D01*
X136188236Y-132617466D01*
X136196000Y-132656500D01*
X136196000Y-133189900D01*
X136188236Y-133228934D01*
X136166125Y-133262025D01*
X136133034Y-133284136D01*
X136094000Y-133291900D01*
X133594000Y-133291900D01*
X133554966Y-133284136D01*
X133521875Y-133262025D01*
X133499764Y-133228934D01*
X133492000Y-133189900D01*
X133492000Y-132656500D01*
X133499764Y-132617466D01*
X133521875Y-132584375D01*
X133554966Y-132562264D01*
X133594000Y-132554500D01*
X136094000Y-132554500D01*
X136133034Y-132562264D01*
G37*
G36*
X127288634Y-132557264D02*
G01*
X127321725Y-132579375D01*
X127343836Y-132612466D01*
X127351600Y-132651500D01*
X127351600Y-133184900D01*
X127343836Y-133223934D01*
X127321725Y-133257025D01*
X127288634Y-133279136D01*
X127249600Y-133286900D01*
X124749600Y-133286900D01*
X124710566Y-133279136D01*
X124677475Y-133257025D01*
X124655364Y-133223934D01*
X124647600Y-133184900D01*
X124647600Y-132651500D01*
X124655364Y-132612466D01*
X124677475Y-132579375D01*
X124710566Y-132557264D01*
X124749600Y-132549500D01*
X127249600Y-132549500D01*
X127288634Y-132557264D01*
G37*
G36*
X136133034Y-131292264D02*
G01*
X136166125Y-131314375D01*
X136188236Y-131347466D01*
X136196000Y-131386500D01*
X136196000Y-131919900D01*
X136188236Y-131958934D01*
X136166125Y-131992025D01*
X136133034Y-132014136D01*
X136094000Y-132021900D01*
X133594000Y-132021900D01*
X133554966Y-132014136D01*
X133521875Y-131992025D01*
X133499764Y-131958934D01*
X133492000Y-131919900D01*
X133492000Y-131386500D01*
X133499764Y-131347466D01*
X133521875Y-131314375D01*
X133554966Y-131292264D01*
X133594000Y-131284500D01*
X136094000Y-131284500D01*
X136133034Y-131292264D01*
G37*
G36*
X127288634Y-131287264D02*
G01*
X127321725Y-131309375D01*
X127343836Y-131342466D01*
X127351600Y-131381500D01*
X127351600Y-131914900D01*
X127343836Y-131953934D01*
X127321725Y-131987025D01*
X127288634Y-132009136D01*
X127249600Y-132016900D01*
X124749600Y-132016900D01*
X124710566Y-132009136D01*
X124677475Y-131987025D01*
X124655364Y-131953934D01*
X124647600Y-131914900D01*
X124647600Y-131381500D01*
X124655364Y-131342466D01*
X124677475Y-131309375D01*
X124710566Y-131287264D01*
X124749600Y-131279500D01*
X127249600Y-131279500D01*
X127288634Y-131287264D01*
G37*
G36*
X136133034Y-130022264D02*
G01*
X136166125Y-130044375D01*
X136188236Y-130077466D01*
X136196000Y-130116500D01*
X136196000Y-130649900D01*
X136188236Y-130688934D01*
X136166125Y-130722025D01*
X136133034Y-130744136D01*
X136094000Y-130751900D01*
X133594000Y-130751900D01*
X133554966Y-130744136D01*
X133521875Y-130722025D01*
X133499764Y-130688934D01*
X133492000Y-130649900D01*
X133492000Y-130116500D01*
X133499764Y-130077466D01*
X133521875Y-130044375D01*
X133554966Y-130022264D01*
X133594000Y-130014500D01*
X136094000Y-130014500D01*
X136133034Y-130022264D01*
G37*
G36*
X127288634Y-130017264D02*
G01*
X127321725Y-130039375D01*
X127343836Y-130072466D01*
X127351600Y-130111500D01*
X127351600Y-130644900D01*
X127343836Y-130683934D01*
X127321725Y-130717025D01*
X127288634Y-130739136D01*
X127249600Y-130746900D01*
X124749600Y-130746900D01*
X124710566Y-130739136D01*
X124677475Y-130717025D01*
X124655364Y-130683934D01*
X124647600Y-130644900D01*
X124647600Y-130111500D01*
X124655364Y-130072466D01*
X124677475Y-130039375D01*
X124710566Y-130017264D01*
X124749600Y-130009500D01*
X127249600Y-130009500D01*
X127288634Y-130017264D01*
G37*
G36*
X138742350Y-128825964D02*
G01*
X138789679Y-128831455D01*
X138805853Y-128838596D01*
X138828387Y-128843079D01*
X138852511Y-128859198D01*
X138871132Y-128867420D01*
X138883848Y-128880136D01*
X138905438Y-128894562D01*
X138919863Y-128916151D01*
X138932579Y-128928867D01*
X138940800Y-128947486D01*
X138956921Y-128971613D01*
X138961403Y-128994147D01*
X138968544Y-129010319D01*
X138974033Y-129057640D01*
X138975000Y-129062500D01*
X138975000Y-129662500D01*
X138974032Y-129667362D01*
X138968544Y-129714679D01*
X138961404Y-129730849D01*
X138956921Y-129753387D01*
X138940798Y-129777516D01*
X138932579Y-129796132D01*
X138919865Y-129808845D01*
X138905438Y-129830438D01*
X138883845Y-129844865D01*
X138871132Y-129857579D01*
X138852515Y-129865799D01*
X138828387Y-129881921D01*
X138805850Y-129886403D01*
X138789680Y-129893544D01*
X138742361Y-129899033D01*
X138737500Y-129900000D01*
X138262500Y-129900000D01*
X138257638Y-129899033D01*
X138210320Y-129893544D01*
X138194148Y-129886403D01*
X138171613Y-129881921D01*
X138147485Y-129865800D01*
X138128867Y-129857579D01*
X138116151Y-129844863D01*
X138094562Y-129830438D01*
X138080136Y-129808848D01*
X138067420Y-129796132D01*
X138059198Y-129777511D01*
X138043079Y-129753387D01*
X138038596Y-129730854D01*
X138031455Y-129714680D01*
X138025964Y-129667348D01*
X138025000Y-129662500D01*
X138025000Y-129062500D01*
X138025964Y-129057651D01*
X138031455Y-129010320D01*
X138038597Y-128994144D01*
X138043079Y-128971613D01*
X138059197Y-128947490D01*
X138067420Y-128928867D01*
X138080138Y-128916148D01*
X138094562Y-128894562D01*
X138116148Y-128880138D01*
X138128867Y-128867420D01*
X138147490Y-128859196D01*
X138171613Y-128843079D01*
X138194143Y-128838597D01*
X138210319Y-128831455D01*
X138257652Y-128825964D01*
X138262500Y-128825000D01*
X138737500Y-128825000D01*
X138742350Y-128825964D01*
G37*
G36*
X136133034Y-128752264D02*
G01*
X136166125Y-128774375D01*
X136188236Y-128807466D01*
X136196000Y-128846500D01*
X136196000Y-129379900D01*
X136188236Y-129418934D01*
X136166125Y-129452025D01*
X136133034Y-129474136D01*
X136094000Y-129481900D01*
X133594000Y-129481900D01*
X133554966Y-129474136D01*
X133521875Y-129452025D01*
X133499764Y-129418934D01*
X133492000Y-129379900D01*
X133492000Y-128846500D01*
X133499764Y-128807466D01*
X133521875Y-128774375D01*
X133554966Y-128752264D01*
X133594000Y-128744500D01*
X136094000Y-128744500D01*
X136133034Y-128752264D01*
G37*
G36*
X127288634Y-128747264D02*
G01*
X127321725Y-128769375D01*
X127343836Y-128802466D01*
X127351600Y-128841500D01*
X127351600Y-129374900D01*
X127343836Y-129413934D01*
X127321725Y-129447025D01*
X127288634Y-129469136D01*
X127249600Y-129476900D01*
X124749600Y-129476900D01*
X124710566Y-129469136D01*
X124677475Y-129447025D01*
X124655364Y-129413934D01*
X124647600Y-129374900D01*
X124647600Y-128841500D01*
X124655364Y-128802466D01*
X124677475Y-128769375D01*
X124710566Y-128747264D01*
X124749600Y-128739500D01*
X127249600Y-128739500D01*
X127288634Y-128747264D01*
G37*
G36*
X136133034Y-127482264D02*
G01*
X136166125Y-127504375D01*
X136188236Y-127537466D01*
X136196000Y-127576500D01*
X136196000Y-128109900D01*
X136188236Y-128148934D01*
X136166125Y-128182025D01*
X136133034Y-128204136D01*
X136094000Y-128211900D01*
X133594000Y-128211900D01*
X133554966Y-128204136D01*
X133521875Y-128182025D01*
X133499764Y-128148934D01*
X133492000Y-128109900D01*
X133492000Y-127576500D01*
X133499764Y-127537466D01*
X133521875Y-127504375D01*
X133554966Y-127482264D01*
X133594000Y-127474500D01*
X136094000Y-127474500D01*
X136133034Y-127482264D01*
G37*
G36*
X127288634Y-127477264D02*
G01*
X127321725Y-127499375D01*
X127343836Y-127532466D01*
X127351600Y-127571500D01*
X127351600Y-128104900D01*
X127343836Y-128143934D01*
X127321725Y-128177025D01*
X127288634Y-128199136D01*
X127249600Y-128206900D01*
X124749600Y-128206900D01*
X124710566Y-128199136D01*
X124677475Y-128177025D01*
X124655364Y-128143934D01*
X124647600Y-128104900D01*
X124647600Y-127571500D01*
X124655364Y-127532466D01*
X124677475Y-127499375D01*
X124710566Y-127477264D01*
X124749600Y-127469500D01*
X127249600Y-127469500D01*
X127288634Y-127477264D01*
G37*
G36*
X138742350Y-127100964D02*
G01*
X138789679Y-127106455D01*
X138805853Y-127113596D01*
X138828387Y-127118079D01*
X138852511Y-127134198D01*
X138871132Y-127142420D01*
X138883848Y-127155136D01*
X138905438Y-127169562D01*
X138919863Y-127191151D01*
X138932579Y-127203867D01*
X138940800Y-127222486D01*
X138956921Y-127246613D01*
X138961403Y-127269147D01*
X138968544Y-127285319D01*
X138974033Y-127332640D01*
X138975000Y-127337500D01*
X138975000Y-127937500D01*
X138974032Y-127942362D01*
X138968544Y-127989679D01*
X138961404Y-128005849D01*
X138956921Y-128028387D01*
X138940798Y-128052516D01*
X138932579Y-128071132D01*
X138919865Y-128083845D01*
X138905438Y-128105438D01*
X138883845Y-128119865D01*
X138871132Y-128132579D01*
X138852515Y-128140799D01*
X138828387Y-128156921D01*
X138805850Y-128161403D01*
X138789680Y-128168544D01*
X138742361Y-128174033D01*
X138737500Y-128175000D01*
X138262500Y-128175000D01*
X138257638Y-128174033D01*
X138210320Y-128168544D01*
X138194148Y-128161403D01*
X138171613Y-128156921D01*
X138147485Y-128140800D01*
X138128867Y-128132579D01*
X138116151Y-128119863D01*
X138094562Y-128105438D01*
X138080136Y-128083848D01*
X138067420Y-128071132D01*
X138059198Y-128052511D01*
X138043079Y-128028387D01*
X138038596Y-128005854D01*
X138031455Y-127989680D01*
X138025964Y-127942348D01*
X138025000Y-127937500D01*
X138025000Y-127337500D01*
X138025964Y-127332651D01*
X138031455Y-127285320D01*
X138038597Y-127269144D01*
X138043079Y-127246613D01*
X138059197Y-127222490D01*
X138067420Y-127203867D01*
X138080138Y-127191148D01*
X138094562Y-127169562D01*
X138116148Y-127155138D01*
X138128867Y-127142420D01*
X138147490Y-127134196D01*
X138171613Y-127118079D01*
X138194143Y-127113597D01*
X138210319Y-127106455D01*
X138257652Y-127100964D01*
X138262500Y-127100000D01*
X138737500Y-127100000D01*
X138742350Y-127100964D01*
G37*
G36*
X72361989Y-121252107D02*
G01*
X72521730Y-121318273D01*
X72665493Y-121414333D01*
X72787753Y-121536593D01*
X72883813Y-121680356D01*
X72949979Y-121840097D01*
X72983711Y-122009677D01*
X72983711Y-122182579D01*
X72949979Y-122352159D01*
X72883813Y-122511900D01*
X72787753Y-122655663D01*
X72665493Y-122777923D01*
X72521730Y-122873983D01*
X72361989Y-122940149D01*
X72192409Y-122973881D01*
X72019507Y-122973881D01*
X71849927Y-122940149D01*
X71690186Y-122873983D01*
X71546423Y-122777923D01*
X71424163Y-122655663D01*
X71328103Y-122511900D01*
X71261937Y-122352159D01*
X71228205Y-122182579D01*
X71228205Y-122009677D01*
X71261937Y-121840097D01*
X71328103Y-121680356D01*
X71424163Y-121536593D01*
X71546423Y-121414333D01*
X71690186Y-121318273D01*
X71849927Y-121252107D01*
X72019507Y-121218375D01*
X72192409Y-121218375D01*
X72361989Y-121252107D01*
G37*
G36*
X74901989Y-121252107D02*
G01*
X75061730Y-121318273D01*
X75205493Y-121414333D01*
X75327753Y-121536593D01*
X75423813Y-121680356D01*
X75489979Y-121840097D01*
X75523711Y-122009677D01*
X75523711Y-122182579D01*
X75489979Y-122352159D01*
X75423813Y-122511900D01*
X75327753Y-122655663D01*
X75205493Y-122777923D01*
X75061730Y-122873983D01*
X74901989Y-122940149D01*
X74732409Y-122973881D01*
X74559507Y-122973881D01*
X74389927Y-122940149D01*
X74230186Y-122873983D01*
X74086423Y-122777923D01*
X73964163Y-122655663D01*
X73868103Y-122511900D01*
X73801937Y-122352159D01*
X73768205Y-122182579D01*
X73768205Y-122009677D01*
X73801937Y-121840097D01*
X73868103Y-121680356D01*
X73964163Y-121536593D01*
X74086423Y-121414333D01*
X74230186Y-121318273D01*
X74389927Y-121252107D01*
X74559507Y-121218375D01*
X74732409Y-121218375D01*
X74901989Y-121252107D01*
G37*
G36*
X77441989Y-121252107D02*
G01*
X77601730Y-121318273D01*
X77745493Y-121414333D01*
X77867753Y-121536593D01*
X77963813Y-121680356D01*
X78029979Y-121840097D01*
X78063711Y-122009677D01*
X78063711Y-122182579D01*
X78029979Y-122352159D01*
X77963813Y-122511900D01*
X77867753Y-122655663D01*
X77745493Y-122777923D01*
X77601730Y-122873983D01*
X77441989Y-122940149D01*
X77272409Y-122973881D01*
X77099507Y-122973881D01*
X76929927Y-122940149D01*
X76770186Y-122873983D01*
X76626423Y-122777923D01*
X76504163Y-122655663D01*
X76408103Y-122511900D01*
X76341937Y-122352159D01*
X76308205Y-122182579D01*
X76308205Y-122009677D01*
X76341937Y-121840097D01*
X76408103Y-121680356D01*
X76504163Y-121536593D01*
X76626423Y-121414333D01*
X76770186Y-121318273D01*
X76929927Y-121252107D01*
X77099507Y-121218375D01*
X77272409Y-121218375D01*
X77441989Y-121252107D01*
G37*
G36*
X79981989Y-121252107D02*
G01*
X80141730Y-121318273D01*
X80285493Y-121414333D01*
X80407753Y-121536593D01*
X80503813Y-121680356D01*
X80569979Y-121840097D01*
X80603711Y-122009677D01*
X80603711Y-122182579D01*
X80569979Y-122352159D01*
X80503813Y-122511900D01*
X80407753Y-122655663D01*
X80285493Y-122777923D01*
X80141730Y-122873983D01*
X79981989Y-122940149D01*
X79812409Y-122973881D01*
X79639507Y-122973881D01*
X79469927Y-122940149D01*
X79310186Y-122873983D01*
X79166423Y-122777923D01*
X79044163Y-122655663D01*
X78948103Y-122511900D01*
X78881937Y-122352159D01*
X78848205Y-122182579D01*
X78848205Y-122009677D01*
X78881937Y-121840097D01*
X78948103Y-121680356D01*
X79044163Y-121536593D01*
X79166423Y-121414333D01*
X79310186Y-121318273D01*
X79469927Y-121252107D01*
X79639507Y-121218375D01*
X79812409Y-121218375D01*
X79981989Y-121252107D01*
G37*
G36*
X82521989Y-121252107D02*
G01*
X82681730Y-121318273D01*
X82825493Y-121414333D01*
X82947753Y-121536593D01*
X83043813Y-121680356D01*
X83109979Y-121840097D01*
X83143711Y-122009677D01*
X83143711Y-122182579D01*
X83109979Y-122352159D01*
X83043813Y-122511900D01*
X82947753Y-122655663D01*
X82825493Y-122777923D01*
X82681730Y-122873983D01*
X82521989Y-122940149D01*
X82352409Y-122973881D01*
X82179507Y-122973881D01*
X82009927Y-122940149D01*
X81850186Y-122873983D01*
X81706423Y-122777923D01*
X81584163Y-122655663D01*
X81488103Y-122511900D01*
X81421937Y-122352159D01*
X81388205Y-122182579D01*
X81388205Y-122009677D01*
X81421937Y-121840097D01*
X81488103Y-121680356D01*
X81584163Y-121536593D01*
X81706423Y-121414333D01*
X81850186Y-121318273D01*
X82009927Y-121252107D01*
X82179507Y-121218375D01*
X82352409Y-121218375D01*
X82521989Y-121252107D01*
G37*
G36*
X85061989Y-121252107D02*
G01*
X85221730Y-121318273D01*
X85365493Y-121414333D01*
X85487753Y-121536593D01*
X85583813Y-121680356D01*
X85649979Y-121840097D01*
X85683711Y-122009677D01*
X85683711Y-122182579D01*
X85649979Y-122352159D01*
X85583813Y-122511900D01*
X85487753Y-122655663D01*
X85365493Y-122777923D01*
X85221730Y-122873983D01*
X85061989Y-122940149D01*
X84892409Y-122973881D01*
X84719507Y-122973881D01*
X84549927Y-122940149D01*
X84390186Y-122873983D01*
X84246423Y-122777923D01*
X84124163Y-122655663D01*
X84028103Y-122511900D01*
X83961937Y-122352159D01*
X83928205Y-122182579D01*
X83928205Y-122009677D01*
X83961937Y-121840097D01*
X84028103Y-121680356D01*
X84124163Y-121536593D01*
X84246423Y-121414333D01*
X84390186Y-121318273D01*
X84549927Y-121252107D01*
X84719507Y-121218375D01*
X84892409Y-121218375D01*
X85061989Y-121252107D01*
G37*
G36*
X87601989Y-121252107D02*
G01*
X87761730Y-121318273D01*
X87905493Y-121414333D01*
X88027753Y-121536593D01*
X88123813Y-121680356D01*
X88189979Y-121840097D01*
X88223711Y-122009677D01*
X88223711Y-122182579D01*
X88189979Y-122352159D01*
X88123813Y-122511900D01*
X88027753Y-122655663D01*
X87905493Y-122777923D01*
X87761730Y-122873983D01*
X87601989Y-122940149D01*
X87432409Y-122973881D01*
X87259507Y-122973881D01*
X87089927Y-122940149D01*
X86930186Y-122873983D01*
X86786423Y-122777923D01*
X86664163Y-122655663D01*
X86568103Y-122511900D01*
X86501937Y-122352159D01*
X86468205Y-122182579D01*
X86468205Y-122009677D01*
X86501937Y-121840097D01*
X86568103Y-121680356D01*
X86664163Y-121536593D01*
X86786423Y-121414333D01*
X86930186Y-121318273D01*
X87089927Y-121252107D01*
X87259507Y-121218375D01*
X87432409Y-121218375D01*
X87601989Y-121252107D01*
G37*
G36*
X90141989Y-121252107D02*
G01*
X90301730Y-121318273D01*
X90445493Y-121414333D01*
X90567753Y-121536593D01*
X90663813Y-121680356D01*
X90729979Y-121840097D01*
X90763711Y-122009677D01*
X90763711Y-122182579D01*
X90729979Y-122352159D01*
X90663813Y-122511900D01*
X90567753Y-122655663D01*
X90445493Y-122777923D01*
X90301730Y-122873983D01*
X90141989Y-122940149D01*
X89972409Y-122973881D01*
X89799507Y-122973881D01*
X89629927Y-122940149D01*
X89470186Y-122873983D01*
X89326423Y-122777923D01*
X89204163Y-122655663D01*
X89108103Y-122511900D01*
X89041937Y-122352159D01*
X89008205Y-122182579D01*
X89008205Y-122009677D01*
X89041937Y-121840097D01*
X89108103Y-121680356D01*
X89204163Y-121536593D01*
X89326423Y-121414333D01*
X89470186Y-121318273D01*
X89629927Y-121252107D01*
X89799507Y-121218375D01*
X89972409Y-121218375D01*
X90141989Y-121252107D01*
G37*
G36*
X92681989Y-121252107D02*
G01*
X92841730Y-121318273D01*
X92985493Y-121414333D01*
X93107753Y-121536593D01*
X93203813Y-121680356D01*
X93269979Y-121840097D01*
X93303711Y-122009677D01*
X93303711Y-122182579D01*
X93269979Y-122352159D01*
X93203813Y-122511900D01*
X93107753Y-122655663D01*
X92985493Y-122777923D01*
X92841730Y-122873983D01*
X92681989Y-122940149D01*
X92512409Y-122973881D01*
X92339507Y-122973881D01*
X92169927Y-122940149D01*
X92010186Y-122873983D01*
X91866423Y-122777923D01*
X91744163Y-122655663D01*
X91648103Y-122511900D01*
X91581937Y-122352159D01*
X91548205Y-122182579D01*
X91548205Y-122009677D01*
X91581937Y-121840097D01*
X91648103Y-121680356D01*
X91744163Y-121536593D01*
X91866423Y-121414333D01*
X92010186Y-121318273D01*
X92169927Y-121252107D01*
X92339507Y-121218375D01*
X92512409Y-121218375D01*
X92681989Y-121252107D01*
G37*
G36*
X95221989Y-121252107D02*
G01*
X95381730Y-121318273D01*
X95525493Y-121414333D01*
X95647753Y-121536593D01*
X95743813Y-121680356D01*
X95809979Y-121840097D01*
X95843711Y-122009677D01*
X95843711Y-122182579D01*
X95809979Y-122352159D01*
X95743813Y-122511900D01*
X95647753Y-122655663D01*
X95525493Y-122777923D01*
X95381730Y-122873983D01*
X95221989Y-122940149D01*
X95052409Y-122973881D01*
X94879507Y-122973881D01*
X94709927Y-122940149D01*
X94550186Y-122873983D01*
X94406423Y-122777923D01*
X94284163Y-122655663D01*
X94188103Y-122511900D01*
X94121937Y-122352159D01*
X94088205Y-122182579D01*
X94088205Y-122009677D01*
X94121937Y-121840097D01*
X94188103Y-121680356D01*
X94284163Y-121536593D01*
X94406423Y-121414333D01*
X94550186Y-121318273D01*
X94709927Y-121252107D01*
X94879507Y-121218375D01*
X95052409Y-121218375D01*
X95221989Y-121252107D01*
G37*
G36*
X97761989Y-121252107D02*
G01*
X97921730Y-121318273D01*
X98065493Y-121414333D01*
X98187753Y-121536593D01*
X98283813Y-121680356D01*
X98349979Y-121840097D01*
X98383711Y-122009677D01*
X98383711Y-122182579D01*
X98349979Y-122352159D01*
X98283813Y-122511900D01*
X98187753Y-122655663D01*
X98065493Y-122777923D01*
X97921730Y-122873983D01*
X97761989Y-122940149D01*
X97592409Y-122973881D01*
X97419507Y-122973881D01*
X97249927Y-122940149D01*
X97090186Y-122873983D01*
X96946423Y-122777923D01*
X96824163Y-122655663D01*
X96728103Y-122511900D01*
X96661937Y-122352159D01*
X96628205Y-122182579D01*
X96628205Y-122009677D01*
X96661937Y-121840097D01*
X96728103Y-121680356D01*
X96824163Y-121536593D01*
X96946423Y-121414333D01*
X97090186Y-121318273D01*
X97249927Y-121252107D01*
X97419507Y-121218375D01*
X97592409Y-121218375D01*
X97761989Y-121252107D01*
G37*
G36*
X100301989Y-121252107D02*
G01*
X100461730Y-121318273D01*
X100605493Y-121414333D01*
X100727753Y-121536593D01*
X100823813Y-121680356D01*
X100889979Y-121840097D01*
X100923711Y-122009677D01*
X100923711Y-122182579D01*
X100889979Y-122352159D01*
X100823813Y-122511900D01*
X100727753Y-122655663D01*
X100605493Y-122777923D01*
X100461730Y-122873983D01*
X100301989Y-122940149D01*
X100132409Y-122973881D01*
X99959507Y-122973881D01*
X99789927Y-122940149D01*
X99630186Y-122873983D01*
X99486423Y-122777923D01*
X99364163Y-122655663D01*
X99268103Y-122511900D01*
X99201937Y-122352159D01*
X99168205Y-122182579D01*
X99168205Y-122009677D01*
X99201937Y-121840097D01*
X99268103Y-121680356D01*
X99364163Y-121536593D01*
X99486423Y-121414333D01*
X99630186Y-121318273D01*
X99789927Y-121252107D01*
X99959507Y-121218375D01*
X100132409Y-121218375D01*
X100301989Y-121252107D01*
G37*
G36*
X102841989Y-121252107D02*
G01*
X103001730Y-121318273D01*
X103145493Y-121414333D01*
X103267753Y-121536593D01*
X103363813Y-121680356D01*
X103429979Y-121840097D01*
X103463711Y-122009677D01*
X103463711Y-122182579D01*
X103429979Y-122352159D01*
X103363813Y-122511900D01*
X103267753Y-122655663D01*
X103145493Y-122777923D01*
X103001730Y-122873983D01*
X102841989Y-122940149D01*
X102672409Y-122973881D01*
X102499507Y-122973881D01*
X102329927Y-122940149D01*
X102170186Y-122873983D01*
X102026423Y-122777923D01*
X101904163Y-122655663D01*
X101808103Y-122511900D01*
X101741937Y-122352159D01*
X101708205Y-122182579D01*
X101708205Y-122009677D01*
X101741937Y-121840097D01*
X101808103Y-121680356D01*
X101904163Y-121536593D01*
X102026423Y-121414333D01*
X102170186Y-121318273D01*
X102329927Y-121252107D01*
X102499507Y-121218375D01*
X102672409Y-121218375D01*
X102841989Y-121252107D01*
G37*
G36*
X105381989Y-121252107D02*
G01*
X105541730Y-121318273D01*
X105685493Y-121414333D01*
X105807753Y-121536593D01*
X105903813Y-121680356D01*
X105969979Y-121840097D01*
X106003711Y-122009677D01*
X106003711Y-122182579D01*
X105969979Y-122352159D01*
X105903813Y-122511900D01*
X105807753Y-122655663D01*
X105685493Y-122777923D01*
X105541730Y-122873983D01*
X105381989Y-122940149D01*
X105212409Y-122973881D01*
X105039507Y-122973881D01*
X104869927Y-122940149D01*
X104710186Y-122873983D01*
X104566423Y-122777923D01*
X104444163Y-122655663D01*
X104348103Y-122511900D01*
X104281937Y-122352159D01*
X104248205Y-122182579D01*
X104248205Y-122009677D01*
X104281937Y-121840097D01*
X104348103Y-121680356D01*
X104444163Y-121536593D01*
X104566423Y-121414333D01*
X104710186Y-121318273D01*
X104869927Y-121252107D01*
X105039507Y-121218375D01*
X105212409Y-121218375D01*
X105381989Y-121252107D01*
G37*
G36*
X107921989Y-121252107D02*
G01*
X108081730Y-121318273D01*
X108225493Y-121414333D01*
X108347753Y-121536593D01*
X108443813Y-121680356D01*
X108509979Y-121840097D01*
X108543711Y-122009677D01*
X108543711Y-122182579D01*
X108509979Y-122352159D01*
X108443813Y-122511900D01*
X108347753Y-122655663D01*
X108225493Y-122777923D01*
X108081730Y-122873983D01*
X107921989Y-122940149D01*
X107752409Y-122973881D01*
X107579507Y-122973881D01*
X107409927Y-122940149D01*
X107250186Y-122873983D01*
X107106423Y-122777923D01*
X106984163Y-122655663D01*
X106888103Y-122511900D01*
X106821937Y-122352159D01*
X106788205Y-122182579D01*
X106788205Y-122009677D01*
X106821937Y-121840097D01*
X106888103Y-121680356D01*
X106984163Y-121536593D01*
X107106423Y-121414333D01*
X107250186Y-121318273D01*
X107409927Y-121252107D01*
X107579507Y-121218375D01*
X107752409Y-121218375D01*
X107921989Y-121252107D01*
G37*
G36*
X110461989Y-121252107D02*
G01*
X110621730Y-121318273D01*
X110765493Y-121414333D01*
X110887753Y-121536593D01*
X110983813Y-121680356D01*
X111049979Y-121840097D01*
X111083711Y-122009677D01*
X111083711Y-122182579D01*
X111049979Y-122352159D01*
X110983813Y-122511900D01*
X110887753Y-122655663D01*
X110765493Y-122777923D01*
X110621730Y-122873983D01*
X110461989Y-122940149D01*
X110292409Y-122973881D01*
X110119507Y-122973881D01*
X109949927Y-122940149D01*
X109790186Y-122873983D01*
X109646423Y-122777923D01*
X109524163Y-122655663D01*
X109428103Y-122511900D01*
X109361937Y-122352159D01*
X109328205Y-122182579D01*
X109328205Y-122009677D01*
X109361937Y-121840097D01*
X109428103Y-121680356D01*
X109524163Y-121536593D01*
X109646423Y-121414333D01*
X109790186Y-121318273D01*
X109949927Y-121252107D01*
X110119507Y-121218375D01*
X110292409Y-121218375D01*
X110461989Y-121252107D01*
G37*
G36*
X113001989Y-121252107D02*
G01*
X113161730Y-121318273D01*
X113305493Y-121414333D01*
X113427753Y-121536593D01*
X113523813Y-121680356D01*
X113589979Y-121840097D01*
X113623711Y-122009677D01*
X113623711Y-122182579D01*
X113589979Y-122352159D01*
X113523813Y-122511900D01*
X113427753Y-122655663D01*
X113305493Y-122777923D01*
X113161730Y-122873983D01*
X113001989Y-122940149D01*
X112832409Y-122973881D01*
X112659507Y-122973881D01*
X112489927Y-122940149D01*
X112330186Y-122873983D01*
X112186423Y-122777923D01*
X112064163Y-122655663D01*
X111968103Y-122511900D01*
X111901937Y-122352159D01*
X111868205Y-122182579D01*
X111868205Y-122009677D01*
X111901937Y-121840097D01*
X111968103Y-121680356D01*
X112064163Y-121536593D01*
X112186423Y-121414333D01*
X112330186Y-121318273D01*
X112489927Y-121252107D01*
X112659507Y-121218375D01*
X112832409Y-121218375D01*
X113001989Y-121252107D01*
G37*
G36*
X115541989Y-121252107D02*
G01*
X115701730Y-121318273D01*
X115845493Y-121414333D01*
X115967753Y-121536593D01*
X116063813Y-121680356D01*
X116129979Y-121840097D01*
X116163711Y-122009677D01*
X116163711Y-122182579D01*
X116129979Y-122352159D01*
X116063813Y-122511900D01*
X115967753Y-122655663D01*
X115845493Y-122777923D01*
X115701730Y-122873983D01*
X115541989Y-122940149D01*
X115372409Y-122973881D01*
X115199507Y-122973881D01*
X115029927Y-122940149D01*
X114870186Y-122873983D01*
X114726423Y-122777923D01*
X114604163Y-122655663D01*
X114508103Y-122511900D01*
X114441937Y-122352159D01*
X114408205Y-122182579D01*
X114408205Y-122009677D01*
X114441937Y-121840097D01*
X114508103Y-121680356D01*
X114604163Y-121536593D01*
X114726423Y-121414333D01*
X114870186Y-121318273D01*
X115029927Y-121252107D01*
X115199507Y-121218375D01*
X115372409Y-121218375D01*
X115541989Y-121252107D01*
G37*
G36*
X118081989Y-121252107D02*
G01*
X118241730Y-121318273D01*
X118385493Y-121414333D01*
X118507753Y-121536593D01*
X118603813Y-121680356D01*
X118669979Y-121840097D01*
X118703711Y-122009677D01*
X118703711Y-122182579D01*
X118669979Y-122352159D01*
X118603813Y-122511900D01*
X118507753Y-122655663D01*
X118385493Y-122777923D01*
X118241730Y-122873983D01*
X118081989Y-122940149D01*
X117912409Y-122973881D01*
X117739507Y-122973881D01*
X117569927Y-122940149D01*
X117410186Y-122873983D01*
X117266423Y-122777923D01*
X117144163Y-122655663D01*
X117048103Y-122511900D01*
X116981937Y-122352159D01*
X116948205Y-122182579D01*
X116948205Y-122009677D01*
X116981937Y-121840097D01*
X117048103Y-121680356D01*
X117144163Y-121536593D01*
X117266423Y-121414333D01*
X117410186Y-121318273D01*
X117569927Y-121252107D01*
X117739507Y-121218375D01*
X117912409Y-121218375D01*
X118081989Y-121252107D01*
G37*
G36*
X151326824Y-117638682D02*
G01*
X151535757Y-117706569D01*
X151731498Y-117806304D01*
X151909227Y-117935432D01*
X152064568Y-118090773D01*
X152193696Y-118268502D01*
X152293431Y-118464243D01*
X152361318Y-118673176D01*
X152395684Y-118890157D01*
X152395684Y-119109843D01*
X152361318Y-119326824D01*
X152293431Y-119535757D01*
X152193696Y-119731498D01*
X152064568Y-119909227D01*
X151909227Y-120064568D01*
X151731498Y-120193696D01*
X151535757Y-120293431D01*
X151326824Y-120361318D01*
X151109843Y-120395684D01*
X150890157Y-120395684D01*
X150673176Y-120361318D01*
X150464243Y-120293431D01*
X150268502Y-120193696D01*
X150090773Y-120064568D01*
X149935432Y-119909227D01*
X149806304Y-119731498D01*
X149706569Y-119535757D01*
X149638682Y-119326824D01*
X149604316Y-119109843D01*
X149604316Y-118890157D01*
X149638682Y-118673176D01*
X149706569Y-118464243D01*
X149806304Y-118268502D01*
X149935432Y-118090773D01*
X150090773Y-117935432D01*
X150268502Y-117806304D01*
X150464243Y-117706569D01*
X150673176Y-117638682D01*
X150890157Y-117604316D01*
X151109843Y-117604316D01*
X151326824Y-117638682D01*
G37*
G36*
X139997551Y-115269047D02*
G01*
X140720799Y-116301951D01*
X140720800Y-116301954D01*
X140724190Y-116306795D01*
X138676309Y-117740736D01*
X138117512Y-116942691D01*
X137245758Y-115697698D01*
X137245756Y-115697693D01*
X137242368Y-115692855D01*
X137456209Y-115543122D01*
X139285405Y-114262304D01*
X139285411Y-114262300D01*
X139290249Y-114258914D01*
X139997551Y-115269047D01*
G37*
G36*
X71161122Y-116311122D02*
G01*
X69688878Y-117161122D01*
X68838878Y-115688878D01*
X70311122Y-114838878D01*
X71161122Y-116311122D01*
G37*
G36*
X131161122Y-115688878D02*
G01*
X130311122Y-117161122D01*
X128838878Y-116311122D01*
X129688878Y-114838878D01*
X131161122Y-115688878D01*
G37*
G36*
X72446447Y-113916601D02*
G01*
X72600392Y-113980367D01*
X72738939Y-114072941D01*
X72856764Y-114190766D01*
X72949338Y-114329313D01*
X73013104Y-114483258D01*
X73045612Y-114646685D01*
X73045612Y-114813315D01*
X73013104Y-114976742D01*
X72949338Y-115130687D01*
X72856764Y-115269234D01*
X72738939Y-115387059D01*
X72600392Y-115479633D01*
X72446447Y-115543399D01*
X72283020Y-115575907D01*
X72116390Y-115575907D01*
X71952963Y-115543399D01*
X71799018Y-115479633D01*
X71660471Y-115387059D01*
X71542646Y-115269234D01*
X71450072Y-115130687D01*
X71386306Y-114976742D01*
X71353798Y-114813315D01*
X71353798Y-114646685D01*
X71386306Y-114483258D01*
X71450072Y-114329313D01*
X71542646Y-114190766D01*
X71660471Y-114072941D01*
X71799018Y-113980367D01*
X71952963Y-113916601D01*
X72116390Y-113884093D01*
X72283020Y-113884093D01*
X72446447Y-113916601D01*
G37*
G36*
X128047037Y-113916601D02*
G01*
X128200982Y-113980367D01*
X128339529Y-114072941D01*
X128457354Y-114190766D01*
X128549928Y-114329313D01*
X128613694Y-114483258D01*
X128646202Y-114646685D01*
X128646202Y-114813315D01*
X128613694Y-114976742D01*
X128549928Y-115130687D01*
X128457354Y-115269234D01*
X128339529Y-115387059D01*
X128200982Y-115479633D01*
X128047037Y-115543399D01*
X127883610Y-115575907D01*
X127716980Y-115575907D01*
X127553553Y-115543399D01*
X127399608Y-115479633D01*
X127261061Y-115387059D01*
X127143236Y-115269234D01*
X127050662Y-115130687D01*
X126986896Y-114976742D01*
X126954388Y-114813315D01*
X126954388Y-114646685D01*
X126986896Y-114483258D01*
X127050662Y-114329313D01*
X127143236Y-114190766D01*
X127261061Y-114072941D01*
X127399608Y-113980367D01*
X127553553Y-113916601D01*
X127716980Y-113884093D01*
X127883610Y-113884093D01*
X128047037Y-113916601D01*
G37*
G36*
X74646151Y-112646601D02*
G01*
X74800096Y-112710367D01*
X74938643Y-112802941D01*
X75056468Y-112920766D01*
X75149042Y-113059313D01*
X75212808Y-113213258D01*
X75245316Y-113376685D01*
X75245316Y-113543315D01*
X75212808Y-113706742D01*
X75149042Y-113860687D01*
X75056468Y-113999234D01*
X74938643Y-114117059D01*
X74800096Y-114209633D01*
X74646151Y-114273399D01*
X74482724Y-114305907D01*
X74316094Y-114305907D01*
X74152667Y-114273399D01*
X73998722Y-114209633D01*
X73860175Y-114117059D01*
X73742350Y-113999234D01*
X73649776Y-113860687D01*
X73586010Y-113706742D01*
X73553502Y-113543315D01*
X73553502Y-113376685D01*
X73586010Y-113213258D01*
X73649776Y-113059313D01*
X73742350Y-112920766D01*
X73860175Y-112802941D01*
X73998722Y-112710367D01*
X74152667Y-112646601D01*
X74316094Y-112614093D01*
X74482724Y-112614093D01*
X74646151Y-112646601D01*
G37*
G36*
X125847333Y-112646601D02*
G01*
X126001278Y-112710367D01*
X126139825Y-112802941D01*
X126257650Y-112920766D01*
X126350224Y-113059313D01*
X126413990Y-113213258D01*
X126446498Y-113376685D01*
X126446498Y-113543315D01*
X126413990Y-113706742D01*
X126350224Y-113860687D01*
X126257650Y-113999234D01*
X126139825Y-114117059D01*
X126001278Y-114209633D01*
X125847333Y-114273399D01*
X125683906Y-114305907D01*
X125517276Y-114305907D01*
X125353849Y-114273399D01*
X125199904Y-114209633D01*
X125061357Y-114117059D01*
X124943532Y-113999234D01*
X124850958Y-113860687D01*
X124787192Y-113706742D01*
X124754684Y-113543315D01*
X124754684Y-113376685D01*
X124787192Y-113213258D01*
X124850958Y-113059313D01*
X124943532Y-112920766D01*
X125061357Y-112802941D01*
X125199904Y-112710367D01*
X125353849Y-112646601D01*
X125517276Y-112614093D01*
X125683906Y-112614093D01*
X125847333Y-112646601D01*
G37*
G36*
X153827531Y-111139389D02*
G01*
X154036464Y-111207276D01*
X154232205Y-111307011D01*
X154409934Y-111436139D01*
X154565275Y-111591480D01*
X154694403Y-111769209D01*
X154794138Y-111964950D01*
X154862025Y-112173883D01*
X154896391Y-112390864D01*
X154896391Y-112610550D01*
X154862025Y-112827531D01*
X154794138Y-113036464D01*
X154694403Y-113232205D01*
X154565275Y-113409934D01*
X154409934Y-113565275D01*
X154232205Y-113694403D01*
X154036464Y-113794138D01*
X153827531Y-113862025D01*
X153610550Y-113896391D01*
X153390864Y-113896391D01*
X153173883Y-113862025D01*
X152964950Y-113794138D01*
X152769209Y-113694403D01*
X152591480Y-113565275D01*
X152436139Y-113409934D01*
X152307011Y-113232205D01*
X152207276Y-113036464D01*
X152139389Y-112827531D01*
X152105023Y-112610550D01*
X152105023Y-112390864D01*
X152139389Y-112173883D01*
X152207276Y-111964950D01*
X152307011Y-111769209D01*
X152436139Y-111591480D01*
X152591480Y-111436139D01*
X152769209Y-111307011D01*
X152964950Y-111207276D01*
X153173883Y-111139389D01*
X153390864Y-111105023D01*
X153610550Y-111105023D01*
X153827531Y-111139389D01*
G37*
G36*
X76845856Y-111376601D02*
G01*
X76999801Y-111440367D01*
X77138348Y-111532941D01*
X77256173Y-111650766D01*
X77348747Y-111789313D01*
X77412513Y-111943258D01*
X77445021Y-112106685D01*
X77445021Y-112273315D01*
X77412513Y-112436742D01*
X77348747Y-112590687D01*
X77256173Y-112729234D01*
X77138348Y-112847059D01*
X76999801Y-112939633D01*
X76845856Y-113003399D01*
X76682429Y-113035907D01*
X76515799Y-113035907D01*
X76352372Y-113003399D01*
X76198427Y-112939633D01*
X76059880Y-112847059D01*
X75942055Y-112729234D01*
X75849481Y-112590687D01*
X75785715Y-112436742D01*
X75753207Y-112273315D01*
X75753207Y-112106685D01*
X75785715Y-111943258D01*
X75849481Y-111789313D01*
X75942055Y-111650766D01*
X76059880Y-111532941D01*
X76198427Y-111440367D01*
X76352372Y-111376601D01*
X76515799Y-111344093D01*
X76682429Y-111344093D01*
X76845856Y-111376601D01*
G37*
G36*
X123647628Y-111376601D02*
G01*
X123801573Y-111440367D01*
X123940120Y-111532941D01*
X124057945Y-111650766D01*
X124150519Y-111789313D01*
X124214285Y-111943258D01*
X124246793Y-112106685D01*
X124246793Y-112273315D01*
X124214285Y-112436742D01*
X124150519Y-112590687D01*
X124057945Y-112729234D01*
X123940120Y-112847059D01*
X123801573Y-112939633D01*
X123647628Y-113003399D01*
X123484201Y-113035907D01*
X123317571Y-113035907D01*
X123154144Y-113003399D01*
X123000199Y-112939633D01*
X122861652Y-112847059D01*
X122743827Y-112729234D01*
X122651253Y-112590687D01*
X122587487Y-112436742D01*
X122554979Y-112273315D01*
X122554979Y-112106685D01*
X122587487Y-111943258D01*
X122651253Y-111789313D01*
X122743827Y-111650766D01*
X122861652Y-111532941D01*
X123000199Y-111440367D01*
X123154144Y-111376601D01*
X123317571Y-111344093D01*
X123484201Y-111344093D01*
X123647628Y-111376601D01*
G37*
G36*
X45381035Y-108175165D02*
G01*
X45604892Y-108247901D01*
X45814615Y-108354760D01*
X46005039Y-108493111D01*
X46171476Y-108659548D01*
X46309827Y-108849972D01*
X46416686Y-109059695D01*
X46489422Y-109283552D01*
X46526243Y-109516031D01*
X46526243Y-109751409D01*
X46489422Y-109983888D01*
X46416686Y-110207745D01*
X46309827Y-110417468D01*
X46171476Y-110607892D01*
X46005039Y-110774329D01*
X45814615Y-110912680D01*
X45604892Y-111019539D01*
X45381035Y-111092275D01*
X45148556Y-111129096D01*
X44913178Y-111129096D01*
X44680699Y-111092275D01*
X44456842Y-111019539D01*
X44247119Y-110912680D01*
X44056695Y-110774329D01*
X43890258Y-110607892D01*
X43751907Y-110417468D01*
X43645048Y-110207745D01*
X43572312Y-109983888D01*
X43535491Y-109751409D01*
X43535491Y-109516031D01*
X43572312Y-109283552D01*
X43645048Y-109059695D01*
X43751907Y-108849972D01*
X43890258Y-108659548D01*
X44056695Y-108493111D01*
X44247119Y-108354760D01*
X44456842Y-108247901D01*
X44680699Y-108175165D01*
X44913178Y-108138344D01*
X45148556Y-108138344D01*
X45381035Y-108175165D01*
G37*
G36*
X84322350Y-109415964D02*
G01*
X84369679Y-109421455D01*
X84385853Y-109428596D01*
X84408387Y-109433079D01*
X84432511Y-109449198D01*
X84451132Y-109457420D01*
X84463848Y-109470136D01*
X84485438Y-109484562D01*
X84499863Y-109506151D01*
X84512579Y-109518867D01*
X84520800Y-109537486D01*
X84536921Y-109561613D01*
X84541403Y-109584147D01*
X84548544Y-109600319D01*
X84554033Y-109647640D01*
X84555000Y-109652500D01*
X84555000Y-110152500D01*
X84554032Y-110157362D01*
X84548544Y-110204679D01*
X84541404Y-110220849D01*
X84536921Y-110243387D01*
X84520798Y-110267516D01*
X84512579Y-110286132D01*
X84499865Y-110298845D01*
X84485438Y-110320438D01*
X84463845Y-110334865D01*
X84451132Y-110347579D01*
X84432515Y-110355799D01*
X84408387Y-110371921D01*
X84385850Y-110376403D01*
X84369680Y-110383544D01*
X84322361Y-110389033D01*
X84317500Y-110390000D01*
X83842500Y-110390000D01*
X83837638Y-110389033D01*
X83790320Y-110383544D01*
X83774148Y-110376403D01*
X83751613Y-110371921D01*
X83727485Y-110355800D01*
X83708867Y-110347579D01*
X83696151Y-110334863D01*
X83674562Y-110320438D01*
X83660136Y-110298848D01*
X83647420Y-110286132D01*
X83639198Y-110267511D01*
X83623079Y-110243387D01*
X83618596Y-110220854D01*
X83611455Y-110204680D01*
X83605964Y-110157348D01*
X83605000Y-110152500D01*
X83605000Y-109652500D01*
X83605964Y-109647651D01*
X83611455Y-109600320D01*
X83618597Y-109584144D01*
X83623079Y-109561613D01*
X83639197Y-109537490D01*
X83647420Y-109518867D01*
X83660138Y-109506148D01*
X83674562Y-109484562D01*
X83696148Y-109470138D01*
X83708867Y-109457420D01*
X83727490Y-109449196D01*
X83751613Y-109433079D01*
X83774143Y-109428597D01*
X83790319Y-109421455D01*
X83837652Y-109415964D01*
X83842500Y-109415000D01*
X84317500Y-109415000D01*
X84322350Y-109415964D01*
G37*
G36*
X81182350Y-109375964D02*
G01*
X81229679Y-109381455D01*
X81245853Y-109388596D01*
X81268387Y-109393079D01*
X81292511Y-109409198D01*
X81311132Y-109417420D01*
X81323848Y-109430136D01*
X81345438Y-109444562D01*
X81359863Y-109466151D01*
X81372579Y-109478867D01*
X81380800Y-109497486D01*
X81396921Y-109521613D01*
X81401403Y-109544147D01*
X81408544Y-109560319D01*
X81414033Y-109607640D01*
X81415000Y-109612500D01*
X81415000Y-110112500D01*
X81414032Y-110117362D01*
X81408544Y-110164679D01*
X81401404Y-110180849D01*
X81396921Y-110203387D01*
X81380798Y-110227516D01*
X81372579Y-110246132D01*
X81359865Y-110258845D01*
X81345438Y-110280438D01*
X81323845Y-110294865D01*
X81311132Y-110307579D01*
X81292515Y-110315799D01*
X81268387Y-110331921D01*
X81245850Y-110336403D01*
X81229680Y-110343544D01*
X81182361Y-110349033D01*
X81177500Y-110350000D01*
X80702500Y-110350000D01*
X80697638Y-110349033D01*
X80650320Y-110343544D01*
X80634148Y-110336403D01*
X80611613Y-110331921D01*
X80587485Y-110315800D01*
X80568867Y-110307579D01*
X80556151Y-110294863D01*
X80534562Y-110280438D01*
X80520136Y-110258848D01*
X80507420Y-110246132D01*
X80499198Y-110227511D01*
X80483079Y-110203387D01*
X80478596Y-110180854D01*
X80471455Y-110164680D01*
X80465964Y-110117348D01*
X80465000Y-110112500D01*
X80465000Y-109612500D01*
X80465964Y-109607651D01*
X80471455Y-109560320D01*
X80478597Y-109544144D01*
X80483079Y-109521613D01*
X80499197Y-109497490D01*
X80507420Y-109478867D01*
X80520138Y-109466148D01*
X80534562Y-109444562D01*
X80556148Y-109430138D01*
X80568867Y-109417420D01*
X80587490Y-109409196D01*
X80611613Y-109393079D01*
X80634143Y-109388597D01*
X80650319Y-109381455D01*
X80697652Y-109375964D01*
X80702500Y-109375000D01*
X81177500Y-109375000D01*
X81182350Y-109375964D01*
G37*
G36*
X84322350Y-107590964D02*
G01*
X84369679Y-107596455D01*
X84385853Y-107603596D01*
X84408387Y-107608079D01*
X84432511Y-107624198D01*
X84451132Y-107632420D01*
X84463848Y-107645136D01*
X84485438Y-107659562D01*
X84499863Y-107681151D01*
X84512579Y-107693867D01*
X84520800Y-107712486D01*
X84536921Y-107736613D01*
X84541403Y-107759147D01*
X84548544Y-107775319D01*
X84554033Y-107822640D01*
X84555000Y-107827500D01*
X84555000Y-108327500D01*
X84554032Y-108332362D01*
X84548544Y-108379679D01*
X84541404Y-108395849D01*
X84536921Y-108418387D01*
X84520798Y-108442516D01*
X84512579Y-108461132D01*
X84499865Y-108473845D01*
X84485438Y-108495438D01*
X84463845Y-108509865D01*
X84451132Y-108522579D01*
X84432515Y-108530799D01*
X84408387Y-108546921D01*
X84385850Y-108551403D01*
X84369680Y-108558544D01*
X84322361Y-108564033D01*
X84317500Y-108565000D01*
X83842500Y-108565000D01*
X83837638Y-108564033D01*
X83790320Y-108558544D01*
X83774148Y-108551403D01*
X83751613Y-108546921D01*
X83727485Y-108530800D01*
X83708867Y-108522579D01*
X83696151Y-108509863D01*
X83674562Y-108495438D01*
X83660136Y-108473848D01*
X83647420Y-108461132D01*
X83639198Y-108442511D01*
X83623079Y-108418387D01*
X83618596Y-108395854D01*
X83611455Y-108379680D01*
X83605964Y-108332348D01*
X83605000Y-108327500D01*
X83605000Y-107827500D01*
X83605964Y-107822651D01*
X83611455Y-107775320D01*
X83618597Y-107759144D01*
X83623079Y-107736613D01*
X83639197Y-107712490D01*
X83647420Y-107693867D01*
X83660138Y-107681148D01*
X83674562Y-107659562D01*
X83696148Y-107645138D01*
X83708867Y-107632420D01*
X83727490Y-107624196D01*
X83751613Y-107608079D01*
X83774143Y-107603597D01*
X83790319Y-107596455D01*
X83837652Y-107590964D01*
X83842500Y-107590000D01*
X84317500Y-107590000D01*
X84322350Y-107590964D01*
G37*
G36*
X81182350Y-107550964D02*
G01*
X81229679Y-107556455D01*
X81245853Y-107563596D01*
X81268387Y-107568079D01*
X81292511Y-107584198D01*
X81311132Y-107592420D01*
X81323848Y-107605136D01*
X81345438Y-107619562D01*
X81359863Y-107641151D01*
X81372579Y-107653867D01*
X81380800Y-107672486D01*
X81396921Y-107696613D01*
X81401403Y-107719147D01*
X81408544Y-107735319D01*
X81414033Y-107782640D01*
X81415000Y-107787500D01*
X81415000Y-108287500D01*
X81414032Y-108292362D01*
X81408544Y-108339679D01*
X81401404Y-108355849D01*
X81396921Y-108378387D01*
X81380798Y-108402516D01*
X81372579Y-108421132D01*
X81359865Y-108433845D01*
X81345438Y-108455438D01*
X81323845Y-108469865D01*
X81311132Y-108482579D01*
X81292515Y-108490799D01*
X81268387Y-108506921D01*
X81245850Y-108511403D01*
X81229680Y-108518544D01*
X81182361Y-108524033D01*
X81177500Y-108525000D01*
X80702500Y-108525000D01*
X80697638Y-108524033D01*
X80650320Y-108518544D01*
X80634148Y-108511403D01*
X80611613Y-108506921D01*
X80587485Y-108490800D01*
X80568867Y-108482579D01*
X80556151Y-108469863D01*
X80534562Y-108455438D01*
X80520136Y-108433848D01*
X80507420Y-108421132D01*
X80499198Y-108402511D01*
X80483079Y-108378387D01*
X80478596Y-108355854D01*
X80471455Y-108339680D01*
X80465964Y-108292348D01*
X80465000Y-108287500D01*
X80465000Y-107787500D01*
X80465964Y-107782651D01*
X80471455Y-107735320D01*
X80478597Y-107719144D01*
X80483079Y-107696613D01*
X80499197Y-107672490D01*
X80507420Y-107653867D01*
X80520138Y-107641148D01*
X80534562Y-107619562D01*
X80556148Y-107605138D01*
X80568867Y-107592420D01*
X80587490Y-107584196D01*
X80611613Y-107568079D01*
X80634143Y-107563597D01*
X80650319Y-107556455D01*
X80697652Y-107550964D01*
X80702500Y-107550000D01*
X81177500Y-107550000D01*
X81182350Y-107550964D01*
G37*
G36*
X61629724Y-105153582D02*
G01*
X61838657Y-105221469D01*
X62034398Y-105321204D01*
X62212127Y-105450332D01*
X62367468Y-105605673D01*
X62496596Y-105783402D01*
X62596331Y-105979143D01*
X62664218Y-106188076D01*
X62698584Y-106405057D01*
X62698584Y-106624743D01*
X62664218Y-106841724D01*
X62596331Y-107050657D01*
X62496596Y-107246398D01*
X62367468Y-107424127D01*
X62212127Y-107579468D01*
X62034398Y-107708596D01*
X61838657Y-107808331D01*
X61629724Y-107876218D01*
X61412743Y-107910584D01*
X61193057Y-107910584D01*
X60976076Y-107876218D01*
X60767143Y-107808331D01*
X60571402Y-107708596D01*
X60393673Y-107579468D01*
X60238332Y-107424127D01*
X60109204Y-107246398D01*
X60009469Y-107050657D01*
X59941582Y-106841724D01*
X59907216Y-106624743D01*
X59907216Y-106405057D01*
X59941582Y-106188076D01*
X60009469Y-105979143D01*
X60109204Y-105783402D01*
X60238332Y-105605673D01*
X60393673Y-105450332D01*
X60571402Y-105321204D01*
X60767143Y-105221469D01*
X60976076Y-105153582D01*
X61193057Y-105119216D01*
X61412743Y-105119216D01*
X61629724Y-105153582D01*
G37*
G36*
X155224730Y-104064568D02*
G01*
X156202773Y-105461357D01*
X156202774Y-105461360D01*
X156206164Y-105466201D01*
X154158283Y-106900142D01*
X153376398Y-105783494D01*
X152727732Y-104857104D01*
X152727730Y-104857099D01*
X152724342Y-104852261D01*
X152732339Y-104846661D01*
X154767379Y-103421710D01*
X154767385Y-103421706D01*
X154772223Y-103418320D01*
X155224730Y-104064568D01*
G37*
G36*
X68326824Y-101638682D02*
G01*
X68535757Y-101706569D01*
X68731498Y-101806304D01*
X68909227Y-101935432D01*
X69064568Y-102090773D01*
X69193696Y-102268502D01*
X69293431Y-102464243D01*
X69361318Y-102673176D01*
X69395684Y-102890157D01*
X69395684Y-103109843D01*
X69361318Y-103326824D01*
X69293431Y-103535757D01*
X69193696Y-103731498D01*
X69064568Y-103909227D01*
X68909227Y-104064568D01*
X68731498Y-104193696D01*
X68535757Y-104293431D01*
X68326824Y-104361318D01*
X68109843Y-104395684D01*
X67890157Y-104395684D01*
X67673176Y-104361318D01*
X67464243Y-104293431D01*
X67268502Y-104193696D01*
X67090773Y-104064568D01*
X66935432Y-103909227D01*
X66806304Y-103731498D01*
X66706569Y-103535757D01*
X66638682Y-103326824D01*
X66604316Y-103109843D01*
X66604316Y-102890157D01*
X66638682Y-102673176D01*
X66706569Y-102464243D01*
X66806304Y-102268502D01*
X66935432Y-102090773D01*
X67090773Y-101935432D01*
X67268502Y-101806304D01*
X67464243Y-101706569D01*
X67673176Y-101638682D01*
X67890157Y-101604316D01*
X68109843Y-101604316D01*
X68326824Y-101638682D01*
G37*
G36*
X78121963Y-100336899D02*
G01*
X79327035Y-100463557D01*
X79859666Y-100519539D01*
X79859667Y-100519539D01*
X79862376Y-100519824D01*
X79958808Y-100537697D01*
X79965741Y-100540526D01*
X79972380Y-100541840D01*
X80033733Y-100568273D01*
X80103860Y-100596891D01*
X80108975Y-100600690D01*
X80111503Y-100601779D01*
X80163667Y-100641307D01*
X80229636Y-100690300D01*
X80328229Y-100812053D01*
X80362441Y-100886779D01*
X80390254Y-100946009D01*
X80390793Y-100948706D01*
X80393446Y-100954500D01*
X80406857Y-101029036D01*
X80419958Y-101094550D01*
X80419862Y-101101317D01*
X80421189Y-101108690D01*
X80418622Y-101206731D01*
X80287962Y-102449883D01*
X80270089Y-102546315D01*
X80267256Y-102553255D01*
X80265944Y-102559890D01*
X80239515Y-102621231D01*
X80210894Y-102691367D01*
X80207095Y-102696481D01*
X80206008Y-102699006D01*
X80166539Y-102751091D01*
X80117486Y-102817142D01*
X79995733Y-102915736D01*
X79920991Y-102949954D01*
X79861776Y-102977761D01*
X79859079Y-102978300D01*
X79853285Y-102980953D01*
X79778716Y-102994370D01*
X79713235Y-103007464D01*
X79706473Y-103007368D01*
X79699096Y-103008696D01*
X79601055Y-103006129D01*
X77860642Y-102823204D01*
X77764210Y-102805331D01*
X77757272Y-102802499D01*
X77750637Y-102801187D01*
X77689309Y-102774765D01*
X77619158Y-102746137D01*
X77614040Y-102742336D01*
X77611514Y-102741248D01*
X77559366Y-102701732D01*
X77493382Y-102652728D01*
X77394789Y-102530975D01*
X77360597Y-102456293D01*
X77332763Y-102397018D01*
X77332223Y-102394318D01*
X77329572Y-102388528D01*
X77316167Y-102314031D01*
X77303059Y-102248477D01*
X77303154Y-102241705D01*
X77301829Y-102234338D01*
X77304396Y-102136297D01*
X77412401Y-101108690D01*
X77434771Y-100895855D01*
X77434771Y-100895853D01*
X77435056Y-100893145D01*
X77452929Y-100796713D01*
X77455758Y-100789778D01*
X77457073Y-100783137D01*
X77483527Y-100721733D01*
X77512124Y-100651661D01*
X77515918Y-100646551D01*
X77517009Y-100644021D01*
X77556565Y-100591820D01*
X77605532Y-100525886D01*
X77727285Y-100427292D01*
X77801901Y-100393130D01*
X77861241Y-100365266D01*
X77863943Y-100364725D01*
X77869733Y-100362075D01*
X77944242Y-100348668D01*
X78009782Y-100335563D01*
X78016549Y-100335658D01*
X78023922Y-100334332D01*
X78121963Y-100336899D01*
G37*
G36*
X81794062Y-99566517D02*
G01*
X83532122Y-99749194D01*
X83532127Y-99749195D01*
X83538000Y-99749813D01*
X83593895Y-99767168D01*
X83638892Y-99804593D01*
X83666143Y-99856388D01*
X83671499Y-99914670D01*
X83640140Y-100213027D01*
X83622784Y-100268922D01*
X83585360Y-100313919D01*
X83533565Y-100341171D01*
X83475283Y-100346526D01*
X81731345Y-100163230D01*
X81293211Y-100117181D01*
X81293209Y-100117180D01*
X81287334Y-100116563D01*
X81231439Y-100099208D01*
X81186442Y-100061783D01*
X81159191Y-100009988D01*
X81153835Y-99951706D01*
X81169297Y-99804593D01*
X81184576Y-99659226D01*
X81184576Y-99659224D01*
X81185194Y-99653349D01*
X81202550Y-99597454D01*
X81239974Y-99552457D01*
X81291769Y-99525205D01*
X81350051Y-99519850D01*
X81794062Y-99566517D01*
G37*
G36*
X81924722Y-98323365D02*
G01*
X83662782Y-98506042D01*
X83662787Y-98506043D01*
X83668660Y-98506661D01*
X83724555Y-98524016D01*
X83769552Y-98561441D01*
X83796803Y-98613236D01*
X83802159Y-98671518D01*
X83770800Y-98969875D01*
X83753444Y-99025770D01*
X83716020Y-99070767D01*
X83664225Y-99098019D01*
X83605943Y-99103374D01*
X81862005Y-98920078D01*
X81423871Y-98874029D01*
X81423869Y-98874028D01*
X81417994Y-98873411D01*
X81362099Y-98856056D01*
X81317102Y-98818631D01*
X81289851Y-98766836D01*
X81284495Y-98708554D01*
X81299957Y-98561441D01*
X81315236Y-98416074D01*
X81315236Y-98416072D01*
X81315854Y-98410197D01*
X81333210Y-98354302D01*
X81370634Y-98309305D01*
X81422429Y-98282053D01*
X81480711Y-98276698D01*
X81924722Y-98323365D01*
G37*
G36*
X82055383Y-97080212D02*
G01*
X83793443Y-97262889D01*
X83793448Y-97262890D01*
X83799321Y-97263508D01*
X83855216Y-97280863D01*
X83900213Y-97318288D01*
X83927464Y-97370083D01*
X83932820Y-97428365D01*
X83901461Y-97726722D01*
X83884105Y-97782617D01*
X83846681Y-97827614D01*
X83794886Y-97854866D01*
X83736604Y-97860221D01*
X81992666Y-97676925D01*
X81554532Y-97630876D01*
X81554530Y-97630875D01*
X81548655Y-97630258D01*
X81492760Y-97612903D01*
X81447763Y-97575478D01*
X81420512Y-97523683D01*
X81415156Y-97465401D01*
X81430618Y-97318288D01*
X81445897Y-97172921D01*
X81445897Y-97172919D01*
X81446515Y-97167044D01*
X81463871Y-97111149D01*
X81501295Y-97066152D01*
X81553090Y-97038900D01*
X81611372Y-97033545D01*
X82055383Y-97080212D01*
G37*
G36*
X82186044Y-95837060D02*
G01*
X83924104Y-96019737D01*
X83924109Y-96019738D01*
X83929982Y-96020356D01*
X83985877Y-96037711D01*
X84030874Y-96075136D01*
X84058125Y-96126931D01*
X84063481Y-96185213D01*
X84032122Y-96483570D01*
X84014766Y-96539465D01*
X83977342Y-96584462D01*
X83925547Y-96611714D01*
X83867265Y-96617069D01*
X82123327Y-96433773D01*
X81685193Y-96387724D01*
X81685191Y-96387723D01*
X81679316Y-96387106D01*
X81623421Y-96369751D01*
X81578424Y-96332326D01*
X81551173Y-96280531D01*
X81545817Y-96222249D01*
X81561279Y-96075136D01*
X81576558Y-95929769D01*
X81576558Y-95929767D01*
X81577176Y-95923892D01*
X81594532Y-95867997D01*
X81631956Y-95823000D01*
X81683751Y-95795748D01*
X81742033Y-95790393D01*
X82186044Y-95837060D01*
G37*
G36*
X82316704Y-94593908D02*
G01*
X84054764Y-94776585D01*
X84054769Y-94776586D01*
X84060642Y-94777204D01*
X84116537Y-94794559D01*
X84161534Y-94831984D01*
X84188785Y-94883779D01*
X84194141Y-94942061D01*
X84162782Y-95240418D01*
X84145426Y-95296313D01*
X84108002Y-95341310D01*
X84056207Y-95368562D01*
X83997925Y-95373917D01*
X82253987Y-95190621D01*
X81815853Y-95144572D01*
X81815851Y-95144571D01*
X81809976Y-95143954D01*
X81754081Y-95126599D01*
X81709084Y-95089174D01*
X81681833Y-95037379D01*
X81676477Y-94979097D01*
X81691939Y-94831984D01*
X81707218Y-94686617D01*
X81707218Y-94686615D01*
X81707836Y-94680740D01*
X81725192Y-94624845D01*
X81762616Y-94579848D01*
X81814411Y-94552596D01*
X81872693Y-94547241D01*
X82316704Y-94593908D01*
G37*
G36*
X82447365Y-93350755D02*
G01*
X84185425Y-93533432D01*
X84185430Y-93533433D01*
X84191303Y-93534051D01*
X84247198Y-93551406D01*
X84292195Y-93588831D01*
X84319446Y-93640626D01*
X84324802Y-93698908D01*
X84293443Y-93997265D01*
X84276087Y-94053160D01*
X84238663Y-94098157D01*
X84186868Y-94125409D01*
X84128586Y-94130764D01*
X82384648Y-93947468D01*
X81946514Y-93901419D01*
X81946512Y-93901418D01*
X81940637Y-93900801D01*
X81884742Y-93883446D01*
X81839745Y-93846021D01*
X81812494Y-93794226D01*
X81807138Y-93735944D01*
X81822600Y-93588831D01*
X81837879Y-93443464D01*
X81837879Y-93443462D01*
X81838497Y-93437587D01*
X81855853Y-93381692D01*
X81893277Y-93336695D01*
X81945072Y-93309443D01*
X82003354Y-93304088D01*
X82447365Y-93350755D01*
G37*
G36*
X79308511Y-90004324D02*
G01*
X80513583Y-90130982D01*
X81046214Y-90186964D01*
X81046215Y-90186964D01*
X81048924Y-90187249D01*
X81145356Y-90205122D01*
X81152289Y-90207951D01*
X81158928Y-90209265D01*
X81220281Y-90235698D01*
X81290408Y-90264316D01*
X81295523Y-90268115D01*
X81298051Y-90269204D01*
X81350215Y-90308732D01*
X81416184Y-90357725D01*
X81514777Y-90479478D01*
X81548989Y-90554204D01*
X81576802Y-90613434D01*
X81577341Y-90616131D01*
X81579994Y-90621925D01*
X81593405Y-90696461D01*
X81606506Y-90761975D01*
X81606410Y-90768742D01*
X81607737Y-90776115D01*
X81605170Y-90874156D01*
X81474510Y-92117308D01*
X81456637Y-92213740D01*
X81453804Y-92220680D01*
X81452492Y-92227315D01*
X81426063Y-92288656D01*
X81397442Y-92358792D01*
X81393643Y-92363906D01*
X81392556Y-92366431D01*
X81353087Y-92418516D01*
X81304034Y-92484567D01*
X81182281Y-92583161D01*
X81107539Y-92617379D01*
X81048324Y-92645186D01*
X81045627Y-92645725D01*
X81039833Y-92648378D01*
X80965264Y-92661795D01*
X80899783Y-92674889D01*
X80893021Y-92674793D01*
X80885644Y-92676121D01*
X80787603Y-92673554D01*
X79047190Y-92490629D01*
X78950758Y-92472756D01*
X78943820Y-92469924D01*
X78937185Y-92468612D01*
X78875857Y-92442190D01*
X78805706Y-92413562D01*
X78800588Y-92409761D01*
X78798062Y-92408673D01*
X78745914Y-92369157D01*
X78679930Y-92320153D01*
X78581337Y-92198400D01*
X78547145Y-92123718D01*
X78519311Y-92064443D01*
X78518771Y-92061743D01*
X78516120Y-92055953D01*
X78502715Y-91981456D01*
X78489607Y-91915902D01*
X78489702Y-91909130D01*
X78488377Y-91901763D01*
X78490944Y-91803722D01*
X78598949Y-90776115D01*
X78621319Y-90563280D01*
X78621319Y-90563278D01*
X78621604Y-90560570D01*
X78639477Y-90464138D01*
X78642306Y-90457203D01*
X78643621Y-90450562D01*
X78670075Y-90389158D01*
X78698672Y-90319086D01*
X78702466Y-90313976D01*
X78703557Y-90311446D01*
X78743113Y-90259245D01*
X78792080Y-90193311D01*
X78913833Y-90094717D01*
X78988449Y-90060555D01*
X79047789Y-90032691D01*
X79050491Y-90032150D01*
X79056281Y-90029500D01*
X79130790Y-90016093D01*
X79196330Y-90002988D01*
X79203097Y-90003083D01*
X79210470Y-90001757D01*
X79308511Y-90004324D01*
G37*
G36*
X83542350Y-89025965D02*
G01*
X83589679Y-89031456D01*
X83605853Y-89038597D01*
X83628387Y-89043080D01*
X83652511Y-89059199D01*
X83671132Y-89067421D01*
X83683848Y-89080137D01*
X83705438Y-89094563D01*
X83719863Y-89116152D01*
X83732579Y-89128868D01*
X83740800Y-89147487D01*
X83756921Y-89171614D01*
X83761403Y-89194148D01*
X83768544Y-89210320D01*
X83774033Y-89257641D01*
X83775000Y-89262501D01*
X83775000Y-89737501D01*
X83774032Y-89742363D01*
X83768544Y-89789680D01*
X83761404Y-89805850D01*
X83756921Y-89828388D01*
X83740798Y-89852517D01*
X83732579Y-89871133D01*
X83719865Y-89883846D01*
X83705438Y-89905439D01*
X83683845Y-89919866D01*
X83671132Y-89932580D01*
X83652515Y-89940800D01*
X83628387Y-89956922D01*
X83605850Y-89961404D01*
X83589680Y-89968545D01*
X83542361Y-89974034D01*
X83537500Y-89975001D01*
X82937500Y-89975001D01*
X82932638Y-89974034D01*
X82885320Y-89968545D01*
X82869148Y-89961404D01*
X82846613Y-89956922D01*
X82822485Y-89940801D01*
X82803867Y-89932580D01*
X82791151Y-89919864D01*
X82769562Y-89905439D01*
X82755136Y-89883849D01*
X82742420Y-89871133D01*
X82734198Y-89852512D01*
X82718079Y-89828388D01*
X82713596Y-89805855D01*
X82706455Y-89789681D01*
X82700964Y-89742349D01*
X82700000Y-89737501D01*
X82700000Y-89262501D01*
X82700964Y-89257652D01*
X82706455Y-89210321D01*
X82713597Y-89194145D01*
X82718079Y-89171614D01*
X82734197Y-89147491D01*
X82742420Y-89128868D01*
X82755138Y-89116149D01*
X82769562Y-89094563D01*
X82791148Y-89080139D01*
X82803867Y-89067421D01*
X82822490Y-89059197D01*
X82846613Y-89043080D01*
X82869143Y-89038598D01*
X82885319Y-89031456D01*
X82932652Y-89025965D01*
X82937500Y-89025001D01*
X83537500Y-89025001D01*
X83542350Y-89025965D01*
G37*
G36*
X85267350Y-89025963D02*
G01*
X85314679Y-89031454D01*
X85330853Y-89038595D01*
X85353387Y-89043078D01*
X85377511Y-89059197D01*
X85396132Y-89067419D01*
X85408848Y-89080135D01*
X85430438Y-89094561D01*
X85444863Y-89116150D01*
X85457579Y-89128866D01*
X85465800Y-89147485D01*
X85481921Y-89171612D01*
X85486403Y-89194146D01*
X85493544Y-89210318D01*
X85499033Y-89257639D01*
X85500000Y-89262499D01*
X85500000Y-89737499D01*
X85499032Y-89742361D01*
X85493544Y-89789678D01*
X85486404Y-89805848D01*
X85481921Y-89828386D01*
X85465798Y-89852515D01*
X85457579Y-89871131D01*
X85444865Y-89883844D01*
X85430438Y-89905437D01*
X85408845Y-89919864D01*
X85396132Y-89932578D01*
X85377515Y-89940798D01*
X85353387Y-89956920D01*
X85330850Y-89961402D01*
X85314680Y-89968543D01*
X85267361Y-89974032D01*
X85262500Y-89974999D01*
X84662500Y-89974999D01*
X84657638Y-89974032D01*
X84610320Y-89968543D01*
X84594148Y-89961402D01*
X84571613Y-89956920D01*
X84547485Y-89940799D01*
X84528867Y-89932578D01*
X84516151Y-89919862D01*
X84494562Y-89905437D01*
X84480136Y-89883847D01*
X84467420Y-89871131D01*
X84459198Y-89852510D01*
X84443079Y-89828386D01*
X84438596Y-89805853D01*
X84431455Y-89789679D01*
X84425964Y-89742347D01*
X84425000Y-89737499D01*
X84425000Y-89262499D01*
X84425964Y-89257650D01*
X84431455Y-89210319D01*
X84438597Y-89194143D01*
X84443079Y-89171612D01*
X84459197Y-89147489D01*
X84467420Y-89128866D01*
X84480138Y-89116147D01*
X84494562Y-89094561D01*
X84516148Y-89080137D01*
X84528867Y-89067419D01*
X84547490Y-89059195D01*
X84571613Y-89043078D01*
X84594143Y-89038596D01*
X84610319Y-89031454D01*
X84657652Y-89025963D01*
X84662500Y-89024999D01*
X85262500Y-89024999D01*
X85267350Y-89025963D01*
G37*
G36*
X142382236Y-85549242D02*
G01*
X142382239Y-85549245D01*
X143375460Y-86967712D01*
X143812792Y-87592286D01*
X142490773Y-88517972D01*
X142179330Y-88736048D01*
X142179328Y-88736048D01*
X142174488Y-88739438D01*
X142171101Y-88734600D01*
X142171098Y-88734598D01*
X140743934Y-86696397D01*
X140743933Y-86696395D01*
X140740546Y-86691558D01*
X141021831Y-86494600D01*
X142374007Y-85547795D01*
X142374015Y-85547791D01*
X142378850Y-85544406D01*
X142382236Y-85549242D01*
G37*
G36*
X75365591Y-85564156D02*
G01*
X75525332Y-85630322D01*
X75669095Y-85726382D01*
X75791355Y-85848642D01*
X75887415Y-85992405D01*
X75953581Y-86152146D01*
X75987313Y-86321726D01*
X75987313Y-86494628D01*
X75953581Y-86664208D01*
X75887415Y-86823949D01*
X75791355Y-86967712D01*
X75669095Y-87089972D01*
X75525332Y-87186032D01*
X75365591Y-87252198D01*
X75196011Y-87285930D01*
X75023109Y-87285930D01*
X74853529Y-87252198D01*
X74693788Y-87186032D01*
X74550025Y-87089972D01*
X74427765Y-86967712D01*
X74331705Y-86823949D01*
X74265539Y-86664208D01*
X74231807Y-86494628D01*
X74231807Y-86321726D01*
X74265539Y-86152146D01*
X74331705Y-85992405D01*
X74427765Y-85848642D01*
X74550025Y-85726382D01*
X74693788Y-85630322D01*
X74853529Y-85564156D01*
X75023109Y-85530424D01*
X75196011Y-85530424D01*
X75365591Y-85564156D01*
G37*
G36*
X73419838Y-83931475D02*
G01*
X73579579Y-83997641D01*
X73723342Y-84093701D01*
X73845602Y-84215961D01*
X73941662Y-84359724D01*
X74007828Y-84519465D01*
X74041560Y-84689045D01*
X74041560Y-84861947D01*
X74007828Y-85031527D01*
X73941662Y-85191268D01*
X73845602Y-85335031D01*
X73723342Y-85457291D01*
X73579579Y-85553351D01*
X73419838Y-85619517D01*
X73250258Y-85653249D01*
X73077356Y-85653249D01*
X72907776Y-85619517D01*
X72748035Y-85553351D01*
X72604272Y-85457291D01*
X72482012Y-85335031D01*
X72385952Y-85191268D01*
X72319786Y-85031527D01*
X72286054Y-84861947D01*
X72286054Y-84689045D01*
X72319786Y-84519465D01*
X72385952Y-84359724D01*
X72482012Y-84215961D01*
X72604272Y-84093701D01*
X72748035Y-83997641D01*
X72907776Y-83931475D01*
X73077356Y-83897743D01*
X73250258Y-83897743D01*
X73419838Y-83931475D01*
G37*
G36*
X140636704Y-83056364D02*
G01*
X141515097Y-84310838D01*
X141515098Y-84310841D01*
X141518485Y-84315678D01*
X140738371Y-84861919D01*
X139887094Y-85457990D01*
X139880181Y-85462830D01*
X139689936Y-85191132D01*
X138736416Y-83829365D01*
X138736413Y-83829359D01*
X138733029Y-83824526D01*
X138737865Y-83821139D01*
X138737868Y-83821137D01*
X140366493Y-82680761D01*
X140366500Y-82680757D01*
X140371333Y-82677374D01*
X140636704Y-83056364D01*
G37*
G36*
X71474085Y-82298794D02*
G01*
X71633826Y-82364960D01*
X71777589Y-82461020D01*
X71899849Y-82583280D01*
X71995909Y-82727043D01*
X72062075Y-82886784D01*
X72095807Y-83056364D01*
X72095807Y-83229266D01*
X72062075Y-83398846D01*
X71995909Y-83558587D01*
X71899849Y-83702350D01*
X71777589Y-83824610D01*
X71633826Y-83920670D01*
X71474085Y-83986836D01*
X71304505Y-84020568D01*
X71131603Y-84020568D01*
X70962023Y-83986836D01*
X70802282Y-83920670D01*
X70658519Y-83824610D01*
X70536259Y-83702350D01*
X70440199Y-83558587D01*
X70374033Y-83398846D01*
X70340301Y-83229266D01*
X70340301Y-83056364D01*
X70374033Y-82886784D01*
X70440199Y-82727043D01*
X70536259Y-82583280D01*
X70658519Y-82461020D01*
X70802282Y-82364960D01*
X70962023Y-82298794D01*
X71131603Y-82265062D01*
X71304505Y-82265062D01*
X71474085Y-82298794D01*
G37*
G36*
X106256943Y-80692631D02*
G01*
X106283986Y-80692041D01*
X106309198Y-80701845D01*
X106328121Y-80705182D01*
X106346726Y-80716439D01*
X106374900Y-80727395D01*
X106392188Y-80743945D01*
X106408231Y-80753652D01*
X106441792Y-80791432D01*
X106445363Y-80794850D01*
X106447350Y-80797688D01*
X106447351Y-80797689D01*
X106554551Y-80950786D01*
X107446253Y-82224267D01*
X107448250Y-82228807D01*
X107472264Y-82273252D01*
X107475896Y-82291637D01*
X107485539Y-82313552D01*
X107486198Y-82343777D01*
X107490412Y-82365105D01*
X107487076Y-82384023D01*
X107487666Y-82411074D01*
X107477859Y-82436290D01*
X107474524Y-82455209D01*
X107463269Y-82473809D01*
X107452312Y-82501988D01*
X107435758Y-82519279D01*
X107426054Y-82535319D01*
X107388280Y-82568874D01*
X107384857Y-82572451D01*
X105836663Y-83656509D01*
X105832131Y-83658502D01*
X105787680Y-83682520D01*
X105769290Y-83686153D01*
X105747378Y-83695795D01*
X105717153Y-83696454D01*
X105695823Y-83700669D01*
X105676903Y-83697332D01*
X105649856Y-83697923D01*
X105624640Y-83688117D01*
X105605720Y-83684781D01*
X105587117Y-83673525D01*
X105558942Y-83662569D01*
X105541652Y-83646017D01*
X105525610Y-83636311D01*
X105492048Y-83598530D01*
X105488479Y-83595114D01*
X105350989Y-83398759D01*
X104489581Y-82168542D01*
X104489580Y-82168541D01*
X104487589Y-82165697D01*
X104485593Y-82161161D01*
X104461577Y-82116711D01*
X104457943Y-82098322D01*
X104448303Y-82076412D01*
X104447643Y-82046190D01*
X104443429Y-82024858D01*
X104446765Y-82005934D01*
X104446176Y-81978890D01*
X104455980Y-81953678D01*
X104459317Y-81934754D01*
X104470575Y-81916146D01*
X104481530Y-81887976D01*
X104498079Y-81870688D01*
X104507787Y-81854644D01*
X104545573Y-81821076D01*
X104548985Y-81817513D01*
X104551818Y-81815529D01*
X104551824Y-81815524D01*
X106094336Y-80735444D01*
X106094346Y-80735438D01*
X106097179Y-80733455D01*
X106101695Y-80731467D01*
X106146161Y-80707443D01*
X106164556Y-80703808D01*
X106186464Y-80694169D01*
X106216681Y-80693509D01*
X106238018Y-80689294D01*
X106256943Y-80692631D01*
G37*
G36*
X138590094Y-80133502D02*
G01*
X139564937Y-81525721D01*
X139564938Y-81525724D01*
X139568325Y-81530561D01*
X138450097Y-82313552D01*
X137936934Y-82672873D01*
X137930021Y-82677713D01*
X137711209Y-82365217D01*
X136786256Y-81044248D01*
X136786253Y-81044242D01*
X136782869Y-81039409D01*
X136787705Y-81036022D01*
X136787708Y-81036020D01*
X138416333Y-79895644D01*
X138416340Y-79895640D01*
X138421173Y-79892257D01*
X138590094Y-80133502D01*
G37*
G36*
X69528332Y-80666114D02*
G01*
X69688073Y-80732280D01*
X69831836Y-80828340D01*
X69954096Y-80950600D01*
X70050156Y-81094363D01*
X70116322Y-81254104D01*
X70150054Y-81423684D01*
X70150054Y-81596586D01*
X70116322Y-81766166D01*
X70050156Y-81925907D01*
X69954096Y-82069670D01*
X69831836Y-82191930D01*
X69688073Y-82287990D01*
X69528332Y-82354156D01*
X69358752Y-82387888D01*
X69185850Y-82387888D01*
X69016270Y-82354156D01*
X68856529Y-82287990D01*
X68712766Y-82191930D01*
X68590506Y-82069670D01*
X68494446Y-81925907D01*
X68428280Y-81766166D01*
X68394548Y-81596586D01*
X68394548Y-81423684D01*
X68428280Y-81254104D01*
X68494446Y-81094363D01*
X68590506Y-80950600D01*
X68712766Y-80828340D01*
X68856529Y-80732280D01*
X69016270Y-80666114D01*
X69185850Y-80632382D01*
X69358752Y-80632382D01*
X69528332Y-80666114D01*
G37*
G36*
X67582579Y-79033433D02*
G01*
X67742320Y-79099599D01*
X67886083Y-79195659D01*
X68008343Y-79317919D01*
X68104403Y-79461682D01*
X68170569Y-79621423D01*
X68204301Y-79791003D01*
X68204301Y-79963905D01*
X68170569Y-80133485D01*
X68104403Y-80293226D01*
X68008343Y-80436989D01*
X67886083Y-80559249D01*
X67742320Y-80655309D01*
X67582579Y-80721475D01*
X67412999Y-80755207D01*
X67240097Y-80755207D01*
X67070517Y-80721475D01*
X66910776Y-80655309D01*
X66767013Y-80559249D01*
X66644753Y-80436989D01*
X66548693Y-80293226D01*
X66482527Y-80133485D01*
X66448795Y-79963905D01*
X66448795Y-79791003D01*
X66482527Y-79621423D01*
X66548693Y-79461682D01*
X66644753Y-79317919D01*
X66767013Y-79195659D01*
X66910776Y-79099599D01*
X67070517Y-79033433D01*
X67240097Y-78999701D01*
X67412999Y-78999701D01*
X67582579Y-79033433D01*
G37*
G36*
X136359683Y-76948146D02*
G01*
X136359686Y-76948149D01*
X137659383Y-78804309D01*
X137790239Y-78991190D01*
X136632771Y-79801657D01*
X136156777Y-80134952D01*
X136156775Y-80134952D01*
X136151935Y-80138342D01*
X136148548Y-80133504D01*
X136148545Y-80133502D01*
X134721381Y-78095301D01*
X134721380Y-78095299D01*
X134717993Y-78090462D01*
X135082982Y-77834894D01*
X136351454Y-76946699D01*
X136351462Y-76946695D01*
X136356297Y-76943310D01*
X136359683Y-76948146D01*
G37*
G36*
X48673682Y-76847726D02*
G01*
X48897539Y-76920462D01*
X49107262Y-77027321D01*
X49297686Y-77165672D01*
X49464123Y-77332109D01*
X49602474Y-77522533D01*
X49709333Y-77732256D01*
X49782069Y-77956113D01*
X49818890Y-78188592D01*
X49818890Y-78423970D01*
X49782069Y-78656449D01*
X49709333Y-78880306D01*
X49602474Y-79090029D01*
X49464123Y-79280453D01*
X49297686Y-79446890D01*
X49107262Y-79585241D01*
X48897539Y-79692100D01*
X48673682Y-79764836D01*
X48441203Y-79801657D01*
X48205825Y-79801657D01*
X47973346Y-79764836D01*
X47749489Y-79692100D01*
X47539766Y-79585241D01*
X47349342Y-79446890D01*
X47182905Y-79280453D01*
X47044554Y-79090029D01*
X46937695Y-78880306D01*
X46864959Y-78656449D01*
X46828138Y-78423970D01*
X46828138Y-78188592D01*
X46864959Y-77956113D01*
X46937695Y-77732256D01*
X47044554Y-77522533D01*
X47182905Y-77332109D01*
X47349342Y-77165672D01*
X47539766Y-77027321D01*
X47749489Y-76920462D01*
X47973346Y-76847726D01*
X48205825Y-76810905D01*
X48441203Y-76810905D01*
X48673682Y-76847726D01*
G37*
G36*
X103323101Y-76502667D02*
G01*
X103350144Y-76502077D01*
X103375356Y-76511881D01*
X103394279Y-76515218D01*
X103412884Y-76526475D01*
X103441058Y-76537431D01*
X103458346Y-76553981D01*
X103474389Y-76563688D01*
X103507950Y-76601468D01*
X103511521Y-76604886D01*
X103513508Y-76607724D01*
X103513509Y-76607725D01*
X103732490Y-76920462D01*
X104512411Y-78034303D01*
X104514408Y-78038843D01*
X104538422Y-78083288D01*
X104542054Y-78101673D01*
X104551697Y-78123588D01*
X104552356Y-78153813D01*
X104556570Y-78175141D01*
X104553234Y-78194059D01*
X104553824Y-78221110D01*
X104544017Y-78246326D01*
X104540682Y-78265245D01*
X104529427Y-78283845D01*
X104518470Y-78312024D01*
X104501916Y-78329315D01*
X104492212Y-78345355D01*
X104454438Y-78378910D01*
X104451015Y-78382487D01*
X102902821Y-79466545D01*
X102898289Y-79468538D01*
X102853838Y-79492556D01*
X102835448Y-79496189D01*
X102813536Y-79505831D01*
X102783311Y-79506490D01*
X102761981Y-79510705D01*
X102743061Y-79507368D01*
X102716014Y-79507959D01*
X102690798Y-79498153D01*
X102671878Y-79494817D01*
X102653275Y-79483561D01*
X102625100Y-79472605D01*
X102607810Y-79456053D01*
X102591768Y-79446347D01*
X102558206Y-79408566D01*
X102554637Y-79405150D01*
X102467234Y-79280327D01*
X101555739Y-77978578D01*
X101555738Y-77978577D01*
X101553747Y-77975733D01*
X101551751Y-77971197D01*
X101527735Y-77926747D01*
X101524101Y-77908358D01*
X101514461Y-77886448D01*
X101513801Y-77856226D01*
X101509587Y-77834894D01*
X101512923Y-77815970D01*
X101512334Y-77788926D01*
X101522138Y-77763714D01*
X101525475Y-77744790D01*
X101536733Y-77726182D01*
X101547688Y-77698012D01*
X101564237Y-77680724D01*
X101573945Y-77664680D01*
X101611731Y-77631112D01*
X101615143Y-77627549D01*
X101617976Y-77625565D01*
X101617982Y-77625560D01*
X103160494Y-76545480D01*
X103160504Y-76545474D01*
X103163337Y-76543491D01*
X103167853Y-76541503D01*
X103212319Y-76517479D01*
X103230714Y-76513844D01*
X103252622Y-76504205D01*
X103282839Y-76503545D01*
X103304176Y-76499330D01*
X103323101Y-76502667D01*
G37*
G36*
X65636826Y-77400753D02*
G01*
X65796567Y-77466919D01*
X65940330Y-77562979D01*
X66062590Y-77685239D01*
X66158650Y-77829002D01*
X66224816Y-77988743D01*
X66258548Y-78158323D01*
X66258548Y-78331225D01*
X66224816Y-78500805D01*
X66158650Y-78660546D01*
X66062590Y-78804309D01*
X65940330Y-78926569D01*
X65796567Y-79022629D01*
X65636826Y-79088795D01*
X65467246Y-79122527D01*
X65294344Y-79122527D01*
X65124764Y-79088795D01*
X64965023Y-79022629D01*
X64821260Y-78926569D01*
X64699000Y-78804309D01*
X64602940Y-78660546D01*
X64536774Y-78500805D01*
X64503042Y-78331225D01*
X64503042Y-78158323D01*
X64536774Y-77988743D01*
X64602940Y-77829002D01*
X64699000Y-77685239D01*
X64821260Y-77562979D01*
X64965023Y-77466919D01*
X65124764Y-77400753D01*
X65294344Y-77367021D01*
X65467246Y-77367021D01*
X65636826Y-77400753D01*
G37*
G36*
X63691074Y-75768072D02*
G01*
X63850815Y-75834238D01*
X63994578Y-75930298D01*
X64116838Y-76052558D01*
X64212898Y-76196321D01*
X64279064Y-76356062D01*
X64312796Y-76525642D01*
X64312796Y-76698544D01*
X64279064Y-76868124D01*
X64212898Y-77027865D01*
X64116838Y-77171628D01*
X63994578Y-77293888D01*
X63850815Y-77389948D01*
X63691074Y-77456114D01*
X63521494Y-77489846D01*
X63348592Y-77489846D01*
X63179012Y-77456114D01*
X63019271Y-77389948D01*
X62875508Y-77293888D01*
X62753248Y-77171628D01*
X62657188Y-77027865D01*
X62591022Y-76868124D01*
X62557290Y-76698544D01*
X62557290Y-76525642D01*
X62591022Y-76356062D01*
X62657188Y-76196321D01*
X62753248Y-76052558D01*
X62875508Y-75930298D01*
X63019271Y-75834238D01*
X63179012Y-75768072D01*
X63348592Y-75734340D01*
X63521494Y-75734340D01*
X63691074Y-75768072D01*
G37*
G36*
X61745321Y-74135392D02*
G01*
X61905062Y-74201558D01*
X62048825Y-74297618D01*
X62171085Y-74419878D01*
X62267145Y-74563641D01*
X62333311Y-74723382D01*
X62367043Y-74892962D01*
X62367043Y-75065864D01*
X62333311Y-75235444D01*
X62267145Y-75395185D01*
X62171085Y-75538948D01*
X62048825Y-75661208D01*
X61905062Y-75757268D01*
X61745321Y-75823434D01*
X61575741Y-75857166D01*
X61402839Y-75857166D01*
X61233259Y-75823434D01*
X61073518Y-75757268D01*
X60929755Y-75661208D01*
X60807495Y-75538948D01*
X60711435Y-75395185D01*
X60645269Y-75235444D01*
X60611537Y-75065864D01*
X60611537Y-74892962D01*
X60645269Y-74723382D01*
X60711435Y-74563641D01*
X60807495Y-74419878D01*
X60929755Y-74297618D01*
X61073518Y-74201558D01*
X61233259Y-74135392D01*
X61402839Y-74101660D01*
X61575741Y-74101660D01*
X61745321Y-74135392D01*
G37*
G36*
X85212567Y-73984559D02*
G01*
X85372308Y-74050725D01*
X85516071Y-74146785D01*
X85638331Y-74269045D01*
X85734391Y-74412808D01*
X85800557Y-74572549D01*
X85834289Y-74742129D01*
X85834289Y-74915031D01*
X85800557Y-75084611D01*
X85734391Y-75244352D01*
X85638331Y-75388115D01*
X85516071Y-75510375D01*
X85372308Y-75606435D01*
X85212567Y-75672601D01*
X85042987Y-75706333D01*
X84870085Y-75706333D01*
X84700505Y-75672601D01*
X84540764Y-75606435D01*
X84397001Y-75510375D01*
X84274741Y-75388115D01*
X84178681Y-75244352D01*
X84112515Y-75084611D01*
X84078783Y-74915031D01*
X84078783Y-74742129D01*
X84112515Y-74572549D01*
X84178681Y-74412808D01*
X84274741Y-74269045D01*
X84397001Y-74146785D01*
X84540764Y-74050725D01*
X84700505Y-73984559D01*
X84870085Y-73950827D01*
X85042987Y-73950827D01*
X85212567Y-73984559D01*
G37*
G36*
X59799568Y-72502711D02*
G01*
X59959309Y-72568877D01*
X60103072Y-72664937D01*
X60225332Y-72787197D01*
X60321392Y-72930960D01*
X60387558Y-73090701D01*
X60421290Y-73260281D01*
X60421290Y-73433183D01*
X60387558Y-73602763D01*
X60321392Y-73762504D01*
X60225332Y-73906267D01*
X60103072Y-74028527D01*
X59959309Y-74124587D01*
X59799568Y-74190753D01*
X59629988Y-74224485D01*
X59457086Y-74224485D01*
X59287506Y-74190753D01*
X59127765Y-74124587D01*
X58984002Y-74028527D01*
X58861742Y-73906267D01*
X58765682Y-73762504D01*
X58699516Y-73602763D01*
X58665784Y-73433183D01*
X58665784Y-73260281D01*
X58699516Y-73090701D01*
X58765682Y-72930960D01*
X58861742Y-72787197D01*
X58984002Y-72664937D01*
X59127765Y-72568877D01*
X59287506Y-72502711D01*
X59457086Y-72468979D01*
X59629988Y-72468979D01*
X59799568Y-72502711D01*
G37*
G36*
X83266814Y-72351878D02*
G01*
X83426555Y-72418044D01*
X83570318Y-72514104D01*
X83692578Y-72636364D01*
X83788638Y-72780127D01*
X83854804Y-72939868D01*
X83888536Y-73109448D01*
X83888536Y-73282350D01*
X83854804Y-73451930D01*
X83788638Y-73611671D01*
X83692578Y-73755434D01*
X83570318Y-73877694D01*
X83426555Y-73973754D01*
X83266814Y-74039920D01*
X83097234Y-74073652D01*
X82924332Y-74073652D01*
X82754752Y-74039920D01*
X82595011Y-73973754D01*
X82451248Y-73877694D01*
X82328988Y-73755434D01*
X82232928Y-73611671D01*
X82166762Y-73451930D01*
X82133030Y-73282350D01*
X82133030Y-73109448D01*
X82166762Y-72939868D01*
X82232928Y-72780127D01*
X82328988Y-72636364D01*
X82451248Y-72514104D01*
X82595011Y-72418044D01*
X82754752Y-72351878D01*
X82924332Y-72318146D01*
X83097234Y-72318146D01*
X83266814Y-72351878D01*
G37*
G36*
X100246742Y-71806601D02*
G01*
X100400687Y-71870367D01*
X100539234Y-71962941D01*
X100657059Y-72080766D01*
X100749633Y-72219313D01*
X100813399Y-72373258D01*
X100845907Y-72536685D01*
X100845907Y-72703315D01*
X100813399Y-72866742D01*
X100749633Y-73020687D01*
X100657059Y-73159234D01*
X100539234Y-73277059D01*
X100400687Y-73369633D01*
X100246742Y-73433399D01*
X100083315Y-73465907D01*
X99916685Y-73465907D01*
X99753258Y-73433399D01*
X99599313Y-73369633D01*
X99460766Y-73277059D01*
X99342941Y-73159234D01*
X99250367Y-73020687D01*
X99186601Y-72866742D01*
X99154093Y-72703315D01*
X99154093Y-72536685D01*
X99186601Y-72373258D01*
X99250367Y-72219313D01*
X99342941Y-72080766D01*
X99460766Y-71962941D01*
X99599313Y-71870367D01*
X99753258Y-71806601D01*
X99916685Y-71774093D01*
X100083315Y-71774093D01*
X100246742Y-71806601D01*
G37*
G36*
X51541068Y-72132662D02*
G01*
X51558987Y-72131095D01*
X51578537Y-72136766D01*
X51607379Y-72139925D01*
X51627520Y-72150975D01*
X51644499Y-72155900D01*
X51684273Y-72182110D01*
X51688624Y-72184497D01*
X52148250Y-72570169D01*
X52151349Y-72574031D01*
X52184075Y-72608658D01*
X52191873Y-72624523D01*
X52206253Y-72642440D01*
X52214371Y-72670292D01*
X52223351Y-72688560D01*
X52224918Y-72706475D01*
X52232185Y-72731405D01*
X52229357Y-72757217D01*
X52230925Y-72775130D01*
X52225255Y-72794674D01*
X52222096Y-72823522D01*
X52211043Y-72843668D01*
X52206119Y-72860645D01*
X52179913Y-72900411D01*
X52177524Y-72904767D01*
X51872200Y-73268638D01*
X51868335Y-73271739D01*
X51833710Y-73304463D01*
X51817844Y-73312261D01*
X51799929Y-73326640D01*
X51772078Y-73334757D01*
X51753808Y-73343739D01*
X51735889Y-73345306D01*
X51710964Y-73352572D01*
X51685151Y-73349744D01*
X51667238Y-73351312D01*
X51647692Y-73345642D01*
X51618847Y-73342483D01*
X51598702Y-73331431D01*
X51581726Y-73326507D01*
X51541955Y-73300299D01*
X51537602Y-73297911D01*
X51077976Y-72912239D01*
X51074876Y-72908376D01*
X51042150Y-72873749D01*
X51034350Y-72857882D01*
X51019973Y-72839968D01*
X51011855Y-72812117D01*
X51002874Y-72793847D01*
X51001306Y-72775927D01*
X50994041Y-72751003D01*
X50996867Y-72725194D01*
X50995300Y-72707277D01*
X51000971Y-72687725D01*
X51004130Y-72658886D01*
X51015179Y-72638744D01*
X51020106Y-72621762D01*
X51046320Y-72581981D01*
X51048702Y-72577641D01*
X51128263Y-72482824D01*
X51351792Y-72216430D01*
X51351801Y-72216420D01*
X51354026Y-72213770D01*
X51357876Y-72210679D01*
X51392515Y-72177944D01*
X51408386Y-72170142D01*
X51426297Y-72155768D01*
X51454139Y-72147652D01*
X51472417Y-72138668D01*
X51490341Y-72137100D01*
X51515262Y-72129836D01*
X51541068Y-72132662D01*
G37*
G36*
X108794454Y-70619234D02*
G01*
X109501841Y-71629486D01*
X109501842Y-71629489D01*
X109505232Y-71634330D01*
X107457351Y-73068271D01*
X106862998Y-72219447D01*
X106026800Y-71025233D01*
X106026798Y-71025228D01*
X106023410Y-71020390D01*
X106158346Y-70925907D01*
X108066447Y-69589839D01*
X108066453Y-69589835D01*
X108071291Y-69586449D01*
X108794454Y-70619234D01*
G37*
G36*
X57853815Y-70870031D02*
G01*
X58013556Y-70936197D01*
X58157319Y-71032257D01*
X58279579Y-71154517D01*
X58375639Y-71298280D01*
X58441805Y-71458021D01*
X58475537Y-71627601D01*
X58475537Y-71800503D01*
X58441805Y-71970083D01*
X58375639Y-72129824D01*
X58279579Y-72273587D01*
X58157319Y-72395847D01*
X58013556Y-72491907D01*
X57853815Y-72558073D01*
X57684235Y-72591805D01*
X57511333Y-72591805D01*
X57341753Y-72558073D01*
X57182012Y-72491907D01*
X57038249Y-72395847D01*
X56915989Y-72273587D01*
X56819929Y-72129824D01*
X56753763Y-71970083D01*
X56720031Y-71800503D01*
X56720031Y-71627601D01*
X56753763Y-71458021D01*
X56819929Y-71298280D01*
X56915989Y-71154517D01*
X57038249Y-71032257D01*
X57182012Y-70936197D01*
X57341753Y-70870031D01*
X57511333Y-70836299D01*
X57684235Y-70836299D01*
X57853815Y-70870031D01*
G37*
G36*
X144120605Y-68295734D02*
G01*
X144303618Y-68341365D01*
X144477240Y-68415063D01*
X144637195Y-68515014D01*
X144779545Y-68638757D01*
X144900785Y-68783245D01*
X144997929Y-68944920D01*
X145068585Y-69119801D01*
X145111014Y-69303583D01*
X145124172Y-69491739D01*
X145107734Y-69679637D01*
X145062103Y-69862650D01*
X144988405Y-70036272D01*
X144888454Y-70196227D01*
X144764711Y-70338577D01*
X144694849Y-70402035D01*
X142549925Y-72201841D01*
X142475299Y-72259623D01*
X142313625Y-72356767D01*
X142138743Y-72427423D01*
X141954961Y-72469852D01*
X141766805Y-72483011D01*
X141578907Y-72466572D01*
X141395894Y-72420941D01*
X141222272Y-72347243D01*
X141062317Y-72247292D01*
X140919967Y-72123550D01*
X140798727Y-71979061D01*
X140701583Y-71817387D01*
X140630927Y-71642505D01*
X140588498Y-71458723D01*
X140575339Y-71270567D01*
X140591778Y-71082669D01*
X140637409Y-70899656D01*
X140711107Y-70726034D01*
X140811058Y-70566079D01*
X140934800Y-70423729D01*
X141004663Y-70360271D01*
X141005549Y-70359526D01*
X141005564Y-70359514D01*
X143148689Y-68561218D01*
X143148696Y-68561211D01*
X143149587Y-68560465D01*
X143224213Y-68502683D01*
X143385887Y-68405539D01*
X143560769Y-68334883D01*
X143744551Y-68292454D01*
X143932707Y-68279296D01*
X144120605Y-68295734D01*
G37*
G36*
X81321061Y-70719198D02*
G01*
X81480802Y-70785364D01*
X81624565Y-70881424D01*
X81746825Y-71003684D01*
X81842885Y-71147447D01*
X81909051Y-71307188D01*
X81942783Y-71476768D01*
X81942783Y-71649670D01*
X81909051Y-71819250D01*
X81842885Y-71978991D01*
X81746825Y-72122754D01*
X81624565Y-72245014D01*
X81480802Y-72341074D01*
X81321061Y-72407240D01*
X81151481Y-72440972D01*
X80978579Y-72440972D01*
X80808999Y-72407240D01*
X80649258Y-72341074D01*
X80505495Y-72245014D01*
X80383235Y-72122754D01*
X80287175Y-71978991D01*
X80221009Y-71819250D01*
X80187277Y-71649670D01*
X80187277Y-71476768D01*
X80221009Y-71307188D01*
X80287175Y-71147447D01*
X80383235Y-71003684D01*
X80505495Y-70881424D01*
X80649258Y-70785364D01*
X80808999Y-70719198D01*
X80978579Y-70685466D01*
X81151481Y-70685466D01*
X81321061Y-70719198D01*
G37*
G36*
X50219642Y-71023854D02*
G01*
X50237561Y-71022287D01*
X50257111Y-71027958D01*
X50285953Y-71031117D01*
X50306094Y-71042167D01*
X50323073Y-71047092D01*
X50362847Y-71073302D01*
X50367198Y-71075689D01*
X50826824Y-71461361D01*
X50829923Y-71465223D01*
X50862649Y-71499850D01*
X50870447Y-71515715D01*
X50884827Y-71533632D01*
X50892945Y-71561484D01*
X50901925Y-71579752D01*
X50903492Y-71597667D01*
X50910759Y-71622597D01*
X50907931Y-71648409D01*
X50909499Y-71666322D01*
X50903829Y-71685866D01*
X50900670Y-71714714D01*
X50889617Y-71734860D01*
X50884693Y-71751837D01*
X50858487Y-71791603D01*
X50856098Y-71795959D01*
X50571728Y-72134856D01*
X50554183Y-72155768D01*
X50550774Y-72159830D01*
X50546909Y-72162931D01*
X50512284Y-72195655D01*
X50496418Y-72203453D01*
X50478503Y-72217832D01*
X50450652Y-72225949D01*
X50432382Y-72234931D01*
X50414463Y-72236498D01*
X50389538Y-72243764D01*
X50363725Y-72240936D01*
X50345812Y-72242504D01*
X50326266Y-72236834D01*
X50297421Y-72233675D01*
X50277276Y-72222623D01*
X50260300Y-72217699D01*
X50220529Y-72191491D01*
X50216176Y-72189103D01*
X49756550Y-71803431D01*
X49753450Y-71799568D01*
X49720724Y-71764941D01*
X49712924Y-71749074D01*
X49698547Y-71731160D01*
X49690429Y-71703309D01*
X49681448Y-71685039D01*
X49679880Y-71667119D01*
X49672615Y-71642195D01*
X49675441Y-71616386D01*
X49673874Y-71598469D01*
X49679545Y-71578917D01*
X49682704Y-71550078D01*
X49693753Y-71529936D01*
X49698680Y-71512954D01*
X49724894Y-71473173D01*
X49727276Y-71468833D01*
X49790988Y-71392903D01*
X50030366Y-71107622D01*
X50030375Y-71107612D01*
X50032600Y-71104962D01*
X50036450Y-71101871D01*
X50071089Y-71069136D01*
X50086960Y-71061334D01*
X50104871Y-71046960D01*
X50132713Y-71038844D01*
X50150991Y-71029860D01*
X50168915Y-71028292D01*
X50193836Y-71021028D01*
X50219642Y-71023854D01*
G37*
G36*
X55908062Y-69237350D02*
G01*
X56067803Y-69303516D01*
X56211566Y-69399576D01*
X56333826Y-69521836D01*
X56429886Y-69665599D01*
X56496052Y-69825340D01*
X56529784Y-69994920D01*
X56529784Y-70167822D01*
X56496052Y-70337402D01*
X56429886Y-70497143D01*
X56333826Y-70640906D01*
X56211566Y-70763166D01*
X56067803Y-70859226D01*
X55908062Y-70925392D01*
X55738482Y-70959124D01*
X55565580Y-70959124D01*
X55396000Y-70925392D01*
X55236259Y-70859226D01*
X55092496Y-70763166D01*
X54970236Y-70640906D01*
X54874176Y-70497143D01*
X54808010Y-70337402D01*
X54774278Y-70167822D01*
X54774278Y-69994920D01*
X54808010Y-69825340D01*
X54874176Y-69665599D01*
X54970236Y-69521836D01*
X55092496Y-69399576D01*
X55236259Y-69303516D01*
X55396000Y-69237350D01*
X55565580Y-69203618D01*
X55738482Y-69203618D01*
X55908062Y-69237350D01*
G37*
G36*
X100246742Y-69266601D02*
G01*
X100400687Y-69330367D01*
X100539234Y-69422941D01*
X100657059Y-69540766D01*
X100749633Y-69679313D01*
X100813399Y-69833258D01*
X100845907Y-69996685D01*
X100845907Y-70163315D01*
X100813399Y-70326742D01*
X100749633Y-70480687D01*
X100657059Y-70619234D01*
X100539234Y-70737059D01*
X100400687Y-70829633D01*
X100246742Y-70893399D01*
X100083315Y-70925907D01*
X99916685Y-70925907D01*
X99753258Y-70893399D01*
X99599313Y-70829633D01*
X99460766Y-70737059D01*
X99342941Y-70619234D01*
X99250367Y-70480687D01*
X99186601Y-70326742D01*
X99154093Y-70163315D01*
X99154093Y-69996685D01*
X99186601Y-69833258D01*
X99250367Y-69679313D01*
X99342941Y-69540766D01*
X99460766Y-69422941D01*
X99599313Y-69330367D01*
X99753258Y-69266601D01*
X99916685Y-69234093D01*
X100083315Y-69234093D01*
X100246742Y-69266601D01*
G37*
G36*
X79375308Y-69086517D02*
G01*
X79535049Y-69152683D01*
X79678812Y-69248743D01*
X79801072Y-69371003D01*
X79897132Y-69514766D01*
X79963298Y-69674507D01*
X79997030Y-69844087D01*
X79997030Y-70016989D01*
X79963298Y-70186569D01*
X79897132Y-70346310D01*
X79801072Y-70490073D01*
X79678812Y-70612333D01*
X79535049Y-70708393D01*
X79375308Y-70774559D01*
X79205728Y-70808291D01*
X79032826Y-70808291D01*
X78863246Y-70774559D01*
X78703505Y-70708393D01*
X78559742Y-70612333D01*
X78437482Y-70490073D01*
X78341422Y-70346310D01*
X78275256Y-70186569D01*
X78241524Y-70016989D01*
X78241524Y-69844087D01*
X78275256Y-69674507D01*
X78341422Y-69514766D01*
X78437482Y-69371003D01*
X78559742Y-69248743D01*
X78703505Y-69152683D01*
X78863246Y-69086517D01*
X79032826Y-69052785D01*
X79205728Y-69052785D01*
X79375308Y-69086517D01*
G37*
G36*
X53640810Y-67252522D02*
G01*
X53675702Y-67271665D01*
X54870731Y-68274414D01*
X54895643Y-68305452D01*
X54906779Y-68343661D01*
X54902447Y-68383223D01*
X54883304Y-68418115D01*
X53880555Y-69613144D01*
X53849517Y-69638056D01*
X53811308Y-69649192D01*
X53771746Y-69644860D01*
X53736854Y-69625717D01*
X52541825Y-68622968D01*
X52516913Y-68591930D01*
X52505777Y-68553721D01*
X52510109Y-68514159D01*
X52529252Y-68479267D01*
X52901466Y-68035680D01*
X53528204Y-67288762D01*
X53528206Y-67288759D01*
X53532001Y-67284238D01*
X53563039Y-67259326D01*
X53601248Y-67248190D01*
X53640810Y-67252522D01*
G37*
G36*
X77429555Y-67453837D02*
G01*
X77589296Y-67520003D01*
X77733059Y-67616063D01*
X77855319Y-67738323D01*
X77951379Y-67882086D01*
X78017545Y-68041827D01*
X78051277Y-68211407D01*
X78051277Y-68384309D01*
X78017545Y-68553889D01*
X77951379Y-68713630D01*
X77855319Y-68857393D01*
X77733059Y-68979653D01*
X77589296Y-69075713D01*
X77429555Y-69141879D01*
X77259975Y-69175611D01*
X77087073Y-69175611D01*
X76917493Y-69141879D01*
X76757752Y-69075713D01*
X76613989Y-68979653D01*
X76491729Y-68857393D01*
X76395669Y-68713630D01*
X76329503Y-68553889D01*
X76295771Y-68384309D01*
X76295771Y-68211407D01*
X76329503Y-68041827D01*
X76395669Y-67882086D01*
X76491729Y-67738323D01*
X76613989Y-67616063D01*
X76757752Y-67520003D01*
X76917493Y-67453837D01*
X77087073Y-67420105D01*
X77259975Y-67420105D01*
X77429555Y-67453837D01*
G37*
G36*
X93326824Y-66138682D02*
G01*
X93535757Y-66206569D01*
X93731498Y-66306304D01*
X93909227Y-66435432D01*
X94064568Y-66590773D01*
X94193696Y-66768502D01*
X94293431Y-66964243D01*
X94361318Y-67173176D01*
X94395684Y-67390157D01*
X94395684Y-67609843D01*
X94361318Y-67826824D01*
X94293431Y-68035757D01*
X94193696Y-68231498D01*
X94064568Y-68409227D01*
X93909227Y-68564568D01*
X93731498Y-68693696D01*
X93535757Y-68793431D01*
X93326824Y-68861318D01*
X93109843Y-68895684D01*
X92890157Y-68895684D01*
X92673176Y-68861318D01*
X92464243Y-68793431D01*
X92268502Y-68693696D01*
X92090773Y-68564568D01*
X91935432Y-68409227D01*
X91806304Y-68231498D01*
X91706569Y-68035757D01*
X91638682Y-67826824D01*
X91604316Y-67609843D01*
X91604316Y-67390157D01*
X91638682Y-67173176D01*
X91706569Y-66964243D01*
X91806304Y-66768502D01*
X91935432Y-66590773D01*
X92090773Y-66435432D01*
X92268502Y-66306304D01*
X92464243Y-66206569D01*
X92673176Y-66138682D01*
X92890157Y-66104316D01*
X93109843Y-66104316D01*
X93326824Y-66138682D01*
G37*
G36*
X100246742Y-66726601D02*
G01*
X100400687Y-66790367D01*
X100539234Y-66882941D01*
X100657059Y-67000766D01*
X100749633Y-67139313D01*
X100813399Y-67293258D01*
X100845907Y-67456685D01*
X100845907Y-67623315D01*
X100813399Y-67786742D01*
X100749633Y-67940687D01*
X100657059Y-68079234D01*
X100539234Y-68197059D01*
X100400687Y-68289633D01*
X100246742Y-68353399D01*
X100083315Y-68385907D01*
X99916685Y-68385907D01*
X99753258Y-68353399D01*
X99599313Y-68289633D01*
X99460766Y-68197059D01*
X99342941Y-68079234D01*
X99250367Y-67940687D01*
X99186601Y-67786742D01*
X99154093Y-67623315D01*
X99154093Y-67456685D01*
X99186601Y-67293258D01*
X99250367Y-67139313D01*
X99342941Y-67000766D01*
X99460766Y-66882941D01*
X99599313Y-66790367D01*
X99753258Y-66726601D01*
X99916685Y-66694093D01*
X100083315Y-66694093D01*
X100246742Y-66726601D01*
G37*
G36*
X140263881Y-63699470D02*
G01*
X140446894Y-63745101D01*
X140620516Y-63818799D01*
X140780471Y-63918750D01*
X140922821Y-64042493D01*
X141044061Y-64186981D01*
X141141205Y-64348656D01*
X141211861Y-64523537D01*
X141254290Y-64707319D01*
X141267448Y-64895475D01*
X141251010Y-65083373D01*
X141205379Y-65266386D01*
X141131681Y-65440008D01*
X141031730Y-65599963D01*
X140907987Y-65742313D01*
X140838125Y-65805771D01*
X138693201Y-67605577D01*
X138618575Y-67663359D01*
X138456901Y-67760503D01*
X138282019Y-67831159D01*
X138098237Y-67873588D01*
X137910081Y-67886747D01*
X137722183Y-67870308D01*
X137539170Y-67824677D01*
X137365548Y-67750979D01*
X137205593Y-67651028D01*
X137063243Y-67527286D01*
X136942003Y-67382797D01*
X136844859Y-67221123D01*
X136774203Y-67046241D01*
X136731774Y-66862459D01*
X136718615Y-66674303D01*
X136735054Y-66486405D01*
X136780685Y-66303392D01*
X136854383Y-66129770D01*
X136954334Y-65969815D01*
X137078076Y-65827465D01*
X137147939Y-65764007D01*
X137148825Y-65763262D01*
X137148840Y-65763250D01*
X139291965Y-63964954D01*
X139291972Y-63964947D01*
X139292863Y-63964201D01*
X139367489Y-63906419D01*
X139529163Y-63809275D01*
X139704045Y-63738619D01*
X139887827Y-63696190D01*
X140075983Y-63683032D01*
X140263881Y-63699470D01*
G37*
G36*
X75483803Y-65821156D02*
G01*
X75643544Y-65887322D01*
X75787307Y-65983382D01*
X75909567Y-66105642D01*
X76005627Y-66249405D01*
X76071793Y-66409146D01*
X76105525Y-66578726D01*
X76105525Y-66751628D01*
X76071793Y-66921208D01*
X76005627Y-67080949D01*
X75909567Y-67224712D01*
X75787307Y-67346972D01*
X75643544Y-67443032D01*
X75483803Y-67509198D01*
X75314223Y-67542930D01*
X75141321Y-67542930D01*
X74971741Y-67509198D01*
X74812000Y-67443032D01*
X74668237Y-67346972D01*
X74545977Y-67224712D01*
X74449917Y-67080949D01*
X74383751Y-66921208D01*
X74350019Y-66751628D01*
X74350019Y-66578726D01*
X74383751Y-66409146D01*
X74449917Y-66249405D01*
X74545977Y-66105642D01*
X74668237Y-65983382D01*
X74812000Y-65887322D01*
X74971741Y-65821156D01*
X75141321Y-65787424D01*
X75314223Y-65787424D01*
X75483803Y-65821156D01*
G37*
G36*
X116923689Y-64707344D02*
G01*
X117734319Y-65865043D01*
X117734320Y-65865046D01*
X117737710Y-65869887D01*
X115876419Y-67173176D01*
X115711346Y-67288762D01*
X115689829Y-67303828D01*
X115063366Y-66409146D01*
X114259278Y-65260790D01*
X114259276Y-65260785D01*
X114255888Y-65255947D01*
X114698434Y-64946073D01*
X116298925Y-63825396D01*
X116298931Y-63825392D01*
X116303769Y-63822006D01*
X116923689Y-64707344D01*
G37*
G36*
X143491894Y-62049984D02*
G01*
X143701552Y-62102257D01*
X143900451Y-62186685D01*
X144083694Y-62301189D01*
X144246769Y-62442947D01*
X144319466Y-62522981D01*
X146344246Y-64936020D01*
X146410440Y-65021511D01*
X146521727Y-65206725D01*
X146602671Y-65407067D01*
X146651278Y-65617606D01*
X146666350Y-65833156D01*
X146647518Y-66048410D01*
X146595245Y-66258068D01*
X146510816Y-66456967D01*
X146396313Y-66640210D01*
X146254554Y-66803285D01*
X146089030Y-66942176D01*
X145903817Y-67053463D01*
X145703474Y-67134407D01*
X145492936Y-67183014D01*
X145277386Y-67198086D01*
X145062132Y-67179254D01*
X144852474Y-67126981D01*
X144653575Y-67042552D01*
X144470332Y-66928049D01*
X144307257Y-66786290D01*
X144234559Y-66706257D01*
X144233813Y-66705368D01*
X144233803Y-66705357D01*
X142615274Y-64776466D01*
X142209780Y-64293217D01*
X142143586Y-64207727D01*
X142032299Y-64022513D01*
X141951355Y-63822171D01*
X141902747Y-63611632D01*
X141887675Y-63396082D01*
X141906508Y-63180828D01*
X141958781Y-62971170D01*
X142043209Y-62772271D01*
X142157713Y-62589028D01*
X142299471Y-62425953D01*
X142464995Y-62287062D01*
X142650209Y-62175775D01*
X142850551Y-62094831D01*
X143061090Y-62046223D01*
X143276640Y-62031151D01*
X143491894Y-62049984D01*
G37*
G36*
X73538050Y-64188476D02*
G01*
X73697791Y-64254642D01*
X73841554Y-64350702D01*
X73963814Y-64472962D01*
X74059874Y-64616725D01*
X74126040Y-64776466D01*
X74159772Y-64946046D01*
X74159772Y-65118948D01*
X74126040Y-65288528D01*
X74059874Y-65448269D01*
X73963814Y-65592032D01*
X73841554Y-65714292D01*
X73697791Y-65810352D01*
X73538050Y-65876518D01*
X73368470Y-65910250D01*
X73195568Y-65910250D01*
X73025988Y-65876518D01*
X72866247Y-65810352D01*
X72722484Y-65714292D01*
X72600224Y-65592032D01*
X72504164Y-65448269D01*
X72437998Y-65288528D01*
X72404266Y-65118948D01*
X72404266Y-64946046D01*
X72437998Y-64776466D01*
X72504164Y-64616725D01*
X72600224Y-64472962D01*
X72722484Y-64350702D01*
X72866247Y-64254642D01*
X73025988Y-64188476D01*
X73195568Y-64154744D01*
X73368470Y-64154744D01*
X73538050Y-64188476D01*
G37*
G36*
X100850000Y-65850000D02*
G01*
X99150000Y-65850000D01*
X99150000Y-64150000D01*
X100850000Y-64150000D01*
X100850000Y-65850000D01*
G37*
G36*
X71592297Y-62555795D02*
G01*
X71752038Y-62621961D01*
X71895801Y-62718021D01*
X72018061Y-62840281D01*
X72114121Y-62984044D01*
X72180287Y-63143785D01*
X72214019Y-63313365D01*
X72214019Y-63486267D01*
X72180287Y-63655847D01*
X72114121Y-63815588D01*
X72018061Y-63959351D01*
X71895801Y-64081611D01*
X71752038Y-64177671D01*
X71592297Y-64243837D01*
X71422717Y-64277569D01*
X71249815Y-64277569D01*
X71080235Y-64243837D01*
X70920494Y-64177671D01*
X70776731Y-64081611D01*
X70654471Y-63959351D01*
X70558411Y-63815588D01*
X70492245Y-63655847D01*
X70458513Y-63486267D01*
X70458513Y-63313365D01*
X70492245Y-63143785D01*
X70558411Y-62984044D01*
X70654471Y-62840281D01*
X70776731Y-62718021D01*
X70920494Y-62621961D01*
X71080235Y-62555795D01*
X71249815Y-62522063D01*
X71422717Y-62522063D01*
X71592297Y-62555795D01*
G37*
G36*
X69646544Y-60923115D02*
G01*
X69806285Y-60989281D01*
X69950048Y-61085341D01*
X70072308Y-61207601D01*
X70168368Y-61351364D01*
X70234534Y-61511105D01*
X70268266Y-61680685D01*
X70268266Y-61853587D01*
X70234534Y-62023167D01*
X70168368Y-62182908D01*
X70072308Y-62326671D01*
X69950048Y-62448931D01*
X69806285Y-62544991D01*
X69646544Y-62611157D01*
X69476964Y-62644889D01*
X69304062Y-62644889D01*
X69134482Y-62611157D01*
X68974741Y-62544991D01*
X68830978Y-62448931D01*
X68708718Y-62326671D01*
X68612658Y-62182908D01*
X68546492Y-62023167D01*
X68512760Y-61853587D01*
X68512760Y-61680685D01*
X68546492Y-61511105D01*
X68612658Y-61351364D01*
X68708718Y-61207601D01*
X68830978Y-61085341D01*
X68974741Y-60989281D01*
X69134482Y-60923115D01*
X69304062Y-60889383D01*
X69476964Y-60889383D01*
X69646544Y-60923115D01*
G37*
G36*
X67700791Y-59290434D02*
G01*
X67860532Y-59356600D01*
X68004295Y-59452660D01*
X68126555Y-59574920D01*
X68222615Y-59718683D01*
X68288781Y-59878424D01*
X68322513Y-60048004D01*
X68322513Y-60220906D01*
X68288781Y-60390486D01*
X68222615Y-60550227D01*
X68126555Y-60693990D01*
X68004295Y-60816250D01*
X67860532Y-60912310D01*
X67700791Y-60978476D01*
X67531211Y-61012208D01*
X67358309Y-61012208D01*
X67188729Y-60978476D01*
X67028988Y-60912310D01*
X66885225Y-60816250D01*
X66762965Y-60693990D01*
X66666905Y-60550227D01*
X66600739Y-60390486D01*
X66567007Y-60220906D01*
X66567007Y-60048004D01*
X66600739Y-59878424D01*
X66666905Y-59718683D01*
X66762965Y-59574920D01*
X66885225Y-59452660D01*
X67028988Y-59356600D01*
X67188729Y-59290434D01*
X67358309Y-59256702D01*
X67531211Y-59256702D01*
X67700791Y-59290434D01*
G37*
G36*
X82057435Y-59183348D02*
G01*
X79566948Y-59401237D01*
X79405044Y-57550666D01*
X79349573Y-56916635D01*
X79349573Y-56916630D01*
X79349059Y-56910750D01*
X80994309Y-56766809D01*
X81833660Y-56693375D01*
X81833664Y-56693375D01*
X81839546Y-56692861D01*
X82057435Y-59183348D01*
G37*
G36*
X65755038Y-57657753D02*
G01*
X65914779Y-57723919D01*
X66058542Y-57819979D01*
X66180802Y-57942239D01*
X66276862Y-58086002D01*
X66343028Y-58245743D01*
X66376760Y-58415323D01*
X66376760Y-58588225D01*
X66343028Y-58757805D01*
X66276862Y-58917546D01*
X66180802Y-59061309D01*
X66058542Y-59183569D01*
X65914779Y-59279629D01*
X65755038Y-59345795D01*
X65585458Y-59379527D01*
X65412556Y-59379527D01*
X65242976Y-59345795D01*
X65083235Y-59279629D01*
X64939472Y-59183569D01*
X64817212Y-59061309D01*
X64721152Y-58917546D01*
X64654986Y-58757805D01*
X64621254Y-58588225D01*
X64621254Y-58415323D01*
X64654986Y-58245743D01*
X64721152Y-58086002D01*
X64817212Y-57942239D01*
X64939472Y-57819979D01*
X65083235Y-57723919D01*
X65242976Y-57657753D01*
X65412556Y-57624021D01*
X65585458Y-57624021D01*
X65755038Y-57657753D01*
G37*
G36*
X137317061Y-56471938D02*
G01*
X136224322Y-57774213D01*
X134922047Y-56681474D01*
X135352098Y-56168958D01*
X136010989Y-55383723D01*
X136010991Y-55383720D01*
X136014786Y-55379199D01*
X137317061Y-56471938D01*
G37*
G36*
X63809285Y-56025073D02*
G01*
X63969026Y-56091239D01*
X64112789Y-56187299D01*
X64235049Y-56309559D01*
X64331109Y-56453322D01*
X64397275Y-56613063D01*
X64431007Y-56782643D01*
X64431007Y-56955545D01*
X64397275Y-57125125D01*
X64331109Y-57284866D01*
X64235049Y-57428629D01*
X64112789Y-57550889D01*
X63969026Y-57646949D01*
X63809285Y-57713115D01*
X63639705Y-57746847D01*
X63466803Y-57746847D01*
X63297223Y-57713115D01*
X63137482Y-57646949D01*
X62993719Y-57550889D01*
X62871459Y-57428629D01*
X62775399Y-57284866D01*
X62709233Y-57125125D01*
X62675501Y-56955545D01*
X62675501Y-56782643D01*
X62709233Y-56613063D01*
X62775399Y-56453322D01*
X62871459Y-56309559D01*
X62993719Y-56187299D01*
X63137482Y-56091239D01*
X63297223Y-56025073D01*
X63466803Y-55991341D01*
X63639705Y-55991341D01*
X63809285Y-56025073D01*
G37*
G36*
X73171385Y-55247714D02*
G01*
X73221897Y-55249140D01*
X73239645Y-55255190D01*
X73263437Y-55257796D01*
X73289936Y-55272334D01*
X73310520Y-55279351D01*
X73325240Y-55291702D01*
X73348958Y-55304715D01*
X73365892Y-55325814D01*
X73380610Y-55338164D01*
X73391092Y-55357212D01*
X73410015Y-55380789D01*
X73416712Y-55403769D01*
X73425750Y-55420192D01*
X73435928Y-55469701D01*
X73437309Y-55474438D01*
X73437610Y-55477881D01*
X73437612Y-55477890D01*
X73482533Y-55991341D01*
X73589397Y-57212795D01*
X73588857Y-57217721D01*
X73587432Y-57268220D01*
X73581384Y-57285959D01*
X73578778Y-57309760D01*
X73564233Y-57336271D01*
X73557220Y-57356844D01*
X73544874Y-57371557D01*
X73531859Y-57395281D01*
X73510759Y-57412215D01*
X73498412Y-57426931D01*
X73479366Y-57437411D01*
X73455785Y-57456338D01*
X73432797Y-57463037D01*
X73416377Y-57472074D01*
X73366882Y-57482249D01*
X73362135Y-57483633D01*
X71479330Y-57648358D01*
X71474404Y-57647818D01*
X71423904Y-57646393D01*
X71406159Y-57640344D01*
X71382365Y-57637738D01*
X71355862Y-57623198D01*
X71335281Y-57616182D01*
X71320562Y-57603831D01*
X71296844Y-57590819D01*
X71279909Y-57569719D01*
X71265191Y-57557369D01*
X71254708Y-57538320D01*
X71235787Y-57514745D01*
X71229089Y-57491766D01*
X71220051Y-57475341D01*
X71209870Y-57425823D01*
X71208493Y-57421096D01*
X71208192Y-57417659D01*
X71208189Y-57417643D01*
X71056707Y-55686191D01*
X71056707Y-55686190D01*
X71056405Y-55682739D01*
X71056943Y-55677824D01*
X71058369Y-55627313D01*
X71064418Y-55609568D01*
X71067024Y-55585774D01*
X71081565Y-55559269D01*
X71088581Y-55538689D01*
X71100931Y-55523970D01*
X71113943Y-55500253D01*
X71135037Y-55483322D01*
X71147389Y-55468602D01*
X71166441Y-55458117D01*
X71190017Y-55439196D01*
X71212998Y-55432497D01*
X71229424Y-55423459D01*
X71278933Y-55413280D01*
X71283667Y-55411901D01*
X71287108Y-55411599D01*
X71287118Y-55411598D01*
X73163019Y-55247478D01*
X73166472Y-55247176D01*
X73171385Y-55247714D01*
G37*
G36*
X112939471Y-56481520D02*
G01*
X110448984Y-56699409D01*
X110288119Y-54860710D01*
X110231609Y-54214807D01*
X110231609Y-54214802D01*
X110231095Y-54208922D01*
X111876345Y-54064981D01*
X112715696Y-53991547D01*
X112715700Y-53991547D01*
X112721582Y-53991033D01*
X112939471Y-56481520D01*
G37*
G36*
X134420543Y-54130626D02*
G01*
X134574488Y-54194392D01*
X134713035Y-54286966D01*
X134830860Y-54404791D01*
X134923434Y-54543338D01*
X134987200Y-54697283D01*
X135019708Y-54860710D01*
X135019708Y-55027340D01*
X134987200Y-55190767D01*
X134923434Y-55344712D01*
X134830860Y-55483259D01*
X134713035Y-55601084D01*
X134574488Y-55693658D01*
X134420543Y-55757424D01*
X134257116Y-55789932D01*
X134090486Y-55789932D01*
X133927059Y-55757424D01*
X133773114Y-55693658D01*
X133634567Y-55601084D01*
X133516742Y-55483259D01*
X133424168Y-55344712D01*
X133360402Y-55190767D01*
X133327894Y-55027340D01*
X133327894Y-54860710D01*
X133360402Y-54697283D01*
X133424168Y-54543338D01*
X133516742Y-54404791D01*
X133634567Y-54286966D01*
X133773114Y-54194392D01*
X133927059Y-54130626D01*
X134090486Y-54098118D01*
X134257116Y-54098118D01*
X134420543Y-54130626D01*
G37*
G36*
X72725583Y-50152180D02*
G01*
X72776095Y-50153606D01*
X72793843Y-50159656D01*
X72817635Y-50162262D01*
X72844134Y-50176800D01*
X72864718Y-50183817D01*
X72879438Y-50196168D01*
X72903156Y-50209181D01*
X72920090Y-50230280D01*
X72934808Y-50242630D01*
X72945290Y-50261678D01*
X72964213Y-50285255D01*
X72970910Y-50308235D01*
X72979948Y-50324658D01*
X72990126Y-50374167D01*
X72991507Y-50378904D01*
X72991808Y-50382347D01*
X72991810Y-50382356D01*
X73062473Y-51190040D01*
X73143595Y-52117261D01*
X73143055Y-52122187D01*
X73141630Y-52172686D01*
X73135582Y-52190425D01*
X73132976Y-52214226D01*
X73118431Y-52240737D01*
X73111418Y-52261310D01*
X73099072Y-52276023D01*
X73086057Y-52299747D01*
X73064957Y-52316681D01*
X73052610Y-52331397D01*
X73033564Y-52341877D01*
X73009983Y-52360804D01*
X72986995Y-52367503D01*
X72970575Y-52376540D01*
X72921080Y-52386715D01*
X72916333Y-52388099D01*
X71033528Y-52552824D01*
X71028602Y-52552284D01*
X70978102Y-52550859D01*
X70960357Y-52544810D01*
X70936563Y-52542204D01*
X70910060Y-52527664D01*
X70889479Y-52520648D01*
X70874760Y-52508297D01*
X70851042Y-52495285D01*
X70834107Y-52474185D01*
X70819389Y-52461835D01*
X70808906Y-52442786D01*
X70789985Y-52419211D01*
X70783287Y-52396232D01*
X70774249Y-52379807D01*
X70764068Y-52330289D01*
X70762691Y-52325562D01*
X70762390Y-52322125D01*
X70762387Y-52322109D01*
X70610905Y-50590657D01*
X70610905Y-50590656D01*
X70610603Y-50587205D01*
X70611141Y-50582290D01*
X70612567Y-50531779D01*
X70618616Y-50514034D01*
X70621222Y-50490240D01*
X70635763Y-50463735D01*
X70642779Y-50443155D01*
X70655129Y-50428436D01*
X70668141Y-50404719D01*
X70689235Y-50387788D01*
X70701587Y-50373068D01*
X70720639Y-50362583D01*
X70744215Y-50343662D01*
X70767196Y-50336963D01*
X70783622Y-50327925D01*
X70833131Y-50317746D01*
X70837865Y-50316367D01*
X70841306Y-50316065D01*
X70841316Y-50316064D01*
X72717217Y-50151944D01*
X72720670Y-50151642D01*
X72725583Y-50152180D01*
G37*
G36*
X81368905Y-51313410D02*
G01*
X78878418Y-51531299D01*
X78727766Y-49809344D01*
X78661043Y-49046697D01*
X78661043Y-49046692D01*
X78660529Y-49040812D01*
X80305779Y-48896871D01*
X81145130Y-48823437D01*
X81145134Y-48823437D01*
X81151016Y-48822923D01*
X81368905Y-51313410D01*
G37*
G36*
X122749848Y-49870964D02*
G01*
X122800040Y-49876787D01*
X122817189Y-49884359D01*
X122840670Y-49889030D01*
X122865807Y-49905826D01*
X122885695Y-49914608D01*
X122899278Y-49928191D01*
X122921776Y-49943224D01*
X122936808Y-49965721D01*
X122950391Y-49979304D01*
X122959171Y-49999189D01*
X122975970Y-50024330D01*
X122980640Y-50047811D01*
X122988212Y-50064959D01*
X122994036Y-50115163D01*
X122994999Y-50120002D01*
X122994999Y-50123458D01*
X122995000Y-50123467D01*
X122995000Y-50719449D01*
X122995000Y-51134999D01*
X122994034Y-51139851D01*
X122988212Y-51190040D01*
X122980641Y-51207185D01*
X122975970Y-51230670D01*
X122959170Y-51255812D01*
X122950391Y-51275695D01*
X122936810Y-51289275D01*
X122921776Y-51311776D01*
X122899275Y-51326810D01*
X122885695Y-51340391D01*
X122865812Y-51349170D01*
X122840670Y-51365970D01*
X122817187Y-51370640D01*
X122800040Y-51378212D01*
X122749836Y-51384036D01*
X122744998Y-51384999D01*
X122741541Y-51384999D01*
X122741533Y-51385000D01*
X120858467Y-51385000D01*
X120858466Y-51384999D01*
X120855001Y-51385000D01*
X120850149Y-51384035D01*
X120799959Y-51378212D01*
X120782812Y-51370640D01*
X120759330Y-51365970D01*
X120734189Y-51349171D01*
X120714304Y-51340391D01*
X120700721Y-51326808D01*
X120678224Y-51311776D01*
X120663191Y-51289278D01*
X120649608Y-51275695D01*
X120640826Y-51255807D01*
X120624030Y-51230670D01*
X120619360Y-51207191D01*
X120611787Y-51190040D01*
X120605963Y-51139836D01*
X120605001Y-51134998D01*
X120605000Y-51131540D01*
X120605000Y-51131532D01*
X120605000Y-50123467D01*
X120605000Y-50123466D01*
X120605000Y-50120001D01*
X120605964Y-50115151D01*
X120611787Y-50064959D01*
X120619359Y-50047808D01*
X120624030Y-50024330D01*
X120640825Y-49999193D01*
X120649608Y-49979304D01*
X120663193Y-49965718D01*
X120678224Y-49943224D01*
X120700718Y-49928193D01*
X120714304Y-49914608D01*
X120734193Y-49905825D01*
X120759330Y-49889030D01*
X120782807Y-49884360D01*
X120799959Y-49876787D01*
X120850165Y-49870963D01*
X120855002Y-49870001D01*
X120858458Y-49870000D01*
X120858467Y-49870000D01*
X122741533Y-49870000D01*
X122744999Y-49870000D01*
X122749848Y-49870964D01*
G37*
G36*
X114146804Y-50202400D02*
G01*
X108169636Y-50725334D01*
X107827085Y-46809959D01*
X107647216Y-44754052D01*
X107647216Y-44754047D01*
X107646702Y-44748166D01*
X110207071Y-44524162D01*
X113617983Y-44225746D01*
X113617988Y-44225746D01*
X113623870Y-44225232D01*
X114146804Y-50202400D01*
G37*
G36*
X122749848Y-46615964D02*
G01*
X122800040Y-46621787D01*
X122817189Y-46629359D01*
X122840670Y-46634030D01*
X122865807Y-46650826D01*
X122885695Y-46659608D01*
X122899278Y-46673191D01*
X122921776Y-46688224D01*
X122936808Y-46710721D01*
X122950391Y-46724304D01*
X122959171Y-46744189D01*
X122975970Y-46769330D01*
X122980640Y-46792811D01*
X122988212Y-46809959D01*
X122994036Y-46860163D01*
X122994999Y-46865002D01*
X122994999Y-46868458D01*
X122995000Y-46868467D01*
X122995000Y-47876532D01*
X122995000Y-47879999D01*
X122994034Y-47884851D01*
X122988212Y-47935040D01*
X122980641Y-47952185D01*
X122975970Y-47975670D01*
X122959170Y-48000812D01*
X122950391Y-48020695D01*
X122936810Y-48034275D01*
X122921776Y-48056776D01*
X122899275Y-48071810D01*
X122885695Y-48085391D01*
X122865812Y-48094170D01*
X122840670Y-48110970D01*
X122817187Y-48115640D01*
X122800040Y-48123212D01*
X122749836Y-48129036D01*
X122744998Y-48129999D01*
X122741541Y-48129999D01*
X122741533Y-48130000D01*
X120858467Y-48130000D01*
X120858466Y-48129999D01*
X120855001Y-48130000D01*
X120850149Y-48129035D01*
X120799959Y-48123212D01*
X120782812Y-48115640D01*
X120759330Y-48110970D01*
X120734189Y-48094171D01*
X120714304Y-48085391D01*
X120700721Y-48071808D01*
X120678224Y-48056776D01*
X120663191Y-48034278D01*
X120649608Y-48020695D01*
X120640826Y-48000807D01*
X120624030Y-47975670D01*
X120619360Y-47952191D01*
X120611787Y-47935040D01*
X120605963Y-47884836D01*
X120605001Y-47879998D01*
X120605000Y-47876540D01*
X120605000Y-47876532D01*
X120605000Y-46868467D01*
X120605000Y-46868466D01*
X120605000Y-46865001D01*
X120605964Y-46860151D01*
X120611787Y-46809959D01*
X120619359Y-46792808D01*
X120624030Y-46769330D01*
X120640825Y-46744193D01*
X120649608Y-46724304D01*
X120663193Y-46710718D01*
X120678224Y-46688224D01*
X120700718Y-46673193D01*
X120714304Y-46659608D01*
X120734193Y-46650825D01*
X120759330Y-46634030D01*
X120782807Y-46629360D01*
X120799959Y-46621787D01*
X120850165Y-46615963D01*
X120855002Y-46615001D01*
X120858458Y-46615000D01*
X120858467Y-46615000D01*
X122741533Y-46615000D01*
X122744999Y-46615000D01*
X122749848Y-46615964D01*
G37*
M02*
