  0
SECTION
  2
HEADER
  9
$ANGBASE
  50
0.0
  9
$ANGDIR
  70
1
  9
$MEASUREMENT
  70
1
  0
ENDSEC
  0
SECTION
  2
TABLES
  0
TABLE
  2
LTYPE
  70
4
  0
LTYPE
  5
40F
  2
CONTINUOUS
  70
0
  3
Solid line
  72
65
  73
0
  40
0.0
  0
LTYPE
  5
410
  2
DASHDOT
 70
0
  3
Dash Dot ____ _ ____ _
 72
65
 73
4
 40
2.0
 49
1.25
 49
-0.25
 49
0.25
 49
-0.25
  0
LTYPE
  5
411
  2
DASHED
 70
0
  3
Dashed __ __ __ __ __
 72
65
 73
2
 40
0.75
 49
0.5
 49
-0.25
  0
LTYPE
  5
43B
  2
DOTTED
 70
0
  3
Dotted .  .  .  .
 72
65
 73
2
 40
0.2
 49
0.0
 49
-0.2
  0
ENDTAB
  0
TABLE
  2
STYLE
  70
4
  0
STYLE
  2
KICAD
  70
0
  40
0
  41
1
  42
1
  50
0
  71
0
  3
isocp.shx
  0
STYLE
  2
KICADB
  70
0
  40
0
  41
1
  42
1
  50
0
  71
0
  3
isocp.shx
  0
STYLE
  2
KICADI
  70
0
  40
0
  41
1
  42
1
  50
15
  71
0
  3
isocp.shx
  0
STYLE
  2
KICADBI
  70
0
  40
0
  41
1
  42
1
  50
15
  71
0
  3
isocp.shx
  0
ENDTAB
  0
TABLE
  2
LAYER
  70
1
  0
LAYER
  2
BLACK
  70
0
  62
7
  6
CONTINUOUS
  0
ENDTAB
  0
ENDSEC
  0
SECTION
  2
ENTITIES
0
CIRCLE
8
BLACK
10
100.
20
-100.
40
4.
0
CIRCLE
8
BLACK
10
100.
20
-100.
40
60.
0
LINE
8
BLACK
6
CONTINUOUS
10
44.4199999999999946
20
-86.1599999999999966
11
44.7199999999999989
21
-86.4599999999999937
0
LINE
8
BLACK
6
CONTINUOUS
10
44.7199999999999989
20
-86.1599999999999966
11
44.4199999999999946
21
-86.4599999999999937
0
LINE
8
BLACK
6
CONTINUOUS
10
48.0300000000000011
20
-86.7539510000000007
11
48.3299999999999983
21
-87.0539509999999979
0
LINE
8
BLACK
6
CONTINUOUS
10
48.3299999999999983
20
-86.7539510000000007
11
48.0300000000000011
21
-87.0539509999999979
0
LINE
8
BLACK
6
CONTINUOUS
10
51.4499999999999957
20
-87.31664099999999
11
51.75
21
-87.6166410000000013
0
LINE
8
BLACK
6
CONTINUOUS
10
51.75
20
-87.31664099999999
11
51.4499999999999957
21
-87.6166410000000013
0
LINE
8
BLACK
6
CONTINUOUS
10
54.8900000000000006
20
-87.7299999999999898
11
55.1899999999999977
21
-88.0300000000000011
0
LINE
8
BLACK
6
CONTINUOUS
10
55.1899999999999977
20
-87.7299999999999898
11
54.8900000000000006
21
-88.0300000000000011
0
LINE
8
BLACK
6
CONTINUOUS
10
58.1499999999999986
20
-88.2599999999999909
11
58.4499999999999957
21
-88.5600000000000023
0
LINE
8
BLACK
6
CONTINUOUS
10
58.4499999999999957
20
-88.2599999999999909
11
58.1499999999999986
21
-88.5600000000000023
0
LINE
8
BLACK
6
CONTINUOUS
10
61.4899999999999949
20
-88.8299999999999983
11
61.7899999999999991
21
-89.1299999999999955
0
LINE
8
BLACK
6
CONTINUOUS
10
61.7899999999999991
20
-88.8299999999999983
11
61.4899999999999949
21
-89.1299999999999955
0
LINE
8
BLACK
6
CONTINUOUS
10
65.1099999999999994
20
-89.3100000000000023
11
65.4099999999999966
21
-89.6099999999999994
0
LINE
8
BLACK
6
CONTINUOUS
10
65.4099999999999966
20
-89.3100000000000023
11
65.1099999999999994
21
-89.6099999999999994
0
LINE
8
BLACK
6
CONTINUOUS
10
68.75
20
-89.9099999999999966
11
69.0499999999999972
21
-90.2099999999999937
0
LINE
8
BLACK
6
CONTINUOUS
10
69.0499999999999972
20
-89.9099999999999966
11
68.75
21
-90.2099999999999937
0
LINE
8
BLACK
6
CONTINUOUS
10
70.0300000000000011
20
-106.6999999999999886
11
70.3299999999999983
21
-107.
0
LINE
8
BLACK
6
CONTINUOUS
10
70.3299999999999983
20
-106.6999999999999886
11
70.0300000000000011
21
-107.
0
LINE
8
BLACK
6
CONTINUOUS
10
72.0699999999999932
20
-90.6199999999999903
11
72.3699999999999903
21
-90.9200000000000017
0
LINE
8
BLACK
6
CONTINUOUS
10
72.3699999999999903
20
-90.6199999999999903
11
72.0699999999999932
21
-90.9200000000000017
0
LINE
8
BLACK
6
CONTINUOUS
10
73.9799999999999898
20
-118.2999999999999972
11
74.2800000000000011
21
-118.5999999999999943
0
LINE
8
BLACK
6
CONTINUOUS
10
74.2800000000000011
20
-118.2999999999999972
11
73.9799999999999898
21
-118.5999999999999943
0
LINE
8
BLACK
6
CONTINUOUS
10
75.3900000000000006
20
-91.0319889999999958
11
75.6899999999999977
21
-91.331988999999993
0
LINE
8
BLACK
6
CONTINUOUS
10
75.6899999999999977
20
-91.0319889999999958
11
75.3900000000000006
21
-91.331988999999993
0
LINE
8
BLACK
6
CONTINUOUS
10
77.8400000000000034
20
-95.0300000000000011
11
78.1400000000000006
21
-95.3299999999999983
0
LINE
8
BLACK
6
CONTINUOUS
10
78.1400000000000006
20
-95.0300000000000011
11
77.8400000000000034
21
-95.3299999999999983
0
LINE
8
BLACK
6
CONTINUOUS
10
78.25
20
-91.3799999999999955
11
78.5499999999999972
21
-91.6799999999999926
0
LINE
8
BLACK
6
CONTINUOUS
10
78.5499999999999972
20
-91.3799999999999955
11
78.25
21
-91.6799999999999926
0
LINE
8
BLACK
6
CONTINUOUS
10
79.0699999999999932
20
-99.3100000000000023
11
79.3699999999999903
21
-99.6099999999999994
0
LINE
8
BLACK
6
CONTINUOUS
10
79.3699999999999903
20
-99.3100000000000023
11
79.0699999999999932
21
-99.6099999999999994
0
LINE
8
BLACK
6
CONTINUOUS
10
81.1899999999999977
20
-118.0999999999999943
11
81.4899999999999949
21
-118.3999999999999915
0
LINE
8
BLACK
6
CONTINUOUS
10
81.4899999999999949
20
-118.0999999999999943
11
81.1899999999999977
21
-118.3999999999999915
0
LINE
8
BLACK
6
CONTINUOUS
10
81.3400000000000034
20
-112.8099999999999881
11
81.6400000000000006
21
-113.1099999999999994
0
LINE
8
BLACK
6
CONTINUOUS
10
81.6400000000000006
20
-112.8099999999999881
11
81.3400000000000034
21
-113.1099999999999994
0
LINE
8
BLACK
6
CONTINUOUS
10
82.6099999999999994
20
-90.8199999999999932
11
82.9099999999999966
21
-91.1199999999999903
0
LINE
8
BLACK
6
CONTINUOUS
10
82.9099999999999966
20
-90.8199999999999932
11
82.6099999999999994
21
-91.1199999999999903
0
LINE
8
BLACK
6
CONTINUOUS
10
83.1799999999999926
20
-84.6700000000000017
11
83.4799999999999898
21
-84.9699999999999989
0
LINE
8
BLACK
6
CONTINUOUS
10
83.4799999999999898
20
-84.6700000000000017
11
83.1799999999999926
21
-84.9699999999999989
0
LINE
8
BLACK
6
CONTINUOUS
10
83.269999999999996
20
-100.7999999999999972
11
83.5699999999999932
21
-101.0999999999999943
0
LINE
8
BLACK
6
CONTINUOUS
10
83.5699999999999932
20
-100.7999999999999972
11
83.269999999999996
21
-101.0999999999999943
0
LINE
8
BLACK
6
CONTINUOUS
10
85.6199999999999903
20
-81.5099999999999909
11
85.9200000000000017
21
-81.8100000000000023
0
LINE
8
BLACK
6
CONTINUOUS
10
85.9200000000000017
20
-81.5099999999999909
11
85.6199999999999903
21
-81.8100000000000023
0
LINE
8
BLACK
6
CONTINUOUS
10
86.039999999999992
20
-155.2599999999999909
11
86.3399999999999892
21
-155.5600000000000023
0
LINE
8
BLACK
6
CONTINUOUS
10
86.3399999999999892
20
-155.2599999999999909
11
86.039999999999992
21
-155.5600000000000023
0
LINE
8
BLACK
6
CONTINUOUS
10
86.6328499999999906
20
-151.7999999999999829
11
86.932850000000002
21
-152.0999999999999943
0
LINE
8
BLACK
6
CONTINUOUS
10
86.932850000000002
20
-151.7999999999999829
11
86.6328499999999906
21
-152.0999999999999943
0
LINE
8
BLACK
6
CONTINUOUS
10
87.2240599999999944
20
-148.6999999999999886
11
87.5240599999999915
21
-149.
0
LINE
8
BLACK
6
CONTINUOUS
10
87.5240599999999915
20
-148.6999999999999886
11
87.2240599999999944
21
-149.
0
LINE
8
BLACK
6
CONTINUOUS
10
87.8100000000000023
20
-106.2599999999999909
11
88.1099999999999994
21
-106.5600000000000023
0
LINE
8
BLACK
6
CONTINUOUS
10
88.1099999999999994
20
-106.2599999999999909
11
87.8100000000000023
21
-106.5600000000000023
0
LINE
8
BLACK
6
CONTINUOUS
10
87.8299999999999983
20
-83.6700000000000017
11
88.1299999999999955
21
-83.9699999999999989
0
LINE
8
BLACK
6
CONTINUOUS
10
88.1299999999999955
20
-83.6700000000000017
11
87.8299999999999983
21
-83.9699999999999989
0
LINE
8
BLACK
6
CONTINUOUS
10
87.9335109999999958
20
-144.9799999999999898
11
88.2335109999999929
21
-145.2800000000000011
0
LINE
8
BLACK
6
CONTINUOUS
10
88.2335109999999929
20
-144.9799999999999898
11
87.9335109999999958
21
-145.2800000000000011
0
LINE
8
BLACK
6
CONTINUOUS
10
88.4200000000000017
20
-97.5799999999999983
11
88.7199999999999989
21
-97.8799999999999955
0
LINE
8
BLACK
6
CONTINUOUS
10
88.7199999999999989
20
-97.5799999999999983
11
88.4200000000000017
21
-97.8799999999999955
0
LINE
8
BLACK
6
CONTINUOUS
10
88.5723979999999926
20
-141.6299999999999955
11
88.8723979999999898
21
-141.9300000000000068
0
LINE
8
BLACK
6
CONTINUOUS
10
88.8723979999999898
20
-141.6299999999999955
11
88.5723979999999926
21
-141.9300000000000068
0
LINE
8
BLACK
6
CONTINUOUS
10
89.2246349999999921
20
-138.2099999999999795
11
89.5246349999999893
21
-138.5099999999999909
0
LINE
8
BLACK
6
CONTINUOUS
10
89.5246349999999893
20
-138.2099999999999795
11
89.2246349999999921
21
-138.5099999999999909
0
LINE
8
BLACK
6
CONTINUOUS
10
89.9207359999999909
20
-134.5600000000000023
11
90.2207360000000023
21
-134.8599999999999852
0
LINE
8
BLACK
6
CONTINUOUS
10
90.2207360000000023
20
-134.5600000000000023
11
89.9207359999999909
21
-134.8599999999999852
0
LINE
8
BLACK
6
CONTINUOUS
10
90.5539019999999937
20
-131.2399999999999807
11
90.8539019999999908
21
-131.539999999999992
0
LINE
8
BLACK
6
CONTINUOUS
10
90.8539019999999908
20
-131.2399999999999807
11
90.5539019999999937
21
-131.539999999999992
0
LINE
8
BLACK
6
CONTINUOUS
10
90.769999999999996
20
-81.1199999999999903
11
91.0699999999999932
21
-81.4200000000000017
0
LINE
8
BLACK
6
CONTINUOUS
10
91.0699999999999932
20
-81.1199999999999903
11
90.769999999999996
21
-81.4200000000000017
0
LINE
8
BLACK
6
CONTINUOUS
10
90.7800000000000011
20
-87.6899999999999977
11
91.0799999999999983
21
-87.9899999999999949
0
LINE
8
BLACK
6
CONTINUOUS
10
91.0799999999999983
20
-87.6899999999999977
11
90.7800000000000011
21
-87.9899999999999949
0
LINE
8
BLACK
6
CONTINUOUS
10
91.2061389999999932
20
-127.8199999999999932
11
91.5061389999999903
21
-128.1200000000000045
0
LINE
8
BLACK
6
CONTINUOUS
10
91.5061389999999903
20
-127.8199999999999932
11
91.2061389999999932
21
-128.1200000000000045
0
LINE
8
BLACK
6
CONTINUOUS
10
91.289999999999992
20
-91.8900000000000006
11
91.5899999999999892
21
-92.1899999999999977
0
LINE
8
BLACK
6
CONTINUOUS
10
91.5899999999999892
20
-91.8900000000000006
11
91.289999999999992
21
-92.1899999999999977
0
LINE
8
BLACK
6
CONTINUOUS
10
91.8450259999999901
20
-124.4699999999999989
11
92.1450260000000014
21
-124.769999999999996
0
LINE
8
BLACK
6
CONTINUOUS
10
92.1450260000000014
20
-124.4699999999999989
11
91.8450259999999901
21
-124.769999999999996
0
LINE
8
BLACK
6
CONTINUOUS
10
92.3999999999999915
20
-121.5599999999999881
11
92.7000000000000028
21
-121.8599999999999994
0
LINE
8
BLACK
6
CONTINUOUS
10
92.7000000000000028
20
-121.5599999999999881
11
92.3999999999999915
21
-121.8599999999999994
0
LINE
8
BLACK
6
CONTINUOUS
10
96.8199999999999932
20
-117.0499999999999972
11
97.1199999999999903
21
-117.3499999999999943
0
LINE
8
BLACK
6
CONTINUOUS
10
97.1199999999999903
20
-117.0499999999999972
11
96.8199999999999932
21
-117.3499999999999943
0
LINE
8
BLACK
6
CONTINUOUS
10
98.7199999999999989
20
-76.9500000000000028
11
99.019999999999996
21
-77.25
0
LINE
8
BLACK
6
CONTINUOUS
10
99.019999999999996
20
-76.9500000000000028
11
98.7199999999999989
21
-77.25
0
LINE
8
BLACK
6
CONTINUOUS
10
99.269999999999996
20
-87.9599999999999937
11
99.5699999999999932
21
-88.2599999999999909
0
LINE
8
BLACK
6
CONTINUOUS
10
99.5699999999999932
20
-87.9599999999999937
11
99.269999999999996
21
-88.2599999999999909
0
LINE
8
BLACK
6
CONTINUOUS
10
99.9799999999999898
20
-118.5899999999999892
11
100.2800000000000011
21
-118.8900000000000006
0
LINE
8
BLACK
6
CONTINUOUS
10
100.2800000000000011
20
-118.5899999999999892
11
99.9799999999999898
21
-118.8900000000000006
0
LINE
8
BLACK
6
CONTINUOUS
10
100.9899999999999949
20
-109.5799999999999983
11
101.289999999999992
21
-109.8799999999999955
0
LINE
8
BLACK
6
CONTINUOUS
10
101.289999999999992
20
-109.5799999999999983
11
100.9899999999999949
21
-109.8799999999999955
0
LINE
8
BLACK
6
CONTINUOUS
10
104.3299999999999983
20
-76.7999999999999972
11
104.6299999999999955
21
-77.0999999999999943
0
LINE
8
BLACK
6
CONTINUOUS
10
104.6299999999999955
20
-76.7999999999999972
11
104.3299999999999983
21
-77.0999999999999943
0
LINE
8
BLACK
6
CONTINUOUS
10
104.4099999999999966
20
-87.9899999999999949
11
104.7099999999999937
21
-88.289999999999992
0
LINE
8
BLACK
6
CONTINUOUS
10
104.7099999999999937
20
-87.9899999999999949
11
104.4099999999999966
21
-88.289999999999992
0
LINE
8
BLACK
6
CONTINUOUS
10
104.6999999999999886
20
-122.7999999999999972
11
105.
21
-123.0999999999999943
0
LINE
8
BLACK
6
CONTINUOUS
10
105.
20
-122.7999999999999972
11
104.6999999999999886
21
-123.0999999999999943
0
LINE
8
BLACK
6
CONTINUOUS
10
104.75
20
-118.2299999999999898
11
105.0499999999999972
21
-118.5300000000000011
0
LINE
8
BLACK
6
CONTINUOUS
10
105.0499999999999972
20
-118.2299999999999898
11
104.75
21
-118.5300000000000011
0
LINE
8
BLACK
6
CONTINUOUS
10
106.6999999999999886
20
-117.539999999999992
11
107.
21
-117.8399999999999892
0
LINE
8
BLACK
6
CONTINUOUS
10
107.
20
-117.539999999999992
11
106.6999999999999886
21
-117.8399999999999892
0
LINE
8
BLACK
6
CONTINUOUS
10
109.039999999999992
20
-85.7399999999999949
11
109.3399999999999892
21
-86.039999999999992
0
LINE
8
BLACK
6
CONTINUOUS
10
109.3399999999999892
20
-85.7399999999999949
11
109.039999999999992
21
-86.039999999999992
0
LINE
8
BLACK
6
CONTINUOUS
10
109.289999999999992
20
-112.9299999999999926
11
109.5899999999999892
21
-113.2299999999999898
0
LINE
8
BLACK
6
CONTINUOUS
10
109.5899999999999892
20
-112.9299999999999926
11
109.289999999999992
21
-113.2299999999999898
0
LINE
8
BLACK
6
CONTINUOUS
10
111.2399999999999949
20
-75.3400000000000034
11
111.539999999999992
21
-75.6400000000000006
0
LINE
8
BLACK
6
CONTINUOUS
10
111.539999999999992
20
-75.3400000000000034
11
111.2399999999999949
21
-75.6400000000000006
0
LINE
8
BLACK
6
CONTINUOUS
10
111.7599999999999909
20
-80.5699999999999932
11
112.0599999999999881
21
-80.8699999999999903
0
LINE
8
BLACK
6
CONTINUOUS
10
112.0599999999999881
20
-80.5699999999999932
11
111.7599999999999909
21
-80.8699999999999903
0
LINE
8
BLACK
6
CONTINUOUS
10
111.8599999999999994
20
-71.6599999999999966
11
112.1599999999999966
21
-71.9599999999999937
0
LINE
8
BLACK
6
CONTINUOUS
10
112.1599999999999966
20
-71.6599999999999966
11
111.8599999999999994
21
-71.9599999999999937
0
LINE
8
BLACK
6
CONTINUOUS
10
112.3799999999999955
20
-68.1400000000000006
11
112.6799999999999926
21
-68.4399999999999977
0
LINE
8
BLACK
6
CONTINUOUS
10
112.6799999999999926
20
-68.1400000000000006
11
112.3799999999999955
21
-68.4399999999999977
0
LINE
8
BLACK
6
CONTINUOUS
10
112.3999999999999915
20
-105.7599999999999909
11
112.6999999999999886
21
-106.0600000000000023
0
LINE
8
BLACK
6
CONTINUOUS
10
112.6999999999999886
20
-105.7599999999999909
11
112.3999999999999915
21
-106.0600000000000023
0
LINE
8
BLACK
6
CONTINUOUS
10
112.8599999999999994
20
-64.9099999999999966
11
113.1599999999999966
21
-65.2099999999999937
0
LINE
8
BLACK
6
CONTINUOUS
10
113.1599999999999966
20
-64.9099999999999966
11
112.8599999999999994
21
-65.2099999999999937
0
LINE
8
BLACK
6
CONTINUOUS
10
113.4399999999999977
20
-61.519999999999996
11
113.7399999999999949
21
-61.8200000000000003
0
LINE
8
BLACK
6
CONTINUOUS
10
113.7399999999999949
20
-61.519999999999996
11
113.4399999999999977
21
-61.8200000000000003
0
LINE
8
BLACK
6
CONTINUOUS
10
113.9899999999999949
20
-58.009999999999998
11
114.289999999999992
21
-58.3099999999999952
0
LINE
8
BLACK
6
CONTINUOUS
10
114.289999999999992
20
-58.009999999999998
11
113.9899999999999949
21
-58.3099999999999952
0
LINE
8
BLACK
6
CONTINUOUS
10
114.5699999999999932
20
-54.4600000000000009
11
114.8699999999999903
21
-54.759999999999998
0
LINE
8
BLACK
6
CONTINUOUS
10
114.8699999999999903
20
-54.4600000000000009
11
114.5699999999999932
21
-54.759999999999998
0
LINE
8
BLACK
6
CONTINUOUS
10
115.0499999999999972
20
-50.8699999999999974
11
115.3499999999999943
21
-51.1699999999999946
0
LINE
8
BLACK
6
CONTINUOUS
10
115.3499999999999943
20
-50.8699999999999974
11
115.0499999999999972
21
-51.1699999999999946
0
LINE
8
BLACK
6
CONTINUOUS
10
115.5099999999999909
20
-47.7100000000000009
11
115.8099999999999881
21
-48.009999999999998
0
LINE
8
BLACK
6
CONTINUOUS
10
115.8099999999999881
20
-47.7100000000000009
11
115.5099999999999909
21
-48.009999999999998
0
LINE
8
BLACK
6
CONTINUOUS
10
115.6899999999999977
20
-108.3999999999999915
11
115.9899999999999949
21
-108.6999999999999886
0
LINE
8
BLACK
6
CONTINUOUS
10
115.9899999999999949
20
-108.3999999999999915
11
115.6899999999999977
21
-108.6999999999999886
0
LINE
8
BLACK
6
CONTINUOUS
10
115.9299999999999926
20
-45.1299999999999955
11
116.2299999999999898
21
-45.4299999999999997
0
LINE
8
BLACK
6
CONTINUOUS
10
116.2299999999999898
20
-45.1299999999999955
11
115.9299999999999926
21
-45.4299999999999997
0
LINE
8
BLACK
6
CONTINUOUS
10
116.0499999999999972
20
-85.7399999999999949
11
116.3499999999999943
21
-86.039999999999992
0
LINE
8
BLACK
6
CONTINUOUS
10
116.3499999999999943
20
-85.7399999999999949
11
116.0499999999999972
21
-86.039999999999992
0
LINE
8
BLACK
6
CONTINUOUS
10
116.8999999999999915
20
-112.1099999999999994
11
117.1999999999999886
21
-112.4099999999999966
0
LINE
8
BLACK
6
CONTINUOUS
10
117.1999999999999886
20
-112.1099999999999994
11
116.8999999999999915
21
-112.4099999999999966
0
LINE
8
BLACK
6
CONTINUOUS
10
118.5699999999999932
20
-103.7800000000000011
11
118.8699999999999903
21
-104.0799999999999983
0
LINE
8
BLACK
6
CONTINUOUS
10
118.8699999999999903
20
-103.7800000000000011
11
118.5699999999999932
21
-104.0799999999999983
0
LINE
8
BLACK
6
CONTINUOUS
10
119.3599999999999994
20
-125.1499999999999915
11
119.6599999999999966
21
-125.4499999999999886
0
LINE
8
BLACK
6
CONTINUOUS
10
119.6599999999999966
20
-125.1499999999999915
11
119.3599999999999994
21
-125.4499999999999886
0
LINE
8
BLACK
6
CONTINUOUS
10
119.3799999999999955
20
-117.6599999999999966
11
119.6799999999999926
21
-117.9599999999999937
0
LINE
8
BLACK
6
CONTINUOUS
10
119.6799999999999926
20
-117.6599999999999966
11
119.3799999999999955
21
-117.9599999999999937
0
LINE
8
BLACK
6
CONTINUOUS
10
119.5499999999999972
20
-111.039999999999992
11
119.8499999999999943
21
-111.3399999999999892
0
LINE
8
BLACK
6
CONTINUOUS
10
119.8499999999999943
20
-111.039999999999992
11
119.5499999999999972
21
-111.3399999999999892
0
LINE
8
BLACK
6
CONTINUOUS
10
121.75
20
-105.4499999999999886
11
122.0499999999999972
21
-105.75
0
LINE
8
BLACK
6
CONTINUOUS
10
122.0499999999999972
20
-105.4499999999999886
11
121.75
21
-105.75
0
LINE
8
BLACK
6
CONTINUOUS
10
124.5099999999999909
20
-107.8999999999999915
11
124.8099999999999881
21
-108.1999999999999886
0
LINE
8
BLACK
6
CONTINUOUS
10
124.8099999999999881
20
-107.8999999999999915
11
124.5099999999999909
21
-108.1999999999999886
0
LINE
8
BLACK
6
CONTINUOUS
10
125.9599999999999937
20
-117.269999999999996
11
126.2599999999999909
21
-117.5699999999999932
0
LINE
8
BLACK
6
CONTINUOUS
10
126.2599999999999909
20
-117.269999999999996
11
125.9599999999999937
21
-117.5699999999999932
0
LINE
8
BLACK
6
CONTINUOUS
10
127.8299999999999983
20
-108.6599999999999966
11
128.1299999999999955
21
-108.9599999999999937
0
LINE
8
BLACK
6
CONTINUOUS
10
128.1299999999999955
20
-108.6599999999999966
11
127.8299999999999983
21
-108.9599999999999937
0
LINE
8
BLACK
6
CONTINUOUS
10
131.3100000000000023
20
-109.2999999999999972
11
131.6099999999999852
21
-109.5999999999999943
0
LINE
8
BLACK
6
CONTINUOUS
10
131.6099999999999852
20
-109.2999999999999972
11
131.3100000000000023
21
-109.5999999999999943
0
LINE
8
BLACK
6
CONTINUOUS
10
134.7999999999999829
20
-109.9699999999999989
11
135.0999999999999943
21
-110.269999999999996
0
LINE
8
BLACK
6
CONTINUOUS
10
135.0999999999999943
20
-109.9699999999999989
11
134.7999999999999829
21
-110.269999999999996
0
LINE
8
BLACK
6
CONTINUOUS
10
138.3499999999999943
20
-110.5499999999999972
11
138.6500000000000057
21
-110.8499999999999943
0
LINE
8
BLACK
6
CONTINUOUS
10
138.6500000000000057
20
-110.5499999999999972
11
138.3499999999999943
21
-110.8499999999999943
0
LINE
8
BLACK
6
CONTINUOUS
10
141.6200000000000045
20
-111.0899999999999892
11
141.9199999999999875
21
-111.3900000000000006
0
LINE
8
BLACK
6
CONTINUOUS
10
141.9199999999999875
20
-111.0899999999999892
11
141.6200000000000045
21
-111.3900000000000006
0
LINE
8
BLACK
6
CONTINUOUS
10
145.2800000000000011
20
-111.8799999999999955
11
145.5799999999999841
21
-112.1799999999999926
0
LINE
8
BLACK
6
CONTINUOUS
10
145.5799999999999841
20
-111.8799999999999955
11
145.2800000000000011
21
-112.1799999999999926
0
LINE
8
BLACK
6
CONTINUOUS
10
148.5499999999999829
20
-112.3599999999999994
11
148.8499999999999943
21
-112.6599999999999966
0
LINE
8
BLACK
6
CONTINUOUS
10
148.8499999999999943
20
-112.3599999999999994
11
148.5499999999999829
21
-112.6599999999999966
0
LINE
8
BLACK
6
CONTINUOUS
10
152.1200000000000045
20
-113.019999999999996
11
152.4199999999999875
21
-113.3199999999999932
0
LINE
8
BLACK
6
CONTINUOUS
10
152.4199999999999875
20
-113.019999999999996
11
152.1200000000000045
21
-113.3199999999999932
0
LINE
8
BLACK
6
CONTINUOUS
10
155.5900000000000034
20
-113.3699999999999903
11
155.8899999999999864
21
-113.6700000000000017
0
LINE
8
BLACK
6
CONTINUOUS
10
155.8899999999999864
20
-113.3699999999999903
11
155.5900000000000034
21
-113.6700000000000017
0
CIRCLE
8
BLACK
10
70.
20
-116.
40
0.5
0
CIRCLE
8
BLACK
10
72.1997049999999945
20
-114.7299999999999898
40
0.5
0
CIRCLE
8
BLACK
10
74.3994089999999915
20
-113.4599999999999937
40
0.5
0
CIRCLE
8
BLACK
10
76.5991140000000001
20
-112.1899999999999977
40
0.5
0
CIRCLE
8
BLACK
10
100.
20
-65.
40
0.5
0
CIRCLE
8
BLACK
10
100.
20
-67.539999999999992
40
0.5
0
CIRCLE
8
BLACK
10
100.
20
-70.0799999999999983
40
0.5
0
CIRCLE
8
BLACK
10
100.
20
-72.6199999999999903
40
0.5
0
CIRCLE
8
BLACK
10
123.4008859999999999
20
-112.1899999999999977
40
0.5
0
CIRCLE
8
BLACK
10
125.6005909999999943
20
-113.4599999999999937
40
0.5
0
CIRCLE
8
BLACK
10
127.8002949999999913
20
-114.7299999999999898
40
0.5
0
CIRCLE
8
BLACK
10
130.
20
-116.
40
0.5
0
LINE
8
BLACK
6
CONTINUOUS
10
87.5799999999999983
20
-101.25
11
87.5799999999999983
21
-102.6499999999999915
0
LINE
8
BLACK
6
CONTINUOUS
10
86.8799999999999955
20
-101.9499999999999886
11
88.2800000000000011
21
-101.9499999999999886
0
LINE
8
BLACK
6
CONTINUOUS
10
95.6299999999999955
20
-90.1400000000000006
11
95.6299999999999955
21
-91.539999999999992
0
LINE
8
BLACK
6
CONTINUOUS
10
94.9299999999999926
20
-90.8399999999999892
11
96.3299999999999983
21
-90.8399999999999892
0
LINE
8
BLACK
6
CONTINUOUS
10
98.2399999999999949
20
-109.3199999999999932
11
98.2399999999999949
21
-110.7199999999999989
0
LINE
8
BLACK
6
CONTINUOUS
10
97.539999999999992
20
-110.019999999999996
11
98.9399999999999977
21
-110.019999999999996
0
LINE
8
BLACK
6
CONTINUOUS
10
107.6499999999999915
20
-90.1099999999999994
11
107.6499999999999915
21
-91.5099999999999909
0
LINE
8
BLACK
6
CONTINUOUS
10
106.9499999999999886
20
-90.8100000000000023
11
108.3499999999999943
21
-90.8100000000000023
0
LINE
8
BLACK
6
CONTINUOUS
10
108.1899999999999977
20
-106.3699999999999903
11
108.1899999999999977
21
-107.769999999999996
0
LINE
8
BLACK
6
CONTINUOUS
10
107.4899999999999949
20
-107.0699999999999932
11
108.8900000000000006
21
-107.0699999999999932
0
LINE
8
BLACK
6
CONTINUOUS
10
42.5077679999999987
20
-163.2148379999999861
11
42.5077679999999987
21
-161.2148379999999861
0
LINE
8
BLACK
6
CONTINUOUS
10
42.5077679999999987
20
-161.2148379999999861
11
42.9839580000000012
21
-161.2148379999999861
0
LINE
8
BLACK
6
CONTINUOUS
10
42.9839580000000012
20
-161.2148379999999861
11
43.2696729999999974
21
-161.3100759999999809
0
LINE
8
BLACK
6
CONTINUOUS
10
43.2696729999999974
20
-161.3100759999999809
11
43.4601490000000013
21
-161.500551999999999
0
LINE
8
BLACK
6
CONTINUOUS
10
43.4601490000000013
20
-161.500551999999999
11
43.5553869999999961
21
-161.6910279999999887
0
LINE
8
BLACK
6
CONTINUOUS
10
43.5553869999999961
20
-161.6910279999999887
11
43.650624999999998
21
-162.0719799999999964
0
LINE
8
BLACK
6
CONTINUOUS
10
43.650624999999998
20
-162.0719799999999964
11
43.650624999999998
21
-162.3576950000000068
0
LINE
8
BLACK
6
CONTINUOUS
10
43.650624999999998
20
-162.3576950000000068
11
43.5553869999999961
21
-162.7386469999999861
0
LINE
8
BLACK
6
CONTINUOUS
10
43.5553869999999961
20
-162.7386469999999861
11
43.4601490000000013
21
-162.9291230000000041
0
LINE
8
BLACK
6
CONTINUOUS
10
43.4601490000000013
20
-162.9291230000000041
11
43.2696729999999974
21
-163.1195999999999913
0
LINE
8
BLACK
6
CONTINUOUS
10
43.2696729999999974
20
-163.1195999999999913
11
42.9839580000000012
21
-163.2148379999999861
0
LINE
8
BLACK
6
CONTINUOUS
10
42.9839580000000012
20
-163.2148379999999861
11
42.5077679999999987
21
-163.2148379999999861
0
LINE
8
BLACK
6
CONTINUOUS
10
44.5077679999999987
20
-163.2148379999999861
11
44.5077679999999987
21
-161.8815040000000067
0
LINE
8
BLACK
6
CONTINUOUS
10
44.5077679999999987
20
-162.2624569999999835
11
44.6030060000000006
21
-162.0719799999999964
0
LINE
8
BLACK
6
CONTINUOUS
10
44.6030060000000006
20
-162.0719799999999964
11
44.6982439999999954
21
-161.9767420000000016
0
LINE
8
BLACK
6
CONTINUOUS
10
44.6982439999999954
20
-161.9767420000000016
11
44.8887199999999993
21
-161.8815040000000067
0
LINE
8
BLACK
6
CONTINUOUS
10
44.8887199999999993
20
-161.8815040000000067
11
45.0791970000000006
21
-161.8815040000000067
0
LINE
8
BLACK
6
CONTINUOUS
10
45.7458629999999999
20
-163.2148379999999861
11
45.7458629999999999
21
-161.8815040000000067
0
LINE
8
BLACK
6
CONTINUOUS
10
45.7458629999999999
20
-161.2148379999999861
11
45.650624999999998
21
-161.3100759999999809
0
LINE
8
BLACK
6
CONTINUOUS
10
45.650624999999998
20
-161.3100759999999809
11
45.7458629999999999
21
-161.4053140000000042
0
LINE
8
BLACK
6
CONTINUOUS
10
45.7458629999999999
20
-161.4053140000000042
11
45.8411009999999948
21
-161.3100759999999809
0
LINE
8
BLACK
6
CONTINUOUS
10
45.8411009999999948
20
-161.3100759999999809
11
45.7458629999999999
21
-161.2148379999999861
0
LINE
8
BLACK
6
CONTINUOUS
10
45.7458629999999999
20
-161.2148379999999861
11
45.7458629999999999
21
-161.4053140000000042
0
LINE
8
BLACK
6
CONTINUOUS
10
46.9839580000000012
20
-163.2148379999999861
11
46.7934819999999974
21
-163.1195999999999913
0
LINE
8
BLACK
6
CONTINUOUS
10
46.7934819999999974
20
-163.1195999999999913
11
46.6982439999999954
21
-162.9291230000000041
0
LINE
8
BLACK
6
CONTINUOUS
10
46.6982439999999954
20
-162.9291230000000041
11
46.6982439999999954
21
-161.2148379999999861
0
LINE
8
BLACK
6
CONTINUOUS
10
48.0315769999999986
20
-163.2148379999999861
11
47.8411009999999948
21
-163.1195999999999913
0
LINE
8
BLACK
6
CONTINUOUS
10
47.8411009999999948
20
-163.1195999999999913
11
47.7458629999999999
21
-162.9291230000000041
0
LINE
8
BLACK
6
CONTINUOUS
10
47.7458629999999999
20
-162.9291230000000041
11
47.7458629999999999
21
-161.2148379999999861
0
LINE
8
BLACK
6
CONTINUOUS
10
50.3172919999999948
20
-163.2148379999999861
11
50.3172919999999948
21
-161.2148379999999861
0
LINE
8
BLACK
6
CONTINUOUS
10
50.3172919999999948
20
-161.2148379999999861
11
50.9839589999999987
21
-162.6434089999999912
0
LINE
8
BLACK
6
CONTINUOUS
10
50.9839589999999987
20
-162.6434089999999912
11
51.650624999999998
21
-161.2148379999999861
0
LINE
8
BLACK
6
CONTINUOUS
10
51.650624999999998
20
-161.2148379999999861
11
51.650624999999998
21
-163.2148379999999861
0
LINE
8
BLACK
6
CONTINUOUS
10
53.4601489999999941
20
-163.2148379999999861
11
53.4601489999999941
21
-162.1672189999999887
0
LINE
8
BLACK
6
CONTINUOUS
10
53.4601489999999941
20
-162.1672189999999887
11
53.3649109999999993
21
-161.9767420000000016
0
LINE
8
BLACK
6
CONTINUOUS
10
53.3649109999999993
20
-161.9767420000000016
11
53.1744349999999955
21
-161.8815040000000067
0
LINE
8
BLACK
6
CONTINUOUS
10
53.1744349999999955
20
-161.8815040000000067
11
52.7934819999999974
21
-161.8815040000000067
0
LINE
8
BLACK
6
CONTINUOUS
10
52.7934819999999974
20
-161.8815040000000067
11
52.6030060000000006
21
-161.9767420000000016
0
LINE
8
BLACK
6
CONTINUOUS
10
53.4601489999999941
20
-163.1195999999999913
11
53.2696729999999974
21
-163.2148379999999861
0
LINE
8
BLACK
6
CONTINUOUS
10
53.2696729999999974
20
-163.2148379999999861
11
52.7934819999999974
21
-163.2148379999999861
0
LINE
8
BLACK
6
CONTINUOUS
10
52.7934819999999974
20
-163.2148379999999861
11
52.6030060000000006
21
-163.1195999999999913
0
LINE
8
BLACK
6
CONTINUOUS
10
52.6030060000000006
20
-163.1195999999999913
11
52.5077679999999987
21
-162.9291230000000041
0
LINE
8
BLACK
6
CONTINUOUS
10
52.5077679999999987
20
-162.9291230000000041
11
52.5077679999999987
21
-162.7386469999999861
0
LINE
8
BLACK
6
CONTINUOUS
10
52.5077679999999987
20
-162.7386469999999861
11
52.6030060000000006
21
-162.5481709999999964
0
LINE
8
BLACK
6
CONTINUOUS
10
52.6030060000000006
20
-162.5481709999999964
11
52.7934819999999974
21
-162.4529330000000016
0
LINE
8
BLACK
6
CONTINUOUS
10
52.7934819999999974
20
-162.4529330000000016
11
53.2696729999999974
21
-162.4529330000000016
0
LINE
8
BLACK
6
CONTINUOUS
10
53.2696729999999974
20
-162.4529330000000016
11
53.4601489999999941
21
-162.3576950000000068
0
LINE
8
BLACK
6
CONTINUOUS
10
54.4125299999999967
20
-161.8815040000000067
11
54.4125299999999967
21
-163.8815040000000067
0
LINE
8
BLACK
6
CONTINUOUS
10
54.4125299999999967
20
-161.9767420000000016
11
54.6030060000000006
21
-161.8815040000000067
0
LINE
8
BLACK
6
CONTINUOUS
10
54.6030060000000006
20
-161.8815040000000067
11
54.9839589999999987
21
-161.8815040000000067
0
LINE
8
BLACK
6
CONTINUOUS
10
54.9839589999999987
20
-161.8815040000000067
11
55.1744349999999955
21
-161.9767420000000016
0
LINE
8
BLACK
6
CONTINUOUS
10
55.1744349999999955
20
-161.9767420000000016
11
55.2696729999999974
21
-162.0719799999999964
0
LINE
8
BLACK
6
CONTINUOUS
10
55.2696729999999974
20
-162.0719799999999964
11
55.3649109999999993
21
-162.2624569999999835
0
LINE
8
BLACK
6
CONTINUOUS
10
55.3649109999999993
20
-162.2624569999999835
11
55.3649109999999993
21
-162.8338849999999809
0
LINE
8
BLACK
6
CONTINUOUS
10
55.3649109999999993
20
-162.8338849999999809
11
55.2696729999999974
21
-163.024360999999999
0
LINE
8
BLACK
6
CONTINUOUS
10
55.2696729999999974
20
-163.024360999999999
11
55.1744349999999955
21
-163.1195999999999913
0
LINE
8
BLACK
6
CONTINUOUS
10
55.1744349999999955
20
-163.1195999999999913
11
54.9839589999999987
21
-163.2148379999999861
0
LINE
8
BLACK
6
CONTINUOUS
10
54.9839589999999987
20
-163.2148379999999861
11
54.6030060000000006
21
-163.2148379999999861
0
LINE
8
BLACK
6
CONTINUOUS
10
54.6030060000000006
20
-163.2148379999999861
11
54.4125299999999967
21
-163.1195999999999913
0
LINE
8
BLACK
6
CONTINUOUS
10
56.222054
20
-163.024360999999999
11
56.3172919999999948
21
-163.1195999999999913
0
LINE
8
BLACK
6
CONTINUOUS
10
56.3172919999999948
20
-163.1195999999999913
11
56.222054
21
-163.2148379999999861
0
LINE
8
BLACK
6
CONTINUOUS
10
56.222054
20
-163.2148379999999861
11
56.126815999999998
21
-163.1195999999999913
0
LINE
8
BLACK
6
CONTINUOUS
10
56.126815999999998
20
-163.1195999999999913
11
56.222054
21
-163.024360999999999
0
LINE
8
BLACK
6
CONTINUOUS
10
56.222054
20
-163.024360999999999
11
56.222054
21
-163.2148379999999861
0
LINE
8
BLACK
6
CONTINUOUS
10
56.222054
20
-161.9767420000000016
11
56.3172919999999948
21
-162.0719799999999964
0
LINE
8
BLACK
6
CONTINUOUS
10
56.3172919999999948
20
-162.0719799999999964
11
56.222054
21
-162.1672189999999887
0
LINE
8
BLACK
6
CONTINUOUS
10
56.222054
20
-162.1672189999999887
11
56.126815999999998
21
-162.0719799999999964
0
LINE
8
BLACK
6
CONTINUOUS
10
56.126815999999998
20
-162.0719799999999964
11
56.222054
21
-161.9767420000000016
0
LINE
8
BLACK
6
CONTINUOUS
10
56.222054
20
-161.9767420000000016
11
56.222054
21
-162.1672189999999887
0
LINE
8
BLACK
6
CONTINUOUS
10
39.6000000000000014
20
-166.3499999999999943
11
39.8999999999999986
21
-166.6500000000000057
0
LINE
8
BLACK
6
CONTINUOUS
10
39.8999999999999986
20
-166.3499999999999943
11
39.6000000000000014
21
-166.6500000000000057
0
LINE
8
BLACK
6
CONTINUOUS
10
42.8887199999999993
20
-165.4148380000000031
11
43.0791970000000006
21
-165.4148380000000031
0
LINE
8
BLACK
6
CONTINUOUS
10
43.0791970000000006
20
-165.4148380000000031
11
43.2696729999999974
21
-165.510075999999998
0
LINE
8
BLACK
6
CONTINUOUS
10
43.2696729999999974
20
-165.510075999999998
11
43.3649109999999993
21
-165.6053139999999928
0
LINE
8
BLACK
6
CONTINUOUS
10
43.3649109999999993
20
-165.6053139999999928
11
43.4601490000000013
21
-165.7957899999999825
0
LINE
8
BLACK
6
CONTINUOUS
10
43.4601490000000013
20
-165.7957899999999825
11
43.5553869999999961
21
-166.1767419999999902
0
LINE
8
BLACK
6
CONTINUOUS
10
43.5553869999999961
20
-166.1767419999999902
11
43.5553869999999961
21
-166.6529329999999902
0
LINE
8
BLACK
6
CONTINUOUS
10
43.5553869999999961
20
-166.6529329999999902
11
43.4601490000000013
21
-167.0338849999999979
0
LINE
8
BLACK
6
CONTINUOUS
10
43.4601490000000013
20
-167.0338849999999979
11
43.3649109999999993
21
-167.2243609999999876
0
LINE
8
BLACK
6
CONTINUOUS
10
43.3649109999999993
20
-167.2243609999999876
11
43.2696729999999974
21
-167.3195999999999799
0
LINE
8
BLACK
6
CONTINUOUS
10
43.2696729999999974
20
-167.3195999999999799
11
43.0791970000000006
21
-167.4148380000000031
0
LINE
8
BLACK
6
CONTINUOUS
10
43.0791970000000006
20
-167.4148380000000031
11
42.8887199999999993
21
-167.4148380000000031
0
LINE
8
BLACK
6
CONTINUOUS
10
42.8887199999999993
20
-167.4148380000000031
11
42.6982439999999954
21
-167.3195999999999799
0
LINE
8
BLACK
6
CONTINUOUS
10
42.6982439999999954
20
-167.3195999999999799
11
42.6030060000000006
21
-167.2243609999999876
0
LINE
8
BLACK
6
CONTINUOUS
10
42.6030060000000006
20
-167.2243609999999876
11
42.5077679999999987
21
-167.0338849999999979
0
LINE
8
BLACK
6
CONTINUOUS
10
42.5077679999999987
20
-167.0338849999999979
11
42.4125299999999967
21
-166.6529329999999902
0
LINE
8
BLACK
6
CONTINUOUS
10
42.4125299999999967
20
-166.6529329999999902
11
42.4125299999999967
21
-166.1767419999999902
0
LINE
8
BLACK
6
CONTINUOUS
10
42.4125299999999967
20
-166.1767419999999902
11
42.5077679999999987
21
-165.7957899999999825
0
LINE
8
BLACK
6
CONTINUOUS
10
42.5077679999999987
20
-165.7957899999999825
11
42.6030060000000006
21
-165.6053139999999928
0
LINE
8
BLACK
6
CONTINUOUS
10
42.6030060000000006
20
-165.6053139999999928
11
42.6982439999999954
21
-165.510075999999998
0
LINE
8
BLACK
6
CONTINUOUS
10
42.6982439999999954
20
-165.510075999999998
11
42.8887199999999993
21
-165.4148380000000031
0
LINE
8
BLACK
6
CONTINUOUS
10
44.4125299999999967
20
-167.2243609999999876
11
44.5077679999999987
21
-167.3195999999999799
0
LINE
8
BLACK
6
CONTINUOUS
10
44.5077679999999987
20
-167.3195999999999799
11
44.4125299999999967
21
-167.4148380000000031
0
LINE
8
BLACK
6
CONTINUOUS
10
44.4125299999999967
20
-167.4148380000000031
11
44.3172919999999948
21
-167.3195999999999799
0
LINE
8
BLACK
6
CONTINUOUS
10
44.3172919999999948
20
-167.3195999999999799
11
44.4125299999999967
21
-167.2243609999999876
0
LINE
8
BLACK
6
CONTINUOUS
10
44.4125299999999967
20
-167.2243609999999876
11
44.4125299999999967
21
-167.4148380000000031
0
LINE
8
BLACK
6
CONTINUOUS
10
45.1744349999999955
20
-165.4148380000000031
11
46.4125299999999967
21
-165.4148380000000031
0
LINE
8
BLACK
6
CONTINUOUS
10
46.4125299999999967
20
-165.4148380000000031
11
45.7458629999999999
21
-166.1767419999999902
0
LINE
8
BLACK
6
CONTINUOUS
10
45.7458629999999999
20
-166.1767419999999902
11
46.0315779999999961
21
-166.1767419999999902
0
LINE
8
BLACK
6
CONTINUOUS
10
46.0315779999999961
20
-166.1767419999999902
11
46.222054
21
-166.271979999999985
0
LINE
8
BLACK
6
CONTINUOUS
10
46.222054
20
-166.271979999999985
11
46.3172919999999948
21
-166.3672190000000057
0
LINE
8
BLACK
6
CONTINUOUS
10
46.3172919999999948
20
-166.3672190000000057
11
46.4125299999999967
21
-166.5576949999999954
0
LINE
8
BLACK
6
CONTINUOUS
10
46.4125299999999967
20
-166.5576949999999954
11
46.4125299999999967
21
-167.0338849999999979
0
LINE
8
BLACK
6
CONTINUOUS
10
46.4125299999999967
20
-167.0338849999999979
11
46.3172919999999948
21
-167.2243609999999876
0
LINE
8
BLACK
6
CONTINUOUS
10
46.3172919999999948
20
-167.2243609999999876
11
46.222054
21
-167.3195999999999799
0
LINE
8
BLACK
6
CONTINUOUS
10
46.222054
20
-167.3195999999999799
11
46.0315779999999961
21
-167.4148380000000031
0
LINE
8
BLACK
6
CONTINUOUS
10
46.0315779999999961
20
-167.4148380000000031
11
45.4601490000000013
21
-167.4148380000000031
0
LINE
8
BLACK
6
CONTINUOUS
10
45.4601490000000013
20
-167.4148380000000031
11
45.2696729999999974
21
-167.3195999999999799
0
LINE
8
BLACK
6
CONTINUOUS
10
45.2696729999999974
20
-167.3195999999999799
11
45.1744349999999955
21
-167.2243609999999876
0
LINE
8
BLACK
6
CONTINUOUS
10
47.650624999999998
20
-165.4148380000000031
11
47.8411019999999994
21
-165.4148380000000031
0
LINE
8
BLACK
6
CONTINUOUS
10
47.8411019999999994
20
-165.4148380000000031
11
48.0315779999999961
21
-165.510075999999998
0
LINE
8
BLACK
6
CONTINUOUS
10
48.0315779999999961
20
-165.510075999999998
11
48.126815999999998
21
-165.6053139999999928
0
LINE
8
BLACK
6
CONTINUOUS
10
48.126815999999998
20
-165.6053139999999928
11
48.222054
21
-165.7957899999999825
0
LINE
8
BLACK
6
CONTINUOUS
10
48.222054
20
-165.7957899999999825
11
48.3172919999999948
21
-166.1767419999999902
0
LINE
8
BLACK
6
CONTINUOUS
10
48.3172919999999948
20
-166.1767419999999902
11
48.3172919999999948
21
-166.6529329999999902
0
LINE
8
BLACK
6
CONTINUOUS
10
48.3172919999999948
20
-166.6529329999999902
11
48.222054
21
-167.0338849999999979
0
LINE
8
BLACK
6
CONTINUOUS
10
48.222054
20
-167.0338849999999979
11
48.126815999999998
21
-167.2243609999999876
0
LINE
8
BLACK
6
CONTINUOUS
10
48.126815999999998
20
-167.2243609999999876
11
48.0315779999999961
21
-167.3195999999999799
0
LINE
8
BLACK
6
CONTINUOUS
10
48.0315779999999961
20
-167.3195999999999799
11
47.8411019999999994
21
-167.4148380000000031
0
LINE
8
BLACK
6
CONTINUOUS
10
47.8411019999999994
20
-167.4148380000000031
11
47.650624999999998
21
-167.4148380000000031
0
LINE
8
BLACK
6
CONTINUOUS
10
47.650624999999998
20
-167.4148380000000031
11
47.4601490000000013
21
-167.3195999999999799
0
LINE
8
BLACK
6
CONTINUOUS
10
47.4601490000000013
20
-167.3195999999999799
11
47.3649109999999993
21
-167.2243609999999876
0
LINE
8
BLACK
6
CONTINUOUS
10
47.3649109999999993
20
-167.2243609999999876
11
47.2696729999999974
21
-167.0338849999999979
0
LINE
8
BLACK
6
CONTINUOUS
10
47.2696729999999974
20
-167.0338849999999979
11
47.1744349999999955
21
-166.6529329999999902
0
LINE
8
BLACK
6
CONTINUOUS
10
47.1744349999999955
20
-166.6529329999999902
11
47.1744349999999955
21
-166.1767419999999902
0
LINE
8
BLACK
6
CONTINUOUS
10
47.1744349999999955
20
-166.1767419999999902
11
47.2696729999999974
21
-165.7957899999999825
0
LINE
8
BLACK
6
CONTINUOUS
10
47.2696729999999974
20
-165.7957899999999825
11
47.3649109999999993
21
-165.6053139999999928
0
LINE
8
BLACK
6
CONTINUOUS
10
47.3649109999999993
20
-165.6053139999999928
11
47.4601490000000013
21
-165.510075999999998
0
LINE
8
BLACK
6
CONTINUOUS
10
47.4601490000000013
20
-165.510075999999998
11
47.650624999999998
21
-165.4148380000000031
0
LINE
8
BLACK
6
CONTINUOUS
10
49.5553869999999961
20
-165.4148380000000031
11
49.7458639999999974
21
-165.4148380000000031
0
LINE
8
BLACK
6
CONTINUOUS
10
49.7458639999999974
20
-165.4148380000000031
11
49.9363400000000013
21
-165.510075999999998
0
LINE
8
BLACK
6
CONTINUOUS
10
49.9363400000000013
20
-165.510075999999998
11
50.0315779999999961
21
-165.6053139999999928
0
LINE
8
BLACK
6
CONTINUOUS
10
50.0315779999999961
20
-165.6053139999999928
11
50.126815999999998
21
-165.7957899999999825
0
LINE
8
BLACK
6
CONTINUOUS
10
50.126815999999998
20
-165.7957899999999825
11
50.222054
21
-166.1767419999999902
0
LINE
8
BLACK
6
CONTINUOUS
10
50.222054
20
-166.1767419999999902
11
50.222054
21
-166.6529329999999902
0
LINE
8
BLACK
6
CONTINUOUS
10
50.222054
20
-166.6529329999999902
11
50.126815999999998
21
-167.0338849999999979
0
LINE
8
BLACK
6
CONTINUOUS
10
50.126815999999998
20
-167.0338849999999979
11
50.0315779999999961
21
-167.2243609999999876
0
LINE
8
BLACK
6
CONTINUOUS
10
50.0315779999999961
20
-167.2243609999999876
11
49.9363400000000013
21
-167.3195999999999799
0
LINE
8
BLACK
6
CONTINUOUS
10
49.9363400000000013
20
-167.3195999999999799
11
49.7458639999999974
21
-167.4148380000000031
0
LINE
8
BLACK
6
CONTINUOUS
10
49.7458639999999974
20
-167.4148380000000031
11
49.5553869999999961
21
-167.4148380000000031
0
LINE
8
BLACK
6
CONTINUOUS
10
49.5553869999999961
20
-167.4148380000000031
11
49.3649109999999993
21
-167.3195999999999799
0
LINE
8
BLACK
6
CONTINUOUS
10
49.3649109999999993
20
-167.3195999999999799
11
49.2696729999999974
21
-167.2243609999999876
0
LINE
8
BLACK
6
CONTINUOUS
10
49.2696729999999974
20
-167.2243609999999876
11
49.1744349999999955
21
-167.0338849999999979
0
LINE
8
BLACK
6
CONTINUOUS
10
49.1744349999999955
20
-167.0338849999999979
11
49.0791970000000006
21
-166.6529329999999902
0
LINE
8
BLACK
6
CONTINUOUS
10
49.0791970000000006
20
-166.6529329999999902
11
49.0791970000000006
21
-166.1767419999999902
0
LINE
8
BLACK
6
CONTINUOUS
10
49.0791970000000006
20
-166.1767419999999902
11
49.1744349999999955
21
-165.7957899999999825
0
LINE
8
BLACK
6
CONTINUOUS
10
49.1744349999999955
20
-165.7957899999999825
11
49.2696729999999974
21
-165.6053139999999928
0
LINE
8
BLACK
6
CONTINUOUS
10
49.2696729999999974
20
-165.6053139999999928
11
49.3649109999999993
21
-165.510075999999998
0
LINE
8
BLACK
6
CONTINUOUS
10
49.3649109999999993
20
-165.510075999999998
11
49.5553869999999961
21
-165.4148380000000031
0
LINE
8
BLACK
6
CONTINUOUS
10
51.0791970000000006
20
-167.4148380000000031
11
51.0791970000000006
21
-166.0815039999999954
0
LINE
8
BLACK
6
CONTINUOUS
10
51.0791970000000006
20
-166.271979999999985
11
51.1744349999999955
21
-166.1767419999999902
0
LINE
8
BLACK
6
CONTINUOUS
10
51.1744349999999955
20
-166.1767419999999902
11
51.3649109999999993
21
-166.0815039999999954
0
LINE
8
BLACK
6
CONTINUOUS
10
51.3649109999999993
20
-166.0815039999999954
11
51.6506259999999955
21
-166.0815039999999954
0
LINE
8
BLACK
6
CONTINUOUS
10
51.6506259999999955
20
-166.0815039999999954
11
51.8411019999999994
21
-166.1767419999999902
0
LINE
8
BLACK
6
CONTINUOUS
10
51.8411019999999994
20
-166.1767419999999902
11
51.9363399999999942
21
-166.3672190000000057
0
LINE
8
BLACK
6
CONTINUOUS
10
51.9363399999999942
20
-166.3672190000000057
11
51.9363399999999942
21
-167.4148380000000031
0
LINE
8
BLACK
6
CONTINUOUS
10
51.9363399999999942
20
-166.3672190000000057
11
52.0315779999999961
21
-166.1767419999999902
0
LINE
8
BLACK
6
CONTINUOUS
10
52.0315779999999961
20
-166.1767419999999902
11
52.222054
21
-166.0815039999999954
0
LINE
8
BLACK
6
CONTINUOUS
10
52.222054
20
-166.0815039999999954
11
52.5077679999999987
21
-166.0815039999999954
0
LINE
8
BLACK
6
CONTINUOUS
10
52.5077679999999987
20
-166.0815039999999954
11
52.698245
21
-166.1767419999999902
0
LINE
8
BLACK
6
CONTINUOUS
10
52.698245
20
-166.1767419999999902
11
52.7934829999999948
21
-166.3672190000000057
0
LINE
8
BLACK
6
CONTINUOUS
10
52.7934829999999948
20
-166.3672190000000057
11
52.7934829999999948
21
-167.4148380000000031
0
LINE
8
BLACK
6
CONTINUOUS
10
53.7458639999999974
20
-167.4148380000000031
11
53.7458639999999974
21
-166.0815039999999954
0
LINE
8
BLACK
6
CONTINUOUS
10
53.7458639999999974
20
-166.271979999999985
11
53.8411019999999994
21
-166.1767419999999902
0
LINE
8
BLACK
6
CONTINUOUS
10
53.8411019999999994
20
-166.1767419999999902
11
54.0315779999999961
21
-166.0815039999999954
0
LINE
8
BLACK
6
CONTINUOUS
10
54.0315779999999961
20
-166.0815039999999954
11
54.3172929999999994
21
-166.0815039999999954
0
LINE
8
BLACK
6
CONTINUOUS
10
54.3172929999999994
20
-166.0815039999999954
11
54.5077689999999961
21
-166.1767419999999902
0
LINE
8
BLACK
6
CONTINUOUS
10
54.5077689999999961
20
-166.1767419999999902
11
54.6030069999999981
21
-166.3672190000000057
0
LINE
8
BLACK
6
CONTINUOUS
10
54.6030069999999981
20
-166.3672190000000057
11
54.6030069999999981
21
-167.4148380000000031
0
LINE
8
BLACK
6
CONTINUOUS
10
54.6030069999999981
20
-166.3672190000000057
11
54.698245
21
-166.1767419999999902
0
LINE
8
BLACK
6
CONTINUOUS
10
54.698245
20
-166.1767419999999902
11
54.8887209999999968
21
-166.0815039999999954
0
LINE
8
BLACK
6
CONTINUOUS
10
54.8887209999999968
20
-166.0815039999999954
11
55.1744349999999955
21
-166.0815039999999954
0
LINE
8
BLACK
6
CONTINUOUS
10
55.1744349999999955
20
-166.0815039999999954
11
55.3649119999999968
21
-166.1767419999999902
0
LINE
8
BLACK
6
CONTINUOUS
10
55.3649119999999968
20
-166.1767419999999902
11
55.4601499999999987
21
-166.3672190000000057
0
LINE
8
BLACK
6
CONTINUOUS
10
55.4601499999999987
20
-166.3672190000000057
11
55.4601499999999987
21
-167.4148380000000031
0
LINE
8
BLACK
6
CONTINUOUS
10
59.3649119999999968
20
-165.3195999999999799
11
57.6506270000000001
21
-167.8910280000000057
0
LINE
8
BLACK
6
CONTINUOUS
10
61.9363409999999988
20
-165.4148380000000031
11
62.1268180000000001
21
-165.4148380000000031
0
LINE
8
BLACK
6
CONTINUOUS
10
62.1268180000000001
20
-165.4148380000000031
11
62.3172939999999969
21
-165.510075999999998
0
LINE
8
BLACK
6
CONTINUOUS
10
62.3172939999999969
20
-165.510075999999998
11
62.4125319999999988
21
-165.6053139999999928
0
LINE
8
BLACK
6
CONTINUOUS
10
62.4125319999999988
20
-165.6053139999999928
11
62.5077700000000007
21
-165.7957899999999825
0
LINE
8
BLACK
6
CONTINUOUS
10
62.5077700000000007
20
-165.7957899999999825
11
62.6030079999999955
21
-166.1767419999999902
0
LINE
8
BLACK
6
CONTINUOUS
10
62.6030079999999955
20
-166.1767419999999902
11
62.6030079999999955
21
-166.6529329999999902
0
LINE
8
BLACK
6
CONTINUOUS
10
62.6030079999999955
20
-166.6529329999999902
11
62.5077700000000007
21
-167.0338849999999979
0
LINE
8
BLACK
6
CONTINUOUS
10
62.5077700000000007
20
-167.0338849999999979
11
62.4125319999999988
21
-167.2243609999999876
0
LINE
8
BLACK
6
CONTINUOUS
10
62.4125319999999988
20
-167.2243609999999876
11
62.3172939999999969
21
-167.3195999999999799
0
LINE
8
BLACK
6
CONTINUOUS
10
62.3172939999999969
20
-167.3195999999999799
11
62.1268180000000001
21
-167.4148380000000031
0
LINE
8
BLACK
6
CONTINUOUS
10
62.1268180000000001
20
-167.4148380000000031
11
61.9363409999999988
21
-167.4148380000000031
0
LINE
8
BLACK
6
CONTINUOUS
10
61.9363409999999988
20
-167.4148380000000031
11
61.7458649999999949
21
-167.3195999999999799
0
LINE
8
BLACK
6
CONTINUOUS
10
61.7458649999999949
20
-167.3195999999999799
11
61.6506270000000001
21
-167.2243609999999876
0
LINE
8
BLACK
6
CONTINUOUS
10
61.6506270000000001
20
-167.2243609999999876
11
61.5553889999999981
21
-167.0338849999999979
0
LINE
8
BLACK
6
CONTINUOUS
10
61.5553889999999981
20
-167.0338849999999979
11
61.4601509999999962
21
-166.6529329999999902
0
LINE
8
BLACK
6
CONTINUOUS
10
61.4601509999999962
20
-166.6529329999999902
11
61.4601509999999962
21
-166.1767419999999902
0
LINE
8
BLACK
6
CONTINUOUS
10
61.4601509999999962
20
-166.1767419999999902
11
61.5553889999999981
21
-165.7957899999999825
0
LINE
8
BLACK
6
CONTINUOUS
10
61.5553889999999981
20
-165.7957899999999825
11
61.6506270000000001
21
-165.6053139999999928
0
LINE
8
BLACK
6
CONTINUOUS
10
61.6506270000000001
20
-165.6053139999999928
11
61.7458649999999949
21
-165.510075999999998
0
LINE
8
BLACK
6
CONTINUOUS
10
61.7458649999999949
20
-165.510075999999998
11
61.9363409999999988
21
-165.4148380000000031
0
LINE
8
BLACK
6
CONTINUOUS
10
63.4601509999999962
20
-167.2243609999999876
11
63.5553889999999981
21
-167.3195999999999799
0
LINE
8
BLACK
6
CONTINUOUS
10
63.5553889999999981
20
-167.3195999999999799
11
63.4601509999999962
21
-167.4148380000000031
0
LINE
8
BLACK
6
CONTINUOUS
10
63.4601509999999962
20
-167.4148380000000031
11
63.3649129999999943
21
-167.3195999999999799
0
LINE
8
BLACK
6
CONTINUOUS
10
63.3649129999999943
20
-167.3195999999999799
11
63.4601509999999962
21
-167.2243609999999876
0
LINE
8
BLACK
6
CONTINUOUS
10
63.4601509999999962
20
-167.2243609999999876
11
63.4601509999999962
21
-167.4148380000000031
0
LINE
8
BLACK
6
CONTINUOUS
10
64.7934839999999923
20
-165.4148380000000031
11
64.9839609999999936
21
-165.4148380000000031
0
LINE
8
BLACK
6
CONTINUOUS
10
64.9839609999999936
20
-165.4148380000000031
11
65.1744369999999975
21
-165.510075999999998
0
LINE
8
BLACK
6
CONTINUOUS
10
65.1744369999999975
20
-165.510075999999998
11
65.2696749999999923
21
-165.6053139999999928
0
LINE
8
BLACK
6
CONTINUOUS
10
65.2696749999999923
20
-165.6053139999999928
11
65.3649130000000014
21
-165.7957899999999825
0
LINE
8
BLACK
6
CONTINUOUS
10
65.3649130000000014
20
-165.7957899999999825
11
65.4601509999999962
21
-166.1767419999999902
0
LINE
8
BLACK
6
CONTINUOUS
10
65.4601509999999962
20
-166.1767419999999902
11
65.4601509999999962
21
-166.6529329999999902
0
LINE
8
BLACK
6
CONTINUOUS
10
65.4601509999999962
20
-166.6529329999999902
11
65.3649130000000014
21
-167.0338849999999979
0
LINE
8
BLACK
6
CONTINUOUS
10
65.3649130000000014
20
-167.0338849999999979
11
65.2696749999999923
21
-167.2243609999999876
0
LINE
8
BLACK
6
CONTINUOUS
10
65.2696749999999923
20
-167.2243609999999876
11
65.1744369999999975
21
-167.3195999999999799
0
LINE
8
BLACK
6
CONTINUOUS
10
65.1744369999999975
20
-167.3195999999999799
11
64.9839609999999936
21
-167.4148380000000031
0
LINE
8
BLACK
6
CONTINUOUS
10
64.9839609999999936
20
-167.4148380000000031
11
64.7934839999999923
21
-167.4148380000000031
0
LINE
8
BLACK
6
CONTINUOUS
10
64.7934839999999923
20
-167.4148380000000031
11
64.6030080000000027
21
-167.3195999999999799
0
LINE
8
BLACK
6
CONTINUOUS
10
64.6030080000000027
20
-167.3195999999999799
11
64.5077699999999936
21
-167.2243609999999876
0
LINE
8
BLACK
6
CONTINUOUS
10
64.5077699999999936
20
-167.2243609999999876
11
64.4125319999999988
21
-167.0338849999999979
0
LINE
8
BLACK
6
CONTINUOUS
10
64.4125319999999988
20
-167.0338849999999979
11
64.317294000000004
21
-166.6529329999999902
0
LINE
8
BLACK
6
CONTINUOUS
10
64.317294000000004
20
-166.6529329999999902
11
64.317294000000004
21
-166.1767419999999902
0
LINE
8
BLACK
6
CONTINUOUS
10
64.317294000000004
20
-166.1767419999999902
11
64.4125319999999988
21
-165.7957899999999825
0
LINE
8
BLACK
6
CONTINUOUS
10
64.4125319999999988
20
-165.7957899999999825
11
64.5077699999999936
21
-165.6053139999999928
0
LINE
8
BLACK
6
CONTINUOUS
10
64.5077699999999936
20
-165.6053139999999928
11
64.6030080000000027
21
-165.510075999999998
0
LINE
8
BLACK
6
CONTINUOUS
10
64.6030080000000027
20
-165.510075999999998
11
64.7934839999999923
21
-165.4148380000000031
0
LINE
8
BLACK
6
CONTINUOUS
10
67.3649130000000014
20
-167.4148380000000031
11
66.2220559999999949
21
-167.4148380000000031
0
LINE
8
BLACK
6
CONTINUOUS
10
66.7934839999999923
20
-167.4148380000000031
11
66.7934839999999923
21
-165.4148380000000031
0
LINE
8
BLACK
6
CONTINUOUS
10
66.7934839999999923
20
-165.4148380000000031
11
66.6030080000000027
21
-165.7005519999999876
0
LINE
8
BLACK
6
CONTINUOUS
10
66.6030080000000027
20
-165.7005519999999876
11
66.4125319999999988
21
-165.8910280000000057
0
LINE
8
BLACK
6
CONTINUOUS
10
66.4125319999999988
20
-165.8910280000000057
11
66.2220559999999949
21
-165.9862660000000005
0
LINE
8
BLACK
6
CONTINUOUS
10
69.2696749999999923
20
-167.4148380000000031
11
68.1268180000000001
21
-167.4148380000000031
0
LINE
8
BLACK
6
CONTINUOUS
10
68.6982459999999975
20
-167.4148380000000031
11
68.6982459999999975
21
-165.4148380000000031
0
LINE
8
BLACK
6
CONTINUOUS
10
68.6982459999999975
20
-165.4148380000000031
11
68.5077699999999936
21
-165.7005519999999876
0
LINE
8
BLACK
6
CONTINUOUS
10
68.5077699999999936
20
-165.7005519999999876
11
68.317294000000004
21
-165.8910280000000057
0
LINE
8
BLACK
6
CONTINUOUS
10
68.317294000000004
20
-165.8910280000000057
11
68.1268180000000001
21
-165.9862660000000005
0
LINE
8
BLACK
6
CONTINUOUS
10
70.4125319999999988
20
-166.271979999999985
11
70.2220559999999949
21
-166.1767419999999902
0
LINE
8
BLACK
6
CONTINUOUS
10
70.2220559999999949
20
-166.1767419999999902
11
70.1268180000000001
21
-166.0815039999999954
0
LINE
8
BLACK
6
CONTINUOUS
10
70.1268180000000001
20
-166.0815039999999954
11
70.0315799999999911
21
-165.8910280000000057
0
LINE
8
BLACK
6
CONTINUOUS
10
70.0315799999999911
20
-165.8910280000000057
11
70.0315799999999911
21
-165.7957899999999825
0
LINE
8
BLACK
6
CONTINUOUS
10
70.0315799999999911
20
-165.7957899999999825
11
70.1268180000000001
21
-165.6053139999999928
0
LINE
8
BLACK
6
CONTINUOUS
10
70.1268180000000001
20
-165.6053139999999928
11
70.2220559999999949
21
-165.510075999999998
0
LINE
8
BLACK
6
CONTINUOUS
10
70.2220559999999949
20
-165.510075999999998
11
70.4125319999999988
21
-165.4148380000000031
0
LINE
8
BLACK
6
CONTINUOUS
10
70.4125319999999988
20
-165.4148380000000031
11
70.7934849999999898
21
-165.4148380000000031
0
LINE
8
BLACK
6
CONTINUOUS
10
70.7934849999999898
20
-165.4148380000000031
11
70.9839609999999936
21
-165.510075999999998
0
LINE
8
BLACK
6
CONTINUOUS
10
70.9839609999999936
20
-165.510075999999998
11
71.0791990000000027
21
-165.6053139999999928
0
LINE
8
BLACK
6
CONTINUOUS
10
71.0791990000000027
20
-165.6053139999999928
11
71.1744369999999975
21
-165.7957899999999825
0
LINE
8
BLACK
6
CONTINUOUS
10
71.1744369999999975
20
-165.7957899999999825
11
71.1744369999999975
21
-165.8910280000000057
0
LINE
8
BLACK
6
CONTINUOUS
10
71.1744369999999975
20
-165.8910280000000057
11
71.0791990000000027
21
-166.0815039999999954
0
LINE
8
BLACK
6
CONTINUOUS
10
71.0791990000000027
20
-166.0815039999999954
11
70.9839609999999936
21
-166.1767419999999902
0
LINE
8
BLACK
6
CONTINUOUS
10
70.9839609999999936
20
-166.1767419999999902
11
70.7934849999999898
21
-166.271979999999985
0
LINE
8
BLACK
6
CONTINUOUS
10
70.7934849999999898
20
-166.271979999999985
11
70.4125319999999988
21
-166.271979999999985
0
LINE
8
BLACK
6
CONTINUOUS
10
70.4125319999999988
20
-166.271979999999985
11
70.2220559999999949
21
-166.3672190000000057
0
LINE
8
BLACK
6
CONTINUOUS
10
70.2220559999999949
20
-166.3672190000000057
11
70.1268180000000001
21
-166.4624570000000006
0
LINE
8
BLACK
6
CONTINUOUS
10
70.1268180000000001
20
-166.4624570000000006
11
70.0315799999999911
21
-166.6529329999999902
0
LINE
8
BLACK
6
CONTINUOUS
10
70.0315799999999911
20
-166.6529329999999902
11
70.0315799999999911
21
-167.0338849999999979
0
LINE
8
BLACK
6
CONTINUOUS
10
70.0315799999999911
20
-167.0338849999999979
11
70.1268180000000001
21
-167.2243609999999876
0
LINE
8
BLACK
6
CONTINUOUS
10
70.1268180000000001
20
-167.2243609999999876
11
70.2220559999999949
21
-167.3195999999999799
0
LINE
8
BLACK
6
CONTINUOUS
10
70.2220559999999949
20
-167.3195999999999799
11
70.4125319999999988
21
-167.4148380000000031
0
LINE
8
BLACK
6
CONTINUOUS
10
70.4125319999999988
20
-167.4148380000000031
11
70.7934849999999898
21
-167.4148380000000031
0
LINE
8
BLACK
6
CONTINUOUS
10
70.7934849999999898
20
-167.4148380000000031
11
70.9839609999999936
21
-167.3195999999999799
0
LINE
8
BLACK
6
CONTINUOUS
10
70.9839609999999936
20
-167.3195999999999799
11
71.0791990000000027
21
-167.2243609999999876
0
LINE
8
BLACK
6
CONTINUOUS
10
71.0791990000000027
20
-167.2243609999999876
11
71.1744369999999975
21
-167.0338849999999979
0
LINE
8
BLACK
6
CONTINUOUS
10
71.1744369999999975
20
-167.0338849999999979
11
71.1744369999999975
21
-166.6529329999999902
0
LINE
8
BLACK
6
CONTINUOUS
10
71.1744369999999975
20
-166.6529329999999902
11
71.0791990000000027
21
-166.4624570000000006
0
LINE
8
BLACK
6
CONTINUOUS
10
71.0791990000000027
20
-166.4624570000000006
11
70.9839609999999936
21
-166.3672190000000057
0
LINE
8
BLACK
6
CONTINUOUS
10
70.9839609999999936
20
-166.3672190000000057
11
70.7934849999999898
21
-166.271979999999985
0
LINE
8
BLACK
6
CONTINUOUS
10
71.9363419999999962
20
-165.4148380000000031
11
71.9363419999999962
21
-165.7957899999999825
0
LINE
8
BLACK
6
CONTINUOUS
10
72.698246999999995
20
-165.4148380000000031
11
72.698246999999995
21
-165.7957899999999825
0
LINE
8
BLACK
6
CONTINUOUS
10
75.650628999999995
20
-168.1767419999999902
11
75.5553900000000027
21
-168.0815039999999954
0
LINE
8
BLACK
6
CONTINUOUS
10
75.5553900000000027
20
-168.0815039999999954
11
75.3649139999999989
21
-167.7957899999999825
0
LINE
8
BLACK
6
CONTINUOUS
10
75.3649139999999989
20
-167.7957899999999825
11
75.2696759999999898
21
-167.6053139999999928
0
LINE
8
BLACK
6
CONTINUOUS
10
75.2696759999999898
20
-167.6053139999999928
11
75.174437999999995
21
-167.3195999999999799
0
LINE
8
BLACK
6
CONTINUOUS
10
75.174437999999995
20
-167.3195999999999799
11
75.0792000000000002
21
-166.8434089999999799
0
LINE
8
BLACK
6
CONTINUOUS
10
75.0792000000000002
20
-166.8434089999999799
11
75.0792000000000002
21
-166.4624570000000006
0
LINE
8
BLACK
6
CONTINUOUS
10
75.0792000000000002
20
-166.4624570000000006
11
75.174437999999995
21
-165.9862660000000005
0
LINE
8
BLACK
6
CONTINUOUS
10
75.174437999999995
20
-165.9862660000000005
11
75.2696759999999898
21
-165.7005519999999876
0
LINE
8
BLACK
6
CONTINUOUS
10
75.2696759999999898
20
-165.7005519999999876
11
75.3649139999999989
21
-165.510075999999998
0
LINE
8
BLACK
6
CONTINUOUS
10
75.3649139999999989
20
-165.510075999999998
11
75.5553900000000027
21
-165.2243609999999876
0
LINE
8
BLACK
6
CONTINUOUS
10
75.5553900000000027
20
-165.2243609999999876
11
75.650628999999995
21
-165.1291229999999928
0
LINE
8
BLACK
6
CONTINUOUS
10
76.698246999999995
20
-166.271979999999985
11
76.5077709999999911
21
-166.1767419999999902
0
LINE
8
BLACK
6
CONTINUOUS
10
76.5077709999999911
20
-166.1767419999999902
11
76.4125329999999963
21
-166.0815039999999954
0
LINE
8
BLACK
6
CONTINUOUS
10
76.4125329999999963
20
-166.0815039999999954
11
76.3172950000000014
21
-165.8910280000000057
0
LINE
8
BLACK
6
CONTINUOUS
10
76.3172950000000014
20
-165.8910280000000057
11
76.3172950000000014
21
-165.7957899999999825
0
LINE
8
BLACK
6
CONTINUOUS
10
76.3172950000000014
20
-165.7957899999999825
11
76.4125329999999963
21
-165.6053139999999928
0
LINE
8
BLACK
6
CONTINUOUS
10
76.4125329999999963
20
-165.6053139999999928
11
76.5077709999999911
21
-165.510075999999998
0
LINE
8
BLACK
6
CONTINUOUS
10
76.5077709999999911
20
-165.510075999999998
11
76.698246999999995
21
-165.4148380000000031
0
LINE
8
BLACK
6
CONTINUOUS
10
76.698246999999995
20
-165.4148380000000031
11
77.0792000000000002
21
-165.4148380000000031
0
LINE
8
BLACK
6
CONTINUOUS
10
77.0792000000000002
20
-165.4148380000000031
11
77.2696759999999898
21
-165.510075999999998
0
LINE
8
BLACK
6
CONTINUOUS
10
77.2696759999999898
20
-165.510075999999998
11
77.3649139999999989
21
-165.6053139999999928
0
LINE
8
BLACK
6
CONTINUOUS
10
77.3649139999999989
20
-165.6053139999999928
11
77.4601519999999937
21
-165.7957899999999825
0
LINE
8
BLACK
6
CONTINUOUS
10
77.4601519999999937
20
-165.7957899999999825
11
77.4601519999999937
21
-165.8910280000000057
0
LINE
8
BLACK
6
CONTINUOUS
10
77.4601519999999937
20
-165.8910280000000057
11
77.3649139999999989
21
-166.0815039999999954
0
LINE
8
BLACK
6
CONTINUOUS
10
77.3649139999999989
20
-166.0815039999999954
11
77.2696759999999898
21
-166.1767419999999902
0
LINE
8
BLACK
6
CONTINUOUS
10
77.2696759999999898
20
-166.1767419999999902
11
77.0792000000000002
21
-166.271979999999985
0
LINE
8
BLACK
6
CONTINUOUS
10
77.0792000000000002
20
-166.271979999999985
11
76.698246999999995
21
-166.271979999999985
0
LINE
8
BLACK
6
CONTINUOUS
10
76.698246999999995
20
-166.271979999999985
11
76.5077709999999911
21
-166.3672190000000057
0
LINE
8
BLACK
6
CONTINUOUS
10
76.5077709999999911
20
-166.3672190000000057
11
76.4125329999999963
21
-166.4624570000000006
0
LINE
8
BLACK
6
CONTINUOUS
10
76.4125329999999963
20
-166.4624570000000006
11
76.3172950000000014
21
-166.6529329999999902
0
LINE
8
BLACK
6
CONTINUOUS
10
76.3172950000000014
20
-166.6529329999999902
11
76.3172950000000014
21
-167.0338849999999979
0
LINE
8
BLACK
6
CONTINUOUS
10
76.3172950000000014
20
-167.0338849999999979
11
76.4125329999999963
21
-167.2243609999999876
0
LINE
8
BLACK
6
CONTINUOUS
10
76.4125329999999963
20
-167.2243609999999876
11
76.5077709999999911
21
-167.3195999999999799
0
LINE
8
BLACK
6
CONTINUOUS
10
76.5077709999999911
20
-167.3195999999999799
11
76.698246999999995
21
-167.4148380000000031
0
LINE
8
BLACK
6
CONTINUOUS
10
76.698246999999995
20
-167.4148380000000031
11
77.0792000000000002
21
-167.4148380000000031
0
LINE
8
BLACK
6
CONTINUOUS
10
77.0792000000000002
20
-167.4148380000000031
11
77.2696759999999898
21
-167.3195999999999799
0
LINE
8
BLACK
6
CONTINUOUS
10
77.2696759999999898
20
-167.3195999999999799
11
77.3649139999999989
21
-167.2243609999999876
0
LINE
8
BLACK
6
CONTINUOUS
10
77.3649139999999989
20
-167.2243609999999876
11
77.4601519999999937
21
-167.0338849999999979
0
LINE
8
BLACK
6
CONTINUOUS
10
77.4601519999999937
20
-167.0338849999999979
11
77.4601519999999937
21
-166.6529329999999902
0
LINE
8
BLACK
6
CONTINUOUS
10
77.4601519999999937
20
-166.6529329999999902
11
77.3649139999999989
21
-166.4624570000000006
0
LINE
8
BLACK
6
CONTINUOUS
10
77.3649139999999989
20
-166.4624570000000006
11
77.2696759999999898
21
-166.3672190000000057
0
LINE
8
BLACK
6
CONTINUOUS
10
77.2696759999999898
20
-166.3672190000000057
11
77.0792000000000002
21
-166.271979999999985
0
LINE
8
BLACK
6
CONTINUOUS
10
79.3649139999999989
20
-167.4148380000000031
11
78.2220569999999924
21
-167.4148380000000031
0
LINE
8
BLACK
6
CONTINUOUS
10
78.7934849999999898
20
-167.4148380000000031
11
78.7934849999999898
21
-165.4148380000000031
0
LINE
8
BLACK
6
CONTINUOUS
10
78.7934849999999898
20
-165.4148380000000031
11
78.6030090000000001
21
-165.7005519999999876
0
LINE
8
BLACK
6
CONTINUOUS
10
78.6030090000000001
20
-165.7005519999999876
11
78.4125329999999963
21
-165.8910280000000057
0
LINE
8
BLACK
6
CONTINUOUS
10
78.4125329999999963
20
-165.8910280000000057
11
78.2220569999999924
21
-165.9862660000000005
0
LINE
8
BLACK
6
CONTINUOUS
10
81.7458669999999898
20
-167.4148380000000031
11
81.7458669999999898
21
-165.4148380000000031
0
LINE
8
BLACK
6
CONTINUOUS
10
82.6030099999999976
20
-167.4148380000000031
11
82.6030099999999976
21
-166.3672190000000057
0
LINE
8
BLACK
6
CONTINUOUS
10
82.6030099999999976
20
-166.3672190000000057
11
82.5077720000000028
21
-166.1767419999999902
0
LINE
8
BLACK
6
CONTINUOUS
10
82.5077720000000028
20
-166.1767419999999902
11
82.3172959999999989
21
-166.0815039999999954
0
LINE
8
BLACK
6
CONTINUOUS
10
82.3172959999999989
20
-166.0815039999999954
11
82.0315810000000027
21
-166.0815039999999954
0
LINE
8
BLACK
6
CONTINUOUS
10
82.0315810000000027
20
-166.0815039999999954
11
81.8411049999999989
21
-166.1767419999999902
0
LINE
8
BLACK
6
CONTINUOUS
10
81.8411049999999989
20
-166.1767419999999902
11
81.7458669999999898
21
-166.271979999999985
0
LINE
8
BLACK
6
CONTINUOUS
10
83.8411049999999989
20
-167.4148380000000031
11
83.650628999999995
21
-167.3195999999999799
0
LINE
8
BLACK
6
CONTINUOUS
10
83.650628999999995
20
-167.3195999999999799
11
83.5553910000000002
21
-167.2243609999999876
0
LINE
8
BLACK
6
CONTINUOUS
10
83.5553910000000002
20
-167.2243609999999876
11
83.4601529999999912
21
-167.0338849999999979
0
LINE
8
BLACK
6
CONTINUOUS
10
83.4601529999999912
20
-167.0338849999999979
11
83.4601529999999912
21
-166.4624570000000006
0
LINE
8
BLACK
6
CONTINUOUS
10
83.4601529999999912
20
-166.4624570000000006
11
83.5553910000000002
21
-166.271979999999985
0
LINE
8
BLACK
6
CONTINUOUS
10
83.5553910000000002
20
-166.271979999999985
11
83.650628999999995
21
-166.1767419999999902
0
LINE
8
BLACK
6
CONTINUOUS
10
83.650628999999995
20
-166.1767419999999902
11
83.8411049999999989
21
-166.0815039999999954
0
LINE
8
BLACK
6
CONTINUOUS
10
83.8411049999999989
20
-166.0815039999999954
11
84.126819999999995
21
-166.0815039999999954
0
LINE
8
BLACK
6
CONTINUOUS
10
84.126819999999995
20
-166.0815039999999954
11
84.3172959999999989
21
-166.1767419999999902
0
LINE
8
BLACK
6
CONTINUOUS
10
84.3172959999999989
20
-166.1767419999999902
11
84.4125339999999937
21
-166.271979999999985
0
LINE
8
BLACK
6
CONTINUOUS
10
84.4125339999999937
20
-166.271979999999985
11
84.5077720000000028
21
-166.4624570000000006
0
LINE
8
BLACK
6
CONTINUOUS
10
84.5077720000000028
20
-166.4624570000000006
11
84.5077720000000028
21
-167.0338849999999979
0
LINE
8
BLACK
6
CONTINUOUS
10
84.5077720000000028
20
-167.0338849999999979
11
84.4125339999999937
21
-167.2243609999999876
0
LINE
8
BLACK
6
CONTINUOUS
10
84.4125339999999937
20
-167.2243609999999876
11
84.3172959999999989
21
-167.3195999999999799
0
LINE
8
BLACK
6
CONTINUOUS
10
84.3172959999999989
20
-167.3195999999999799
11
84.126819999999995
21
-167.4148380000000031
0
LINE
8
BLACK
6
CONTINUOUS
10
84.126819999999995
20
-167.4148380000000031
11
83.8411049999999989
21
-167.4148380000000031
0
LINE
8
BLACK
6
CONTINUOUS
10
85.650628999999995
20
-167.4148380000000031
11
85.4601529999999912
21
-167.3195999999999799
0
LINE
8
BLACK
6
CONTINUOUS
10
85.4601529999999912
20
-167.3195999999999799
11
85.3649149999999963
21
-167.1291229999999928
0
LINE
8
BLACK
6
CONTINUOUS
10
85.3649149999999963
20
-167.1291229999999928
11
85.3649149999999963
21
-165.4148380000000031
0
LINE
8
BLACK
6
CONTINUOUS
10
87.1744389999999925
20
-167.3195999999999799
11
86.9839630000000028
21
-167.4148380000000031
0
LINE
8
BLACK
6
CONTINUOUS
10
86.9839630000000028
20
-167.4148380000000031
11
86.6030099999999976
21
-167.4148380000000031
0
LINE
8
BLACK
6
CONTINUOUS
10
86.6030099999999976
20
-167.4148380000000031
11
86.4125339999999937
21
-167.3195999999999799
0
LINE
8
BLACK
6
CONTINUOUS
10
86.4125339999999937
20
-167.3195999999999799
11
86.3172959999999989
21
-167.1291229999999928
0
LINE
8
BLACK
6
CONTINUOUS
10
86.3172959999999989
20
-167.1291229999999928
11
86.3172959999999989
21
-166.3672190000000057
0
LINE
8
BLACK
6
CONTINUOUS
10
86.3172959999999989
20
-166.3672190000000057
11
86.4125339999999937
21
-166.1767419999999902
0
LINE
8
BLACK
6
CONTINUOUS
10
86.4125339999999937
20
-166.1767419999999902
11
86.6030099999999976
21
-166.0815039999999954
0
LINE
8
BLACK
6
CONTINUOUS
10
86.6030099999999976
20
-166.0815039999999954
11
86.9839630000000028
21
-166.0815039999999954
0
LINE
8
BLACK
6
CONTINUOUS
10
86.9839630000000028
20
-166.0815039999999954
11
87.1744389999999925
21
-166.1767419999999902
0
LINE
8
BLACK
6
CONTINUOUS
10
87.1744389999999925
20
-166.1767419999999902
11
87.2696770000000015
21
-166.3672190000000057
0
LINE
8
BLACK
6
CONTINUOUS
10
87.2696770000000015
20
-166.3672190000000057
11
87.2696770000000015
21
-166.5576949999999954
0
LINE
8
BLACK
6
CONTINUOUS
10
87.2696770000000015
20
-166.5576949999999954
11
86.3172959999999989
21
-166.748170999999985
0
LINE
8
BLACK
6
CONTINUOUS
10
88.0315820000000002
20
-167.3195999999999799
11
88.2220579999999899
21
-167.4148380000000031
0
LINE
8
BLACK
6
CONTINUOUS
10
88.2220579999999899
20
-167.4148380000000031
11
88.6030099999999976
21
-167.4148380000000031
0
LINE
8
BLACK
6
CONTINUOUS
10
88.6030099999999976
20
-167.4148380000000031
11
88.7934869999999989
21
-167.3195999999999799
0
LINE
8
BLACK
6
CONTINUOUS
10
88.7934869999999989
20
-167.3195999999999799
11
88.8887249999999938
21
-167.1291229999999928
0
LINE
8
BLACK
6
CONTINUOUS
10
88.8887249999999938
20
-167.1291229999999928
11
88.8887249999999938
21
-167.0338849999999979
0
LINE
8
BLACK
6
CONTINUOUS
10
88.8887249999999938
20
-167.0338849999999979
11
88.7934869999999989
21
-166.8434089999999799
0
LINE
8
BLACK
6
CONTINUOUS
10
88.7934869999999989
20
-166.8434089999999799
11
88.6030099999999976
21
-166.748170999999985
0
LINE
8
BLACK
6
CONTINUOUS
10
88.6030099999999976
20
-166.748170999999985
11
88.3172959999999989
21
-166.748170999999985
0
LINE
8
BLACK
6
CONTINUOUS
10
88.3172959999999989
20
-166.748170999999985
11
88.126819999999995
21
-166.6529329999999902
0
LINE
8
BLACK
6
CONTINUOUS
10
88.126819999999995
20
-166.6529329999999902
11
88.0315820000000002
21
-166.4624570000000006
0
LINE
8
BLACK
6
CONTINUOUS
10
88.0315820000000002
20
-166.4624570000000006
11
88.0315820000000002
21
-166.3672190000000057
0
LINE
8
BLACK
6
CONTINUOUS
10
88.0315820000000002
20
-166.3672190000000057
11
88.126819999999995
21
-166.1767419999999902
0
LINE
8
BLACK
6
CONTINUOUS
10
88.126819999999995
20
-166.1767419999999902
11
88.3172959999999989
21
-166.0815039999999954
0
LINE
8
BLACK
6
CONTINUOUS
10
88.3172959999999989
20
-166.0815039999999954
11
88.6030099999999976
21
-166.0815039999999954
0
LINE
8
BLACK
6
CONTINUOUS
10
88.6030099999999976
20
-166.0815039999999954
11
88.7934869999999989
21
-166.1767419999999902
0
LINE
8
BLACK
6
CONTINUOUS
10
89.5553919999999977
20
-168.1767419999999902
11
89.6506299999999925
21
-168.0815039999999954
0
LINE
8
BLACK
6
CONTINUOUS
10
89.6506299999999925
20
-168.0815039999999954
11
89.8411059999999964
21
-167.7957899999999825
0
LINE
8
BLACK
6
CONTINUOUS
10
89.8411059999999964
20
-167.7957899999999825
11
89.9363439999999912
21
-167.6053139999999928
0
LINE
8
BLACK
6
CONTINUOUS
10
89.9363439999999912
20
-167.6053139999999928
11
90.0315820000000002
21
-167.3195999999999799
0
LINE
8
BLACK
6
CONTINUOUS
10
90.0315820000000002
20
-167.3195999999999799
11
90.126819999999995
21
-166.8434089999999799
0
LINE
8
BLACK
6
CONTINUOUS
10
90.126819999999995
20
-166.8434089999999799
11
90.126819999999995
21
-166.4624570000000006
0
LINE
8
BLACK
6
CONTINUOUS
10
90.126819999999995
20
-166.4624570000000006
11
90.0315820000000002
21
-165.9862660000000005
0
LINE
8
BLACK
6
CONTINUOUS
10
90.0315820000000002
20
-165.9862660000000005
11
89.9363439999999912
21
-165.7005519999999876
0
LINE
8
BLACK
6
CONTINUOUS
10
89.9363439999999912
20
-165.7005519999999876
11
89.8411059999999964
21
-165.510075999999998
0
LINE
8
BLACK
6
CONTINUOUS
10
89.8411059999999964
20
-165.510075999999998
11
89.6506299999999925
21
-165.2243609999999876
0
LINE
8
BLACK
6
CONTINUOUS
10
89.6506299999999925
20
-165.2243609999999876
11
89.5553919999999977
21
-165.1291229999999928
0
CIRCLE
8
BLACK
10
39.3999999999999986
20
-169.1399999999999864
40
0.5
0
LINE
8
BLACK
6
CONTINUOUS
10
43.5553869999999961
20
-170.0548379999999895
11
42.4125299999999967
21
-170.0548379999999895
0
LINE
8
BLACK
6
CONTINUOUS
10
42.9839580000000012
20
-170.0548379999999895
11
42.9839580000000012
21
-168.0548379999999895
0
LINE
8
BLACK
6
CONTINUOUS
10
42.9839580000000012
20
-168.0548379999999895
11
42.7934819999999974
21
-168.3405520000000024
0
LINE
8
BLACK
6
CONTINUOUS
10
42.7934819999999974
20
-168.3405520000000024
11
42.6030060000000006
21
-168.5310279999999921
0
LINE
8
BLACK
6
CONTINUOUS
10
42.6030060000000006
20
-168.5310279999999921
11
42.4125299999999967
21
-168.6262659999999869
0
LINE
8
BLACK
6
CONTINUOUS
10
44.4125299999999967
20
-169.8643610000000024
11
44.5077679999999987
21
-169.9595999999999947
0
LINE
8
BLACK
6
CONTINUOUS
10
44.5077679999999987
20
-169.9595999999999947
11
44.4125299999999967
21
-170.0548379999999895
0
LINE
8
BLACK
6
CONTINUOUS
10
44.4125299999999967
20
-170.0548379999999895
11
44.3172919999999948
21
-169.9595999999999947
0
LINE
8
BLACK
6
CONTINUOUS
10
44.3172919999999948
20
-169.9595999999999947
11
44.4125299999999967
21
-169.8643610000000024
0
LINE
8
BLACK
6
CONTINUOUS
10
44.4125299999999967
20
-169.8643610000000024
11
44.4125299999999967
21
-170.0548379999999895
0
LINE
8
BLACK
6
CONTINUOUS
10
45.7458629999999999
20
-168.0548379999999895
11
45.9363400000000013
21
-168.0548379999999895
0
LINE
8
BLACK
6
CONTINUOUS
10
45.9363400000000013
20
-168.0548379999999895
11
46.126815999999998
21
-168.1500759999999843
0
LINE
8
BLACK
6
CONTINUOUS
10
46.126815999999998
20
-168.1500759999999843
11
46.222054
21
-168.2453139999999792
0
LINE
8
BLACK
6
CONTINUOUS
10
46.222054
20
-168.2453139999999792
11
46.3172919999999948
21
-168.4357899999999972
0
LINE
8
BLACK
6
CONTINUOUS
10
46.3172919999999948
20
-168.4357899999999972
11
46.4125299999999967
21
-168.816742000000005
0
LINE
8
BLACK
6
CONTINUOUS
10
46.4125299999999967
20
-168.816742000000005
11
46.4125299999999967
21
-169.292933000000005
0
LINE
8
BLACK
6
CONTINUOUS
10
46.4125299999999967
20
-169.292933000000005
11
46.3172919999999948
21
-169.6738849999999843
0
LINE
8
BLACK
6
CONTINUOUS
10
46.3172919999999948
20
-169.6738849999999843
11
46.222054
21
-169.8643610000000024
0
LINE
8
BLACK
6
CONTINUOUS
10
46.222054
20
-169.8643610000000024
11
46.126815999999998
21
-169.9595999999999947
0
LINE
8
BLACK
6
CONTINUOUS
10
46.126815999999998
20
-169.9595999999999947
11
45.9363400000000013
21
-170.0548379999999895
0
LINE
8
BLACK
6
CONTINUOUS
10
45.9363400000000013
20
-170.0548379999999895
11
45.7458629999999999
21
-170.0548379999999895
0
LINE
8
BLACK
6
CONTINUOUS
10
45.7458629999999999
20
-170.0548379999999895
11
45.5553869999999961
21
-169.9595999999999947
0
LINE
8
BLACK
6
CONTINUOUS
10
45.5553869999999961
20
-169.9595999999999947
11
45.4601490000000013
21
-169.8643610000000024
0
LINE
8
BLACK
6
CONTINUOUS
10
45.4601490000000013
20
-169.8643610000000024
11
45.3649109999999993
21
-169.6738849999999843
0
LINE
8
BLACK
6
CONTINUOUS
10
45.3649109999999993
20
-169.6738849999999843
11
45.2696729999999974
21
-169.292933000000005
0
LINE
8
BLACK
6
CONTINUOUS
10
45.2696729999999974
20
-169.292933000000005
11
45.2696729999999974
21
-168.816742000000005
0
LINE
8
BLACK
6
CONTINUOUS
10
45.2696729999999974
20
-168.816742000000005
11
45.3649109999999993
21
-168.4357899999999972
0
LINE
8
BLACK
6
CONTINUOUS
10
45.3649109999999993
20
-168.4357899999999972
11
45.4601490000000013
21
-168.2453139999999792
0
LINE
8
BLACK
6
CONTINUOUS
10
45.4601490000000013
20
-168.2453139999999792
11
45.5553869999999961
21
-168.1500759999999843
0
LINE
8
BLACK
6
CONTINUOUS
10
45.5553869999999961
20
-168.1500759999999843
11
45.7458629999999999
21
-168.0548379999999895
0
LINE
8
BLACK
6
CONTINUOUS
10
47.650624999999998
20
-168.0548379999999895
11
47.8411019999999994
21
-168.0548379999999895
0
LINE
8
BLACK
6
CONTINUOUS
10
47.8411019999999994
20
-168.0548379999999895
11
48.0315779999999961
21
-168.1500759999999843
0
LINE
8
BLACK
6
CONTINUOUS
10
48.0315779999999961
20
-168.1500759999999843
11
48.126815999999998
21
-168.2453139999999792
0
LINE
8
BLACK
6
CONTINUOUS
10
48.126815999999998
20
-168.2453139999999792
11
48.222054
21
-168.4357899999999972
0
LINE
8
BLACK
6
CONTINUOUS
10
48.222054
20
-168.4357899999999972
11
48.3172919999999948
21
-168.816742000000005
0
LINE
8
BLACK
6
CONTINUOUS
10
48.3172919999999948
20
-168.816742000000005
11
48.3172919999999948
21
-169.292933000000005
0
LINE
8
BLACK
6
CONTINUOUS
10
48.3172919999999948
20
-169.292933000000005
11
48.222054
21
-169.6738849999999843
0
LINE
8
BLACK
6
CONTINUOUS
10
48.222054
20
-169.6738849999999843
11
48.126815999999998
21
-169.8643610000000024
0
LINE
8
BLACK
6
CONTINUOUS
10
48.126815999999998
20
-169.8643610000000024
11
48.0315779999999961
21
-169.9595999999999947
0
LINE
8
BLACK
6
CONTINUOUS
10
48.0315779999999961
20
-169.9595999999999947
11
47.8411019999999994
21
-170.0548379999999895
0
LINE
8
BLACK
6
CONTINUOUS
10
47.8411019999999994
20
-170.0548379999999895
11
47.650624999999998
21
-170.0548379999999895
0
LINE
8
BLACK
6
CONTINUOUS
10
47.650624999999998
20
-170.0548379999999895
11
47.4601490000000013
21
-169.9595999999999947
0
LINE
8
BLACK
6
CONTINUOUS
10
47.4601490000000013
20
-169.9595999999999947
11
47.3649109999999993
21
-169.8643610000000024
0
LINE
8
BLACK
6
CONTINUOUS
10
47.3649109999999993
20
-169.8643610000000024
11
47.2696729999999974
21
-169.6738849999999843
0
LINE
8
BLACK
6
CONTINUOUS
10
47.2696729999999974
20
-169.6738849999999843
11
47.1744349999999955
21
-169.292933000000005
0
LINE
8
BLACK
6
CONTINUOUS
10
47.1744349999999955
20
-169.292933000000005
11
47.1744349999999955
21
-168.816742000000005
0
LINE
8
BLACK
6
CONTINUOUS
10
47.1744349999999955
20
-168.816742000000005
11
47.2696729999999974
21
-168.4357899999999972
0
LINE
8
BLACK
6
CONTINUOUS
10
47.2696729999999974
20
-168.4357899999999972
11
47.3649109999999993
21
-168.2453139999999792
0
LINE
8
BLACK
6
CONTINUOUS
10
47.3649109999999993
20
-168.2453139999999792
11
47.4601490000000013
21
-168.1500759999999843
0
LINE
8
BLACK
6
CONTINUOUS
10
47.4601490000000013
20
-168.1500759999999843
11
47.650624999999998
21
-168.0548379999999895
0
LINE
8
BLACK
6
CONTINUOUS
10
49.5553869999999961
20
-168.0548379999999895
11
49.7458639999999974
21
-168.0548379999999895
0
LINE
8
BLACK
6
CONTINUOUS
10
49.7458639999999974
20
-168.0548379999999895
11
49.9363400000000013
21
-168.1500759999999843
0
LINE
8
BLACK
6
CONTINUOUS
10
49.9363400000000013
20
-168.1500759999999843
11
50.0315779999999961
21
-168.2453139999999792
0
LINE
8
BLACK
6
CONTINUOUS
10
50.0315779999999961
20
-168.2453139999999792
11
50.126815999999998
21
-168.4357899999999972
0
LINE
8
BLACK
6
CONTINUOUS
10
50.126815999999998
20
-168.4357899999999972
11
50.222054
21
-168.816742000000005
0
LINE
8
BLACK
6
CONTINUOUS
10
50.222054
20
-168.816742000000005
11
50.222054
21
-169.292933000000005
0
LINE
8
BLACK
6
CONTINUOUS
10
50.222054
20
-169.292933000000005
11
50.126815999999998
21
-169.6738849999999843
0
LINE
8
BLACK
6
CONTINUOUS
10
50.126815999999998
20
-169.6738849999999843
11
50.0315779999999961
21
-169.8643610000000024
0
LINE
8
BLACK
6
CONTINUOUS
10
50.0315779999999961
20
-169.8643610000000024
11
49.9363400000000013
21
-169.9595999999999947
0
LINE
8
BLACK
6
CONTINUOUS
10
49.9363400000000013
20
-169.9595999999999947
11
49.7458639999999974
21
-170.0548379999999895
0
LINE
8
BLACK
6
CONTINUOUS
10
49.7458639999999974
20
-170.0548379999999895
11
49.5553869999999961
21
-170.0548379999999895
0
LINE
8
BLACK
6
CONTINUOUS
10
49.5553869999999961
20
-170.0548379999999895
11
49.3649109999999993
21
-169.9595999999999947
0
LINE
8
BLACK
6
CONTINUOUS
10
49.3649109999999993
20
-169.9595999999999947
11
49.2696729999999974
21
-169.8643610000000024
0
LINE
8
BLACK
6
CONTINUOUS
10
49.2696729999999974
20
-169.8643610000000024
11
49.1744349999999955
21
-169.6738849999999843
0
LINE
8
BLACK
6
CONTINUOUS
10
49.1744349999999955
20
-169.6738849999999843
11
49.0791970000000006
21
-169.292933000000005
0
LINE
8
BLACK
6
CONTINUOUS
10
49.0791970000000006
20
-169.292933000000005
11
49.0791970000000006
21
-168.816742000000005
0
LINE
8
BLACK
6
CONTINUOUS
10
49.0791970000000006
20
-168.816742000000005
11
49.1744349999999955
21
-168.4357899999999972
0
LINE
8
BLACK
6
CONTINUOUS
10
49.1744349999999955
20
-168.4357899999999972
11
49.2696729999999974
21
-168.2453139999999792
0
LINE
8
BLACK
6
CONTINUOUS
10
49.2696729999999974
20
-168.2453139999999792
11
49.3649109999999993
21
-168.1500759999999843
0
LINE
8
BLACK
6
CONTINUOUS
10
49.3649109999999993
20
-168.1500759999999843
11
49.5553869999999961
21
-168.0548379999999895
0
LINE
8
BLACK
6
CONTINUOUS
10
51.0791970000000006
20
-170.0548379999999895
11
51.0791970000000006
21
-168.7215039999999817
0
LINE
8
BLACK
6
CONTINUOUS
10
51.0791970000000006
20
-168.9119799999999998
11
51.1744349999999955
21
-168.816742000000005
0
LINE
8
BLACK
6
CONTINUOUS
10
51.1744349999999955
20
-168.816742000000005
11
51.3649109999999993
21
-168.7215039999999817
0
LINE
8
BLACK
6
CONTINUOUS
10
51.3649109999999993
20
-168.7215039999999817
11
51.6506259999999955
21
-168.7215039999999817
0
LINE
8
BLACK
6
CONTINUOUS
10
51.6506259999999955
20
-168.7215039999999817
11
51.8411019999999994
21
-168.816742000000005
0
LINE
8
BLACK
6
CONTINUOUS
10
51.8411019999999994
20
-168.816742000000005
11
51.9363399999999942
21
-169.0072189999999921
0
LINE
8
BLACK
6
CONTINUOUS
10
51.9363399999999942
20
-169.0072189999999921
11
51.9363399999999942
21
-170.0548379999999895
0
LINE
8
BLACK
6
CONTINUOUS
10
51.9363399999999942
20
-169.0072189999999921
11
52.0315779999999961
21
-168.816742000000005
0
LINE
8
BLACK
6
CONTINUOUS
10
52.0315779999999961
20
-168.816742000000005
11
52.222054
21
-168.7215039999999817
0
LINE
8
BLACK
6
CONTINUOUS
10
52.222054
20
-168.7215039999999817
11
52.5077679999999987
21
-168.7215039999999817
0
LINE
8
BLACK
6
CONTINUOUS
10
52.5077679999999987
20
-168.7215039999999817
11
52.698245
21
-168.816742000000005
0
LINE
8
BLACK
6
CONTINUOUS
10
52.698245
20
-168.816742000000005
11
52.7934829999999948
21
-169.0072189999999921
0
LINE
8
BLACK
6
CONTINUOUS
10
52.7934829999999948
20
-169.0072189999999921
11
52.7934829999999948
21
-170.0548379999999895
0
LINE
8
BLACK
6
CONTINUOUS
10
53.7458639999999974
20
-170.0548379999999895
11
53.7458639999999974
21
-168.7215039999999817
0
LINE
8
BLACK
6
CONTINUOUS
10
53.7458639999999974
20
-168.9119799999999998
11
53.8411019999999994
21
-168.816742000000005
0
LINE
8
BLACK
6
CONTINUOUS
10
53.8411019999999994
20
-168.816742000000005
11
54.0315779999999961
21
-168.7215039999999817
0
LINE
8
BLACK
6
CONTINUOUS
10
54.0315779999999961
20
-168.7215039999999817
11
54.3172929999999994
21
-168.7215039999999817
0
LINE
8
BLACK
6
CONTINUOUS
10
54.3172929999999994
20
-168.7215039999999817
11
54.5077689999999961
21
-168.816742000000005
0
LINE
8
BLACK
6
CONTINUOUS
10
54.5077689999999961
20
-168.816742000000005
11
54.6030069999999981
21
-169.0072189999999921
0
LINE
8
BLACK
6
CONTINUOUS
10
54.6030069999999981
20
-169.0072189999999921
11
54.6030069999999981
21
-170.0548379999999895
0
LINE
8
BLACK
6
CONTINUOUS
10
54.6030069999999981
20
-169.0072189999999921
11
54.698245
21
-168.816742000000005
0
LINE
8
BLACK
6
CONTINUOUS
10
54.698245
20
-168.816742000000005
11
54.8887209999999968
21
-168.7215039999999817
0
LINE
8
BLACK
6
CONTINUOUS
10
54.8887209999999968
20
-168.7215039999999817
11
55.1744349999999955
21
-168.7215039999999817
0
LINE
8
BLACK
6
CONTINUOUS
10
55.1744349999999955
20
-168.7215039999999817
11
55.3649119999999968
21
-168.816742000000005
0
LINE
8
BLACK
6
CONTINUOUS
10
55.3649119999999968
20
-168.816742000000005
11
55.4601499999999987
21
-169.0072189999999921
0
LINE
8
BLACK
6
CONTINUOUS
10
55.4601499999999987
20
-169.0072189999999921
11
55.4601499999999987
21
-170.0548379999999895
0
LINE
8
BLACK
6
CONTINUOUS
10
59.3649119999999968
20
-167.9595999999999947
11
57.6506270000000001
21
-170.5310279999999921
0
LINE
8
BLACK
6
CONTINUOUS
10
61.9363409999999988
20
-168.0548379999999895
11
62.1268180000000001
21
-168.0548379999999895
0
LINE
8
BLACK
6
CONTINUOUS
10
62.1268180000000001
20
-168.0548379999999895
11
62.3172939999999969
21
-168.1500759999999843
0
LINE
8
BLACK
6
CONTINUOUS
10
62.3172939999999969
20
-168.1500759999999843
11
62.4125319999999988
21
-168.2453139999999792
0
LINE
8
BLACK
6
CONTINUOUS
10
62.4125319999999988
20
-168.2453139999999792
11
62.5077700000000007
21
-168.4357899999999972
0
LINE
8
BLACK
6
CONTINUOUS
10
62.5077700000000007
20
-168.4357899999999972
11
62.6030079999999955
21
-168.816742000000005
0
LINE
8
BLACK
6
CONTINUOUS
10
62.6030079999999955
20
-168.816742000000005
11
62.6030079999999955
21
-169.292933000000005
0
LINE
8
BLACK
6
CONTINUOUS
10
62.6030079999999955
20
-169.292933000000005
11
62.5077700000000007
21
-169.6738849999999843
0
LINE
8
BLACK
6
CONTINUOUS
10
62.5077700000000007
20
-169.6738849999999843
11
62.4125319999999988
21
-169.8643610000000024
0
LINE
8
BLACK
6
CONTINUOUS
10
62.4125319999999988
20
-169.8643610000000024
11
62.3172939999999969
21
-169.9595999999999947
0
LINE
8
BLACK
6
CONTINUOUS
10
62.3172939999999969
20
-169.9595999999999947
11
62.1268180000000001
21
-170.0548379999999895
0
LINE
8
BLACK
6
CONTINUOUS
10
62.1268180000000001
20
-170.0548379999999895
11
61.9363409999999988
21
-170.0548379999999895
0
LINE
8
BLACK
6
CONTINUOUS
10
61.9363409999999988
20
-170.0548379999999895
11
61.7458649999999949
21
-169.9595999999999947
0
LINE
8
BLACK
6
CONTINUOUS
10
61.7458649999999949
20
-169.9595999999999947
11
61.6506270000000001
21
-169.8643610000000024
0
LINE
8
BLACK
6
CONTINUOUS
10
61.6506270000000001
20
-169.8643610000000024
11
61.5553889999999981
21
-169.6738849999999843
0
LINE
8
BLACK
6
CONTINUOUS
10
61.5553889999999981
20
-169.6738849999999843
11
61.4601509999999962
21
-169.292933000000005
0
LINE
8
BLACK
6
CONTINUOUS
10
61.4601509999999962
20
-169.292933000000005
11
61.4601509999999962
21
-168.816742000000005
0
LINE
8
BLACK
6
CONTINUOUS
10
61.4601509999999962
20
-168.816742000000005
11
61.5553889999999981
21
-168.4357899999999972
0
LINE
8
BLACK
6
CONTINUOUS
10
61.5553889999999981
20
-168.4357899999999972
11
61.6506270000000001
21
-168.2453139999999792
0
LINE
8
BLACK
6
CONTINUOUS
10
61.6506270000000001
20
-168.2453139999999792
11
61.7458649999999949
21
-168.1500759999999843
0
LINE
8
BLACK
6
CONTINUOUS
10
61.7458649999999949
20
-168.1500759999999843
11
61.9363409999999988
21
-168.0548379999999895
0
LINE
8
BLACK
6
CONTINUOUS
10
63.4601509999999962
20
-169.8643610000000024
11
63.5553889999999981
21
-169.9595999999999947
0
LINE
8
BLACK
6
CONTINUOUS
10
63.5553889999999981
20
-169.9595999999999947
11
63.4601509999999962
21
-170.0548379999999895
0
LINE
8
BLACK
6
CONTINUOUS
10
63.4601509999999962
20
-170.0548379999999895
11
63.3649129999999943
21
-169.9595999999999947
0
LINE
8
BLACK
6
CONTINUOUS
10
63.3649129999999943
20
-169.9595999999999947
11
63.4601509999999962
21
-169.8643610000000024
0
LINE
8
BLACK
6
CONTINUOUS
10
63.4601509999999962
20
-169.8643610000000024
11
63.4601509999999962
21
-170.0548379999999895
0
LINE
8
BLACK
6
CONTINUOUS
10
64.7934839999999923
20
-168.0548379999999895
11
64.9839609999999936
21
-168.0548379999999895
0
LINE
8
BLACK
6
CONTINUOUS
10
64.9839609999999936
20
-168.0548379999999895
11
65.1744369999999975
21
-168.1500759999999843
0
LINE
8
BLACK
6
CONTINUOUS
10
65.1744369999999975
20
-168.1500759999999843
11
65.2696749999999923
21
-168.2453139999999792
0
LINE
8
BLACK
6
CONTINUOUS
10
65.2696749999999923
20
-168.2453139999999792
11
65.3649130000000014
21
-168.4357899999999972
0
LINE
8
BLACK
6
CONTINUOUS
10
65.3649130000000014
20
-168.4357899999999972
11
65.4601509999999962
21
-168.816742000000005
0
LINE
8
BLACK
6
CONTINUOUS
10
65.4601509999999962
20
-168.816742000000005
11
65.4601509999999962
21
-169.292933000000005
0
LINE
8
BLACK
6
CONTINUOUS
10
65.4601509999999962
20
-169.292933000000005
11
65.3649130000000014
21
-169.6738849999999843
0
LINE
8
BLACK
6
CONTINUOUS
10
65.3649130000000014
20
-169.6738849999999843
11
65.2696749999999923
21
-169.8643610000000024
0
LINE
8
BLACK
6
CONTINUOUS
10
65.2696749999999923
20
-169.8643610000000024
11
65.1744369999999975
21
-169.9595999999999947
0
LINE
8
BLACK
6
CONTINUOUS
10
65.1744369999999975
20
-169.9595999999999947
11
64.9839609999999936
21
-170.0548379999999895
0
LINE
8
BLACK
6
CONTINUOUS
10
64.9839609999999936
20
-170.0548379999999895
11
64.7934839999999923
21
-170.0548379999999895
0
LINE
8
BLACK
6
CONTINUOUS
10
64.7934839999999923
20
-170.0548379999999895
11
64.6030080000000027
21
-169.9595999999999947
0
LINE
8
BLACK
6
CONTINUOUS
10
64.6030080000000027
20
-169.9595999999999947
11
64.5077699999999936
21
-169.8643610000000024
0
LINE
8
BLACK
6
CONTINUOUS
10
64.5077699999999936
20
-169.8643610000000024
11
64.4125319999999988
21
-169.6738849999999843
0
LINE
8
BLACK
6
CONTINUOUS
10
64.4125319999999988
20
-169.6738849999999843
11
64.317294000000004
21
-169.292933000000005
0
LINE
8
BLACK
6
CONTINUOUS
10
64.317294000000004
20
-169.292933000000005
11
64.317294000000004
21
-168.816742000000005
0
LINE
8
BLACK
6
CONTINUOUS
10
64.317294000000004
20
-168.816742000000005
11
64.4125319999999988
21
-168.4357899999999972
0
LINE
8
BLACK
6
CONTINUOUS
10
64.4125319999999988
20
-168.4357899999999972
11
64.5077699999999936
21
-168.2453139999999792
0
LINE
8
BLACK
6
CONTINUOUS
10
64.5077699999999936
20
-168.2453139999999792
11
64.6030080000000027
21
-168.1500759999999843
0
LINE
8
BLACK
6
CONTINUOUS
10
64.6030080000000027
20
-168.1500759999999843
11
64.7934839999999923
21
-168.0548379999999895
0
LINE
8
BLACK
6
CONTINUOUS
10
66.1268180000000001
20
-168.0548379999999895
11
67.3649130000000014
21
-168.0548379999999895
0
LINE
8
BLACK
6
CONTINUOUS
10
67.3649130000000014
20
-168.0548379999999895
11
66.6982459999999975
21
-168.816742000000005
0
LINE
8
BLACK
6
CONTINUOUS
10
66.6982459999999975
20
-168.816742000000005
11
66.9839609999999936
21
-168.816742000000005
0
LINE
8
BLACK
6
CONTINUOUS
10
66.9839609999999936
20
-168.816742000000005
11
67.1744369999999975
21
-168.9119799999999998
0
LINE
8
BLACK
6
CONTINUOUS
10
67.1744369999999975
20
-168.9119799999999998
11
67.2696749999999923
21
-169.0072189999999921
0
LINE
8
BLACK
6
CONTINUOUS
10
67.2696749999999923
20
-169.0072189999999921
11
67.3649130000000014
21
-169.1976949999999817
0
LINE
8
BLACK
6
CONTINUOUS
10
67.3649130000000014
20
-169.1976949999999817
11
67.3649130000000014
21
-169.6738849999999843
0
LINE
8
BLACK
6
CONTINUOUS
10
67.3649130000000014
20
-169.6738849999999843
11
67.2696749999999923
21
-169.8643610000000024
0
LINE
8
BLACK
6
CONTINUOUS
10
67.2696749999999923
20
-169.8643610000000024
11
67.1744369999999975
21
-169.9595999999999947
0
LINE
8
BLACK
6
CONTINUOUS
10
67.1744369999999975
20
-169.9595999999999947
11
66.9839609999999936
21
-170.0548379999999895
0
LINE
8
BLACK
6
CONTINUOUS
10
66.9839609999999936
20
-170.0548379999999895
11
66.4125319999999988
21
-170.0548379999999895
0
LINE
8
BLACK
6
CONTINUOUS
10
66.4125319999999988
20
-170.0548379999999895
11
66.2220559999999949
21
-169.9595999999999947
0
LINE
8
BLACK
6
CONTINUOUS
10
66.2220559999999949
20
-169.9595999999999947
11
66.1268180000000001
21
-169.8643610000000024
0
LINE
8
BLACK
6
CONTINUOUS
10
68.317294000000004
20
-170.0548379999999895
11
68.6982459999999975
21
-170.0548379999999895
0
LINE
8
BLACK
6
CONTINUOUS
10
68.6982459999999975
20
-170.0548379999999895
11
68.8887229999999988
21
-169.9595999999999947
0
LINE
8
BLACK
6
CONTINUOUS
10
68.8887229999999988
20
-169.9595999999999947
11
68.9839609999999936
21
-169.8643610000000024
0
LINE
8
BLACK
6
CONTINUOUS
10
68.9839609999999936
20
-169.8643610000000024
11
69.1744369999999975
21
-169.5786469999999895
0
LINE
8
BLACK
6
CONTINUOUS
10
69.1744369999999975
20
-169.5786469999999895
11
69.2696749999999923
21
-169.1976949999999817
0
LINE
8
BLACK
6
CONTINUOUS
10
69.2696749999999923
20
-169.1976949999999817
11
69.2696749999999923
21
-168.4357899999999972
0
LINE
8
BLACK
6
CONTINUOUS
10
69.2696749999999923
20
-168.4357899999999972
11
69.1744369999999975
21
-168.2453139999999792
0
LINE
8
BLACK
6
CONTINUOUS
10
69.1744369999999975
20
-168.2453139999999792
11
69.0791990000000027
21
-168.1500759999999843
0
LINE
8
BLACK
6
CONTINUOUS
10
69.0791990000000027
20
-168.1500759999999843
11
68.8887229999999988
21
-168.0548379999999895
0
LINE
8
BLACK
6
CONTINUOUS
10
68.8887229999999988
20
-168.0548379999999895
11
68.5077699999999936
21
-168.0548379999999895
0
LINE
8
BLACK
6
CONTINUOUS
10
68.5077699999999936
20
-168.0548379999999895
11
68.317294000000004
21
-168.1500759999999843
0
LINE
8
BLACK
6
CONTINUOUS
10
68.317294000000004
20
-168.1500759999999843
11
68.2220559999999949
21
-168.2453139999999792
0
LINE
8
BLACK
6
CONTINUOUS
10
68.2220559999999949
20
-168.2453139999999792
11
68.1268180000000001
21
-168.4357899999999972
0
LINE
8
BLACK
6
CONTINUOUS
10
68.1268180000000001
20
-168.4357899999999972
11
68.1268180000000001
21
-168.9119799999999998
0
LINE
8
BLACK
6
CONTINUOUS
10
68.1268180000000001
20
-168.9119799999999998
11
68.2220559999999949
21
-169.1024569999999869
0
LINE
8
BLACK
6
CONTINUOUS
10
68.2220559999999949
20
-169.1024569999999869
11
68.317294000000004
21
-169.1976949999999817
0
LINE
8
BLACK
6
CONTINUOUS
10
68.317294000000004
20
-169.1976949999999817
11
68.5077699999999936
21
-169.292933000000005
0
LINE
8
BLACK
6
CONTINUOUS
10
68.5077699999999936
20
-169.292933000000005
11
68.8887229999999988
21
-169.292933000000005
0
LINE
8
BLACK
6
CONTINUOUS
10
68.8887229999999988
20
-169.292933000000005
11
69.0791990000000027
21
-169.1976949999999817
0
LINE
8
BLACK
6
CONTINUOUS
10
69.0791990000000027
20
-169.1976949999999817
11
69.1744369999999975
21
-169.1024569999999869
0
LINE
8
BLACK
6
CONTINUOUS
10
69.1744369999999975
20
-169.1024569999999869
11
69.2696749999999923
21
-168.9119799999999998
0
LINE
8
BLACK
6
CONTINUOUS
10
70.9839609999999936
20
-168.7215039999999817
11
70.9839609999999936
21
-170.0548379999999895
0
LINE
8
BLACK
6
CONTINUOUS
10
70.5077699999999936
20
-167.9595999999999947
11
70.0315799999999911
21
-169.3881709999999998
0
LINE
8
BLACK
6
CONTINUOUS
10
70.0315799999999911
20
-169.3881709999999998
11
71.2696749999999923
21
-169.3881709999999998
0
LINE
8
BLACK
6
CONTINUOUS
10
71.9363419999999962
20
-168.0548379999999895
11
71.9363419999999962
21
-168.4357899999999972
0
LINE
8
BLACK
6
CONTINUOUS
10
72.698246999999995
20
-168.0548379999999895
11
72.698246999999995
21
-168.4357899999999972
0
LINE
8
BLACK
6
CONTINUOUS
10
75.650628999999995
20
-170.816742000000005
11
75.5553900000000027
21
-170.7215039999999817
0
LINE
8
BLACK
6
CONTINUOUS
10
75.5553900000000027
20
-170.7215039999999817
11
75.3649139999999989
21
-170.4357899999999972
0
LINE
8
BLACK
6
CONTINUOUS
10
75.3649139999999989
20
-170.4357899999999972
11
75.2696759999999898
21
-170.2453139999999792
0
LINE
8
BLACK
6
CONTINUOUS
10
75.2696759999999898
20
-170.2453139999999792
11
75.174437999999995
21
-169.9595999999999947
0
LINE
8
BLACK
6
CONTINUOUS
10
75.174437999999995
20
-169.9595999999999947
11
75.0792000000000002
21
-169.4834089999999946
0
LINE
8
BLACK
6
CONTINUOUS
10
75.0792000000000002
20
-169.4834089999999946
11
75.0792000000000002
21
-169.1024569999999869
0
LINE
8
BLACK
6
CONTINUOUS
10
75.0792000000000002
20
-169.1024569999999869
11
75.174437999999995
21
-168.6262659999999869
0
LINE
8
BLACK
6
CONTINUOUS
10
75.174437999999995
20
-168.6262659999999869
11
75.2696759999999898
21
-168.3405520000000024
0
LINE
8
BLACK
6
CONTINUOUS
10
75.2696759999999898
20
-168.3405520000000024
11
75.3649139999999989
21
-168.1500759999999843
0
LINE
8
BLACK
6
CONTINUOUS
10
75.3649139999999989
20
-168.1500759999999843
11
75.5553900000000027
21
-167.8643610000000024
0
LINE
8
BLACK
6
CONTINUOUS
10
75.5553900000000027
20
-167.8643610000000024
11
75.650628999999995
21
-167.7691229999999791
0
LINE
8
BLACK
6
CONTINUOUS
10
77.4601519999999937
20
-170.0548379999999895
11
76.3172950000000014
21
-170.0548379999999895
0
LINE
8
BLACK
6
CONTINUOUS
10
76.8887229999999988
20
-170.0548379999999895
11
76.8887229999999988
21
-168.0548379999999895
0
LINE
8
BLACK
6
CONTINUOUS
10
76.8887229999999988
20
-168.0548379999999895
11
76.698246999999995
21
-168.3405520000000024
0
LINE
8
BLACK
6
CONTINUOUS
10
76.698246999999995
20
-168.3405520000000024
11
76.5077709999999911
21
-168.5310279999999921
0
LINE
8
BLACK
6
CONTINUOUS
10
76.5077709999999911
20
-168.5310279999999921
11
76.3172950000000014
21
-168.6262659999999869
0
LINE
8
BLACK
6
CONTINUOUS
10
78.2220569999999924
20
-168.2453139999999792
11
78.3172950000000014
21
-168.1500759999999843
0
LINE
8
BLACK
6
CONTINUOUS
10
78.3172950000000014
20
-168.1500759999999843
11
78.5077709999999911
21
-168.0548379999999895
0
LINE
8
BLACK
6
CONTINUOUS
10
78.5077709999999911
20
-168.0548379999999895
11
78.9839619999999911
21
-168.0548379999999895
0
LINE
8
BLACK
6
CONTINUOUS
10
78.9839619999999911
20
-168.0548379999999895
11
79.174437999999995
21
-168.1500759999999843
0
LINE
8
BLACK
6
CONTINUOUS
10
79.174437999999995
20
-168.1500759999999843
11
79.2696759999999898
21
-168.2453139999999792
0
LINE
8
BLACK
6
CONTINUOUS
10
79.2696759999999898
20
-168.2453139999999792
11
79.3649139999999989
21
-168.4357899999999972
0
LINE
8
BLACK
6
CONTINUOUS
10
79.3649139999999989
20
-168.4357899999999972
11
79.3649139999999989
21
-168.6262659999999869
0
LINE
8
BLACK
6
CONTINUOUS
10
79.3649139999999989
20
-168.6262659999999869
11
79.2696759999999898
21
-168.9119799999999998
0
LINE
8
BLACK
6
CONTINUOUS
10
79.2696759999999898
20
-168.9119799999999998
11
78.1268189999999976
21
-170.0548379999999895
0
LINE
8
BLACK
6
CONTINUOUS
10
78.1268189999999976
20
-170.0548379999999895
11
79.3649139999999989
21
-170.0548379999999895
0
LINE
8
BLACK
6
CONTINUOUS
10
81.7458669999999898
20
-170.0548379999999895
11
81.7458669999999898
21
-168.0548379999999895
0
LINE
8
BLACK
6
CONTINUOUS
10
82.6030099999999976
20
-170.0548379999999895
11
82.6030099999999976
21
-169.0072189999999921
0
LINE
8
BLACK
6
CONTINUOUS
10
82.6030099999999976
20
-169.0072189999999921
11
82.5077720000000028
21
-168.816742000000005
0
LINE
8
BLACK
6
CONTINUOUS
10
82.5077720000000028
20
-168.816742000000005
11
82.3172959999999989
21
-168.7215039999999817
0
LINE
8
BLACK
6
CONTINUOUS
10
82.3172959999999989
20
-168.7215039999999817
11
82.0315810000000027
21
-168.7215039999999817
0
LINE
8
BLACK
6
CONTINUOUS
10
82.0315810000000027
20
-168.7215039999999817
11
81.8411049999999989
21
-168.816742000000005
0
LINE
8
BLACK
6
CONTINUOUS
10
81.8411049999999989
20
-168.816742000000005
11
81.7458669999999898
21
-168.9119799999999998
0
LINE
8
BLACK
6
CONTINUOUS
10
83.8411049999999989
20
-170.0548379999999895
11
83.650628999999995
21
-169.9595999999999947
0
LINE
8
BLACK
6
CONTINUOUS
10
83.650628999999995
20
-169.9595999999999947
11
83.5553910000000002
21
-169.8643610000000024
0
LINE
8
BLACK
6
CONTINUOUS
10
83.5553910000000002
20
-169.8643610000000024
11
83.4601529999999912
21
-169.6738849999999843
0
LINE
8
BLACK
6
CONTINUOUS
10
83.4601529999999912
20
-169.6738849999999843
11
83.4601529999999912
21
-169.1024569999999869
0
LINE
8
BLACK
6
CONTINUOUS
10
83.4601529999999912
20
-169.1024569999999869
11
83.5553910000000002
21
-168.9119799999999998
0
LINE
8
BLACK
6
CONTINUOUS
10
83.5553910000000002
20
-168.9119799999999998
11
83.650628999999995
21
-168.816742000000005
0
LINE
8
BLACK
6
CONTINUOUS
10
83.650628999999995
20
-168.816742000000005
11
83.8411049999999989
21
-168.7215039999999817
0
LINE
8
BLACK
6
CONTINUOUS
10
83.8411049999999989
20
-168.7215039999999817
11
84.126819999999995
21
-168.7215039999999817
0
LINE
8
BLACK
6
CONTINUOUS
10
84.126819999999995
20
-168.7215039999999817
11
84.3172959999999989
21
-168.816742000000005
0
LINE
8
BLACK
6
CONTINUOUS
10
84.3172959999999989
20
-168.816742000000005
11
84.4125339999999937
21
-168.9119799999999998
0
LINE
8
BLACK
6
CONTINUOUS
10
84.4125339999999937
20
-168.9119799999999998
11
84.5077720000000028
21
-169.1024569999999869
0
LINE
8
BLACK
6
CONTINUOUS
10
84.5077720000000028
20
-169.1024569999999869
11
84.5077720000000028
21
-169.6738849999999843
0
LINE
8
BLACK
6
CONTINUOUS
10
84.5077720000000028
20
-169.6738849999999843
11
84.4125339999999937
21
-169.8643610000000024
0
LINE
8
BLACK
6
CONTINUOUS
10
84.4125339999999937
20
-169.8643610000000024
11
84.3172959999999989
21
-169.9595999999999947
0
LINE
8
BLACK
6
CONTINUOUS
10
84.3172959999999989
20
-169.9595999999999947
11
84.126819999999995
21
-170.0548379999999895
0
LINE
8
BLACK
6
CONTINUOUS
10
84.126819999999995
20
-170.0548379999999895
11
83.8411049999999989
21
-170.0548379999999895
0
LINE
8
BLACK
6
CONTINUOUS
10
85.650628999999995
20
-170.0548379999999895
11
85.4601529999999912
21
-169.9595999999999947
0
LINE
8
BLACK
6
CONTINUOUS
10
85.4601529999999912
20
-169.9595999999999947
11
85.3649149999999963
21
-169.7691229999999791
0
LINE
8
BLACK
6
CONTINUOUS
10
85.3649149999999963
20
-169.7691229999999791
11
85.3649149999999963
21
-168.0548379999999895
0
LINE
8
BLACK
6
CONTINUOUS
10
87.1744389999999925
20
-169.9595999999999947
11
86.9839630000000028
21
-170.0548379999999895
0
LINE
8
BLACK
6
CONTINUOUS
10
86.9839630000000028
20
-170.0548379999999895
11
86.6030099999999976
21
-170.0548379999999895
0
LINE
8
BLACK
6
CONTINUOUS
10
86.6030099999999976
20
-170.0548379999999895
11
86.4125339999999937
21
-169.9595999999999947
0
LINE
8
BLACK
6
CONTINUOUS
10
86.4125339999999937
20
-169.9595999999999947
11
86.3172959999999989
21
-169.7691229999999791
0
LINE
8
BLACK
6
CONTINUOUS
10
86.3172959999999989
20
-169.7691229999999791
11
86.3172959999999989
21
-169.0072189999999921
0
LINE
8
BLACK
6
CONTINUOUS
10
86.3172959999999989
20
-169.0072189999999921
11
86.4125339999999937
21
-168.816742000000005
0
LINE
8
BLACK
6
CONTINUOUS
10
86.4125339999999937
20
-168.816742000000005
11
86.6030099999999976
21
-168.7215039999999817
0
LINE
8
BLACK
6
CONTINUOUS
10
86.6030099999999976
20
-168.7215039999999817
11
86.9839630000000028
21
-168.7215039999999817
0
LINE
8
BLACK
6
CONTINUOUS
10
86.9839630000000028
20
-168.7215039999999817
11
87.1744389999999925
21
-168.816742000000005
0
LINE
8
BLACK
6
CONTINUOUS
10
87.1744389999999925
20
-168.816742000000005
11
87.2696770000000015
21
-169.0072189999999921
0
LINE
8
BLACK
6
CONTINUOUS
10
87.2696770000000015
20
-169.0072189999999921
11
87.2696770000000015
21
-169.1976949999999817
0
LINE
8
BLACK
6
CONTINUOUS
10
87.2696770000000015
20
-169.1976949999999817
11
86.3172959999999989
21
-169.3881709999999998
0
LINE
8
BLACK
6
CONTINUOUS
10
88.0315820000000002
20
-169.9595999999999947
11
88.2220579999999899
21
-170.0548379999999895
0
LINE
8
BLACK
6
CONTINUOUS
10
88.2220579999999899
20
-170.0548379999999895
11
88.6030099999999976
21
-170.0548379999999895
0
LINE
8
BLACK
6
CONTINUOUS
10
88.6030099999999976
20
-170.0548379999999895
11
88.7934869999999989
21
-169.9595999999999947
0
LINE
8
BLACK
6
CONTINUOUS
10
88.7934869999999989
20
-169.9595999999999947
11
88.8887249999999938
21
-169.7691229999999791
0
LINE
8
BLACK
6
CONTINUOUS
10
88.8887249999999938
20
-169.7691229999999791
11
88.8887249999999938
21
-169.6738849999999843
0
LINE
8
BLACK
6
CONTINUOUS
10
88.8887249999999938
20
-169.6738849999999843
11
88.7934869999999989
21
-169.4834089999999946
0
LINE
8
BLACK
6
CONTINUOUS
10
88.7934869999999989
20
-169.4834089999999946
11
88.6030099999999976
21
-169.3881709999999998
0
LINE
8
BLACK
6
CONTINUOUS
10
88.6030099999999976
20
-169.3881709999999998
11
88.3172959999999989
21
-169.3881709999999998
0
LINE
8
BLACK
6
CONTINUOUS
10
88.3172959999999989
20
-169.3881709999999998
11
88.126819999999995
21
-169.292933000000005
0
LINE
8
BLACK
6
CONTINUOUS
10
88.126819999999995
20
-169.292933000000005
11
88.0315820000000002
21
-169.1024569999999869
0
LINE
8
BLACK
6
CONTINUOUS
10
88.0315820000000002
20
-169.1024569999999869
11
88.0315820000000002
21
-169.0072189999999921
0
LINE
8
BLACK
6
CONTINUOUS
10
88.0315820000000002
20
-169.0072189999999921
11
88.126819999999995
21
-168.816742000000005
0
LINE
8
BLACK
6
CONTINUOUS
10
88.126819999999995
20
-168.816742000000005
11
88.3172959999999989
21
-168.7215039999999817
0
LINE
8
BLACK
6
CONTINUOUS
10
88.3172959999999989
20
-168.7215039999999817
11
88.6030099999999976
21
-168.7215039999999817
0
LINE
8
BLACK
6
CONTINUOUS
10
88.6030099999999976
20
-168.7215039999999817
11
88.7934869999999989
21
-168.816742000000005
0
LINE
8
BLACK
6
CONTINUOUS
10
89.5553919999999977
20
-170.816742000000005
11
89.6506299999999925
21
-170.7215039999999817
0
LINE
8
BLACK
6
CONTINUOUS
10
89.6506299999999925
20
-170.7215039999999817
11
89.8411059999999964
21
-170.4357899999999972
0
LINE
8
BLACK
6
CONTINUOUS
10
89.8411059999999964
20
-170.4357899999999972
11
89.9363439999999912
21
-170.2453139999999792
0
LINE
8
BLACK
6
CONTINUOUS
10
89.9363439999999912
20
-170.2453139999999792
11
90.0315820000000002
21
-169.9595999999999947
0
LINE
8
BLACK
6
CONTINUOUS
10
90.0315820000000002
20
-169.9595999999999947
11
90.126819999999995
21
-169.4834089999999946
0
LINE
8
BLACK
6
CONTINUOUS
10
90.126819999999995
20
-169.4834089999999946
11
90.126819999999995
21
-169.1024569999999869
0
LINE
8
BLACK
6
CONTINUOUS
10
90.126819999999995
20
-169.1024569999999869
11
90.0315820000000002
21
-168.6262659999999869
0
LINE
8
BLACK
6
CONTINUOUS
10
90.0315820000000002
20
-168.6262659999999869
11
89.9363439999999912
21
-168.3405520000000024
0
LINE
8
BLACK
6
CONTINUOUS
10
89.9363439999999912
20
-168.3405520000000024
11
89.8411059999999964
21
-168.1500759999999843
0
LINE
8
BLACK
6
CONTINUOUS
10
89.8411059999999964
20
-168.1500759999999843
11
89.6506299999999925
21
-167.8643610000000024
0
LINE
8
BLACK
6
CONTINUOUS
10
89.6506299999999925
20
-167.8643610000000024
11
89.5553919999999977
21
-167.7691229999999791
0
LINE
8
BLACK
6
CONTINUOUS
10
39.1999999999999957
20
-171.0799999999999841
11
39.1999999999999957
21
-172.4799999999999898
0
LINE
8
BLACK
6
CONTINUOUS
10
38.5
20
-171.7800000000000011
11
39.8999999999999986
21
-171.7800000000000011
0
LINE
8
BLACK
6
CONTINUOUS
10
43.5553869999999961
20
-172.6948380000000043
11
42.4125299999999967
21
-172.6948380000000043
0
LINE
8
BLACK
6
CONTINUOUS
10
42.9839580000000012
20
-172.6948380000000043
11
42.9839580000000012
21
-170.6948380000000043
0
LINE
8
BLACK
6
CONTINUOUS
10
42.9839580000000012
20
-170.6948380000000043
11
42.7934819999999974
21
-170.9805519999999888
0
LINE
8
BLACK
6
CONTINUOUS
10
42.7934819999999974
20
-170.9805519999999888
11
42.6030060000000006
21
-171.1710279999999784
0
LINE
8
BLACK
6
CONTINUOUS
10
42.6030060000000006
20
-171.1710279999999784
11
42.4125299999999967
21
-171.2662660000000017
0
LINE
8
BLACK
6
CONTINUOUS
10
44.4125299999999967
20
-172.5043609999999887
11
44.5077679999999987
21
-172.599599999999981
0
LINE
8
BLACK
6
CONTINUOUS
10
44.5077679999999987
20
-172.599599999999981
11
44.4125299999999967
21
-172.6948380000000043
0
LINE
8
BLACK
6
CONTINUOUS
10
44.4125299999999967
20
-172.6948380000000043
11
44.3172919999999948
21
-172.599599999999981
0
LINE
8
BLACK
6
CONTINUOUS
10
44.3172919999999948
20
-172.599599999999981
11
44.4125299999999967
21
-172.5043609999999887
0
LINE
8
BLACK
6
CONTINUOUS
10
44.4125299999999967
20
-172.5043609999999887
11
44.4125299999999967
21
-172.6948380000000043
0
LINE
8
BLACK
6
CONTINUOUS
10
46.222054
20
-171.3615039999999965
11
46.222054
21
-172.6948380000000043
0
LINE
8
BLACK
6
CONTINUOUS
10
45.7458629999999999
20
-170.599599999999981
11
45.2696729999999974
21
-172.0281709999999862
0
LINE
8
BLACK
6
CONTINUOUS
10
45.2696729999999974
20
-172.0281709999999862
11
46.5077679999999987
21
-172.0281709999999862
0
LINE
8
BLACK
6
CONTINUOUS
10
47.650624999999998
20
-170.6948380000000043
11
47.8411019999999994
21
-170.6948380000000043
0
LINE
8
BLACK
6
CONTINUOUS
10
47.8411019999999994
20
-170.6948380000000043
11
48.0315779999999961
21
-170.7900759999999991
0
LINE
8
BLACK
6
CONTINUOUS
10
48.0315779999999961
20
-170.7900759999999991
11
48.126815999999998
21
-170.8853139999999939
0
LINE
8
BLACK
6
CONTINUOUS
10
48.126815999999998
20
-170.8853139999999939
11
48.222054
21
-171.0757899999999836
0
LINE
8
BLACK
6
CONTINUOUS
10
48.222054
20
-171.0757899999999836
11
48.3172919999999948
21
-171.4567419999999913
0
LINE
8
BLACK
6
CONTINUOUS
10
48.3172919999999948
20
-171.4567419999999913
11
48.3172919999999948
21
-171.9329329999999914
0
LINE
8
BLACK
6
CONTINUOUS
10
48.3172919999999948
20
-171.9329329999999914
11
48.222054
21
-172.3138849999999991
0
LINE
8
BLACK
6
CONTINUOUS
10
48.222054
20
-172.3138849999999991
11
48.126815999999998
21
-172.5043609999999887
0
LINE
8
BLACK
6
CONTINUOUS
10
48.126815999999998
20
-172.5043609999999887
11
48.0315779999999961
21
-172.599599999999981
0
LINE
8
BLACK
6
CONTINUOUS
10
48.0315779999999961
20
-172.599599999999981
11
47.8411019999999994
21
-172.6948380000000043
0
LINE
8
BLACK
6
CONTINUOUS
10
47.8411019999999994
20
-172.6948380000000043
11
47.650624999999998
21
-172.6948380000000043
0
LINE
8
BLACK
6
CONTINUOUS
10
47.650624999999998
20
-172.6948380000000043
11
47.4601490000000013
21
-172.599599999999981
0
LINE
8
BLACK
6
CONTINUOUS
10
47.4601490000000013
20
-172.599599999999981
11
47.3649109999999993
21
-172.5043609999999887
0
LINE
8
BLACK
6
CONTINUOUS
10
47.3649109999999993
20
-172.5043609999999887
11
47.2696729999999974
21
-172.3138849999999991
0
LINE
8
BLACK
6
CONTINUOUS
10
47.2696729999999974
20
-172.3138849999999991
11
47.1744349999999955
21
-171.9329329999999914
0
LINE
8
BLACK
6
CONTINUOUS
10
47.1744349999999955
20
-171.9329329999999914
11
47.1744349999999955
21
-171.4567419999999913
0
LINE
8
BLACK
6
CONTINUOUS
10
47.1744349999999955
20
-171.4567419999999913
11
47.2696729999999974
21
-171.0757899999999836
0
LINE
8
BLACK
6
CONTINUOUS
10
47.2696729999999974
20
-171.0757899999999836
11
47.3649109999999993
21
-170.8853139999999939
0
LINE
8
BLACK
6
CONTINUOUS
10
47.3649109999999993
20
-170.8853139999999939
11
47.4601490000000013
21
-170.7900759999999991
0
LINE
8
BLACK
6
CONTINUOUS
10
47.4601490000000013
20
-170.7900759999999991
11
47.650624999999998
21
-170.6948380000000043
0
LINE
8
BLACK
6
CONTINUOUS
10
49.5553869999999961
20
-170.6948380000000043
11
49.7458639999999974
21
-170.6948380000000043
0
LINE
8
BLACK
6
CONTINUOUS
10
49.7458639999999974
20
-170.6948380000000043
11
49.9363400000000013
21
-170.7900759999999991
0
LINE
8
BLACK
6
CONTINUOUS
10
49.9363400000000013
20
-170.7900759999999991
11
50.0315779999999961
21
-170.8853139999999939
0
LINE
8
BLACK
6
CONTINUOUS
10
50.0315779999999961
20
-170.8853139999999939
11
50.126815999999998
21
-171.0757899999999836
0
LINE
8
BLACK
6
CONTINUOUS
10
50.126815999999998
20
-171.0757899999999836
11
50.222054
21
-171.4567419999999913
0
LINE
8
BLACK
6
CONTINUOUS
10
50.222054
20
-171.4567419999999913
11
50.222054
21
-171.9329329999999914
0
LINE
8
BLACK
6
CONTINUOUS
10
50.222054
20
-171.9329329999999914
11
50.126815999999998
21
-172.3138849999999991
0
LINE
8
BLACK
6
CONTINUOUS
10
50.126815999999998
20
-172.3138849999999991
11
50.0315779999999961
21
-172.5043609999999887
0
LINE
8
BLACK
6
CONTINUOUS
10
50.0315779999999961
20
-172.5043609999999887
11
49.9363400000000013
21
-172.599599999999981
0
LINE
8
BLACK
6
CONTINUOUS
10
49.9363400000000013
20
-172.599599999999981
11
49.7458639999999974
21
-172.6948380000000043
0
LINE
8
BLACK
6
CONTINUOUS
10
49.7458639999999974
20
-172.6948380000000043
11
49.5553869999999961
21
-172.6948380000000043
0
LINE
8
BLACK
6
CONTINUOUS
10
49.5553869999999961
20
-172.6948380000000043
11
49.3649109999999993
21
-172.599599999999981
0
LINE
8
BLACK
6
CONTINUOUS
10
49.3649109999999993
20
-172.599599999999981
11
49.2696729999999974
21
-172.5043609999999887
0
LINE
8
BLACK
6
CONTINUOUS
10
49.2696729999999974
20
-172.5043609999999887
11
49.1744349999999955
21
-172.3138849999999991
0
LINE
8
BLACK
6
CONTINUOUS
10
49.1744349999999955
20
-172.3138849999999991
11
49.0791970000000006
21
-171.9329329999999914
0
LINE
8
BLACK
6
CONTINUOUS
10
49.0791970000000006
20
-171.9329329999999914
11
49.0791970000000006
21
-171.4567419999999913
0
LINE
8
BLACK
6
CONTINUOUS
10
49.0791970000000006
20
-171.4567419999999913
11
49.1744349999999955
21
-171.0757899999999836
0
LINE
8
BLACK
6
CONTINUOUS
10
49.1744349999999955
20
-171.0757899999999836
11
49.2696729999999974
21
-170.8853139999999939
0
LINE
8
BLACK
6
CONTINUOUS
10
49.2696729999999974
20
-170.8853139999999939
11
49.3649109999999993
21
-170.7900759999999991
0
LINE
8
BLACK
6
CONTINUOUS
10
49.3649109999999993
20
-170.7900759999999991
11
49.5553869999999961
21
-170.6948380000000043
0
LINE
8
BLACK
6
CONTINUOUS
10
51.0791970000000006
20
-172.6948380000000043
11
51.0791970000000006
21
-171.3615039999999965
0
LINE
8
BLACK
6
CONTINUOUS
10
51.0791970000000006
20
-171.5519799999999861
11
51.1744349999999955
21
-171.4567419999999913
0
LINE
8
BLACK
6
CONTINUOUS
10
51.1744349999999955
20
-171.4567419999999913
11
51.3649109999999993
21
-171.3615039999999965
0
LINE
8
BLACK
6
CONTINUOUS
10
51.3649109999999993
20
-171.3615039999999965
11
51.6506259999999955
21
-171.3615039999999965
0
LINE
8
BLACK
6
CONTINUOUS
10
51.6506259999999955
20
-171.3615039999999965
11
51.8411019999999994
21
-171.4567419999999913
0
LINE
8
BLACK
6
CONTINUOUS
10
51.8411019999999994
20
-171.4567419999999913
11
51.9363399999999942
21
-171.6472189999999785
0
LINE
8
BLACK
6
CONTINUOUS
10
51.9363399999999942
20
-171.6472189999999785
11
51.9363399999999942
21
-172.6948380000000043
0
LINE
8
BLACK
6
CONTINUOUS
10
51.9363399999999942
20
-171.6472189999999785
11
52.0315779999999961
21
-171.4567419999999913
0
LINE
8
BLACK
6
CONTINUOUS
10
52.0315779999999961
20
-171.4567419999999913
11
52.222054
21
-171.3615039999999965
0
LINE
8
BLACK
6
CONTINUOUS
10
52.222054
20
-171.3615039999999965
11
52.5077679999999987
21
-171.3615039999999965
0
LINE
8
BLACK
6
CONTINUOUS
10
52.5077679999999987
20
-171.3615039999999965
11
52.698245
21
-171.4567419999999913
0
LINE
8
BLACK
6
CONTINUOUS
10
52.698245
20
-171.4567419999999913
11
52.7934829999999948
21
-171.6472189999999785
0
LINE
8
BLACK
6
CONTINUOUS
10
52.7934829999999948
20
-171.6472189999999785
11
52.7934829999999948
21
-172.6948380000000043
0
LINE
8
BLACK
6
CONTINUOUS
10
53.7458639999999974
20
-172.6948380000000043
11
53.7458639999999974
21
-171.3615039999999965
0
LINE
8
BLACK
6
CONTINUOUS
10
53.7458639999999974
20
-171.5519799999999861
11
53.8411019999999994
21
-171.4567419999999913
0
LINE
8
BLACK
6
CONTINUOUS
10
53.8411019999999994
20
-171.4567419999999913
11
54.0315779999999961
21
-171.3615039999999965
0
LINE
8
BLACK
6
CONTINUOUS
10
54.0315779999999961
20
-171.3615039999999965
11
54.3172929999999994
21
-171.3615039999999965
0
LINE
8
BLACK
6
CONTINUOUS
10
54.3172929999999994
20
-171.3615039999999965
11
54.5077689999999961
21
-171.4567419999999913
0
LINE
8
BLACK
6
CONTINUOUS
10
54.5077689999999961
20
-171.4567419999999913
11
54.6030069999999981
21
-171.6472189999999785
0
LINE
8
BLACK
6
CONTINUOUS
10
54.6030069999999981
20
-171.6472189999999785
11
54.6030069999999981
21
-172.6948380000000043
0
LINE
8
BLACK
6
CONTINUOUS
10
54.6030069999999981
20
-171.6472189999999785
11
54.698245
21
-171.4567419999999913
0
LINE
8
BLACK
6
CONTINUOUS
10
54.698245
20
-171.4567419999999913
11
54.8887209999999968
21
-171.3615039999999965
0
LINE
8
BLACK
6
CONTINUOUS
10
54.8887209999999968
20
-171.3615039999999965
11
55.1744349999999955
21
-171.3615039999999965
0
LINE
8
BLACK
6
CONTINUOUS
10
55.1744349999999955
20
-171.3615039999999965
11
55.3649119999999968
21
-171.4567419999999913
0
LINE
8
BLACK
6
CONTINUOUS
10
55.3649119999999968
20
-171.4567419999999913
11
55.4601499999999987
21
-171.6472189999999785
0
LINE
8
BLACK
6
CONTINUOUS
10
55.4601499999999987
20
-171.6472189999999785
11
55.4601499999999987
21
-172.6948380000000043
0
LINE
8
BLACK
6
CONTINUOUS
10
59.3649119999999968
20
-170.599599999999981
11
57.6506270000000001
21
-173.1710279999999784
0
LINE
8
BLACK
6
CONTINUOUS
10
61.9363409999999988
20
-170.6948380000000043
11
62.1268180000000001
21
-170.6948380000000043
0
LINE
8
BLACK
6
CONTINUOUS
10
62.1268180000000001
20
-170.6948380000000043
11
62.3172939999999969
21
-170.7900759999999991
0
LINE
8
BLACK
6
CONTINUOUS
10
62.3172939999999969
20
-170.7900759999999991
11
62.4125319999999988
21
-170.8853139999999939
0
LINE
8
BLACK
6
CONTINUOUS
10
62.4125319999999988
20
-170.8853139999999939
11
62.5077700000000007
21
-171.0757899999999836
0
LINE
8
BLACK
6
CONTINUOUS
10
62.5077700000000007
20
-171.0757899999999836
11
62.6030079999999955
21
-171.4567419999999913
0
LINE
8
BLACK
6
CONTINUOUS
10
62.6030079999999955
20
-171.4567419999999913
11
62.6030079999999955
21
-171.9329329999999914
0
LINE
8
BLACK
6
CONTINUOUS
10
62.6030079999999955
20
-171.9329329999999914
11
62.5077700000000007
21
-172.3138849999999991
0
LINE
8
BLACK
6
CONTINUOUS
10
62.5077700000000007
20
-172.3138849999999991
11
62.4125319999999988
21
-172.5043609999999887
0
LINE
8
BLACK
6
CONTINUOUS
10
62.4125319999999988
20
-172.5043609999999887
11
62.3172939999999969
21
-172.599599999999981
0
LINE
8
BLACK
6
CONTINUOUS
10
62.3172939999999969
20
-172.599599999999981
11
62.1268180000000001
21
-172.6948380000000043
0
LINE
8
BLACK
6
CONTINUOUS
10
62.1268180000000001
20
-172.6948380000000043
11
61.9363409999999988
21
-172.6948380000000043
0
LINE
8
BLACK
6
CONTINUOUS
10
61.9363409999999988
20
-172.6948380000000043
11
61.7458649999999949
21
-172.599599999999981
0
LINE
8
BLACK
6
CONTINUOUS
10
61.7458649999999949
20
-172.599599999999981
11
61.6506270000000001
21
-172.5043609999999887
0
LINE
8
BLACK
6
CONTINUOUS
10
61.6506270000000001
20
-172.5043609999999887
11
61.5553889999999981
21
-172.3138849999999991
0
LINE
8
BLACK
6
CONTINUOUS
10
61.5553889999999981
20
-172.3138849999999991
11
61.4601509999999962
21
-171.9329329999999914
0
LINE
8
BLACK
6
CONTINUOUS
10
61.4601509999999962
20
-171.9329329999999914
11
61.4601509999999962
21
-171.4567419999999913
0
LINE
8
BLACK
6
CONTINUOUS
10
61.4601509999999962
20
-171.4567419999999913
11
61.5553889999999981
21
-171.0757899999999836
0
LINE
8
BLACK
6
CONTINUOUS
10
61.5553889999999981
20
-171.0757899999999836
11
61.6506270000000001
21
-170.8853139999999939
0
LINE
8
BLACK
6
CONTINUOUS
10
61.6506270000000001
20
-170.8853139999999939
11
61.7458649999999949
21
-170.7900759999999991
0
LINE
8
BLACK
6
CONTINUOUS
10
61.7458649999999949
20
-170.7900759999999991
11
61.9363409999999988
21
-170.6948380000000043
0
LINE
8
BLACK
6
CONTINUOUS
10
63.4601509999999962
20
-172.5043609999999887
11
63.5553889999999981
21
-172.599599999999981
0
LINE
8
BLACK
6
CONTINUOUS
10
63.5553889999999981
20
-172.599599999999981
11
63.4601509999999962
21
-172.6948380000000043
0
LINE
8
BLACK
6
CONTINUOUS
10
63.4601509999999962
20
-172.6948380000000043
11
63.3649129999999943
21
-172.599599999999981
0
LINE
8
BLACK
6
CONTINUOUS
10
63.3649129999999943
20
-172.599599999999981
11
63.4601509999999962
21
-172.5043609999999887
0
LINE
8
BLACK
6
CONTINUOUS
10
63.4601509999999962
20
-172.5043609999999887
11
63.4601509999999962
21
-172.6948380000000043
0
LINE
8
BLACK
6
CONTINUOUS
10
64.7934839999999923
20
-170.6948380000000043
11
64.9839609999999936
21
-170.6948380000000043
0
LINE
8
BLACK
6
CONTINUOUS
10
64.9839609999999936
20
-170.6948380000000043
11
65.1744369999999975
21
-170.7900759999999991
0
LINE
8
BLACK
6
CONTINUOUS
10
65.1744369999999975
20
-170.7900759999999991
11
65.2696749999999923
21
-170.8853139999999939
0
LINE
8
BLACK
6
CONTINUOUS
10
65.2696749999999923
20
-170.8853139999999939
11
65.3649130000000014
21
-171.0757899999999836
0
LINE
8
BLACK
6
CONTINUOUS
10
65.3649130000000014
20
-171.0757899999999836
11
65.4601509999999962
21
-171.4567419999999913
0
LINE
8
BLACK
6
CONTINUOUS
10
65.4601509999999962
20
-171.4567419999999913
11
65.4601509999999962
21
-171.9329329999999914
0
LINE
8
BLACK
6
CONTINUOUS
10
65.4601509999999962
20
-171.9329329999999914
11
65.3649130000000014
21
-172.3138849999999991
0
LINE
8
BLACK
6
CONTINUOUS
10
65.3649130000000014
20
-172.3138849999999991
11
65.2696749999999923
21
-172.5043609999999887
0
LINE
8
BLACK
6
CONTINUOUS
10
65.2696749999999923
20
-172.5043609999999887
11
65.1744369999999975
21
-172.599599999999981
0
LINE
8
BLACK
6
CONTINUOUS
10
65.1744369999999975
20
-172.599599999999981
11
64.9839609999999936
21
-172.6948380000000043
0
LINE
8
BLACK
6
CONTINUOUS
10
64.9839609999999936
20
-172.6948380000000043
11
64.7934839999999923
21
-172.6948380000000043
0
LINE
8
BLACK
6
CONTINUOUS
10
64.7934839999999923
20
-172.6948380000000043
11
64.6030080000000027
21
-172.599599999999981
0
LINE
8
BLACK
6
CONTINUOUS
10
64.6030080000000027
20
-172.599599999999981
11
64.5077699999999936
21
-172.5043609999999887
0
LINE
8
BLACK
6
CONTINUOUS
10
64.5077699999999936
20
-172.5043609999999887
11
64.4125319999999988
21
-172.3138849999999991
0
LINE
8
BLACK
6
CONTINUOUS
10
64.4125319999999988
20
-172.3138849999999991
11
64.317294000000004
21
-171.9329329999999914
0
LINE
8
BLACK
6
CONTINUOUS
10
64.317294000000004
20
-171.9329329999999914
11
64.317294000000004
21
-171.4567419999999913
0
LINE
8
BLACK
6
CONTINUOUS
10
64.317294000000004
20
-171.4567419999999913
11
64.4125319999999988
21
-171.0757899999999836
0
LINE
8
BLACK
6
CONTINUOUS
10
64.4125319999999988
20
-171.0757899999999836
11
64.5077699999999936
21
-170.8853139999999939
0
LINE
8
BLACK
6
CONTINUOUS
10
64.5077699999999936
20
-170.8853139999999939
11
64.6030080000000027
21
-170.7900759999999991
0
LINE
8
BLACK
6
CONTINUOUS
10
64.6030080000000027
20
-170.7900759999999991
11
64.7934839999999923
21
-170.6948380000000043
0
LINE
8
BLACK
6
CONTINUOUS
10
67.2696749999999923
20
-170.6948380000000043
11
66.317294000000004
21
-170.6948380000000043
0
LINE
8
BLACK
6
CONTINUOUS
10
66.317294000000004
20
-170.6948380000000043
11
66.2220559999999949
21
-171.6472189999999785
0
LINE
8
BLACK
6
CONTINUOUS
10
66.2220559999999949
20
-171.6472189999999785
11
66.317294000000004
21
-171.5519799999999861
0
LINE
8
BLACK
6
CONTINUOUS
10
66.317294000000004
20
-171.5519799999999861
11
66.5077699999999936
21
-171.4567419999999913
0
LINE
8
BLACK
6
CONTINUOUS
10
66.5077699999999936
20
-171.4567419999999913
11
66.9839609999999936
21
-171.4567419999999913
0
LINE
8
BLACK
6
CONTINUOUS
10
66.9839609999999936
20
-171.4567419999999913
11
67.1744369999999975
21
-171.5519799999999861
0
LINE
8
BLACK
6
CONTINUOUS
10
67.1744369999999975
20
-171.5519799999999861
11
67.2696749999999923
21
-171.6472189999999785
0
LINE
8
BLACK
6
CONTINUOUS
10
67.2696749999999923
20
-171.6472189999999785
11
67.3649130000000014
21
-171.8376949999999965
0
LINE
8
BLACK
6
CONTINUOUS
10
67.3649130000000014
20
-171.8376949999999965
11
67.3649130000000014
21
-172.3138849999999991
0
LINE
8
BLACK
6
CONTINUOUS
10
67.3649130000000014
20
-172.3138849999999991
11
67.2696749999999923
21
-172.5043609999999887
0
LINE
8
BLACK
6
CONTINUOUS
10
67.2696749999999923
20
-172.5043609999999887
11
67.1744369999999975
21
-172.599599999999981
0
LINE
8
BLACK
6
CONTINUOUS
10
67.1744369999999975
20
-172.599599999999981
11
66.9839609999999936
21
-172.6948380000000043
0
LINE
8
BLACK
6
CONTINUOUS
10
66.9839609999999936
20
-172.6948380000000043
11
66.5077699999999936
21
-172.6948380000000043
0
LINE
8
BLACK
6
CONTINUOUS
10
66.5077699999999936
20
-172.6948380000000043
11
66.317294000000004
21
-172.599599999999981
0
LINE
8
BLACK
6
CONTINUOUS
10
66.317294000000004
20
-172.599599999999981
11
66.2220559999999949
21
-172.5043609999999887
0
LINE
8
BLACK
6
CONTINUOUS
10
69.1744369999999975
20
-170.6948380000000043
11
68.2220559999999949
21
-170.6948380000000043
0
LINE
8
BLACK
6
CONTINUOUS
10
68.2220559999999949
20
-170.6948380000000043
11
68.1268180000000001
21
-171.6472189999999785
0
LINE
8
BLACK
6
CONTINUOUS
10
68.1268180000000001
20
-171.6472189999999785
11
68.2220559999999949
21
-171.5519799999999861
0
LINE
8
BLACK
6
CONTINUOUS
10
68.2220559999999949
20
-171.5519799999999861
11
68.4125319999999988
21
-171.4567419999999913
0
LINE
8
BLACK
6
CONTINUOUS
10
68.4125319999999988
20
-171.4567419999999913
11
68.8887229999999988
21
-171.4567419999999913
0
LINE
8
BLACK
6
CONTINUOUS
10
68.8887229999999988
20
-171.4567419999999913
11
69.0791990000000027
21
-171.5519799999999861
0
LINE
8
BLACK
6
CONTINUOUS
10
69.0791990000000027
20
-171.5519799999999861
11
69.1744369999999975
21
-171.6472189999999785
0
LINE
8
BLACK
6
CONTINUOUS
10
69.1744369999999975
20
-171.6472189999999785
11
69.2696749999999923
21
-171.8376949999999965
0
LINE
8
BLACK
6
CONTINUOUS
10
69.2696749999999923
20
-171.8376949999999965
11
69.2696749999999923
21
-172.3138849999999991
0
LINE
8
BLACK
6
CONTINUOUS
10
69.2696749999999923
20
-172.3138849999999991
11
69.1744369999999975
21
-172.5043609999999887
0
LINE
8
BLACK
6
CONTINUOUS
10
69.1744369999999975
20
-172.5043609999999887
11
69.0791990000000027
21
-172.599599999999981
0
LINE
8
BLACK
6
CONTINUOUS
10
69.0791990000000027
20
-172.599599999999981
11
68.8887229999999988
21
-172.6948380000000043
0
LINE
8
BLACK
6
CONTINUOUS
10
68.8887229999999988
20
-172.6948380000000043
11
68.4125319999999988
21
-172.6948380000000043
0
LINE
8
BLACK
6
CONTINUOUS
10
68.4125319999999988
20
-172.6948380000000043
11
68.2220559999999949
21
-172.599599999999981
0
LINE
8
BLACK
6
CONTINUOUS
10
68.2220559999999949
20
-172.599599999999981
11
68.1268180000000001
21
-172.5043609999999887
0
LINE
8
BLACK
6
CONTINUOUS
10
71.1744369999999975
20
-172.6948380000000043
11
70.0315799999999911
21
-172.6948380000000043
0
LINE
8
BLACK
6
CONTINUOUS
10
70.6030080000000027
20
-172.6948380000000043
11
70.6030080000000027
21
-170.6948380000000043
0
LINE
8
BLACK
6
CONTINUOUS
10
70.6030080000000027
20
-170.6948380000000043
11
70.4125319999999988
21
-170.9805519999999888
0
LINE
8
BLACK
6
CONTINUOUS
10
70.4125319999999988
20
-170.9805519999999888
11
70.2220559999999949
21
-171.1710279999999784
0
LINE
8
BLACK
6
CONTINUOUS
10
70.2220559999999949
20
-171.1710279999999784
11
70.0315799999999911
21
-171.2662660000000017
0
LINE
8
BLACK
6
CONTINUOUS
10
71.9363419999999962
20
-170.6948380000000043
11
71.9363419999999962
21
-171.0757899999999836
0
LINE
8
BLACK
6
CONTINUOUS
10
72.698246999999995
20
-170.6948380000000043
11
72.698246999999995
21
-171.0757899999999836
0
LINE
8
BLACK
6
CONTINUOUS
10
75.650628999999995
20
-173.4567419999999913
11
75.5553900000000027
21
-173.3615039999999965
0
LINE
8
BLACK
6
CONTINUOUS
10
75.5553900000000027
20
-173.3615039999999965
11
75.3649139999999989
21
-173.0757899999999836
0
LINE
8
BLACK
6
CONTINUOUS
10
75.3649139999999989
20
-173.0757899999999836
11
75.2696759999999898
21
-172.8853139999999939
0
LINE
8
BLACK
6
CONTINUOUS
10
75.2696759999999898
20
-172.8853139999999939
11
75.174437999999995
21
-172.599599999999981
0
LINE
8
BLACK
6
CONTINUOUS
10
75.174437999999995
20
-172.599599999999981
11
75.0792000000000002
21
-172.123408999999981
0
LINE
8
BLACK
6
CONTINUOUS
10
75.0792000000000002
20
-172.123408999999981
11
75.0792000000000002
21
-171.7424570000000017
0
LINE
8
BLACK
6
CONTINUOUS
10
75.0792000000000002
20
-171.7424570000000017
11
75.174437999999995
21
-171.2662660000000017
0
LINE
8
BLACK
6
CONTINUOUS
10
75.174437999999995
20
-171.2662660000000017
11
75.2696759999999898
21
-170.9805519999999888
0
LINE
8
BLACK
6
CONTINUOUS
10
75.2696759999999898
20
-170.9805519999999888
11
75.3649139999999989
21
-170.7900759999999991
0
LINE
8
BLACK
6
CONTINUOUS
10
75.3649139999999989
20
-170.7900759999999991
11
75.5553900000000027
21
-170.5043609999999887
0
LINE
8
BLACK
6
CONTINUOUS
10
75.5553900000000027
20
-170.5043609999999887
11
75.650628999999995
21
-170.4091229999999939
0
LINE
8
BLACK
6
CONTINUOUS
10
77.3649139999999989
20
-170.6948380000000043
11
76.4125329999999963
21
-170.6948380000000043
0
LINE
8
BLACK
6
CONTINUOUS
10
76.4125329999999963
20
-170.6948380000000043
11
76.3172950000000014
21
-171.6472189999999785
0
LINE
8
BLACK
6
CONTINUOUS
10
76.3172950000000014
20
-171.6472189999999785
11
76.4125329999999963
21
-171.5519799999999861
0
LINE
8
BLACK
6
CONTINUOUS
10
76.4125329999999963
20
-171.5519799999999861
11
76.6030090000000001
21
-171.4567419999999913
0
LINE
8
BLACK
6
CONTINUOUS
10
76.6030090000000001
20
-171.4567419999999913
11
77.0792000000000002
21
-171.4567419999999913
0
LINE
8
BLACK
6
CONTINUOUS
10
77.0792000000000002
20
-171.4567419999999913
11
77.2696759999999898
21
-171.5519799999999861
0
LINE
8
BLACK
6
CONTINUOUS
10
77.2696759999999898
20
-171.5519799999999861
11
77.3649139999999989
21
-171.6472189999999785
0
LINE
8
BLACK
6
CONTINUOUS
10
77.3649139999999989
20
-171.6472189999999785
11
77.4601519999999937
21
-171.8376949999999965
0
LINE
8
BLACK
6
CONTINUOUS
10
77.4601519999999937
20
-171.8376949999999965
11
77.4601519999999937
21
-172.3138849999999991
0
LINE
8
BLACK
6
CONTINUOUS
10
77.4601519999999937
20
-172.3138849999999991
11
77.3649139999999989
21
-172.5043609999999887
0
LINE
8
BLACK
6
CONTINUOUS
10
77.3649139999999989
20
-172.5043609999999887
11
77.2696759999999898
21
-172.599599999999981
0
LINE
8
BLACK
6
CONTINUOUS
10
77.2696759999999898
20
-172.599599999999981
11
77.0792000000000002
21
-172.6948380000000043
0
LINE
8
BLACK
6
CONTINUOUS
10
77.0792000000000002
20
-172.6948380000000043
11
76.6030090000000001
21
-172.6948380000000043
0
LINE
8
BLACK
6
CONTINUOUS
10
76.6030090000000001
20
-172.6948380000000043
11
76.4125329999999963
21
-172.599599999999981
0
LINE
8
BLACK
6
CONTINUOUS
10
76.4125329999999963
20
-172.599599999999981
11
76.3172950000000014
21
-172.5043609999999887
0
LINE
8
BLACK
6
CONTINUOUS
10
79.8411049999999989
20
-172.6948380000000043
11
79.8411049999999989
21
-170.6948380000000043
0
LINE
8
BLACK
6
CONTINUOUS
10
80.6982479999999924
20
-172.6948380000000043
11
80.6982479999999924
21
-171.6472189999999785
0
LINE
8
BLACK
6
CONTINUOUS
10
80.6982479999999924
20
-171.6472189999999785
11
80.6030099999999976
21
-171.4567419999999913
0
LINE
8
BLACK
6
CONTINUOUS
10
80.6030099999999976
20
-171.4567419999999913
11
80.4125339999999937
21
-171.3615039999999965
0
LINE
8
BLACK
6
CONTINUOUS
10
80.4125339999999937
20
-171.3615039999999965
11
80.1268189999999976
21
-171.3615039999999965
0
LINE
8
BLACK
6
CONTINUOUS
10
80.1268189999999976
20
-171.3615039999999965
11
79.9363429999999937
21
-171.4567419999999913
0
LINE
8
BLACK
6
CONTINUOUS
10
79.9363429999999937
20
-171.4567419999999913
11
79.8411049999999989
21
-171.5519799999999861
0
LINE
8
BLACK
6
CONTINUOUS
10
81.9363429999999937
20
-172.6948380000000043
11
81.7458669999999898
21
-172.599599999999981
0
LINE
8
BLACK
6
CONTINUOUS
10
81.7458669999999898
20
-172.599599999999981
11
81.650628999999995
21
-172.5043609999999887
0
LINE
8
BLACK
6
CONTINUOUS
10
81.650628999999995
20
-172.5043609999999887
11
81.5553910000000002
21
-172.3138849999999991
0
LINE
8
BLACK
6
CONTINUOUS
10
81.5553910000000002
20
-172.3138849999999991
11
81.5553910000000002
21
-171.7424570000000017
0
LINE
8
BLACK
6
CONTINUOUS
10
81.5553910000000002
20
-171.7424570000000017
11
81.650628999999995
21
-171.5519799999999861
0
LINE
8
BLACK
6
CONTINUOUS
10
81.650628999999995
20
-171.5519799999999861
11
81.7458669999999898
21
-171.4567419999999913
0
LINE
8
BLACK
6
CONTINUOUS
10
81.7458669999999898
20
-171.4567419999999913
11
81.9363429999999937
21
-171.3615039999999965
0
LINE
8
BLACK
6
CONTINUOUS
10
81.9363429999999937
20
-171.3615039999999965
11
82.2220579999999899
21
-171.3615039999999965
0
LINE
8
BLACK
6
CONTINUOUS
10
82.2220579999999899
20
-171.3615039999999965
11
82.4125339999999937
21
-171.4567419999999913
0
LINE
8
BLACK
6
CONTINUOUS
10
82.4125339999999937
20
-171.4567419999999913
11
82.5077720000000028
21
-171.5519799999999861
0
LINE
8
BLACK
6
CONTINUOUS
10
82.5077720000000028
20
-171.5519799999999861
11
82.6030099999999976
21
-171.7424570000000017
0
LINE
8
BLACK
6
CONTINUOUS
10
82.6030099999999976
20
-171.7424570000000017
11
82.6030099999999976
21
-172.3138849999999991
0
LINE
8
BLACK
6
CONTINUOUS
10
82.6030099999999976
20
-172.3138849999999991
11
82.5077720000000028
21
-172.5043609999999887
0
LINE
8
BLACK
6
CONTINUOUS
10
82.5077720000000028
20
-172.5043609999999887
11
82.4125339999999937
21
-172.599599999999981
0
LINE
8
BLACK
6
CONTINUOUS
10
82.4125339999999937
20
-172.599599999999981
11
82.2220579999999899
21
-172.6948380000000043
0
LINE
8
BLACK
6
CONTINUOUS
10
82.2220579999999899
20
-172.6948380000000043
11
81.9363429999999937
21
-172.6948380000000043
0
LINE
8
BLACK
6
CONTINUOUS
10
83.7458669999999898
20
-172.6948380000000043
11
83.5553910000000002
21
-172.599599999999981
0
LINE
8
BLACK
6
CONTINUOUS
10
83.5553910000000002
20
-172.599599999999981
11
83.4601529999999912
21
-172.4091229999999939
0
LINE
8
BLACK
6
CONTINUOUS
10
83.4601529999999912
20
-172.4091229999999939
11
83.4601529999999912
21
-170.6948380000000043
0
LINE
8
BLACK
6
CONTINUOUS
10
85.2696770000000015
20
-172.599599999999981
11
85.0792009999999976
21
-172.6948380000000043
0
LINE
8
BLACK
6
CONTINUOUS
10
85.0792009999999976
20
-172.6948380000000043
11
84.6982479999999924
21
-172.6948380000000043
0
LINE
8
BLACK
6
CONTINUOUS
10
84.6982479999999924
20
-172.6948380000000043
11
84.5077720000000028
21
-172.599599999999981
0
LINE
8
BLACK
6
CONTINUOUS
10
84.5077720000000028
20
-172.599599999999981
11
84.4125339999999937
21
-172.4091229999999939
0
LINE
8
BLACK
6
CONTINUOUS
10
84.4125339999999937
20
-172.4091229999999939
11
84.4125339999999937
21
-171.6472189999999785
0
LINE
8
BLACK
6
CONTINUOUS
10
84.4125339999999937
20
-171.6472189999999785
11
84.5077720000000028
21
-171.4567419999999913
0
LINE
8
BLACK
6
CONTINUOUS
10
84.5077720000000028
20
-171.4567419999999913
11
84.6982479999999924
21
-171.3615039999999965
0
LINE
8
BLACK
6
CONTINUOUS
10
84.6982479999999924
20
-171.3615039999999965
11
85.0792009999999976
21
-171.3615039999999965
0
LINE
8
BLACK
6
CONTINUOUS
10
85.0792009999999976
20
-171.3615039999999965
11
85.2696770000000015
21
-171.4567419999999913
0
LINE
8
BLACK
6
CONTINUOUS
10
85.2696770000000015
20
-171.4567419999999913
11
85.3649149999999963
21
-171.6472189999999785
0
LINE
8
BLACK
6
CONTINUOUS
10
85.3649149999999963
20
-171.6472189999999785
11
85.3649149999999963
21
-171.8376949999999965
0
LINE
8
BLACK
6
CONTINUOUS
10
85.3649149999999963
20
-171.8376949999999965
11
84.4125339999999937
21
-172.0281709999999862
0
LINE
8
BLACK
6
CONTINUOUS
10
86.126819999999995
20
-172.599599999999981
11
86.3172959999999989
21
-172.6948380000000043
0
LINE
8
BLACK
6
CONTINUOUS
10
86.3172959999999989
20
-172.6948380000000043
11
86.6982479999999924
21
-172.6948380000000043
0
LINE
8
BLACK
6
CONTINUOUS
10
86.6982479999999924
20
-172.6948380000000043
11
86.8887249999999938
21
-172.599599999999981
0
LINE
8
BLACK
6
CONTINUOUS
10
86.8887249999999938
20
-172.599599999999981
11
86.9839630000000028
21
-172.4091229999999939
0
LINE
8
BLACK
6
CONTINUOUS
10
86.9839630000000028
20
-172.4091229999999939
11
86.9839630000000028
21
-172.3138849999999991
0
LINE
8
BLACK
6
CONTINUOUS
10
86.9839630000000028
20
-172.3138849999999991
11
86.8887249999999938
21
-172.123408999999981
0
LINE
8
BLACK
6
CONTINUOUS
10
86.8887249999999938
20
-172.123408999999981
11
86.6982479999999924
21
-172.0281709999999862
0
LINE
8
BLACK
6
CONTINUOUS
10
86.6982479999999924
20
-172.0281709999999862
11
86.4125339999999937
21
-172.0281709999999862
0
LINE
8
BLACK
6
CONTINUOUS
10
86.4125339999999937
20
-172.0281709999999862
11
86.2220579999999899
21
-171.9329329999999914
0
LINE
8
BLACK
6
CONTINUOUS
10
86.2220579999999899
20
-171.9329329999999914
11
86.126819999999995
21
-171.7424570000000017
0
LINE
8
BLACK
6
CONTINUOUS
10
86.126819999999995
20
-171.7424570000000017
11
86.126819999999995
21
-171.6472189999999785
0
LINE
8
BLACK
6
CONTINUOUS
10
86.126819999999995
20
-171.6472189999999785
11
86.2220579999999899
21
-171.4567419999999913
0
LINE
8
BLACK
6
CONTINUOUS
10
86.2220579999999899
20
-171.4567419999999913
11
86.4125339999999937
21
-171.3615039999999965
0
LINE
8
BLACK
6
CONTINUOUS
10
86.4125339999999937
20
-171.3615039999999965
11
86.6982479999999924
21
-171.3615039999999965
0
LINE
8
BLACK
6
CONTINUOUS
10
86.6982479999999924
20
-171.3615039999999965
11
86.8887249999999938
21
-171.4567419999999913
0
LINE
8
BLACK
6
CONTINUOUS
10
87.6506299999999925
20
-173.4567419999999913
11
87.7458680000000015
21
-173.3615039999999965
0
LINE
8
BLACK
6
CONTINUOUS
10
87.7458680000000015
20
-173.3615039999999965
11
87.9363439999999912
21
-173.0757899999999836
0
LINE
8
BLACK
6
CONTINUOUS
10
87.9363439999999912
20
-173.0757899999999836
11
88.0315820000000002
21
-172.8853139999999939
0
LINE
8
BLACK
6
CONTINUOUS
10
88.0315820000000002
20
-172.8853139999999939
11
88.126819999999995
21
-172.599599999999981
0
LINE
8
BLACK
6
CONTINUOUS
10
88.126819999999995
20
-172.599599999999981
11
88.2220579999999899
21
-172.123408999999981
0
LINE
8
BLACK
6
CONTINUOUS
10
88.2220579999999899
20
-172.123408999999981
11
88.2220579999999899
21
-171.7424570000000017
0
LINE
8
BLACK
6
CONTINUOUS
10
88.2220579999999899
20
-171.7424570000000017
11
88.126819999999995
21
-171.2662660000000017
0
LINE
8
BLACK
6
CONTINUOUS
10
88.126819999999995
20
-171.2662660000000017
11
88.0315820000000002
21
-170.9805519999999888
0
LINE
8
BLACK
6
CONTINUOUS
10
88.0315820000000002
20
-170.9805519999999888
11
87.9363439999999912
21
-170.7900759999999991
0
LINE
8
BLACK
6
CONTINUOUS
10
87.9363439999999912
20
-170.7900759999999991
11
87.7458680000000015
21
-170.5043609999999887
0
LINE
8
BLACK
6
CONTINUOUS
10
87.7458680000000015
20
-170.5043609999999887
11
87.6506299999999925
21
-170.4091229999999939
  0
ENDSEC
  0
EOF
