  0
SECTION
  2
HEADER
  9
$ANGBASE
  50
0.0
  9
$ANGDIR
  70
1
  9
$MEASUREMENT
  70
1
  0
ENDSEC
  0
SECTION
  2
TABLES
  0
TABLE
  2
LTYPE
  70
4
  0
LTYPE
  5
40F
  2
CONTINUOUS
  70
0
  3
Solid line
  72
65
  73
0
  40
0.0
  0
LTYPE
  5
410
  2
DASHDOT
 70
0
  3
Dash Dot ____ _ ____ _
 72
65
 73
4
 40
2.0
 49
1.25
 49
-0.25
 49
0.25
 49
-0.25
  0
LTYPE
  5
411
  2
DASHED
 70
0
  3
Dashed __ __ __ __ __
 72
65
 73
2
 40
0.75
 49
0.5
 49
-0.25
  0
LTYPE
  5
43B
  2
DOTTED
 70
0
  3
Dotted .  .  .  .
 72
65
 73
2
 40
0.2
 49
0.0
 49
-0.2
  0
ENDTAB
  0
TABLE
  2
STYLE
  70
4
  0
STYLE
  2
KICAD
  70
0
  40
0
  41
1
  42
1
  50
0
  71
0
  3
isocp.shx
  0
STYLE
  2
KICADB
  70
0
  40
0
  41
1
  42
1
  50
0
  71
0
  3
isocp.shx
  0
STYLE
  2
KICADI
  70
0
  40
0
  41
1
  42
1
  50
15
  71
0
  3
isocp.shx
  0
STYLE
  2
KICADBI
  70
0
  40
0
  41
1
  42
1
  50
15
  71
0
  3
isocp.shx
  0
ENDTAB
  0
TABLE
  2
LAYER
  70
1
  0
LAYER
  2
BLACK
  70
0
  62
7
  6
CONTINUOUS
  0
ENDTAB
  0
ENDSEC
  0
SECTION
  2
ENTITIES
0
CIRCLE
8
BLACK
10
100.
20
-100.
40
4.
0
CIRCLE
8
BLACK
10
100.
20
-100.
40
60.
0
LINE
8
BLACK
6
CONTINUOUS
10
42.5077679999999987
20
-163.2148379999999861
11
42.5077679999999987
21
-161.2148379999999861
0
LINE
8
BLACK
6
CONTINUOUS
10
42.5077679999999987
20
-161.2148379999999861
11
42.9839580000000012
21
-161.2148379999999861
0
LINE
8
BLACK
6
CONTINUOUS
10
42.9839580000000012
20
-161.2148379999999861
11
43.2696729999999974
21
-161.3100759999999809
0
LINE
8
BLACK
6
CONTINUOUS
10
43.2696729999999974
20
-161.3100759999999809
11
43.4601490000000013
21
-161.500551999999999
0
LINE
8
BLACK
6
CONTINUOUS
10
43.4601490000000013
20
-161.500551999999999
11
43.5553869999999961
21
-161.6910279999999887
0
LINE
8
BLACK
6
CONTINUOUS
10
43.5553869999999961
20
-161.6910279999999887
11
43.650624999999998
21
-162.0719799999999964
0
LINE
8
BLACK
6
CONTINUOUS
10
43.650624999999998
20
-162.0719799999999964
11
43.650624999999998
21
-162.3576950000000068
0
LINE
8
BLACK
6
CONTINUOUS
10
43.650624999999998
20
-162.3576950000000068
11
43.5553869999999961
21
-162.7386469999999861
0
LINE
8
BLACK
6
CONTINUOUS
10
43.5553869999999961
20
-162.7386469999999861
11
43.4601490000000013
21
-162.9291230000000041
0
LINE
8
BLACK
6
CONTINUOUS
10
43.4601490000000013
20
-162.9291230000000041
11
43.2696729999999974
21
-163.1195999999999913
0
LINE
8
BLACK
6
CONTINUOUS
10
43.2696729999999974
20
-163.1195999999999913
11
42.9839580000000012
21
-163.2148379999999861
0
LINE
8
BLACK
6
CONTINUOUS
10
42.9839580000000012
20
-163.2148379999999861
11
42.5077679999999987
21
-163.2148379999999861
0
LINE
8
BLACK
6
CONTINUOUS
10
44.5077679999999987
20
-163.2148379999999861
11
44.5077679999999987
21
-161.8815040000000067
0
LINE
8
BLACK
6
CONTINUOUS
10
44.5077679999999987
20
-162.2624569999999835
11
44.6030060000000006
21
-162.0719799999999964
0
LINE
8
BLACK
6
CONTINUOUS
10
44.6030060000000006
20
-162.0719799999999964
11
44.6982439999999954
21
-161.9767420000000016
0
LINE
8
BLACK
6
CONTINUOUS
10
44.6982439999999954
20
-161.9767420000000016
11
44.8887199999999993
21
-161.8815040000000067
0
LINE
8
BLACK
6
CONTINUOUS
10
44.8887199999999993
20
-161.8815040000000067
11
45.0791970000000006
21
-161.8815040000000067
0
LINE
8
BLACK
6
CONTINUOUS
10
45.7458629999999999
20
-163.2148379999999861
11
45.7458629999999999
21
-161.8815040000000067
0
LINE
8
BLACK
6
CONTINUOUS
10
45.7458629999999999
20
-161.2148379999999861
11
45.650624999999998
21
-161.3100759999999809
0
LINE
8
BLACK
6
CONTINUOUS
10
45.650624999999998
20
-161.3100759999999809
11
45.7458629999999999
21
-161.4053140000000042
0
LINE
8
BLACK
6
CONTINUOUS
10
45.7458629999999999
20
-161.4053140000000042
11
45.8411009999999948
21
-161.3100759999999809
0
LINE
8
BLACK
6
CONTINUOUS
10
45.8411009999999948
20
-161.3100759999999809
11
45.7458629999999999
21
-161.2148379999999861
0
LINE
8
BLACK
6
CONTINUOUS
10
45.7458629999999999
20
-161.2148379999999861
11
45.7458629999999999
21
-161.4053140000000042
0
LINE
8
BLACK
6
CONTINUOUS
10
46.9839580000000012
20
-163.2148379999999861
11
46.7934819999999974
21
-163.1195999999999913
0
LINE
8
BLACK
6
CONTINUOUS
10
46.7934819999999974
20
-163.1195999999999913
11
46.6982439999999954
21
-162.9291230000000041
0
LINE
8
BLACK
6
CONTINUOUS
10
46.6982439999999954
20
-162.9291230000000041
11
46.6982439999999954
21
-161.2148379999999861
0
LINE
8
BLACK
6
CONTINUOUS
10
48.0315769999999986
20
-163.2148379999999861
11
47.8411009999999948
21
-163.1195999999999913
0
LINE
8
BLACK
6
CONTINUOUS
10
47.8411009999999948
20
-163.1195999999999913
11
47.7458629999999999
21
-162.9291230000000041
0
LINE
8
BLACK
6
CONTINUOUS
10
47.7458629999999999
20
-162.9291230000000041
11
47.7458629999999999
21
-161.2148379999999861
0
LINE
8
BLACK
6
CONTINUOUS
10
50.3172919999999948
20
-163.2148379999999861
11
50.3172919999999948
21
-161.2148379999999861
0
LINE
8
BLACK
6
CONTINUOUS
10
50.3172919999999948
20
-161.2148379999999861
11
50.9839589999999987
21
-162.6434089999999912
0
LINE
8
BLACK
6
CONTINUOUS
10
50.9839589999999987
20
-162.6434089999999912
11
51.650624999999998
21
-161.2148379999999861
0
LINE
8
BLACK
6
CONTINUOUS
10
51.650624999999998
20
-161.2148379999999861
11
51.650624999999998
21
-163.2148379999999861
0
LINE
8
BLACK
6
CONTINUOUS
10
53.4601489999999941
20
-163.2148379999999861
11
53.4601489999999941
21
-162.1672189999999887
0
LINE
8
BLACK
6
CONTINUOUS
10
53.4601489999999941
20
-162.1672189999999887
11
53.3649109999999993
21
-161.9767420000000016
0
LINE
8
BLACK
6
CONTINUOUS
10
53.3649109999999993
20
-161.9767420000000016
11
53.1744349999999955
21
-161.8815040000000067
0
LINE
8
BLACK
6
CONTINUOUS
10
53.1744349999999955
20
-161.8815040000000067
11
52.7934819999999974
21
-161.8815040000000067
0
LINE
8
BLACK
6
CONTINUOUS
10
52.7934819999999974
20
-161.8815040000000067
11
52.6030060000000006
21
-161.9767420000000016
0
LINE
8
BLACK
6
CONTINUOUS
10
53.4601489999999941
20
-163.1195999999999913
11
53.2696729999999974
21
-163.2148379999999861
0
LINE
8
BLACK
6
CONTINUOUS
10
53.2696729999999974
20
-163.2148379999999861
11
52.7934819999999974
21
-163.2148379999999861
0
LINE
8
BLACK
6
CONTINUOUS
10
52.7934819999999974
20
-163.2148379999999861
11
52.6030060000000006
21
-163.1195999999999913
0
LINE
8
BLACK
6
CONTINUOUS
10
52.6030060000000006
20
-163.1195999999999913
11
52.5077679999999987
21
-162.9291230000000041
0
LINE
8
BLACK
6
CONTINUOUS
10
52.5077679999999987
20
-162.9291230000000041
11
52.5077679999999987
21
-162.7386469999999861
0
LINE
8
BLACK
6
CONTINUOUS
10
52.5077679999999987
20
-162.7386469999999861
11
52.6030060000000006
21
-162.5481709999999964
0
LINE
8
BLACK
6
CONTINUOUS
10
52.6030060000000006
20
-162.5481709999999964
11
52.7934819999999974
21
-162.4529330000000016
0
LINE
8
BLACK
6
CONTINUOUS
10
52.7934819999999974
20
-162.4529330000000016
11
53.2696729999999974
21
-162.4529330000000016
0
LINE
8
BLACK
6
CONTINUOUS
10
53.2696729999999974
20
-162.4529330000000016
11
53.4601489999999941
21
-162.3576950000000068
0
LINE
8
BLACK
6
CONTINUOUS
10
54.4125299999999967
20
-161.8815040000000067
11
54.4125299999999967
21
-163.8815040000000067
0
LINE
8
BLACK
6
CONTINUOUS
10
54.4125299999999967
20
-161.9767420000000016
11
54.6030060000000006
21
-161.8815040000000067
0
LINE
8
BLACK
6
CONTINUOUS
10
54.6030060000000006
20
-161.8815040000000067
11
54.9839589999999987
21
-161.8815040000000067
0
LINE
8
BLACK
6
CONTINUOUS
10
54.9839589999999987
20
-161.8815040000000067
11
55.1744349999999955
21
-161.9767420000000016
0
LINE
8
BLACK
6
CONTINUOUS
10
55.1744349999999955
20
-161.9767420000000016
11
55.2696729999999974
21
-162.0719799999999964
0
LINE
8
BLACK
6
CONTINUOUS
10
55.2696729999999974
20
-162.0719799999999964
11
55.3649109999999993
21
-162.2624569999999835
0
LINE
8
BLACK
6
CONTINUOUS
10
55.3649109999999993
20
-162.2624569999999835
11
55.3649109999999993
21
-162.8338849999999809
0
LINE
8
BLACK
6
CONTINUOUS
10
55.3649109999999993
20
-162.8338849999999809
11
55.2696729999999974
21
-163.024360999999999
0
LINE
8
BLACK
6
CONTINUOUS
10
55.2696729999999974
20
-163.024360999999999
11
55.1744349999999955
21
-163.1195999999999913
0
LINE
8
BLACK
6
CONTINUOUS
10
55.1744349999999955
20
-163.1195999999999913
11
54.9839589999999987
21
-163.2148379999999861
0
LINE
8
BLACK
6
CONTINUOUS
10
54.9839589999999987
20
-163.2148379999999861
11
54.6030060000000006
21
-163.2148379999999861
0
LINE
8
BLACK
6
CONTINUOUS
10
54.6030060000000006
20
-163.2148379999999861
11
54.4125299999999967
21
-163.1195999999999913
0
LINE
8
BLACK
6
CONTINUOUS
10
56.222054
20
-163.024360999999999
11
56.3172919999999948
21
-163.1195999999999913
0
LINE
8
BLACK
6
CONTINUOUS
10
56.3172919999999948
20
-163.1195999999999913
11
56.222054
21
-163.2148379999999861
0
LINE
8
BLACK
6
CONTINUOUS
10
56.222054
20
-163.2148379999999861
11
56.126815999999998
21
-163.1195999999999913
0
LINE
8
BLACK
6
CONTINUOUS
10
56.126815999999998
20
-163.1195999999999913
11
56.222054
21
-163.024360999999999
0
LINE
8
BLACK
6
CONTINUOUS
10
56.222054
20
-163.024360999999999
11
56.222054
21
-163.2148379999999861
0
LINE
8
BLACK
6
CONTINUOUS
10
56.222054
20
-161.9767420000000016
11
56.3172919999999948
21
-162.0719799999999964
0
LINE
8
BLACK
6
CONTINUOUS
10
56.3172919999999948
20
-162.0719799999999964
11
56.222054
21
-162.1672189999999887
0
LINE
8
BLACK
6
CONTINUOUS
10
56.222054
20
-162.1672189999999887
11
56.126815999999998
21
-162.0719799999999964
0
LINE
8
BLACK
6
CONTINUOUS
10
56.126815999999998
20
-162.0719799999999964
11
56.222054
21
-161.9767420000000016
0
LINE
8
BLACK
6
CONTINUOUS
10
56.222054
20
-161.9767420000000016
11
56.222054
21
-162.1672189999999887
  0
ENDSEC
  0
EOF
