M48
; DRILL file {KiCad 9.0.2} date 2025-12-18T11:39:44+0200
; FORMAT={-:-/ absolute / metric / decimal}
; #@! TF.CreationDate,2025-12-18T11:39:44+02:00
; #@! TF.GenerationSoftware,Kicad,Pcbnew,9.0.2
; #@! TF.FileFunction,Plated,1,2,PTH
FMAT,2
METRIC
; #@! TA.AperFunction,Plated,PTH,ViaDrill
T1C0.300
; #@! TA.AperFunction,Plated,PTH,ComponentDrill
T2C1.000
; #@! TA.AperFunction,Plated,PTH,ComponentDrill
T3C1.400
%
G90
G05
T1
X44.57Y-86.31
X48.18Y-86.904
X51.6Y-87.467
X55.04Y-87.88
X58.3Y-88.41
X61.64Y-88.98
X65.26Y-89.46
X68.9Y-90.06
X70.18Y-106.85
X72.22Y-90.77
X74.13Y-118.45
X75.54Y-91.182
X77.99Y-95.18
X78.4Y-91.53
X79.22Y-99.46
X81.34Y-118.25
X81.49Y-112.96
X82.76Y-90.97
X83.33Y-84.82
X83.42Y-100.95
X85.77Y-81.66
X86.19Y-155.41
X86.783Y-151.95
X87.374Y-148.85
X87.96Y-106.41
X87.98Y-83.82
X88.084Y-145.13
X88.57Y-97.73
X88.722Y-141.78
X89.375Y-138.36
X90.071Y-134.71
X90.704Y-131.39
X90.92Y-81.27
X90.93Y-87.84
X91.356Y-127.97
X91.44Y-92.04
X91.995Y-124.62
X92.55Y-121.71
X96.97Y-117.2
X98.87Y-77.1
X99.42Y-88.11
X100.13Y-118.74
X101.14Y-109.73
X104.48Y-76.95
X104.56Y-88.14
X104.85Y-122.95
X104.9Y-118.38
X106.85Y-117.69
X109.19Y-85.89
X109.44Y-113.08
X111.39Y-75.49
X111.91Y-80.72
X112.01Y-71.81
X112.53Y-68.29
X112.55Y-105.91
X113.01Y-65.06
X113.59Y-61.67
X114.14Y-58.16
X114.72Y-54.61
X115.2Y-51.02
X115.66Y-47.86
X115.84Y-108.55
X116.08Y-45.28
X116.2Y-85.89
X117.05Y-112.26
X118.72Y-103.93
X119.51Y-125.3
X119.53Y-117.81
X119.7Y-111.19
X121.9Y-105.6
X124.66Y-108.05
X126.11Y-117.42
X127.98Y-108.81
X131.46Y-109.45
X134.95Y-110.12
X138.5Y-110.7
X141.77Y-111.24
X145.43Y-112.03
X148.7Y-112.51
X152.27Y-113.17
X155.74Y-113.52
T2
X70.0Y-116.0
X72.2Y-114.73
X74.399Y-113.46
X76.599Y-112.19
X100.0Y-65.0
X100.0Y-67.54
X100.0Y-70.08
X100.0Y-72.62
X123.401Y-112.19
X125.601Y-113.46
X127.8Y-114.73
X130.0Y-116.0
T3
X87.58Y-101.95
X95.63Y-90.84
X98.24Y-110.02
X107.65Y-90.81
X108.19Y-107.07
M30
