G04 #@! TF.GenerationSoftware,KiCad,Pcbnew,9.0.2*
G04 #@! TF.CreationDate,2025-12-22T22:55:39+02:00*
G04 #@! TF.ProjectId,2ND_PCB,324e445f-5043-4422-9e6b-696361645f70,rev?*
G04 #@! TF.SameCoordinates,Original*
G04 #@! TF.FileFunction,Paste,Top*
G04 #@! TF.FilePolarity,Positive*
%FSLAX46Y46*%
G04 Gerber Fmt 4.6, Leading zero omitted, Abs format (unit mm)*
G04 Created by KiCad (PCBNEW 9.0.2) date 2025-12-22 22:55:39*
%MOMM*%
%LPD*%
G01*
G04 APERTURE LIST*
G04 Aperture macros list*
%AMRoundRect*
0 Rectangle with rounded corners*
0 $1 Rounding radius*
0 $2 $3 $4 $5 $6 $7 $8 $9 X,Y pos of 4 corners*
0 Add a 4 corners polygon primitive as box body*
4,1,4,$2,$3,$4,$5,$6,$7,$8,$9,$2,$3,0*
0 Add four circle primitives for the rounded corners*
1,1,$1+$1,$2,$3*
1,1,$1+$1,$4,$5*
1,1,$1+$1,$6,$7*
1,1,$1+$1,$8,$9*
0 Add four rect primitives between the rounded corners*
20,1,$1+$1,$2,$3,$4,$5,0*
20,1,$1+$1,$4,$5,$6,$7,0*
20,1,$1+$1,$6,$7,$8,$9,0*
20,1,$1+$1,$8,$9,$2,$3,0*%
%AMRotRect*
0 Rectangle, with rotation*
0 The origin of the aperture is its center*
0 $1 length*
0 $2 width*
0 $3 Rotation angle, in degrees counterclockwise*
0 Add horizontal line*
21,1,$1,$2,0,0,$3*%
G04 Aperture macros list end*
%ADD10RoundRect,0.250001X-0.944999X0.507499X-0.944999X-0.507499X0.944999X-0.507499X0.944999X0.507499X0*%
%ADD11RotRect,0.800000X0.500000X80.000000*%
%ADD12RotRect,1.000000X0.500000X170.000000*%
%ADD13RotRect,1.480000X0.500000X170.000000*%
%ADD14RoundRect,0.250001X0.944999X-0.507499X0.944999X0.507499X-0.944999X0.507499X-0.944999X-0.507499X0*%
%ADD15RotRect,0.800000X0.500000X260.000000*%
%ADD16RotRect,1.000000X0.500000X350.000000*%
%ADD17RotRect,1.480000X0.500000X350.000000*%
%ADD18RotRect,0.800000X0.500000X170.000000*%
%ADD19RotRect,1.000000X0.500000X260.000000*%
%ADD20RotRect,1.480000X0.500000X260.000000*%
%ADD21RotRect,0.800000X0.500000X350.000000*%
%ADD22RotRect,1.000000X0.500000X80.000000*%
%ADD23RotRect,1.480000X0.500000X80.000000*%
%ADD24RoundRect,0.250001X-0.507499X-0.944999X0.507499X-0.944999X0.507499X0.944999X-0.507499X0.944999X0*%
G04 APERTURE END LIST*
D10*
X104770000Y-80742500D03*
X104770000Y-83997500D03*
D11*
X93629626Y-132653245D03*
D12*
X93846164Y-131828314D03*
D11*
X94515953Y-132809529D03*
X95402280Y-132965812D03*
X95697482Y-131291639D03*
X94811155Y-131135355D03*
D13*
X95244591Y-132074894D03*
D11*
X93924828Y-130979072D03*
X91806320Y-142993726D03*
D12*
X92022858Y-142168795D03*
D11*
X92692647Y-143150010D03*
X93578974Y-143306293D03*
X93874176Y-141632120D03*
X92987849Y-141475836D03*
D13*
X93421285Y-142415375D03*
D11*
X92101522Y-141319553D03*
D14*
X115950000Y-100370000D03*
X115949998Y-97115000D03*
D15*
X109485147Y-53097903D03*
D16*
X109268609Y-53922834D03*
D15*
X108598820Y-52941619D03*
X107712493Y-52785336D03*
X107417291Y-54459509D03*
X108303618Y-54615793D03*
D17*
X107870182Y-53676254D03*
D15*
X109189945Y-54772076D03*
D18*
X157064041Y-110938622D03*
D19*
X156239110Y-110722084D03*
D18*
X157220325Y-110052295D03*
X157376608Y-109165968D03*
X155702435Y-108870766D03*
X155546151Y-109757093D03*
D20*
X156485690Y-109323657D03*
D18*
X155389868Y-110643420D03*
D15*
X107054072Y-66885211D03*
D16*
X106837534Y-67710142D03*
D15*
X106167745Y-66728927D03*
X105281418Y-66572644D03*
X104986216Y-68246817D03*
X105872543Y-68403101D03*
D17*
X105439107Y-67463562D03*
D15*
X106758870Y-68559384D03*
D18*
X126042598Y-105468704D03*
D19*
X125217667Y-105252166D03*
D18*
X126198882Y-104582377D03*
X126355165Y-103696050D03*
X124680992Y-103400848D03*
X124524708Y-104287175D03*
D20*
X125464247Y-103853739D03*
D18*
X124368425Y-105173502D03*
D15*
X107661841Y-63438384D03*
D16*
X107445303Y-64263315D03*
D15*
X106775514Y-63282100D03*
X105889187Y-63125817D03*
X105593985Y-64799990D03*
X106480312Y-64956274D03*
D17*
X106046876Y-64016735D03*
D15*
X107366639Y-65112557D03*
D18*
X132936251Y-106684241D03*
D19*
X132111320Y-106467703D03*
D18*
X133092535Y-105797914D03*
X133248818Y-104911587D03*
X131574645Y-104616385D03*
X131418361Y-105502712D03*
D20*
X132357900Y-105069276D03*
D18*
X131262078Y-106389039D03*
D21*
X64115314Y-92721485D03*
D22*
X64940245Y-92938023D03*
D21*
X63959030Y-93607812D03*
X63802747Y-94494139D03*
X65476920Y-94789341D03*
X65633204Y-93903014D03*
D23*
X64693665Y-94336450D03*
D21*
X65789487Y-93016687D03*
D11*
X89376411Y-156832011D03*
D12*
X89592949Y-156007080D03*
D11*
X90262738Y-156988295D03*
X91149065Y-157144578D03*
X91444267Y-155470405D03*
X90557940Y-155314121D03*
D13*
X90991376Y-156253660D03*
D11*
X89671613Y-155157838D03*
X94237394Y-129206417D03*
D12*
X94453932Y-128381486D03*
D11*
X95123721Y-129362701D03*
X96010048Y-129518984D03*
X96305250Y-127844811D03*
X95418923Y-127688527D03*
D13*
X95852359Y-128628066D03*
D11*
X94532596Y-127532244D03*
D15*
X110092916Y-49651076D03*
D16*
X109876378Y-50476007D03*
D15*
X109206589Y-49494792D03*
X108320262Y-49338509D03*
X108025060Y-51012682D03*
X108911387Y-51168966D03*
D17*
X108477951Y-50229427D03*
D15*
X109797714Y-51325249D03*
D11*
X92414088Y-139546899D03*
D12*
X92630626Y-138721968D03*
D11*
X93300415Y-139703183D03*
X94186742Y-139859466D03*
X94481944Y-138185293D03*
X93595617Y-138029009D03*
D13*
X94029053Y-138968548D03*
D11*
X92709290Y-137872726D03*
X93021857Y-136100072D03*
D12*
X93238395Y-135275141D03*
D11*
X93908184Y-136256356D03*
X94794511Y-136412639D03*
X95089713Y-134738466D03*
X94203386Y-134582182D03*
D13*
X94636822Y-135521721D03*
D11*
X93317059Y-134425899D03*
D21*
X71008968Y-93937022D03*
D22*
X71833899Y-94153560D03*
D21*
X70852684Y-94823349D03*
X70696401Y-95709676D03*
X72370574Y-96004878D03*
X72526858Y-95118551D03*
D23*
X71587319Y-95551987D03*
D21*
X72683141Y-94232224D03*
X74455795Y-94544791D03*
D22*
X75280726Y-94761329D03*
D21*
X74299511Y-95431118D03*
X74143228Y-96317445D03*
X75817401Y-96612647D03*
X75973685Y-95726320D03*
D23*
X75034146Y-96159756D03*
D21*
X76129968Y-94839993D03*
D11*
X94845163Y-125759590D03*
D12*
X95061701Y-124934659D03*
D11*
X95731490Y-125915874D03*
X96617817Y-126072157D03*
X96913019Y-124397984D03*
X96026692Y-124241700D03*
D13*
X96460128Y-125181239D03*
D11*
X95140365Y-124085417D03*
X90590783Y-149887379D03*
D12*
X90807321Y-149062448D03*
D11*
X91477110Y-150043663D03*
X92363437Y-150199946D03*
X92658639Y-148525773D03*
X91772312Y-148369489D03*
D13*
X92205748Y-149309028D03*
D11*
X90885985Y-148213206D03*
X89983014Y-153334207D03*
D12*
X90199552Y-152509276D03*
D11*
X90869341Y-153490491D03*
X91755668Y-153646774D03*
X92050870Y-151972601D03*
X91164543Y-151816317D03*
D13*
X91597979Y-152755856D03*
D11*
X90278216Y-151660034D03*
D15*
X110700684Y-46204249D03*
D16*
X110484146Y-47029180D03*
D15*
X109814357Y-46047965D03*
X108928030Y-45891682D03*
X108632828Y-47565855D03*
X109519155Y-47722139D03*
D17*
X109085719Y-46782600D03*
D15*
X110405482Y-47878422D03*
D18*
X143276733Y-108507547D03*
D19*
X142451802Y-108291009D03*
D18*
X143433017Y-107621220D03*
X143589300Y-106734893D03*
X141915127Y-106439691D03*
X141758843Y-107326018D03*
D20*
X142698382Y-106892582D03*
D18*
X141602560Y-108212345D03*
D15*
X105838535Y-73778866D03*
D16*
X105621997Y-74603797D03*
D15*
X104952208Y-73622582D03*
X104065881Y-73466299D03*
X103770679Y-75140472D03*
X104657006Y-75296756D03*
D17*
X104223570Y-74357217D03*
D15*
X105543333Y-75453039D03*
D24*
X81372500Y-96030000D03*
X84627500Y-96030000D03*
D18*
X146723560Y-109115316D03*
D19*
X145898629Y-108898778D03*
D18*
X146879844Y-108228989D03*
X147036127Y-107342662D03*
X145361954Y-107047460D03*
X145205670Y-107933787D03*
D20*
X146145209Y-107500351D03*
D18*
X145049387Y-108820114D03*
D21*
X50328006Y-90290411D03*
D22*
X51152937Y-90506949D03*
D21*
X50171722Y-91176738D03*
X50015439Y-92063065D03*
X51689612Y-92358267D03*
X51845896Y-91471940D03*
D23*
X50906357Y-91905376D03*
D21*
X52002179Y-90585613D03*
D15*
X108269610Y-59991556D03*
D16*
X108053072Y-60816487D03*
D15*
X107383283Y-59835272D03*
X106496956Y-59678989D03*
X106201754Y-61353162D03*
X107088081Y-61509446D03*
D17*
X106654645Y-60569907D03*
D15*
X107974408Y-61665729D03*
D21*
X46881178Y-89682642D03*
D22*
X47706109Y-89899180D03*
D21*
X46724894Y-90568969D03*
X46568611Y-91455296D03*
X48242784Y-91750498D03*
X48399068Y-90864171D03*
D23*
X47459529Y-91297607D03*
D21*
X48555351Y-89977844D03*
X53774833Y-90898179D03*
D22*
X54599764Y-91114717D03*
D21*
X53618549Y-91784506D03*
X53462266Y-92670833D03*
X55136439Y-92966035D03*
X55292723Y-92079708D03*
D23*
X54353184Y-92513144D03*
D21*
X55449006Y-91193381D03*
D15*
X106446304Y-70332039D03*
D16*
X106229766Y-71156970D03*
D15*
X105559977Y-70175755D03*
X104673650Y-70019472D03*
X104378448Y-71693645D03*
X105264775Y-71849929D03*
D17*
X104831339Y-70910390D03*
D15*
X106151102Y-72006212D03*
D11*
X91198551Y-146440552D03*
D12*
X91415089Y-145615621D03*
D11*
X92084878Y-146596836D03*
X92971205Y-146753119D03*
X93266407Y-145078946D03*
X92380080Y-144922662D03*
D13*
X92813516Y-145862201D03*
D11*
X91493753Y-144766379D03*
D14*
X87300000Y-121067500D03*
X87300000Y-117812500D03*
D15*
X111266538Y-42865069D03*
D16*
X111050000Y-43690000D03*
D15*
X110380211Y-42708785D03*
X109493884Y-42552502D03*
X109198682Y-44226675D03*
X110085009Y-44382959D03*
D17*
X109651573Y-43443420D03*
D15*
X110971336Y-44539242D03*
D21*
X60668488Y-92113717D03*
D22*
X61493419Y-92330255D03*
D21*
X60512204Y-93000044D03*
X60355921Y-93886371D03*
X62030094Y-94181573D03*
X62186378Y-93295246D03*
D23*
X61246839Y-93728682D03*
D21*
X62342661Y-92408919D03*
D18*
X153617215Y-110330853D03*
D19*
X152792284Y-110114315D03*
D18*
X153773499Y-109444526D03*
X153929782Y-108558199D03*
X152255609Y-108262997D03*
X152099325Y-109149324D03*
D20*
X153038864Y-108715888D03*
D18*
X151943042Y-110035651D03*
X150170388Y-109723084D03*
D19*
X149345457Y-109506546D03*
D18*
X150326672Y-108836757D03*
X150482955Y-107950430D03*
X148808782Y-107655228D03*
X148652498Y-108541555D03*
D20*
X149592037Y-108108119D03*
D18*
X148496215Y-109427882D03*
X136383078Y-107292010D03*
D19*
X135558147Y-107075472D03*
D18*
X136539362Y-106405683D03*
X136695645Y-105519356D03*
X135021472Y-105224154D03*
X134865188Y-106110481D03*
D20*
X135804727Y-105677045D03*
D18*
X134708905Y-106996808D03*
D21*
X43434351Y-89074873D03*
D22*
X44259282Y-89291411D03*
D21*
X43278067Y-89961200D03*
X43121784Y-90847527D03*
X44795957Y-91142729D03*
X44952241Y-90256402D03*
D23*
X44012702Y-90689838D03*
D21*
X45108524Y-89370075D03*
D15*
X108877378Y-56544730D03*
D16*
X108660840Y-57369661D03*
D15*
X107991051Y-56388446D03*
X107104724Y-56232163D03*
X106809522Y-57906336D03*
X107695849Y-58062620D03*
D17*
X107262413Y-57123081D03*
D15*
X108582176Y-58218903D03*
D18*
X139829905Y-107899778D03*
D19*
X139004974Y-107683240D03*
D18*
X139986189Y-107013451D03*
X140142472Y-106127124D03*
X138468299Y-105831922D03*
X138312015Y-106718249D03*
D20*
X139251554Y-106284813D03*
D18*
X138155732Y-107604576D03*
D21*
X57221661Y-91505948D03*
D22*
X58046592Y-91722486D03*
D21*
X57065377Y-92392275D03*
X56909094Y-93278602D03*
X58583267Y-93573804D03*
X58739551Y-92687477D03*
D23*
X57800012Y-93120913D03*
D21*
X58895834Y-91801150D03*
D18*
X129489425Y-106076472D03*
D19*
X128664494Y-105859934D03*
D18*
X129645709Y-105190145D03*
X129801992Y-104303818D03*
X128127819Y-104008616D03*
X127971535Y-104894943D03*
D20*
X128911074Y-104461507D03*
D18*
X127815252Y-105781270D03*
D21*
X67562141Y-93329253D03*
D22*
X68387072Y-93545791D03*
D21*
X67405857Y-94215580D03*
X67249574Y-95101907D03*
X68923747Y-95397109D03*
X69080031Y-94510782D03*
D23*
X68140492Y-94944218D03*
D21*
X69236314Y-93624455D03*
M02*
