G04 #@! TF.GenerationSoftware,KiCad,Pcbnew,9.0.2*
G04 #@! TF.CreationDate,2025-12-22T22:55:39+02:00*
G04 #@! TF.ProjectId,2ND_PCB,324e445f-5043-4422-9e6b-696361645f70,rev?*
G04 #@! TF.SameCoordinates,Original*
G04 #@! TF.FileFunction,Soldermask,Bot*
G04 #@! TF.FilePolarity,Negative*
%FSLAX46Y46*%
G04 Gerber Fmt 4.6, Leading zero omitted, Abs format (unit mm)*
G04 Created by KiCad (PCBNEW 9.0.2) date 2025-12-22 22:55:39*
%MOMM*%
%LPD*%
G01*
G04 APERTURE LIST*
G04 APERTURE END LIST*
G36*
X71161122Y-116311122D02*
G01*
X69688878Y-117161122D01*
X68838878Y-115688878D01*
X70311122Y-114838878D01*
X71161122Y-116311122D01*
G37*
G36*
X131161122Y-115688878D02*
G01*
X130311122Y-117161122D01*
X128838878Y-116311122D01*
X129688878Y-114838878D01*
X131161122Y-115688878D01*
G37*
G36*
X72446447Y-113916601D02*
G01*
X72600392Y-113980367D01*
X72738939Y-114072941D01*
X72856764Y-114190766D01*
X72949338Y-114329313D01*
X73013104Y-114483258D01*
X73045612Y-114646685D01*
X73045612Y-114813315D01*
X73013104Y-114976742D01*
X72949338Y-115130687D01*
X72856764Y-115269234D01*
X72738939Y-115387059D01*
X72600392Y-115479633D01*
X72446447Y-115543399D01*
X72283020Y-115575907D01*
X72116390Y-115575907D01*
X71952963Y-115543399D01*
X71799018Y-115479633D01*
X71660471Y-115387059D01*
X71542646Y-115269234D01*
X71450072Y-115130687D01*
X71386306Y-114976742D01*
X71353798Y-114813315D01*
X71353798Y-114646685D01*
X71386306Y-114483258D01*
X71450072Y-114329313D01*
X71542646Y-114190766D01*
X71660471Y-114072941D01*
X71799018Y-113980367D01*
X71952963Y-113916601D01*
X72116390Y-113884093D01*
X72283020Y-113884093D01*
X72446447Y-113916601D01*
G37*
G36*
X128047037Y-113916601D02*
G01*
X128200982Y-113980367D01*
X128339529Y-114072941D01*
X128457354Y-114190766D01*
X128549928Y-114329313D01*
X128613694Y-114483258D01*
X128646202Y-114646685D01*
X128646202Y-114813315D01*
X128613694Y-114976742D01*
X128549928Y-115130687D01*
X128457354Y-115269234D01*
X128339529Y-115387059D01*
X128200982Y-115479633D01*
X128047037Y-115543399D01*
X127883610Y-115575907D01*
X127716980Y-115575907D01*
X127553553Y-115543399D01*
X127399608Y-115479633D01*
X127261061Y-115387059D01*
X127143236Y-115269234D01*
X127050662Y-115130687D01*
X126986896Y-114976742D01*
X126954388Y-114813315D01*
X126954388Y-114646685D01*
X126986896Y-114483258D01*
X127050662Y-114329313D01*
X127143236Y-114190766D01*
X127261061Y-114072941D01*
X127399608Y-113980367D01*
X127553553Y-113916601D01*
X127716980Y-113884093D01*
X127883610Y-113884093D01*
X128047037Y-113916601D01*
G37*
G36*
X74646151Y-112646601D02*
G01*
X74800096Y-112710367D01*
X74938643Y-112802941D01*
X75056468Y-112920766D01*
X75149042Y-113059313D01*
X75212808Y-113213258D01*
X75245316Y-113376685D01*
X75245316Y-113543315D01*
X75212808Y-113706742D01*
X75149042Y-113860687D01*
X75056468Y-113999234D01*
X74938643Y-114117059D01*
X74800096Y-114209633D01*
X74646151Y-114273399D01*
X74482724Y-114305907D01*
X74316094Y-114305907D01*
X74152667Y-114273399D01*
X73998722Y-114209633D01*
X73860175Y-114117059D01*
X73742350Y-113999234D01*
X73649776Y-113860687D01*
X73586010Y-113706742D01*
X73553502Y-113543315D01*
X73553502Y-113376685D01*
X73586010Y-113213258D01*
X73649776Y-113059313D01*
X73742350Y-112920766D01*
X73860175Y-112802941D01*
X73998722Y-112710367D01*
X74152667Y-112646601D01*
X74316094Y-112614093D01*
X74482724Y-112614093D01*
X74646151Y-112646601D01*
G37*
G36*
X125847333Y-112646601D02*
G01*
X126001278Y-112710367D01*
X126139825Y-112802941D01*
X126257650Y-112920766D01*
X126350224Y-113059313D01*
X126413990Y-113213258D01*
X126446498Y-113376685D01*
X126446498Y-113543315D01*
X126413990Y-113706742D01*
X126350224Y-113860687D01*
X126257650Y-113999234D01*
X126139825Y-114117059D01*
X126001278Y-114209633D01*
X125847333Y-114273399D01*
X125683906Y-114305907D01*
X125517276Y-114305907D01*
X125353849Y-114273399D01*
X125199904Y-114209633D01*
X125061357Y-114117059D01*
X124943532Y-113999234D01*
X124850958Y-113860687D01*
X124787192Y-113706742D01*
X124754684Y-113543315D01*
X124754684Y-113376685D01*
X124787192Y-113213258D01*
X124850958Y-113059313D01*
X124943532Y-112920766D01*
X125061357Y-112802941D01*
X125199904Y-112710367D01*
X125353849Y-112646601D01*
X125517276Y-112614093D01*
X125683906Y-112614093D01*
X125847333Y-112646601D01*
G37*
G36*
X76845856Y-111376601D02*
G01*
X76999801Y-111440367D01*
X77138348Y-111532941D01*
X77256173Y-111650766D01*
X77348747Y-111789313D01*
X77412513Y-111943258D01*
X77445021Y-112106685D01*
X77445021Y-112273315D01*
X77412513Y-112436742D01*
X77348747Y-112590687D01*
X77256173Y-112729234D01*
X77138348Y-112847059D01*
X76999801Y-112939633D01*
X76845856Y-113003399D01*
X76682429Y-113035907D01*
X76515799Y-113035907D01*
X76352372Y-113003399D01*
X76198427Y-112939633D01*
X76059880Y-112847059D01*
X75942055Y-112729234D01*
X75849481Y-112590687D01*
X75785715Y-112436742D01*
X75753207Y-112273315D01*
X75753207Y-112106685D01*
X75785715Y-111943258D01*
X75849481Y-111789313D01*
X75942055Y-111650766D01*
X76059880Y-111532941D01*
X76198427Y-111440367D01*
X76352372Y-111376601D01*
X76515799Y-111344093D01*
X76682429Y-111344093D01*
X76845856Y-111376601D01*
G37*
G36*
X123647628Y-111376601D02*
G01*
X123801573Y-111440367D01*
X123940120Y-111532941D01*
X124057945Y-111650766D01*
X124150519Y-111789313D01*
X124214285Y-111943258D01*
X124246793Y-112106685D01*
X124246793Y-112273315D01*
X124214285Y-112436742D01*
X124150519Y-112590687D01*
X124057945Y-112729234D01*
X123940120Y-112847059D01*
X123801573Y-112939633D01*
X123647628Y-113003399D01*
X123484201Y-113035907D01*
X123317571Y-113035907D01*
X123154144Y-113003399D01*
X123000199Y-112939633D01*
X122861652Y-112847059D01*
X122743827Y-112729234D01*
X122651253Y-112590687D01*
X122587487Y-112436742D01*
X122554979Y-112273315D01*
X122554979Y-112106685D01*
X122587487Y-111943258D01*
X122651253Y-111789313D01*
X122743827Y-111650766D01*
X122861652Y-111532941D01*
X123000199Y-111440367D01*
X123154144Y-111376601D01*
X123317571Y-111344093D01*
X123484201Y-111344093D01*
X123647628Y-111376601D01*
G37*
G36*
X98566824Y-108658682D02*
G01*
X98775757Y-108726569D01*
X98971498Y-108826304D01*
X99149227Y-108955432D01*
X99304568Y-109110773D01*
X99433696Y-109288502D01*
X99533431Y-109484243D01*
X99601318Y-109693176D01*
X99635684Y-109910157D01*
X99635684Y-110129843D01*
X99601318Y-110346824D01*
X99533431Y-110555757D01*
X99433696Y-110751498D01*
X99304568Y-110929227D01*
X99149227Y-111084568D01*
X98971498Y-111213696D01*
X98775757Y-111313431D01*
X98566824Y-111381318D01*
X98349843Y-111415684D01*
X98130157Y-111415684D01*
X97913176Y-111381318D01*
X97704243Y-111313431D01*
X97508502Y-111213696D01*
X97330773Y-111084568D01*
X97175432Y-110929227D01*
X97046304Y-110751498D01*
X96946569Y-110555757D01*
X96878682Y-110346824D01*
X96844316Y-110129843D01*
X96844316Y-109910157D01*
X96878682Y-109693176D01*
X96946569Y-109484243D01*
X97046304Y-109288502D01*
X97175432Y-109110773D01*
X97330773Y-108955432D01*
X97508502Y-108826304D01*
X97704243Y-108726569D01*
X97913176Y-108658682D01*
X98130157Y-108624316D01*
X98349843Y-108624316D01*
X98566824Y-108658682D01*
G37*
G36*
X108516824Y-105708682D02*
G01*
X108725757Y-105776569D01*
X108921498Y-105876304D01*
X109099227Y-106005432D01*
X109254568Y-106160773D01*
X109383696Y-106338502D01*
X109483431Y-106534243D01*
X109551318Y-106743176D01*
X109585684Y-106960157D01*
X109585684Y-107179843D01*
X109551318Y-107396824D01*
X109483431Y-107605757D01*
X109383696Y-107801498D01*
X109254568Y-107979227D01*
X109099227Y-108134568D01*
X108921498Y-108263696D01*
X108725757Y-108363431D01*
X108516824Y-108431318D01*
X108299843Y-108465684D01*
X108080157Y-108465684D01*
X107863176Y-108431318D01*
X107654243Y-108363431D01*
X107458502Y-108263696D01*
X107280773Y-108134568D01*
X107125432Y-107979227D01*
X106996304Y-107801498D01*
X106896569Y-107605757D01*
X106828682Y-107396824D01*
X106794316Y-107179843D01*
X106794316Y-106960157D01*
X106828682Y-106743176D01*
X106896569Y-106534243D01*
X106996304Y-106338502D01*
X107125432Y-106160773D01*
X107280773Y-106005432D01*
X107458502Y-105876304D01*
X107654243Y-105776569D01*
X107863176Y-105708682D01*
X108080157Y-105674316D01*
X108299843Y-105674316D01*
X108516824Y-105708682D01*
G37*
G36*
X87906824Y-100588682D02*
G01*
X88115757Y-100656569D01*
X88311498Y-100756304D01*
X88489227Y-100885432D01*
X88644568Y-101040773D01*
X88773696Y-101218502D01*
X88873431Y-101414243D01*
X88941318Y-101623176D01*
X88975684Y-101840157D01*
X88975684Y-102059843D01*
X88941318Y-102276824D01*
X88873431Y-102485757D01*
X88773696Y-102681498D01*
X88644568Y-102859227D01*
X88489227Y-103014568D01*
X88311498Y-103143696D01*
X88115757Y-103243431D01*
X87906824Y-103311318D01*
X87689843Y-103345684D01*
X87470157Y-103345684D01*
X87253176Y-103311318D01*
X87044243Y-103243431D01*
X86848502Y-103143696D01*
X86670773Y-103014568D01*
X86515432Y-102859227D01*
X86386304Y-102681498D01*
X86286569Y-102485757D01*
X86218682Y-102276824D01*
X86184316Y-102059843D01*
X86184316Y-101840157D01*
X86218682Y-101623176D01*
X86286569Y-101414243D01*
X86386304Y-101218502D01*
X86515432Y-101040773D01*
X86670773Y-100885432D01*
X86848502Y-100756304D01*
X87044243Y-100656569D01*
X87253176Y-100588682D01*
X87470157Y-100554316D01*
X87689843Y-100554316D01*
X87906824Y-100588682D01*
G37*
G36*
X95956824Y-89478682D02*
G01*
X96165757Y-89546569D01*
X96361498Y-89646304D01*
X96539227Y-89775432D01*
X96694568Y-89930773D01*
X96823696Y-90108502D01*
X96923431Y-90304243D01*
X96991318Y-90513176D01*
X97025684Y-90730157D01*
X97025684Y-90949843D01*
X96991318Y-91166824D01*
X96923431Y-91375757D01*
X96823696Y-91571498D01*
X96694568Y-91749227D01*
X96539227Y-91904568D01*
X96361498Y-92033696D01*
X96165757Y-92133431D01*
X95956824Y-92201318D01*
X95739843Y-92235684D01*
X95520157Y-92235684D01*
X95303176Y-92201318D01*
X95094243Y-92133431D01*
X94898502Y-92033696D01*
X94720773Y-91904568D01*
X94565432Y-91749227D01*
X94436304Y-91571498D01*
X94336569Y-91375757D01*
X94268682Y-91166824D01*
X94234316Y-90949843D01*
X94234316Y-90730157D01*
X94268682Y-90513176D01*
X94336569Y-90304243D01*
X94436304Y-90108502D01*
X94565432Y-89930773D01*
X94720773Y-89775432D01*
X94898502Y-89646304D01*
X95094243Y-89546569D01*
X95303176Y-89478682D01*
X95520157Y-89444316D01*
X95739843Y-89444316D01*
X95956824Y-89478682D01*
G37*
G36*
X107976824Y-89448682D02*
G01*
X108185757Y-89516569D01*
X108381498Y-89616304D01*
X108559227Y-89745432D01*
X108714568Y-89900773D01*
X108843696Y-90078502D01*
X108943431Y-90274243D01*
X109011318Y-90483176D01*
X109045684Y-90700157D01*
X109045684Y-90919843D01*
X109011318Y-91136824D01*
X108943431Y-91345757D01*
X108843696Y-91541498D01*
X108714568Y-91719227D01*
X108559227Y-91874568D01*
X108381498Y-92003696D01*
X108185757Y-92103431D01*
X107976824Y-92171318D01*
X107759843Y-92205684D01*
X107540157Y-92205684D01*
X107323176Y-92171318D01*
X107114243Y-92103431D01*
X106918502Y-92003696D01*
X106740773Y-91874568D01*
X106585432Y-91719227D01*
X106456304Y-91541498D01*
X106356569Y-91345757D01*
X106288682Y-91136824D01*
X106254316Y-90919843D01*
X106254316Y-90700157D01*
X106288682Y-90483176D01*
X106356569Y-90274243D01*
X106456304Y-90078502D01*
X106585432Y-89900773D01*
X106740773Y-89745432D01*
X106918502Y-89616304D01*
X107114243Y-89516569D01*
X107323176Y-89448682D01*
X107540157Y-89414316D01*
X107759843Y-89414316D01*
X107976824Y-89448682D01*
G37*
G36*
X100246742Y-71806601D02*
G01*
X100400687Y-71870367D01*
X100539234Y-71962941D01*
X100657059Y-72080766D01*
X100749633Y-72219313D01*
X100813399Y-72373258D01*
X100845907Y-72536685D01*
X100845907Y-72703315D01*
X100813399Y-72866742D01*
X100749633Y-73020687D01*
X100657059Y-73159234D01*
X100539234Y-73277059D01*
X100400687Y-73369633D01*
X100246742Y-73433399D01*
X100083315Y-73465907D01*
X99916685Y-73465907D01*
X99753258Y-73433399D01*
X99599313Y-73369633D01*
X99460766Y-73277059D01*
X99342941Y-73159234D01*
X99250367Y-73020687D01*
X99186601Y-72866742D01*
X99154093Y-72703315D01*
X99154093Y-72536685D01*
X99186601Y-72373258D01*
X99250367Y-72219313D01*
X99342941Y-72080766D01*
X99460766Y-71962941D01*
X99599313Y-71870367D01*
X99753258Y-71806601D01*
X99916685Y-71774093D01*
X100083315Y-71774093D01*
X100246742Y-71806601D01*
G37*
G36*
X100246742Y-69266601D02*
G01*
X100400687Y-69330367D01*
X100539234Y-69422941D01*
X100657059Y-69540766D01*
X100749633Y-69679313D01*
X100813399Y-69833258D01*
X100845907Y-69996685D01*
X100845907Y-70163315D01*
X100813399Y-70326742D01*
X100749633Y-70480687D01*
X100657059Y-70619234D01*
X100539234Y-70737059D01*
X100400687Y-70829633D01*
X100246742Y-70893399D01*
X100083315Y-70925907D01*
X99916685Y-70925907D01*
X99753258Y-70893399D01*
X99599313Y-70829633D01*
X99460766Y-70737059D01*
X99342941Y-70619234D01*
X99250367Y-70480687D01*
X99186601Y-70326742D01*
X99154093Y-70163315D01*
X99154093Y-69996685D01*
X99186601Y-69833258D01*
X99250367Y-69679313D01*
X99342941Y-69540766D01*
X99460766Y-69422941D01*
X99599313Y-69330367D01*
X99753258Y-69266601D01*
X99916685Y-69234093D01*
X100083315Y-69234093D01*
X100246742Y-69266601D01*
G37*
G36*
X100246742Y-66726601D02*
G01*
X100400687Y-66790367D01*
X100539234Y-66882941D01*
X100657059Y-67000766D01*
X100749633Y-67139313D01*
X100813399Y-67293258D01*
X100845907Y-67456685D01*
X100845907Y-67623315D01*
X100813399Y-67786742D01*
X100749633Y-67940687D01*
X100657059Y-68079234D01*
X100539234Y-68197059D01*
X100400687Y-68289633D01*
X100246742Y-68353399D01*
X100083315Y-68385907D01*
X99916685Y-68385907D01*
X99753258Y-68353399D01*
X99599313Y-68289633D01*
X99460766Y-68197059D01*
X99342941Y-68079234D01*
X99250367Y-67940687D01*
X99186601Y-67786742D01*
X99154093Y-67623315D01*
X99154093Y-67456685D01*
X99186601Y-67293258D01*
X99250367Y-67139313D01*
X99342941Y-67000766D01*
X99460766Y-66882941D01*
X99599313Y-66790367D01*
X99753258Y-66726601D01*
X99916685Y-66694093D01*
X100083315Y-66694093D01*
X100246742Y-66726601D01*
G37*
G36*
X100850000Y-65850000D02*
G01*
X99150000Y-65850000D01*
X99150000Y-64150000D01*
X100850000Y-64150000D01*
X100850000Y-65850000D01*
G37*
M02*
