%TF.GenerationSoftware,KiCad,Pcbnew,9.0.2*%
%TF.CreationDate,2025-12-20T23:42:01+02:00*%
%TF.ProjectId,2ND_PCB,324e445f-5043-4422-9e6b-696361645f70,rev?*%
%TF.SameCoordinates,Original*%
%TF.FileFunction,Plated,1,2,PTH,Drill*%
%TF.FilePolarity,Positive*%
%FSLAX46Y46*%
G04 Gerber Fmt 4.6, Leading zero omitted, Abs format (unit mm)*
G04 Created by KiCad (PCBNEW 9.0.2) date 2025-12-20 23:42:01*
%MOMM*%
%LPD*%
G01*
G04 APERTURE LIST*
%TA.AperFunction,ViaDrill*%
%ADD10C,0.300000*%
%TD*%
%TA.AperFunction,ComponentDrill*%
%ADD11C,1.000000*%
%TD*%
%TA.AperFunction,ComponentDrill*%
%ADD12C,1.400000*%
%TD*%
G04 APERTURE END LIST*
D10*
X44570000Y-86310000D03*
X48180000Y-86903951D03*
X51600000Y-87466641D03*
X55040000Y-87880000D03*
X58300000Y-88410000D03*
X61640000Y-88980000D03*
X65260000Y-89460000D03*
X68900000Y-90060000D03*
X70180000Y-106850000D03*
X72220000Y-90770000D03*
X74130000Y-118450000D03*
X75540000Y-91181989D03*
X77990000Y-95180000D03*
X78400000Y-91530000D03*
X79220000Y-99460000D03*
X81340000Y-118250000D03*
X81490000Y-112960000D03*
X82760000Y-90970000D03*
X83330000Y-84820000D03*
X83420000Y-100950000D03*
X85770000Y-81660000D03*
X86190000Y-155410000D03*
X86782850Y-151950000D03*
X87374060Y-148850000D03*
X87960000Y-106410000D03*
X88083511Y-145130000D03*
X88570000Y-97730000D03*
X88722398Y-141780000D03*
X89374635Y-138360000D03*
X90070736Y-134710000D03*
X90703902Y-131390000D03*
X90920000Y-81270000D03*
X91170000Y-90210000D03*
X91356139Y-127970000D03*
X91995026Y-124620000D03*
X92550000Y-121710000D03*
X96970000Y-117200000D03*
X98870000Y-77100000D03*
X99420000Y-88110000D03*
X100130000Y-118740000D03*
X101140000Y-109730000D03*
X104310000Y-77040000D03*
X104850000Y-122950000D03*
X105910000Y-87460000D03*
X106850000Y-117690000D03*
X109440000Y-113080000D03*
X111390000Y-75490000D03*
X111910000Y-80720000D03*
X112010000Y-71810000D03*
X112530000Y-68290000D03*
X112550000Y-105910000D03*
X113010000Y-65060000D03*
X113590000Y-61670000D03*
X114140000Y-58160000D03*
X114720000Y-54610000D03*
X115200000Y-51020000D03*
X115660000Y-47860000D03*
X115840000Y-108550000D03*
X116080000Y-45280000D03*
X116200000Y-85890000D03*
X117610000Y-116300000D03*
X118720000Y-103930000D03*
X119510000Y-125300000D03*
X119700000Y-111190000D03*
X121900000Y-105600000D03*
X124660000Y-108050000D03*
X126110000Y-117420000D03*
X127980000Y-108810000D03*
X131460000Y-109450000D03*
X134950000Y-110120000D03*
X138500000Y-110700000D03*
X141770000Y-111240000D03*
X145430000Y-112030000D03*
X148700000Y-112510000D03*
X152270000Y-113170000D03*
X155740000Y-113520000D03*
D11*
%TO.C,J2*%
X70000000Y-116000000D03*
X72199705Y-114730000D03*
X74399409Y-113460000D03*
X76599114Y-112190000D03*
%TO.C,J1*%
X100000000Y-65000000D03*
X100000000Y-67540000D03*
X100000000Y-70080000D03*
X100000000Y-72620000D03*
%TO.C,J3*%
X123400886Y-112190000D03*
X125600591Y-113460000D03*
X127800295Y-114730000D03*
X130000000Y-116000000D03*
D12*
%TO.C,TP5*%
X87580000Y-101950000D03*
%TO.C,TP4*%
X95630000Y-90840000D03*
%TO.C,TP1*%
X98240000Y-110020000D03*
%TO.C,TP3*%
X107650000Y-90810000D03*
%TO.C,TP2*%
X108190000Y-107070000D03*
M02*
